<svg width="674" height="674" viewBox="0 0 674 674" fill="none" xmlns="http://www.w3.org/2000/svg">
<path d="M389.235 448.007C389.253 447.943 389.258 447.876 389.249 447.81C389.241 447.744 389.22 447.68 389.187 447.622C389.154 447.565 389.11 447.514 389.058 447.473C389.005 447.432 388.945 447.402 388.881 447.384C388.817 447.366 388.75 447.361 388.684 447.37C388.618 447.378 388.554 447.399 388.496 447.432C388.438 447.465 388.387 447.509 388.346 447.561C388.306 447.614 388.275 447.674 388.258 447.738C386.433 455.094 387.012 462.841 389.909 469.845C390.111 470.283 390.785 469.845 390.684 469.508C388.418 462.574 387.92 455.183 389.235 448.007ZM411.915 446.996C412.353 447.401 413.128 446.996 412.791 446.322C410.994 444.022 408.56 442.3 405.791 441.371C403.023 440.443 400.043 440.348 397.222 441.099C396.818 441.099 397.053 441.941 397.458 441.874C400.098 441.581 402.77 441.889 405.274 442.777C407.778 443.664 410.048 445.106 411.915 446.996Z" fill="#1A1A1A"/>
<path d="M395.166 437.46C393.701 436.044 391.801 435.165 389.774 434.966C390.221 427.948 391.65 421.029 394.02 414.409C394.29 413.87 393.312 413.431 393.043 413.971C390.141 420.54 388.659 427.649 388.696 434.831C388.696 434.831 383.539 435.202 381.956 437.122C381.319 437.987 381.008 439.05 381.079 440.122C376.449 437.805 371.28 436.781 366.117 437.156C365.974 437.156 365.836 437.213 365.735 437.314C365.634 437.415 365.577 437.552 365.577 437.695C365.577 437.838 365.634 437.976 365.735 438.077C365.836 438.178 365.974 438.235 366.117 438.235C371.308 438.334 376.436 439.384 381.248 441.335C381.617 442.775 382.389 444.08 383.473 445.097C384.558 446.114 385.91 446.801 387.371 447.077C388.832 447.353 390.341 447.207 391.722 446.655C393.102 446.104 394.297 445.17 395.166 443.964C395.166 443.964 397.66 439.987 395.166 437.46ZM382.967 438.1C383.674 436.449 386.067 436.044 387.853 436.01C389.975 435.922 392.068 436.525 393.818 437.729C394.593 438.336 395.537 439.145 395.368 440.122C393.582 450.198 379.866 445.581 382.967 438.1ZM90.9898 446.592C90.2707 451.62 91.0686 456.748 93.2814 461.319C93.551 461.724 94.2587 461.319 94.0902 460.982C92.2541 456.41 91.5713 451.457 92.1019 446.558C92.4052 446.558 100.156 446.019 100.122 438.841C103.97 437.792 108.011 437.665 111.917 438.471C112.027 438.495 112.141 438.476 112.238 438.419C112.334 438.361 112.404 438.269 112.434 438.161C112.465 438.053 112.452 437.938 112.4 437.839C112.348 437.739 112.259 437.664 112.153 437.628C108.179 436.362 103.894 436.469 99.9877 437.931C99.6844 437.122 97.2243 433.719 90.518 434.561C89.1231 431.837 88.7642 428.699 89.508 425.731C90.2517 422.762 92.0475 420.164 94.562 418.419C95.0675 418.015 94.562 417.24 94.0902 417.577C91.2764 419.314 89.2232 422.05 88.342 425.238C87.4608 428.425 87.8167 431.828 89.3385 434.763C84.0139 436.044 83.5421 438.673 83.2725 439.583C78.7383 439.309 74.2007 440.058 69.9947 441.773C69.8919 441.836 69.8182 441.937 69.7897 442.053C69.7613 442.17 69.7805 442.294 69.843 442.397C69.9056 442.499 70.0064 442.573 70.1233 442.602C70.2403 442.63 70.3637 442.611 70.4665 442.548C74.5806 441.439 78.8109 440.816 83.0703 440.695C83.1708 441.616 83.4602 442.506 83.9204 443.311C84.3806 444.115 85.0017 444.816 85.7449 445.369C86.4881 445.923 87.3375 446.317 88.2399 446.527C89.1423 446.738 90.0784 446.76 90.9898 446.592ZM85.1934 438.471C88.5634 434.224 99.2126 434.528 99.2126 439.246C98.8756 445.211 90.4506 446.693 86.2044 444.065C85.3402 443.452 84.7389 442.535 84.5203 441.498C84.3017 440.462 84.4819 439.38 85.0249 438.471H85.1934ZM280.889 149.459C280.88 149.371 280.851 149.286 280.805 149.21C280.759 149.135 280.696 149.07 280.623 149.021C280.549 148.972 280.465 148.939 280.377 148.926C280.29 148.913 280.2 148.919 280.115 148.944C280.03 148.969 279.952 149.012 279.885 149.071C279.819 149.129 279.766 149.202 279.73 149.283C279.695 149.364 279.678 149.453 279.68 149.541C279.682 149.63 279.704 149.717 279.743 149.796C279.946 150.403 281.024 153.402 281.125 153.604C281.204 153.701 281.312 153.769 281.433 153.798C281.554 153.827 281.682 153.816 281.796 153.767C281.91 153.717 282.005 153.632 282.067 153.524C282.128 153.415 282.152 153.29 282.136 153.166C282.102 152.964 281.125 150.066 280.889 149.459ZM264.713 155.02C264.682 154.896 264.611 154.785 264.51 154.706C264.409 154.628 264.285 154.585 264.157 154.585C264.029 154.585 263.905 154.628 263.804 154.706C263.703 154.785 263.632 154.896 263.601 155.02C263.449 155.805 263.457 156.613 263.625 157.394C263.793 158.176 264.117 158.916 264.578 159.569C264.649 159.615 264.729 159.643 264.813 159.65C264.896 159.657 264.98 159.643 265.057 159.61C265.134 159.577 265.201 159.525 265.253 159.459C265.305 159.393 265.339 159.315 265.354 159.232C264.918 157.871 264.702 156.449 264.713 155.02ZM161.529 283.08C170.459 283.956 179.39 284.933 188.32 285.809C188.758 285.809 188.994 285.371 188.927 285.034C181.445 249.75 183.13 244.594 181.546 244.594C171.899 245.474 162.174 244.895 152.699 242.876C152.606 242.847 152.506 242.844 152.411 242.868C152.315 242.891 152.229 242.94 152.159 243.01C152.09 243.079 152.041 243.166 152.017 243.261C151.994 243.356 151.996 243.456 152.025 243.55C155.833 256.12 160.855 282.878 161.529 283.08ZM153.373 244.089C162.467 245.979 171.785 246.546 181.041 245.774C182.692 258.715 184.916 271.554 187.545 284.36L161.697 281.631C159.768 268.944 156.987 256.402 153.373 244.089ZM228.755 339.898C229.497 352.502 230.07 365.173 231.081 377.777C231.013 377.864 230.971 377.967 230.957 378.077C230.944 378.186 230.961 378.297 231.006 378.397C231.051 378.497 231.123 378.584 231.213 378.647C231.303 378.71 231.409 378.747 231.519 378.754C239.876 379.506 248.27 379.787 256.659 379.597C256.741 379.601 256.824 379.589 256.901 379.56C256.979 379.532 257.05 379.488 257.11 379.431C257.17 379.375 257.218 379.306 257.25 379.23C257.283 379.154 257.299 379.073 257.299 378.99L255.378 340.976C255.37 340.804 255.295 340.641 255.169 340.521C255.044 340.402 254.877 340.336 254.704 340.336L229.396 339.258C229.31 339.253 229.225 339.266 229.145 339.296C229.065 339.327 228.993 339.374 228.932 339.434C228.872 339.495 228.825 339.567 228.794 339.647C228.764 339.727 228.75 339.813 228.755 339.898ZM255.169 340.976C255.81 353.243 255.345 366.117 255.985 378.383C247.944 378.552 239.901 378.282 231.889 377.575C231.485 365.24 230.643 352.906 230.07 340.505L255.169 340.976ZM94.5283 298.11C87.4522 298.439 80.4501 299.697 73.7017 301.851C72.1178 302.356 66.6584 303.367 66.254 305.49C65.8496 307.613 68.5119 307.546 69.9273 307.445C78.3468 306.86 86.6467 305.125 94.5957 302.289C95.3702 302.071 96.0848 301.679 96.6851 301.143C96.9836 300.866 97.1843 300.499 97.2572 300.098C97.3301 299.697 97.2712 299.283 97.0895 298.919C96.584 298.144 95.4719 298.076 94.5283 298.11Z" fill="#1A1A1A"/>
<path d="M153.373 244.089C162.467 245.979 171.785 246.546 181.041 245.774C182.692 258.715 184.916 271.554 187.545 284.36L161.697 281.631C159.768 268.944 156.987 256.402 153.373 244.089Z" fill="#1A1A1A"/>
<path d="M382.967 438.1C383.674 436.449 386.067 436.044 387.853 436.01C389.975 435.922 392.068 436.525 393.818 437.729C394.593 438.336 395.537 439.145 395.368 440.122C393.582 450.198 379.866 445.581 382.967 438.1Z" fill="#1A1A1A"/>
<path d="M85.1934 438.471C88.5634 434.224 99.2126 434.528 99.2126 439.246C98.8756 445.211 90.4506 446.693 86.2044 444.065C85.3402 443.452 84.7389 442.535 84.5203 441.498C84.3017 440.462 84.4819 439.38 85.0249 438.471H85.1934Z" fill="#1A1A1A"/>
<path d="M255.169 340.976C255.81 353.243 255.345 366.117 255.985 378.383C247.944 378.552 239.901 378.282 231.889 377.575C231.485 365.24 230.643 352.906 230.07 340.505L255.169 340.976Z" fill="#1A1A1A"/>
<path d="M622.709 194.82C614.182 172.578 562.251 30.8693 557.331 17.6926C557.017 17.2689 556.563 16.9703 556.05 16.8501C546.378 16.8501 487.1 18.2318 481.674 18.6362C481 18.6362 430.079 184.137 427.114 194.854C427.114 195.191 427.653 203.447 427.889 204.155C428.125 204.862 428.866 204.728 428.967 204.155C429.068 203.582 428.529 196.606 428.496 196.269C430.753 196.505 433.045 196.707 435.236 196.876C434.605 200.363 434.849 203.952 435.943 207.323C436.001 207.428 436.093 207.511 436.204 207.558C436.315 207.605 436.438 207.614 436.554 207.583C436.67 207.552 436.773 207.483 436.845 207.387C436.918 207.291 436.956 207.173 436.954 207.053C436.127 203.751 435.876 200.33 436.213 196.943C439.819 197.28 443.458 197.55 447.098 197.819C446.645 201.821 447.142 205.873 448.547 209.648C448.603 209.746 448.691 209.822 448.795 209.865C448.9 209.907 449.016 209.913 449.124 209.882C449.233 209.851 449.328 209.785 449.394 209.693C449.461 209.602 449.495 209.491 449.491 209.378C448.498 205.632 448.055 201.761 448.176 197.887C451.951 198.156 455.759 198.392 459.567 198.594V209.21C459.608 209.329 459.686 209.432 459.788 209.505C459.891 209.578 460.014 209.617 460.14 209.617C460.266 209.617 460.389 209.578 460.491 209.505C460.594 209.432 460.671 209.329 460.713 209.21V198.662L471.396 199.201C471.396 200.852 471.396 208.772 471.632 209.311C471.67 209.414 471.739 209.503 471.829 209.566C471.92 209.629 472.027 209.662 472.137 209.662C472.247 209.662 472.355 209.629 472.445 209.566C472.535 209.503 472.604 209.414 472.643 209.311C472.731 205.938 472.641 202.564 472.373 199.201C476.585 199.369 480.764 199.538 484.977 199.639C485.049 203.022 485.319 206.398 485.785 209.749C485.785 210.322 486.763 210.153 486.797 209.749C486.761 206.369 486.536 202.994 486.123 199.639C490.605 199.639 495.087 199.841 499.603 199.875C499.603 199.875 499.198 207.862 499.299 209.378C499.299 209.917 500.209 210.12 500.276 209.378C500.512 207.862 500.782 199.841 500.715 199.74H511.768V208.3C511.807 208.403 511.875 208.492 511.966 208.555C512.056 208.618 512.164 208.651 512.274 208.651C512.384 208.651 512.491 208.618 512.582 208.555C512.672 208.492 512.741 208.403 512.779 208.3C512.93 205.449 512.93 202.591 512.779 199.74H514.094C513.622 223.667 512.543 267.747 512.543 271.892C511.027 271.892 423.339 271.656 416.633 271.892C408.309 251.402 394.492 229.733 376.193 217.972C359.297 207.555 339.796 202.134 319.948 202.335C319.948 202.335 314.387 186.429 313.814 184.272C315.366 178.693 316.326 172.966 316.679 167.186C317.741 156.244 318.202 145.253 318.061 134.261C318.061 124.151 318.297 115.692 307.951 111.143C307.593 110.51 307.406 109.796 307.406 109.07C307.406 108.344 307.593 107.63 307.951 106.998C305.371 107.112 302.864 107.89 300.671 109.256C300.16 106.828 298.917 104.615 297.109 102.916C295.301 101.217 293.016 100.112 290.561 99.7521C291.466 100.298 292.193 101.095 292.654 102.046C293.114 102.998 293.289 104.062 293.156 105.11C274.318 93.6524 269.566 116.434 260.299 115.22C258.068 114.631 256.157 113.191 254.974 111.21C254.101 112.656 253.669 114.324 253.728 116.012C253.788 117.7 254.338 119.333 255.311 120.714C254.336 120.447 253.424 119.987 252.631 119.36C251.838 118.733 251.18 117.953 250.695 117.066C250.21 116.178 249.91 115.203 249.811 114.196C249.713 113.19 249.818 112.175 250.121 111.21C247.623 112.395 245.559 114.332 244.217 116.749C242.876 119.167 242.324 121.943 242.64 124.69C243.003 126.845 243.87 128.884 245.17 130.641C246.47 132.398 248.167 133.823 250.121 134.8C247.731 135.306 245.24 134.997 243.044 133.924C245.292 137.646 248.703 140.524 252.75 142.113C253.142 151.132 254.939 160.035 258.075 168.5C256.437 173.688 256.136 179.206 257.198 184.541C259.49 202.503 276.34 209.446 293.19 203.649C291.943 206.514 288.641 206.716 285.776 207.356C281.714 208.244 277.708 209.369 273.779 210.726C265.984 213.865 258.623 217.988 251.874 222.993C186.698 224.712 153.841 222.69 144.472 221.982C151.448 217.163 159.064 209.109 156.503 200.987C155.164 197.052 153.095 193.404 150.403 190.237C138.844 176.116 119.77 174.229 104.2 167.894C102.515 167.186 86.1372 159.064 84.3174 152.088C84.0072 151.098 84.009 150.037 84.3225 149.049C84.636 148.06 85.246 147.192 86.0698 146.561C86.5753 146.258 86.4405 145.281 85.7665 145.348C82.2066 145.686 78.8222 147.054 76.0272 149.285C73.2322 151.515 71.1478 154.512 70.0288 157.908C68.9098 161.305 68.8047 164.953 69.7263 168.409C70.648 171.864 72.5565 174.975 75.2184 177.363C80.4756 182.418 87.4515 184.912 93.5849 188.619C99.7183 192.326 105.852 197.785 105.548 205.469C105.245 213.153 98.5725 219.556 91.7988 222.757C84.3848 226.127 76.162 227.441 68.5795 230.508C54.5603 236.203 50.6848 247.358 52.7742 254.57C53.886 257.807 56.1543 260.519 59.1435 262.186C65.8835 266.264 75.6565 265.556 80.7789 272.296C82.0666 273.792 82.7831 275.696 82.8016 277.67C82.8201 279.643 82.1394 281.56 80.88 283.08C78.4536 286.113 68.5121 292.145 67.4 293.19C67.0293 293.628 67.6359 294.269 68.0403 293.83C72.7396 291.587 77.8117 290.227 83.0031 289.82C91.2259 288.438 114.007 280.148 117.916 273.172C118.683 271.986 118.95 270.545 118.659 269.163C118.369 267.781 117.545 266.57 116.366 265.792C114.816 264.68 108.851 265.287 105.987 261.007C100.392 252.716 107.672 243.348 114.378 238.36C120.17 234.467 126.347 231.181 132.812 228.554C140.091 248.774 154.312 298.009 155.323 301.885C152.83 302.222 133.654 304.985 130.958 305.255C128.262 305.524 117.748 302.828 115.962 304.042C112.02 302.149 107.553 301.65 103.291 302.626C102.444 299.563 101.316 296.585 99.9205 293.729C78.2851 293.729 65.2432 300.739 59.7501 304.985C59.5479 304.985 59.7501 305.727 59.7501 305.828C61.671 313.208 70.9385 346.268 72.2528 349.941C72.2528 350.143 95.0677 357.692 112.693 341.415C112.693 341.415 111.884 336.326 111.749 333.967C114.717 333.686 117.496 332.383 119.61 330.281C121.724 328.179 123.043 325.408 123.342 322.442C136.46 323.766 149.438 326.224 162.131 329.788C163.984 337.91 170.589 372.722 172.241 381.922C168.931 381.929 165.683 382.825 162.838 384.517C162.468 384.753 79.4309 388.662 71.8484 392.538C65.2685 395.43 59.8632 400.467 56.5149 406.827C53.6329 413.424 52.5851 420.678 53.4819 427.822C55.3017 444.672 65.2432 459.163 73.2638 473.687C79.6331 485.28 78.2851 506.478 78.6221 511.263C71.0733 507.253 52.2687 509.544 52.1676 509.612C51.6794 510.057 51.3822 510.674 51.3382 511.333C51.2942 511.993 51.5069 512.644 51.9317 513.15C60.0158 523.508 69.4972 532.694 80.1049 540.447C80.6104 554.77 80.4082 592.952 80.1049 597.737C80.1049 599.961 79.0602 608.454 79.2624 610.476C79.3741 612.083 79.8898 613.636 80.7617 614.991C81.6336 616.346 82.8335 617.459 84.25 618.227C89.0017 620.586 88.9343 619.777 186.159 617.789C186.159 619.44 186.361 621.159 186.428 622.675H194.415V635.582C194.179 635.38 192.124 634.403 191.349 634.706C187.219 636.339 183.249 638.347 179.486 640.705C168.399 647.445 166.95 653.106 166.95 653.207C166.87 653.843 167.034 654.485 167.409 655.005C167.784 655.524 168.343 655.881 168.972 656.004C179.082 657.959 213.22 656.611 216.59 656.004C218.545 655.6 218.747 653.78 218.646 651.826C218.615 651.267 218.394 650.735 218.021 650.319C217.647 649.902 217.142 649.625 216.59 649.534C218.545 645.389 215.815 640.334 213.22 636.627C210.625 632.92 211.703 624.326 211.737 623.585C214.905 623.821 218.073 624.057 221.274 624.36C221.444 621.85 221.827 619.358 222.42 616.912C242.725 616.561 262.987 614.906 283.08 611.958C283.08 611.958 285.574 598.479 286.45 591.738C291.64 591.738 332.619 591.738 347.919 591.469C348.357 595.378 351.087 618.429 351.289 618.429C366.016 624.663 384.989 626.112 400.862 625.641C401.502 625.641 434.056 623.652 453.771 620.316C463.107 618.912 472.536 618.213 481.977 618.227C476.99 621.394 458.387 632.246 454.411 634.908C454.277 635.108 454.206 635.342 454.206 635.582C454.206 635.822 454.277 636.057 454.411 636.256C472.676 646.568 502.669 645.591 525.72 645.591C535.325 645.591 548.468 646.231 563.902 639.491C567.272 638.042 574.652 634.436 573.17 631.033C572.934 630.628 539.234 612.262 532.932 608.454C529.831 583.651 527.675 559.386 532.696 529.966C534.145 521.474 540.851 495.019 558.308 459.196C567.845 439.751 565.621 417.543 555.915 403.389C554.245 400.818 552.161 398.54 549.748 396.649C546.223 394.904 542.429 393.765 538.526 393.279C544.828 366.319 549.815 336.629 549.344 309.029C549.7 300.689 547.889 292.399 544.087 284.967C540.177 278.227 532.864 272.599 524.776 273.24C524.979 252.784 525.248 205.233 525.248 199.706H527.001V209.041C527.04 209.152 527.114 209.248 527.21 209.316C527.307 209.384 527.422 209.421 527.54 209.421C527.658 209.421 527.773 209.384 527.869 209.316C527.966 209.248 528.039 209.152 528.079 209.041C528.247 208.232 528.281 201.122 528.079 199.673H537.582C537.615 202.523 537.806 205.37 538.155 208.199C538.183 208.298 538.242 208.386 538.324 208.449C538.406 208.512 538.507 208.546 538.61 208.546C538.714 208.546 538.814 208.512 538.896 208.449C538.979 208.386 539.038 208.298 539.065 208.199C539.019 205.388 538.771 202.583 538.324 199.807L548.434 199.504C548.058 202.561 548.61 205.661 550.018 208.401C550.254 208.704 550.86 208.671 550.827 208.199C549.937 205.39 549.538 202.449 549.647 199.504L562.79 198.83C562.79 198.83 562.554 206.109 562.79 206.817C562.831 206.936 562.909 207.039 563.011 207.112C563.114 207.185 563.237 207.224 563.363 207.224C563.489 207.224 563.612 207.185 563.714 207.112C563.817 207.039 563.894 206.936 563.936 206.817V198.796L573.742 198.392C572.864 201.675 573.138 205.16 574.518 208.266C574.787 208.839 575.663 208.266 575.495 207.862C574.501 204.784 574.269 201.511 574.821 198.325L586.919 197.718C586.749 200.726 586.749 203.742 586.919 206.75C586.947 206.849 587.006 206.937 587.088 207C587.17 207.063 587.271 207.096 587.374 207.096C587.477 207.096 587.578 207.063 587.66 207C587.742 206.937 587.802 206.849 587.829 206.75C587.999 203.719 587.999 200.681 587.829 197.651L598.175 197.111C598.175 198.426 598.175 204.728 598.512 205.402C598.539 205.501 598.599 205.589 598.681 205.652C598.763 205.715 598.864 205.748 598.967 205.748C599.07 205.748 599.171 205.715 599.253 205.652C599.335 205.589 599.395 205.501 599.422 205.402C599.461 202.612 599.359 199.823 599.119 197.044L609.802 196.404C609.802 197.684 610.374 203.144 610.678 204.391C610.707 204.507 610.775 204.609 610.869 204.683C610.964 204.756 611.08 204.796 611.2 204.796C611.32 204.796 611.436 204.756 611.531 204.683C611.625 204.609 611.693 204.507 611.722 204.391C611.722 203.009 610.981 197.651 610.779 196.505L621.462 195.831C620.297 198.135 620.033 200.79 620.72 203.279C620.72 203.616 621.664 203.548 621.563 203.279C621.147 200.407 621.544 197.477 622.709 194.82ZM460.713 197.617C449.929 197.044 439.178 196.269 428.428 195.359C428.833 194.685 482.348 19.0069 482.348 19.3439H496.468C492.29 42.5295 463.678 184.676 460.713 197.617ZM462.465 197.617C467.419 174.566 497.547 19.0069 497.513 19.0069H513.554C512.577 30.8693 506.073 185.687 505.5 198.83C493.941 198.83 465.363 197.853 462.465 197.718V197.617ZM513.015 273.442V281.665C509.608 287.89 506.58 294.316 503.95 300.907C494.379 323.925 489.493 359.815 495.019 393.178C399.783 393.481 407.163 393.414 407.197 393.178C407.467 389.808 406.692 372.149 406.658 372.082C411.253 367.662 414.899 362.353 417.375 356.479C425.463 337.202 420.306 316.039 415.251 296.392C417.947 295.178 420.61 293.864 423.205 292.415C423.609 292.179 423.609 291.134 423.542 290.899C421.931 285.185 420.018 279.56 417.813 274.049C429.945 273.712 512.914 273.678 513.015 273.543V273.442ZM513.318 283.923L511.499 393.144H496.805C492.782 370.651 493.252 347.584 498.187 325.273C501.928 307.007 505.5 299.526 513.318 284.024V283.923ZM344.144 544.188C317.184 544.188 245.842 543.48 236.945 543.379C240.315 522.856 246.65 473.721 246.077 469.239C252.817 469.239 287.124 468.835 297.571 468.868C314.154 470.742 330.905 470.573 347.447 468.363C344.212 484.033 341.482 497.48 344.144 544.289V544.188ZM278.362 374.879C277.014 368.139 272.835 345.459 272.431 341.179C273.941 341.062 275.457 341.287 276.869 341.835C278.28 342.383 279.551 343.242 280.586 344.347C284.293 347.043 323.486 370.498 327.362 372.587C335.267 376.861 343.619 380.251 352.266 382.697C372.992 388.494 389.639 387.651 405.546 373.127C405.546 374.306 405.984 392.841 406.422 393.347H396.312C390.146 393.805 384.166 395.66 378.823 398.772C373.481 401.884 368.917 406.171 365.477 411.309C352.873 403.457 309.332 383.675 278.362 374.879ZM280.755 395.503H277.385C277.183 394.762 269.095 361.096 267.679 353.446C266.904 349.435 266.331 345.391 265.489 341.381C267.408 341.499 269.332 341.499 271.251 341.381C272.667 356.175 279.71 392.201 280.755 395.503ZM387.55 382.529C372.183 387.988 351.154 382.158 336.259 375.62C328.642 372.25 321.97 367.296 314.657 363.354C294.437 352.536 278.328 341.314 276.677 340.64C271.285 338.449 266.196 344.01 252.514 334.372C252.177 334.136 251.469 333.698 251.571 333.226C251.672 332.754 252.919 332.855 253.39 332.922C255.545 333.263 257.643 333.898 259.625 334.81C260.198 335.046 260.737 334.203 260.13 333.933C256.668 332.249 253.354 330.276 250.223 328.036C249.717 327.261 250.223 326.553 251.065 326.621C251.368 326.621 258.58 329.991 260.434 330.732C261.007 331.002 261.478 330.193 260.939 329.889C257.279 328.221 253.712 326.354 250.256 324.295C248.773 322.846 249.447 321.296 250.627 321.296C250.897 321.498 257.367 324.093 260.299 325.07C261.141 325.374 261.478 324.059 260.67 323.756C258.546 322.981 252.514 320.858 251.739 320.386C250.964 319.914 250.391 318.836 251.739 318.499C253.087 318.162 261.849 319.004 264.208 319.173C264.316 319.178 264.424 319.157 264.523 319.111C264.621 319.065 264.707 318.997 264.774 318.911C264.84 318.824 264.884 318.724 264.903 318.617C264.922 318.51 264.915 318.4 264.882 318.297C264.277 317.101 264.076 315.741 264.309 314.421C264.714 313.208 265.32 314.017 265.859 314.758C267.005 316.275 272.195 324.363 276.846 325.576C294.639 330.26 313.41 330.732 330.26 332.687C334.439 333.158 346.436 335.248 348.256 335.753C349.503 336.124 353.513 337.371 353.446 336.057C353.142 331.844 350.278 314.893 349.84 310.546C357.928 310.141 406.793 302.592 414.139 297.066C418.487 313.68 422.868 331.17 418.824 348.323C416.926 356.203 413.062 363.473 407.593 369.455C402.124 375.437 395.229 379.935 387.55 382.529ZM284.158 174.263C282.541 178.341 277.418 177.06 276.037 176.251C275.921 176.18 275.837 176.065 275.806 175.932C275.774 175.799 275.797 175.66 275.868 175.543C275.94 175.427 276.054 175.344 276.187 175.313C276.32 175.281 276.46 175.303 276.576 175.375C277.553 175.914 281.799 176.689 283.316 173.724C283.653 173.319 284.293 173.926 284.158 174.263ZM280.991 162.468C280.684 163.339 280.172 164.123 279.499 164.755C278.826 165.387 278.011 165.848 277.122 166.099C276.233 166.35 275.298 166.384 274.393 166.198C273.489 166.011 272.642 165.611 271.925 165.029C272.783 160.107 272.553 155.058 271.251 150.235C271.251 149.628 270.24 149.898 270.341 150.504C271.082 155.07 271.319 159.704 271.049 164.321C268.924 164.656 266.952 165.634 265.398 167.121C263.844 168.609 262.782 170.537 262.355 172.645C262.355 172.645 257.872 168.096 255.783 156.874C254.907 152.088 253.93 147.303 253.525 142.45C263.938 145.82 278.429 141.372 291.505 130.554C293.144 133.021 295.322 135.084 297.874 136.586C299.589 135.756 301.562 135.637 303.363 136.256C305.165 136.876 306.648 138.182 307.489 139.892C308.331 141.601 308.462 143.573 307.853 145.379C307.245 147.184 305.948 148.675 304.244 149.527C304.951 154.515 304.715 164.119 298.717 165.602C293.965 166.781 290.561 163.748 280.991 162.468ZM294.471 202.908C302.595 199.684 309.308 193.675 313.41 185.957C313.882 187.675 319.072 203.177 319.577 204.054C318.777 207.189 317.236 210.086 315.084 212.502C312.932 214.918 310.231 216.782 307.209 217.938C289.618 225.858 282.575 215.107 287.63 208.435C287.663 208.401 293.729 207.491 294.572 203.076L294.471 202.908ZM285.978 208.502C282.608 212.445 284.967 220.129 292.718 221.78C300.469 223.431 318.431 217.365 320.891 204.02C320.891 203.717 357.624 207.12 372.756 217.5C408.882 241.966 419.936 284.9 421.823 291.269C400.154 305.39 346.874 308.995 340.943 309.366C337.601 294.104 336.635 278.417 338.078 262.86C338.078 262.456 337.506 262.489 337.472 262.86C335.585 278.671 336.359 294.687 339.763 310.242C339.805 310.382 339.889 310.506 340.003 310.597C340.118 310.687 340.258 310.74 340.404 310.748C343.1 310.748 345.829 310.748 348.525 310.546C348.761 314.724 351.558 331.271 351.895 335.416C345.178 333.568 338.327 332.238 331.406 331.44C283.417 326.351 274.52 326.081 269.701 318.364C270.038 305.794 273.374 275.464 289.55 221.982C289.575 221.882 289.578 221.777 289.558 221.675C289.538 221.574 289.496 221.478 289.435 221.394C289.374 221.311 289.295 221.242 289.205 221.192C289.114 221.142 289.013 221.113 288.91 221.106C277.048 221.847 265.174 222.476 253.289 222.993C254.772 222.42 271.757 211.198 286.079 208.671L285.978 208.502ZM288.202 222.42C270.274 283.08 268.859 310.647 268.993 317.05C268.758 316.713 266.938 311.894 264.579 312.197C265.657 290.292 269.87 270.375 280.148 229.194C280.148 228.789 279.946 228.25 279.474 228.318C234.195 232.713 188.594 232.656 143.326 228.149C142.56 226.809 141.874 225.425 141.27 224.004C141.709 223.734 142.147 223.499 142.585 223.195C161.086 224.914 215.68 226.464 288.202 222.42ZM141.709 228.149L135.407 227.273C136.384 226.801 139.518 225.15 140.125 224.813C140.63 225.79 141.136 227.071 141.709 228.149ZM119.399 233.305C112.356 237.248 104.605 243.179 102.852 251.537C102.425 253.497 102.433 255.526 102.876 257.483C103.318 259.439 104.185 261.275 105.414 262.86C108.784 267.207 112.154 264.579 115.524 267.174C118.894 269.769 116.737 272.97 114.58 274.958C106.961 280.161 98.5511 284.099 89.6757 286.619C83.5423 288.438 77.4089 289.382 71.781 291.236C76.6001 288.068 82.6324 285.709 83.913 279.676C84.1887 278.038 84.0561 276.356 83.5271 274.781C82.9981 273.206 82.0889 271.785 80.88 270.645C78.0452 268.007 74.5533 266.18 70.77 265.354C63.7941 263.231 54.3244 260.973 53.4819 252.211C53.3756 248.498 54.3183 244.831 56.202 241.63C58.0857 238.429 60.8339 235.824 64.1311 234.114C77.1056 226.633 96.1798 227.913 104.369 213.389C106.107 210.535 106.887 207.201 106.596 203.872C106.305 200.544 104.958 197.396 102.751 194.887C93.4501 183.362 73.7356 182.25 70.6352 167.22C69.7142 162.802 70.5748 158.199 73.0297 154.412C75.4847 150.626 79.3355 147.962 83.7445 147C83.0664 148.16 82.7091 149.48 82.7091 150.824C82.7091 152.169 83.0664 153.489 83.7445 154.649C85.9476 158.139 88.9077 161.087 92.4054 163.277C112.019 176.925 141.405 173.623 153.402 197.651C157.042 204.93 155.66 206.817 151.482 213.355C145.82 222.589 129.475 227.677 119.399 233.305ZM111.21 332.956C111.133 332.958 111.058 332.978 110.991 333.014C110.923 333.049 110.864 333.1 110.818 333.162C110.773 333.223 110.742 333.294 110.728 333.37C110.714 333.445 110.718 333.523 110.738 333.596C111.412 335.955 111.311 338.517 111.918 340.909C106.563 345.261 100.251 348.279 93.5012 349.715C86.7517 351.15 79.7579 350.962 73.0953 349.166L61.0981 305.356C72.7907 298.228 86.3 294.646 99.9879 295.044C100.511 298.037 101.393 300.957 102.617 303.738C106.643 302.807 110.856 303.1 114.715 304.581C113.02 306.105 111.525 307.837 110.266 309.737C108.447 309.434 106.357 308.355 104.504 309.097C102.65 309.838 102.785 311.894 103.56 313.478C105.78 318.12 107.226 323.095 107.84 328.204C107.84 328.878 108.986 328.878 108.918 328.204C108.935 327.924 108.935 327.643 108.918 327.362C111.235 327.692 113.596 327.52 115.841 326.857C118.085 326.194 120.161 325.056 121.927 323.52C121.439 326.058 120.121 328.362 118.182 330.07C116.242 331.778 113.789 332.793 111.21 332.956ZM121.792 322.004C118.119 327.396 110.469 326.688 108.918 326.553C108.117 321.885 106.677 317.349 104.639 313.073C104.099 312.13 103.628 310.748 104.874 310.175C106.121 309.602 108.244 310.579 109.828 310.512C109.39 311.321 108.784 312.534 109.323 313.376C110.603 315.365 115.22 312.399 116.939 310.748C117.197 310.742 117.452 310.801 117.682 310.918C117.911 311.036 118.108 311.209 118.253 311.422C119.905 313.916 115.76 316.14 114.075 316.713C113.994 316.713 113.917 316.745 113.86 316.802C113.803 316.858 113.771 316.936 113.771 317.016C113.771 317.096 113.803 317.174 113.86 317.23C113.917 317.287 113.994 317.319 114.075 317.319C115.103 317.135 116.083 316.74 116.953 316.16C117.822 315.58 118.563 314.828 119.13 313.949C119.459 314.143 119.745 314.401 119.972 314.708C120.199 315.015 120.361 315.365 120.45 315.736C120.538 316.108 120.55 316.493 120.485 316.87C120.42 317.246 120.28 317.605 120.073 317.926C119.374 318.788 118.504 319.497 117.519 320.007C116.533 320.518 115.452 320.819 114.344 320.892C113.872 320.892 114.075 321.7 114.546 321.633C115.806 321.578 117.037 321.248 118.155 320.666C119.273 320.083 120.25 319.263 121.017 318.263C121.334 318.44 121.608 318.686 121.819 318.982C122.03 319.277 122.173 319.616 122.237 319.974C122.302 320.332 122.286 320.699 122.192 321.05C122.097 321.401 121.926 321.727 121.691 322.004H121.792ZM123.207 321.262C123.207 321.262 123.915 318.364 121.59 317.488C121.868 316.571 121.784 315.581 121.354 314.724C120.942 314.033 120.331 313.481 119.601 313.141C119.678 312.691 119.651 312.229 119.523 311.791C119.394 311.353 119.168 310.95 118.86 310.613C117.782 309.434 117.478 310.377 118.186 309.332C118.557 308.827 117.748 308.22 117.343 308.658C116.041 309.89 114.644 311.017 113.165 312.028C112.659 312.332 110.266 313.612 110.266 312.467C111.107 310.362 112.279 308.405 113.738 306.67C114.59 305.778 115.714 305.194 116.934 305.011C118.155 304.828 119.401 305.056 120.478 305.659C122.395 306.33 124.411 306.672 126.442 306.67C130.992 306.67 153.234 303.3 155.66 302.862C157.907 311.422 159.996 320.015 161.929 328.643C149.157 325.364 136.19 322.899 123.106 321.262H123.207ZM134.463 228.115C152.627 230.946 203.851 237.349 278.699 229.902C264.208 282.44 263.366 312.972 263.399 313.073C263.021 313.783 262.8 314.566 262.754 315.369C262.707 316.172 262.836 316.975 263.13 317.724C260.467 317.522 250.795 315.769 249.65 318.263C249.45 318.635 249.366 319.058 249.408 319.478C249.45 319.899 249.616 320.297 249.886 320.622C247.998 320.993 248.436 323.251 249.11 324.262C249.487 324.801 249.969 325.259 250.526 325.61C250.177 325.603 249.837 325.712 249.556 325.919C249.276 326.127 249.072 326.42 248.976 326.755C248.268 328.878 251.638 330.563 254.199 332.046C254.199 332.046 250.829 331.473 250.56 332.855C250.29 334.237 251.739 335.113 252.615 335.72C256.297 338.175 260.363 339.997 264.646 341.112C267.388 359.416 271.294 377.527 276.34 395.335C261.175 394.728 180.025 393.684 173.993 385.629C172.645 376.463 165.636 320.319 134.362 228.115H134.463ZM171.87 472.575C175.24 472.272 178.61 472.036 181.744 471.8C181.744 472.474 182.418 536.1 182.486 543.042C140.394 542.705 145.82 543.042 138.103 543.042C137.9 523.092 137.732 504.927 137.665 500.748C149.852 492.354 161.296 482.928 171.87 472.575ZM160.008 386.573C157.211 389.1 134.126 420.846 127.824 431.225C119.5 392.875 91.5629 391.055 90.7541 390.785C110.873 390.111 157.008 386.775 159.907 386.573H160.008ZM76.2631 476.484C71.8147 466.139 64.03 454.95 58.975 442.582C53.8189 429.507 52.235 412.252 62.345 401.064C71.0733 391.325 87.8222 388.561 102.313 397.357C115.254 405.209 122.533 419.026 126.544 433.247C125.431 435.101 89.9453 487.572 87.0134 491.818C87.0134 491.986 93.1468 498.052 94.8318 499.636C93.2479 501.962 86.609 511.431 84.7218 513.824C83.2397 513.027 81.6957 512.351 80.1049 511.802C80.1049 511.802 80.5767 486.426 76.2631 476.484ZM85.2947 514.464C87.1145 512.072 94.023 502.737 95.5732 500.411C99.7857 504.388 103.965 508.365 108.076 512.442C104.933 515.201 102.066 518.26 99.5161 521.575C95.9776 527.136 98.4377 534.078 90.8215 539.402C90.2823 538.931 86.0024 534.954 84.7218 533.572C84.3754 533.198 84.1436 532.733 84.054 532.231C83.9644 531.729 84.0207 531.212 84.2163 530.742C84.9577 529.09 88.5973 520.969 85.2947 514.464ZM86.609 617.654C84.8789 617.158 83.356 616.116 82.2684 614.682C81.1809 613.248 80.5873 611.5 80.5767 609.701C80.2734 603.163 83.4075 602.59 81.5203 541.492C84.3511 543.514 87.1482 545.334 89.8442 546.951C90.2964 547.248 90.8318 547.391 91.3716 547.361C91.9115 547.331 92.4274 547.128 92.8435 546.783C93.3679 546.331 93.8527 545.834 94.2926 545.3C94.4957 545.017 94.6395 544.695 94.7156 544.355C94.7918 544.015 94.7986 543.663 94.7357 543.32C94.6728 542.977 94.5414 542.651 94.3495 542.36C94.1576 542.069 93.909 541.819 93.6186 541.627L91.4281 539.908C99.0106 535.021 97.056 527.843 100.156 522.653C102.7 519.199 105.641 516.054 108.918 513.285L112.693 517.127C112.693 517.127 123.039 510.724 136.283 501.49C136.519 512.375 137.698 612.7 138.17 617.485C129.172 617.654 89.9453 618.631 86.609 617.654ZM138.002 543.514C156.368 543.851 161.12 543.986 182.384 544.154C182.587 562.959 182.823 575.967 184.002 591.671C184.002 591.671 153.672 592.581 138.541 593.457C138.372 581.696 138.17 561.88 138.17 543.514H138.002ZM139.013 617.485C139.013 613.307 138.642 597.939 138.574 594.468C153.739 593.749 168.916 593.21 184.103 592.851C184.103 594.67 185.754 610.543 186.159 616.643L139.013 617.485ZM215.309 649.635C211.728 649.82 208.14 649.82 204.559 649.635C204.07 649.577 203.608 649.377 203.231 649.059C202.853 648.742 202.577 648.321 202.436 647.849C201.134 643.487 198.622 639.584 195.19 636.593C195.426 632.92 195.561 623.855 195.561 623.113C200.571 623.248 205.592 623.484 210.625 623.821C210.426 627.702 210.686 631.594 211.4 635.414C212.917 639.694 218.005 644.614 215.309 649.635ZM214.568 434.73C200.582 434.73 184.541 449.086 181.778 470.418L173.05 471.092C176.395 467.641 179.439 463.909 182.149 459.938C186.732 443.458 202.537 431.832 215.849 431.596C222.789 431.813 229.399 434.613 234.384 439.448C238.931 443.847 242.541 449.12 244.999 454.95C253.93 459.87 270.577 464.15 289.079 467.419C283.08 467.419 254.233 467.689 245.875 467.857C242.842 448.547 227.947 435 214.568 434.73ZM282.507 610.914C263.837 613.745 223.869 615.699 222.723 615.733C224.442 607.982 226.093 600.096 227.812 592.143C247.111 592.008 266.41 591.929 285.709 591.907C284.63 598.31 283.586 604.679 282.507 611.049V610.914ZM228.082 590.694C231.115 575.899 236.743 544.592 236.776 544.39L344.212 545.502C344.92 560.364 346.335 575.226 347.986 590.02C327.631 590.559 240.719 590.829 228.082 590.963V590.694ZM352.974 617.654C349.941 591.334 347.279 567.71 346.234 541.155C344.448 496.738 348.627 481.674 348.93 469.812C349.57 442.549 362.41 402.816 388.46 396.076C392.956 394.683 397.705 394.303 402.366 394.961C407.027 395.619 411.485 397.301 415.42 399.884C418.304 402.349 420.813 405.222 422.868 408.41C427.23 415.062 430.066 422.597 431.173 430.474C432.28 438.352 431.63 446.376 429.271 453.973C424.89 468.194 413.668 483.663 407.5 499.737C395.773 530.438 396.919 601.073 402.513 624.427C385.753 625.071 369.006 622.884 352.974 617.957V617.654ZM403.895 624.225C399.783 607.038 399.918 585.47 400.086 567.508C399.859 547.822 401.929 528.177 406.254 508.971C412.758 482.955 433.011 464.959 433.214 438.403C433.389 426.383 429.559 414.645 422.328 405.04C418.869 399.948 413.707 396.256 407.77 394.627H511.499C511.263 409.624 509.375 600.534 509.375 600.568L484.539 616.98C457.242 617.351 431.057 623.45 403.895 624.529V624.225ZM552.882 402.041C562.621 414.342 566.531 433.416 557.634 456.871C550.186 476.653 517.497 522.182 532.359 607.914C532.123 607.914 523.867 602.523 519.89 600.298C519.89 600.298 523.26 412.353 523.597 394.728C545.3 393.414 551.029 400.019 552.882 402.344V402.041ZM542.772 284.597C546.79 291.895 548.692 300.17 548.265 308.49C548.703 336.528 543.716 365.78 537.38 393.111C534.684 392.807 525.45 392.673 523.563 392.774C523.563 385.157 524.945 279.575 525.012 274.082C528.651 274.234 532.192 275.305 535.304 277.197C538.415 279.089 540.997 281.739 542.806 284.9L542.772 284.597ZM518.171 600.298C518.003 601.815 570.372 631.235 572.091 631.976C568.182 638.177 548.501 643.266 540.851 644.007C536.133 644.479 493.132 644.007 483.797 643.165C473.996 642.364 464.419 639.807 455.523 635.616C459.129 633.796 510.589 601.613 510.622 600.298C511.195 575.461 515.172 214.737 515.307 199.673H524.507C524.305 229.565 518.576 597.569 518.205 600.602L518.171 600.298ZM506.814 198.83C507.589 175.476 514.397 18.8384 514.262 18.771L528.248 18.5014C529.764 30.0268 551.838 198.055 551.838 198.156C549.849 198.257 513.723 198.83 506.814 198.83ZM553.084 198.089C553.084 198.089 531.449 31.577 529.09 18.5351L543.783 18.2655C546.681 29.9257 588.84 183.227 592.278 196.235C592.311 196.235 566.16 197.718 553.084 198.156V198.089ZM593.727 196.134C593.727 196.134 546.547 24.5337 544.659 18.1644L556.252 17.9622C564.273 41.7881 616.339 182.385 620.956 194.314C611.902 195.078 602.826 195.707 593.727 196.202V196.134Z" fill="#1A1A1A"/>
<path d="M254.771 291.539C225.391 294.321 179.713 290.38 162.894 288.062C166.008 300.319 171.829 326.865 170.195 335.001C189.622 336.363 234.257 339.877 253.38 336.609C239.386 322.832 249.599 311.227 254.771 291.539Z" fill="#1A1A1A"/>
<path d="M224.429 345.55L170.195 341.987V349.112L224.429 352.674V345.55Z" fill="#1A1A1A"/>
<path d="M173.844 359.799L171.62 352.674C189.461 354.574 223.859 358.374 224.429 358.374C224.999 358.374 224.667 362.649 224.429 364.787L173.844 359.799Z" fill="#1A1A1A"/>
<path d="M173.844 373.336L173.131 365.499L224.429 370.486L225.854 377.611L173.844 373.336Z" fill="#1A1A1A"/>
<path d="M226.446 278.703C226.158 278.724 225.828 278.722 225.455 278.698C225.082 278.683 224.717 278.627 224.359 278.53C224.001 278.432 223.695 278.269 223.441 278.04C223.198 277.81 223.061 277.495 223.032 277.094C223.013 276.828 223.062 276.592 223.182 276.387C223.3 276.172 223.508 276.054 223.806 276.032C223.991 276.019 224.138 276.054 224.247 276.139C224.356 276.224 224.452 276.331 224.533 276.459C224.625 276.586 224.728 276.718 224.841 276.854C224.963 276.979 225.12 277.081 225.312 277.16C225.514 277.239 225.779 277.266 226.107 277.242C226.343 277.224 226.598 277.18 226.871 277.109C227.154 277.026 227.392 276.9 227.586 276.731C227.781 276.563 227.868 276.345 227.848 276.078C227.831 275.842 227.72 275.664 227.515 275.545C227.31 275.416 227.05 275.311 226.734 275.231C226.419 275.15 226.088 275.071 225.742 274.993C225.395 274.905 225.062 274.79 224.742 274.648C224.422 274.507 224.155 274.309 223.94 274.057C223.725 273.794 223.602 273.447 223.57 273.016C223.541 272.616 223.614 272.265 223.788 271.963C223.962 271.662 224.196 271.407 224.491 271.2C224.794 270.982 225.123 270.819 225.476 270.71C225.839 270.591 226.19 270.519 226.528 270.494C226.723 270.48 226.951 270.489 227.211 270.522C227.471 270.544 227.728 270.598 227.981 270.683C228.235 270.767 228.451 270.896 228.629 271.069C228.805 271.231 228.904 271.446 228.923 271.713C228.957 272.185 228.739 272.438 228.267 272.472L228.066 272.487C227.746 272.335 227.474 272.221 227.252 272.144C227.03 272.067 226.78 272.039 226.503 272.059C226.38 272.068 226.207 272.096 225.983 272.144C225.769 272.18 225.578 272.251 225.41 272.356C225.243 272.461 225.166 272.616 225.181 272.821C225.194 272.996 225.302 273.132 225.505 273.231C225.708 273.33 225.968 273.419 226.283 273.499C226.598 273.579 226.93 273.669 227.278 273.767C227.625 273.866 227.96 274.001 228.282 274.174C228.604 274.336 228.872 274.554 229.088 274.827C229.304 275.1 229.428 275.452 229.459 275.883C229.505 276.509 229.382 277.024 229.092 277.427C228.812 277.829 228.432 278.135 227.952 278.345C227.481 278.545 226.979 278.664 226.446 278.703Z" fill="#1A1A1A"/>
<path d="M217.015 279.004C216.82 279.018 216.666 279.029 216.553 279.037C216.45 279.034 216.319 279.018 216.162 278.988C216.088 278.952 215.987 278.913 215.86 278.871C215.732 278.818 215.61 278.771 215.493 278.728C215.377 278.684 215.293 278.665 215.242 278.668C215.17 278.674 215.062 278.749 214.917 278.893C214.783 279.027 214.623 279.1 214.438 279.114C214.171 279.133 213.98 279.054 213.864 278.877C213.747 278.69 213.68 278.473 213.662 278.226C213.645 278.001 213.641 277.8 213.649 277.624C213.656 277.438 213.682 277.229 213.727 276.999C213.799 275.859 213.832 274.691 213.828 273.494C213.832 272.287 213.792 271.093 213.706 269.913C213.684 269.615 213.663 269.323 213.642 269.035C213.621 268.748 213.59 268.461 213.548 268.175C213.523 267.971 213.574 267.823 213.702 267.731C213.829 267.639 213.975 267.587 214.139 267.575L214.278 267.565C214.503 267.549 214.697 267.591 214.86 267.693C215.022 267.795 215.134 267.988 215.196 268.272L215.256 269.103C215.3 269.698 215.333 270.294 215.356 270.891C215.379 271.488 215.41 272.125 215.449 272.803L215.495 272.8C215.88 272.287 216.317 271.843 216.806 271.466C217.294 271.09 217.852 270.88 218.478 270.834C218.96 270.799 219.435 270.878 219.903 271.07C220.381 271.252 220.783 271.533 221.11 271.911C221.436 272.279 221.618 272.72 221.655 273.233C221.705 273.921 221.625 274.597 221.416 275.263C221.206 275.918 220.888 276.518 220.464 277.065C220.04 277.612 219.536 278.061 218.953 278.414C218.369 278.755 217.723 278.952 217.015 279.004ZM216.895 277.356C217.295 277.327 217.693 277.2 218.09 276.975C218.486 276.75 218.841 276.461 219.156 276.108C219.471 275.755 219.716 275.371 219.892 274.956C220.079 274.54 220.157 274.127 220.127 273.716C220.103 273.388 219.963 273.093 219.707 272.834C219.46 272.563 219.162 272.44 218.813 272.465C218.444 272.492 218.111 272.604 217.816 272.801C217.531 272.997 217.271 273.243 217.034 273.539C216.808 273.824 216.603 274.133 216.421 274.466C216.239 274.799 216.071 275.11 215.916 275.4C215.857 275.57 215.778 275.761 215.68 275.975C215.592 276.187 215.555 276.386 215.568 276.571C215.582 276.756 215.665 276.909 215.819 277.032C215.972 277.155 216.149 277.246 216.349 277.303C216.559 277.35 216.741 277.368 216.895 277.356Z" fill="#1A1A1A"/>
<path d="M207.133 280.033C206.661 280.067 206.212 279.992 205.786 279.806C205.359 279.621 204.995 279.358 204.691 279.019C204.387 278.67 204.177 278.267 204.062 277.812L204.004 277.026C203.963 276.452 204.023 275.864 204.186 275.265C204.348 274.665 204.601 274.104 204.945 273.584C205.288 273.054 205.711 272.62 206.212 272.285C206.713 271.939 207.277 271.743 207.903 271.697C208.16 271.678 208.384 271.709 208.575 271.787C208.777 271.866 208.958 271.95 209.12 272.042C209.291 272.122 209.454 272.167 209.609 272.176C209.661 271.75 209.753 271.464 209.887 271.32C210.021 271.166 210.21 271.08 210.457 271.062C210.754 271.041 210.962 271.123 211.078 271.311C211.205 271.487 211.278 271.719 211.299 272.007C211.34 272.571 211.365 273.127 211.374 273.673C211.393 274.218 211.424 274.778 211.466 275.353C211.499 275.805 211.558 276.27 211.645 276.748C211.731 277.227 211.791 277.692 211.824 278.144L211.847 278.467C211.864 278.693 211.833 278.906 211.755 279.108C211.686 279.299 211.503 279.405 211.206 279.427C210.928 279.447 210.722 279.379 210.587 279.224C210.462 279.058 210.37 278.858 210.311 278.625C210.263 278.381 210.216 278.163 210.171 277.97L210.105 277.913C209.781 278.287 209.491 278.628 209.235 278.936C208.989 279.243 208.709 279.495 208.393 279.694C208.076 279.882 207.657 279.995 207.133 280.033ZM206.866 278.489C207.225 278.463 207.556 278.331 207.858 278.092C208.17 277.842 208.442 277.534 208.673 277.166C208.903 276.788 209.076 276.399 209.191 275.998C209.307 275.598 209.352 275.228 209.327 274.89C209.309 274.633 209.254 274.379 209.163 274.128C209.072 273.866 208.933 273.65 208.745 273.477C208.567 273.305 208.324 273.23 208.016 273.252C207.678 273.277 207.353 273.419 207.041 273.679C206.741 273.938 206.475 274.262 206.246 274.65C206.015 275.028 205.838 275.423 205.713 275.834C205.587 276.235 205.536 276.595 205.559 276.913C205.578 277.17 205.633 277.424 205.723 277.675C205.824 277.926 205.968 278.132 206.155 278.294C206.342 278.445 206.578 278.51 206.866 278.489Z" fill="#1A1A1A"/>
<path d="M197.081 280.224C196.62 280.258 196.325 280.042 196.199 279.576L196.149 278.899C196.063 277.719 196.038 276.524 196.074 275.314C196.119 274.093 196.097 272.878 196.009 271.667C195.988 271.379 196.047 271.122 196.185 270.895C196.333 270.658 196.555 270.528 196.853 270.506C197.099 270.488 197.278 270.532 197.389 270.637C197.51 270.742 197.587 270.881 197.62 271.054C197.663 271.216 197.691 271.384 197.703 271.558C197.78 272.616 197.812 273.691 197.799 274.786C197.786 275.87 197.812 277.014 197.879 278.216L198.326 278.183C198.437 278.155 198.599 278.117 198.813 278.07C199.025 278.014 199.248 277.956 199.481 277.898C199.724 277.839 199.953 277.786 200.166 277.74C200.379 277.693 200.541 277.656 200.653 277.627L201.115 277.593C201.258 277.583 201.428 277.575 201.624 277.572C201.829 277.557 202.026 277.568 202.214 277.606C202.412 277.633 202.577 277.703 202.71 277.817C202.841 277.921 202.915 278.091 202.932 278.327C202.953 278.604 202.881 278.821 202.717 278.978C202.563 279.133 202.365 279.246 202.122 279.315C201.89 279.383 201.671 279.425 201.466 279.44L199.803 279.561C199.692 279.59 199.52 279.634 199.287 279.692C199.064 279.749 198.821 279.813 198.558 279.884C198.295 279.955 198.052 280.019 197.829 280.077C197.606 280.134 197.439 280.177 197.328 280.206L197.081 280.224Z" fill="#1A1A1A"/>
<path d="M230.645 259.052C229.906 259.106 229.215 259.042 228.573 258.862C227.94 258.671 227.415 258.338 226.999 257.863C226.582 257.377 226.344 256.729 226.285 255.918C226.24 255.303 226.293 254.695 226.446 254.096C226.608 253.496 226.862 252.946 227.208 252.446C227.552 251.936 227.981 251.523 228.495 251.207C229.008 250.881 229.597 250.694 230.265 250.645C230.716 250.612 231.144 250.674 231.547 250.83C231.96 250.975 232.297 251.214 232.559 251.546C232.83 251.866 232.983 252.273 233.019 252.766C233.053 253.238 232.989 253.696 232.825 254.142C232.662 254.587 232.423 254.991 232.109 255.355C231.795 255.718 231.43 256.013 231.013 256.239C230.605 256.455 230.171 256.579 229.709 256.613C229.637 256.618 229.477 256.614 229.228 256.601C228.979 256.578 228.781 256.552 228.634 256.521C228.53 256.508 228.445 256.473 228.379 256.416C228.358 256.407 228.321 256.394 228.268 256.377C228.214 256.35 228.177 256.338 228.157 256.339C228.25 256.631 228.418 256.872 228.658 257.061C228.909 257.239 229.186 257.363 229.49 257.434C229.805 257.503 230.101 257.528 230.378 257.508C230.573 257.494 230.767 257.469 230.961 257.435C231.164 257.389 231.378 257.358 231.604 257.341C231.83 257.325 232.029 257.372 232.202 257.484C232.375 257.595 232.472 257.789 232.492 258.066C232.509 258.292 232.45 258.471 232.315 258.605C232.19 258.738 232.022 258.833 231.809 258.89C231.607 258.946 231.398 258.981 231.183 258.997C230.978 259.022 230.799 259.041 230.645 259.052ZM229.579 254.827C229.887 254.805 230.185 254.726 230.475 254.592C230.774 254.446 231.012 254.248 231.19 253.998C231.378 253.747 231.459 253.447 231.434 253.098C231.412 252.8 231.303 252.571 231.105 252.41C230.918 252.248 230.675 252.178 230.378 252.2C230.111 252.219 229.834 252.312 229.547 252.477C229.26 252.642 228.991 252.848 228.741 253.093C228.5 253.337 228.308 253.599 228.163 253.878C228.018 254.146 227.954 254.404 227.972 254.65L227.976 254.712C228.246 254.733 228.517 254.765 228.788 254.807C229.059 254.839 229.322 254.846 229.579 254.827Z" fill="#1A1A1A"/>
<path d="M217.339 259.48C217.082 259.499 216.887 259.441 216.753 259.306C216.619 259.161 216.528 258.982 216.482 258.769C216.435 258.545 216.404 258.331 216.389 258.125C216.354 257.653 216.33 257.18 216.316 256.707C216.313 256.232 216.295 255.78 216.264 255.349C216.23 254.887 216.146 254.449 216.013 254.036C215.88 253.623 215.798 253.206 215.767 252.785L215.723 252.185C215.8 251.962 215.887 251.812 215.985 251.732C216.081 251.643 216.217 251.591 216.391 251.579C216.709 251.556 216.948 251.641 217.106 251.836C217.264 252.021 217.374 252.25 217.435 252.524C217.506 252.787 217.56 253.031 217.597 253.255C217.615 253.367 217.652 253.586 217.707 253.913C217.772 254.238 217.82 254.544 217.851 254.831L217.912 254.826L217.97 254.76C218.144 254.459 218.326 254.136 218.518 253.792C218.71 253.447 218.923 253.122 219.159 252.816C219.405 252.51 219.68 252.257 219.986 252.06C220.29 251.852 220.643 251.733 221.043 251.704C221.556 251.667 222.003 251.784 222.384 252.055C222.764 252.316 223.095 252.674 223.376 253.128C223.655 253.572 223.892 254.06 224.086 254.593C224.279 255.126 224.441 255.645 224.571 256.152C224.701 256.658 224.815 257.093 224.914 257.458L224.942 257.842C224.958 258.068 224.913 258.298 224.806 258.533C224.699 258.758 224.512 258.88 224.245 258.899C223.968 258.919 223.757 258.862 223.613 258.729C223.48 258.594 223.384 258.415 223.327 258.192C223.299 258.101 223.263 257.954 223.217 257.751C223.171 257.538 223.118 257.31 223.059 257.067C222.999 256.813 222.946 256.58 222.9 256.366C222.852 256.143 222.815 255.98 222.787 255.879C222.741 255.676 222.652 255.44 222.519 255.171C222.395 254.892 222.279 254.652 222.172 254.454C222.064 254.245 221.93 254.028 221.769 253.802C221.608 253.577 221.389 253.474 221.112 253.494C220.865 253.512 220.646 253.616 220.453 253.805C220.271 253.994 220.112 254.212 219.975 254.459C219.848 254.706 219.736 254.925 219.636 255.118C219.409 255.548 219.208 255.975 219.033 256.4C218.858 256.826 218.67 257.288 218.469 257.788C218.391 257.99 218.32 258.222 218.256 258.484C218.192 258.737 218.095 258.96 217.965 259.156C217.835 259.351 217.626 259.459 217.339 259.48Z" fill="#1A1A1A"/>
<path d="M209.895 264.387C209.71 264.4 209.565 264.318 209.459 264.14C209.354 263.972 209.295 263.801 209.282 263.627C209.258 263.298 209.307 262.98 209.429 262.672C209.552 262.374 209.659 262.072 209.75 261.766C209.792 261.629 209.841 261.45 209.897 261.23C209.964 261.018 210.026 260.802 210.082 260.582C210.148 260.36 210.201 260.171 210.241 260.013C210.282 259.855 210.301 259.766 210.299 259.746L210.296 259.699C209.729 259.699 209.246 259.585 208.847 259.356C208.449 259.127 208.122 258.826 207.868 258.452C207.614 258.079 207.414 257.665 207.267 257.212C207.12 256.748 207.008 256.276 206.932 255.797C206.866 255.317 206.818 254.866 206.787 254.446C206.777 254.312 206.77 254.137 206.764 253.921C206.758 253.695 206.767 253.467 206.792 253.238C206.827 253.009 206.89 252.813 206.981 252.652C207.083 252.49 207.231 252.401 207.426 252.387C207.806 252.359 208.062 252.48 208.195 252.749C208.339 253.017 208.422 253.315 208.446 253.644C208.463 253.869 208.463 254.081 208.446 254.278C208.44 254.475 208.445 254.691 208.463 254.927L208.474 255.081C208.479 255.153 208.506 255.306 208.554 255.539C208.602 255.773 208.65 256.012 208.699 256.256C208.758 256.5 208.802 256.682 208.831 256.804C208.907 257.139 209.032 257.429 209.204 257.674C209.376 257.909 209.601 258.017 209.878 257.996C210.206 257.973 210.484 257.823 210.712 257.549C210.95 257.274 211.151 256.924 211.316 256.499C211.492 256.073 211.655 255.628 211.807 255.163C211.958 254.688 212.111 254.238 212.266 253.814C212.421 253.39 212.597 253.042 212.793 252.77C213 252.497 213.243 252.35 213.52 252.33C213.981 252.296 214.231 252.536 214.268 253.049C214.294 253.398 214.262 253.736 214.172 254.062C214.093 254.388 213.982 254.705 213.839 255.015C213.707 255.324 213.564 255.628 213.41 255.928C213.257 256.228 213.124 256.532 213.013 256.839C212.666 257.742 212.351 258.667 212.07 259.616C211.798 260.555 211.536 261.497 211.285 262.444C211.22 262.686 211.137 262.955 211.035 263.251C210.932 263.548 210.791 263.806 210.611 264.025C210.442 264.244 210.203 264.364 209.895 264.387Z" fill="#1A1A1A"/>
<path d="M195.578 261.298C195.291 261.319 195.085 261.251 194.96 261.095C194.845 260.939 194.775 260.748 194.748 260.523C194.721 260.287 194.7 260.077 194.687 259.893C194.593 258.61 194.655 257.336 194.872 256.072C195.09 254.808 195.35 253.566 195.653 252.347C195.741 251.99 195.875 251.702 196.055 251.482C196.234 251.252 196.513 251.124 196.893 251.096C197.18 251.075 197.433 251.15 197.652 251.319C197.871 251.489 198.062 251.707 198.226 251.974C198.399 252.23 198.537 252.483 198.637 252.733L199.822 255.603L199.888 255.66C199.916 255.627 199.94 255.594 199.958 255.562C199.976 255.53 199.989 255.493 199.996 255.451C200.037 255.303 200.098 255.082 200.18 254.787C200.271 254.482 200.366 254.16 200.466 253.823C200.574 253.474 200.67 253.158 200.752 252.873C200.834 252.578 200.892 252.378 200.925 252.272C201.009 252.008 201.104 251.754 201.21 251.509C201.326 251.263 201.482 251.061 201.677 250.902C201.871 250.733 202.122 250.638 202.429 250.615C202.737 250.593 203.006 250.676 203.237 250.866C203.467 251.045 203.659 251.279 203.814 251.567C203.969 251.844 204.092 252.124 204.185 252.406C204.524 253.372 204.802 254.363 205.021 255.379C205.238 256.384 205.384 257.395 205.458 258.411L205.503 259.027C205.429 259.28 205.327 259.442 205.198 259.513C205.069 259.585 204.902 259.628 204.697 259.643C204.461 259.66 204.272 259.612 204.129 259.498C203.996 259.374 203.887 259.217 203.801 259.027C203.725 258.837 203.669 258.639 203.634 258.436C203.598 258.222 203.563 258.033 203.531 257.871C203.404 257.127 203.278 256.383 203.151 255.639C203.024 254.885 202.845 254.129 202.615 253.372L202.528 253.239L202.482 253.242C202.425 253.463 202.353 253.737 202.263 254.063C202.172 254.379 202.078 254.706 201.978 255.043C201.889 255.38 201.808 255.68 201.734 255.943C201.661 256.207 201.607 256.391 201.574 256.497C201.533 256.654 201.466 256.855 201.37 257.1C201.284 257.343 201.174 257.594 201.038 257.851C200.901 258.098 200.746 258.311 200.573 258.489C200.41 258.655 200.231 258.746 200.036 258.76C199.79 258.778 199.555 258.676 199.333 258.455C199.11 258.224 198.897 257.925 198.695 257.558C198.492 257.18 198.298 256.777 198.111 256.347C197.936 255.916 197.771 255.5 197.618 255.098C197.475 254.696 197.348 254.359 197.235 254.089C197.231 254.038 197.185 253.974 197.097 253.898C197.051 253.973 197.02 254.038 197.003 254.09C196.996 254.143 196.995 254.194 196.999 254.246C196.936 254.663 196.869 255.08 196.796 255.498C196.733 255.905 196.686 256.321 196.655 256.747C196.638 256.934 196.62 257.116 196.602 257.292C196.593 257.458 196.582 257.593 196.569 257.697C196.576 257.789 196.571 257.934 196.555 258.131C196.548 258.328 196.538 258.54 196.524 258.768C196.519 258.985 196.508 259.187 196.49 259.374C196.483 259.56 196.482 259.689 196.488 259.761C196.482 259.968 196.452 260.192 196.397 260.433C196.342 260.664 196.248 260.862 196.116 261.027C195.993 261.19 195.814 261.281 195.578 261.298Z" fill="#1A1A1A"/>
</svg>
