<svg width="102" height="110" viewBox="0 0 102 110" fill="none" xmlns="http://www.w3.org/2000/svg">
<g id="account_box">
<mask id="mask0_1262_24300" style="mask-type:alpha" maskUnits="userSpaceOnUse" x="0" y="0" width="162" height="162">
<rect id="Bounding box" x="0.496094" y="59.2534" width="117.507" height="117.507" transform="rotate(-30 0.496094 59.2534)" fill="#D9D9D9"/>
</mask>
<g mask="url(#mask0_1262_24300)">
<path id="account_box_2" d="M66.6172 124.82C68.2709 118.871 71.002 113.361 74.8104 108.288C78.6188 103.215 83.4558 98.9857 89.3214 95.5992C95.1869 92.2127 101.268 90.1386 107.566 89.3767C113.863 88.6149 120.001 89.0051 125.979 90.5473L95.2563 37.3333C94.7667 36.4852 93.9646 35.9119 92.8499 35.6132C91.7352 35.3145 90.7538 35.41 89.9058 35.8996L37.3278 66.2555C36.4798 66.7451 35.9064 67.5473 35.6077 68.662C35.309 69.7767 35.4045 70.758 35.8941 71.6061L66.6172 124.82ZM83.446 85.4228C86.8382 83.4644 89.0271 80.6459 90.0127 76.9674C90.9984 73.2889 90.512 69.7535 88.5535 66.3614C86.5951 62.9693 83.7766 60.7804 80.0981 59.7947C76.4196 58.8091 72.8842 59.2955 69.4921 61.2539C66.1 63.2124 63.9111 66.0309 62.9254 69.7094C61.9398 73.3879 62.4262 76.9232 64.3846 80.3153C66.3431 83.7075 69.1616 85.8964 72.8401 86.882C76.5186 87.8677 80.0539 87.3813 83.446 85.4228ZM73.3142 128.586C71.4768 129.647 69.6106 129.923 67.7156 129.415C65.8206 128.908 64.3427 127.735 63.2819 125.898L32.926 73.3197C31.8652 71.4823 31.5886 69.6161 32.0964 67.7211C32.6042 65.8261 33.7767 64.3482 35.6141 63.2874L88.1921 32.9315C90.0295 31.8706 91.8957 31.5941 93.7907 32.1019C95.6857 32.6096 97.1636 33.7822 98.2245 35.6196L128.58 88.1976C129.641 90.035 129.918 91.9012 129.41 93.7962C128.902 95.6912 127.73 97.1691 125.892 98.2299L73.3142 128.586ZM70.5406 126.23L125.239 94.6498L124.871 94.0138C118.711 92.4825 112.785 92.1344 107.096 92.9694C101.406 93.8045 96.0525 95.6705 91.035 98.5673C86.1588 101.383 81.9089 105.038 78.2851 109.533C74.6614 114.028 71.9166 119.311 70.0509 125.382L70.5406 126.23ZM81.7324 82.4547C79.259 83.8828 76.601 84.216 73.7585 83.4543C70.916 82.6927 68.7808 81.0751 67.3527 78.6017C65.9247 76.1283 65.5915 73.4703 66.3532 70.6278C67.1148 67.7853 68.7323 65.6501 71.2058 64.222C73.6792 62.794 76.3371 62.4608 79.1796 63.2225C82.0221 63.9841 84.1574 65.6016 85.5854 68.0751C87.0135 70.5485 87.3467 73.2064 86.585 76.0489C85.8234 78.8914 84.2058 81.0267 81.7324 82.4547Z" fill="#CCCCCF"/>
</g>
</g>
</svg>
