<svg width="204" height="157" viewBox="0 0 204 157" fill="none" xmlns="http://www.w3.org/2000/svg">
<g id="add_box">
<mask id="mask0_3633_33536" style="mask-type:alpha" maskUnits="userSpaceOnUse" x="0" y="0" width="234" height="234">
<rect id="Bounding box" x="52.7891" width="188" height="188" transform="rotate(16.3072 52.7891 0)" fill="#D9D9D9"/>
</mask>
<g mask="url(#mask0_3633_33536)">
<path id="add_box_2" d="M104.415 148.547L109.678 150.087L118.476 120.014L148.548 128.812L150.088 123.549L120.015 114.751L128.813 84.6783L123.551 83.1386L114.753 113.211L84.6798 104.413L83.1401 109.676L113.213 118.474L104.415 148.547ZM53.0651 160.866C49.8072 159.913 47.4248 158.059 45.9178 155.306C44.4108 152.553 44.1339 149.547 45.087 146.289L72.3609 53.0636C73.314 49.8057 75.1673 47.4233 77.9206 45.9163C80.6739 44.4093 83.6796 44.1324 86.9375 45.0855L180.163 72.3594C183.421 73.3125 185.803 75.1658 187.31 77.9191C188.817 80.6725 189.094 83.6781 188.141 86.936L160.867 180.162C159.914 183.42 158.061 185.802 155.308 187.309C152.554 188.816 149.549 189.093 146.291 188.14L53.0651 160.866Z" fill="#573CFA"/>
</g>
</g>
</svg>
