<svg width="18" height="18" viewBox="0 0 18 18" fill="none" xmlns="http://www.w3.org/2000/svg">
<g id="approval_delegation">
<mask id="mask0_1123_48221" style="mask-type:alpha" maskUnits="userSpaceOnUse" x="0" y="0" width="18" height="18">
<rect id="Bounding box" width="18" height="18" fill="#D9D9D9"/>
</mask>
<g mask="url(#mask0_1123_48221)">
<path id="approval_delegation_2" d="M5.0192 14.8528V8.94241H6.39957C6.47745 8.94241 6.55651 8.95053 6.63676 8.96678C6.71701 8.98316 6.79607 9.00384 6.87395 9.02884L11.7289 10.823C11.9279 10.8952 12.0901 11.0185 12.2156 11.193C12.3411 11.3676 12.4039 11.5568 12.4039 11.7605C12.4039 11.9605 12.3361 12.1226 12.2004 12.2467C12.0649 12.3707 11.9049 12.4327 11.7203 12.4327H10.2851C10.1265 12.4327 9.9787 12.4236 9.8417 12.4053C9.70457 12.3871 9.56532 12.351 9.42395 12.2972L8.15195 11.8211L7.92263 12.4659L9.38082 12.9722C9.51157 13.0183 9.65245 13.0505 9.80345 13.0687C9.95432 13.087 10.1038 13.0961 10.2519 13.0961H14.7548C15.1259 13.0961 15.4471 13.2242 15.7183 13.4805C15.9894 13.7367 16.125 14.0557 16.125 14.4375L10.5116 16.4278L5.0192 14.8528ZM1.2692 16.125V8.94241H3.8942V16.125H1.2692ZM9.69376 8.28747L6.77307 5.36678L7.57501 4.58359L9.69376 6.70234L13.95 2.46484L14.7332 3.24803L9.69376 8.28747Z" fill="#1C1B1F"/>
</g>
</g>
</svg>
