<svg width="22" height="22" viewBox="0 0 22 22" fill="none" xmlns="http://www.w3.org/2000/svg">
<path d="M19.5076 17.1747C19.0444 16.0776 18.3723 15.081 17.5286 14.2406C16.6875 13.3976 15.6911 12.7256 14.5944 12.2615C14.5846 12.2566 14.5748 12.2542 14.565 12.2493C16.0946 11.1443 17.0891 9.34457 17.0891 7.31399C17.0891 3.95015 14.3636 1.2247 10.9998 1.2247C7.63594 1.2247 4.9105 3.95015 4.9105 7.31399C4.9105 9.34457 5.90492 11.1443 7.4346 12.2517C7.42478 12.2566 7.41496 12.2591 7.40514 12.264C6.30514 12.7281 5.31809 13.3935 4.47099 14.243C3.62809 15.0841 2.95604 16.0805 2.49197 17.1772C2.03606 18.2508 1.79018 19.4018 1.76764 20.568C1.76698 20.5942 1.77158 20.6203 1.78116 20.6447C1.79074 20.6691 1.8051 20.6913 1.82341 20.7101C1.84171 20.7289 1.86359 20.7438 1.88775 20.7539C1.9119 20.7641 1.93785 20.7694 1.96407 20.7693H3.43728C3.54532 20.7693 3.63126 20.6834 3.63371 20.5778C3.68282 18.6823 4.44398 16.9071 5.78951 15.5615C7.1817 14.1693 9.03059 13.4033 10.9998 13.4033C12.969 13.4033 14.8179 14.1693 16.2101 15.5615C17.5556 16.9071 18.3167 18.6823 18.3659 20.5778C18.3683 20.6859 18.4542 20.7693 18.5623 20.7693H20.0355C20.0617 20.7694 20.0877 20.7641 20.1118 20.7539C20.136 20.7438 20.1579 20.7289 20.1762 20.7101C20.1945 20.6913 20.2088 20.6691 20.2184 20.6447C20.228 20.6203 20.2326 20.5942 20.2319 20.568C20.2074 19.3943 19.9643 18.2526 19.5076 17.1747ZM10.9998 11.5372C9.87277 11.5372 8.81206 11.0977 8.01407 10.2997C7.21608 9.50171 6.77657 8.441 6.77657 7.31399C6.77657 6.18698 7.21608 5.12626 8.01407 4.32827C8.81206 3.53028 9.87277 3.09077 10.9998 3.09077C12.1268 3.09077 13.1875 3.53028 13.9855 4.32827C14.7835 5.12626 15.223 6.18698 15.223 7.31399C15.223 8.441 14.7835 9.50171 13.9855 10.2997C13.1875 11.0977 12.1268 11.5372 10.9998 11.5372Z" fill="#1C1A27"/>
</svg>
