<svg width="37" height="37" viewBox="0 0 37 37" fill="none" xmlns="http://www.w3.org/2000/svg">
<g id="brush">
<mask id="mask0_865_15115" style="mask-type:alpha" maskUnits="userSpaceOnUse" x="0" y="0" width="37" height="37">
<path id="Bounding box" d="M0 0H37V37H0V0Z" fill="#D9D9D9"/>
</mask>
<g mask="url(#mask0_865_15115)">
<path id="brush_2" d="M9.24992 32.375C8.09367 32.375 6.95027 32.0924 5.81971 31.5271C4.68915 30.9618 3.777 30.2167 3.08325 29.2917C3.75131 29.2917 4.43221 29.0283 5.12596 28.5016C5.81971 27.9748 6.16659 27.2104 6.16659 26.2083C6.16659 24.9236 6.61624 23.8316 7.51554 22.9323C8.41485 22.033 9.50686 21.5833 10.7916 21.5833C12.0763 21.5833 13.1683 22.033 14.0676 22.9323C14.9669 23.8316 15.4166 24.9236 15.4166 26.2083C15.4166 27.9042 14.8128 29.3559 13.6051 30.5635C12.3975 31.7712 10.9458 32.375 9.24992 32.375ZM9.24992 29.2917C10.0978 29.2917 10.8237 28.9897 11.4275 28.3859C12.0313 27.7821 12.3333 27.0562 12.3333 26.2083C12.3333 25.7715 12.1855 25.4054 11.89 25.1099C11.5945 24.8144 11.2284 24.6667 10.7916 24.6667C10.3548 24.6667 9.98863 24.8144 9.69315 25.1099C9.39766 25.4054 9.24992 25.7715 9.24992 26.2083C9.24992 26.7993 9.17926 27.3389 9.03794 27.8271C8.89662 28.3153 8.71034 28.7778 8.47908 29.2146C8.60756 29.266 8.73603 29.2917 8.8645 29.2917H9.24992ZM18.1145 23.125L13.8749 18.8854L27.6728 5.08749C27.9555 4.80485 28.3088 4.65711 28.7327 4.64426C29.1567 4.63142 29.5228 4.77916 29.8312 5.08749L31.9124 7.16874C32.2208 7.47708 32.3749 7.8368 32.3749 8.24791C32.3749 8.65902 32.2208 9.01874 31.9124 9.32708L18.1145 23.125Z" fill="#6E6D75"/>
</g>
</g>
</svg>
