<svg width="441" height="441" viewBox="0 0 441 441" fill="none" xmlns="http://www.w3.org/2000/svg">
<path d="M253.309 94.4177C253.066 86.7884 251.104 95.1453 252.206 97.3944C252.245 97.4627 252.297 97.5226 252.359 97.5707C252.422 97.6187 252.493 97.6541 252.568 97.6745C252.644 97.695 252.723 97.7003 252.801 97.6901C252.879 97.6799 252.954 97.6543 253.022 97.6149C253.111 97.5588 253.187 97.4834 253.243 97.3944C253.43 96.411 253.43 95.4011 253.243 94.4177H253.309ZM232.45 125.464C230.972 125.464 215.052 124.648 215.14 125.861C214.148 125.574 215.14 132.696 215.14 133.534C215.14 134.372 216.838 134.24 217.345 134.284C221.755 134.615 233.971 134.527 234.985 134.527C236 134.527 235.404 126.148 235.382 126.126C235.36 125.199 232.979 125.486 232.45 125.464ZM234.368 133.468C230.597 133.468 219.837 133.204 216.265 133.468C216 131.043 215.736 128.617 215.493 126.192L234.434 126.567C234.28 128.86 234.368 131.175 234.368 133.468ZM204.755 136.423C204.839 136.413 204.918 136.376 204.978 136.315C205.038 136.255 205.076 136.177 205.086 136.092V130.469C205.086 129.632 203.74 129.477 203.785 130.337C203.785 132.278 204.027 134.196 204.181 136.114C204.183 136.18 204.202 136.245 204.237 136.301C204.271 136.358 204.32 136.404 204.379 136.435C204.437 136.466 204.502 136.482 204.568 136.48C204.634 136.478 204.699 136.458 204.755 136.423ZM252.471 123.039C252.385 123.05 252.305 123.089 252.242 123.148C252.179 123.207 252.136 123.284 252.118 123.369C252.118 124.295 251.523 129.587 252.625 129.698C253.992 129.698 253.066 124.56 252.934 123.325C252.908 123.227 252.846 123.143 252.759 123.09C252.673 123.037 252.57 123.018 252.471 123.039ZM253.066 135.298C252.846 133.777 252.074 133.887 251.986 135.96V138.429C251.986 140.017 253.882 141.274 253.066 135.298ZM252.581 145.199C251.391 145.309 252.317 150.8 252.471 151.814C252.471 152.189 253.155 152.277 253.177 151.814C253.177 149.829 253.177 147.845 253.309 145.86C253.313 145.767 253.296 145.673 253.26 145.586C253.224 145.5 253.17 145.422 253.1 145.359C253.031 145.296 252.948 145.249 252.859 145.221C252.769 145.193 252.674 145.186 252.581 145.199ZM253.177 102.334C253.177 101.871 252.361 101.937 252.273 102.334C252.184 102.731 251.523 109.831 253.066 108.067C253.398 106.163 253.398 104.216 253.066 102.312L253.177 102.334ZM251.964 114.152V118.562C251.964 119.444 253.353 119.312 253.309 118.562C253.309 117.107 253.309 115.652 253.088 114.152C252.956 111.815 252.008 111.683 251.964 114.152ZM252.273 157.238C251.941 159.15 251.941 161.104 252.273 163.015C252.273 163.5 253.088 163.412 253.177 163.015C253.265 162.618 253.816 155.474 252.273 157.238ZM311.322 96.314C312.574 96.5184 313.727 97.1216 314.608 98.0339C315.093 98.541 315.71 97.659 313.902 96.2037C310.903 93.8444 309.647 96.0053 311.322 96.314ZM309.713 104.847C311.675 104.296 310.044 100.217 309.448 103.37C309.382 103.635 309.184 105.002 309.713 104.847ZM311.212 118.717C317.827 118.849 315.865 108.574 314.608 110.779C311.697 115.74 306.758 114.682 306.405 115.189C306.052 115.696 308.103 118.673 311.212 118.717ZM314.939 111.925C316.416 118.011 309.867 119.885 307.265 115.74C308.763 115.809 310.254 115.495 311.596 114.827C312.939 114.16 314.089 113.161 314.939 111.925ZM252.912 87.053C252.999 87.0127 253.074 86.9522 253.132 86.8766C253.496 84.9532 253.496 82.9787 253.132 81.0554C253.132 80.7026 252.493 80.5923 252.383 81.0554C252.038 82.9769 251.986 84.9395 252.228 86.8766C252.301 86.985 252.41 87.0629 252.536 87.0954C252.663 87.128 252.796 87.1128 252.912 87.053ZM301.378 110.029C301.819 112.014 307.023 109.853 302.458 109.632C302.745 106.782 303.344 103.972 304.244 101.253C304.597 100.062 302.679 100.592 301.554 108.508C301.407 109.001 301.347 109.516 301.378 110.029ZM203.851 141.913C203.897 143.863 204.067 145.807 204.358 147.735C204.358 147.828 204.395 147.918 204.461 147.984C204.527 148.05 204.617 148.087 204.711 148.087C204.804 148.087 204.894 148.05 204.96 147.984C205.026 147.918 205.063 147.828 205.063 147.735C205.813 137.922 203.851 141.781 203.851 141.913ZM298.313 100.68C297.519 101.738 297.673 103.657 298.555 102.885C299.437 102.113 298.864 99.9302 298.313 100.68ZM203.983 164.934C202.903 167.315 205.328 175.959 205.218 166.455C205.196 164.934 204.49 163.853 203.983 164.934ZM204.027 159.002C204.027 159.465 204.865 159.399 204.953 159.002C205.041 158.605 205.681 151.505 204.159 153.247C203.784 155.151 203.739 157.105 204.027 159.024V159.002Z" fill="white"/>
<path d="M290.288 84.87C291.726 86.1743 293.354 87.2524 295.117 88.0673C292.338 97.2621 286.429 126.787 302.063 128.551C302.063 129.962 301.93 131.373 301.864 132.807C297.035 134.301 292.395 136.351 288.039 138.915C286.253 141.825 284.467 144.758 282.791 147.735C280.583 151.841 278.603 156.067 276.859 160.391C279.959 161.525 282.85 163.164 285.415 165.242C288.061 167.227 283.342 170.248 281.446 172.651C286.814 182.498 293.832 191.351 302.195 198.824C302.702 195.782 303.297 193.18 303.54 192.209C298.468 183.389 291.853 150.314 292.625 137.966C293.948 137.305 295.271 136.71 296.594 136.158C296.594 138.672 298.998 144.736 301.555 145.353C301.842 146.235 302.989 144.471 303.76 143.699C304.179 145.221 304.753 146.786 305.017 147.933C306.85 147.541 308.756 147.686 310.508 148.352C311.434 147.073 312.999 145.243 313.771 144.383C314.146 144.89 314.763 145.971 315.425 145.86C320.695 144.868 328.655 139.841 331.367 134.946C332.999 135.365 334.586 135.828 336.174 136.357C321.775 152.145 307.509 179.112 303.804 199.729C313.33 192.849 329.008 181.383 336.438 174.305C330.683 165.33 325.877 165.992 337.431 163.721C339.636 163.302 341.73 162.883 343.891 162.574C343.318 153.96 342.348 145.39 340.981 136.864C336.057 134.749 330.862 133.331 325.546 132.652C325.413 129.235 325.546 125.795 325.546 122.377C325.546 122.377 341.267 103.613 339.415 91.1984C338.688 86.2371 334.807 85.8623 330.772 87.1632C333.881 84.1865 337.607 84.6495 337.387 82.7532C337.056 79.9529 329.978 81.6287 327.685 85.73C321.18 72.3015 305.635 68.4869 314.19 78.5858C308.567 74.8814 302.283 71.64 295.359 71.64C285.018 71.4857 283.783 78.9606 290.288 84.87ZM301.886 144.405C300.566 143.349 299.468 142.041 298.658 140.557C297.848 139.073 297.341 137.443 297.167 135.761C298.777 135.1 300.387 134.505 302.04 133.953C303.941 135.671 305.928 137.29 307.994 138.804C305.58 140.24 303.498 142.171 301.886 144.471V144.405ZM325.59 133.556C327.177 133.887 328.743 134.218 330.309 134.615C326.447 139.336 321.369 142.911 315.623 144.956C313.975 142.763 312.081 140.765 309.978 139.003C315.526 138.428 320.867 136.587 325.59 133.623V133.556ZM295.866 88.398C300.806 90.4707 316.02 92.6757 321.511 92.4552C318.291 100.614 322.018 108.574 324.311 104.803C324.95 103.723 326.053 102.025 327.839 103.436C328.875 104.274 329.272 106.303 327.464 109.522C325.553 112.693 324.575 116.338 324.642 120.04C324.352 124.333 324.293 128.639 324.465 132.939C319.74 135.591 314.581 137.382 309.229 138.231L302.614 133.336C302.834 130.536 303.606 127.382 302.614 127.382C301.355 127.308 300.127 126.964 299.013 126.374C297.898 125.785 296.923 124.963 296.153 123.965C290.001 116.578 293.639 97.1298 295.866 88.398Z" fill="white"/>
<path d="M297.212 97.5712C297.743 97.1557 298.353 96.8533 299.005 96.6826C299.658 96.512 300.338 96.4767 301.004 96.5789C301.099 96.5673 301.188 96.5251 301.257 96.4585C301.326 96.3919 301.372 96.3046 301.387 96.2099C301.402 96.1152 301.385 96.0181 301.34 95.9335C301.295 95.8489 301.224 95.7813 301.137 95.741C297.168 94.8149 295.911 98.6516 297.212 97.5712ZM305.128 149.08C303.364 157.782 301.607 166.499 299.858 175.231C300.87 180.059 302.347 184.778 304.268 189.321C306.005 184.075 308.014 178.923 310.287 173.886C309.758 167.756 309.449 152.784 309.692 149.984C308.33 149.14 306.708 148.819 305.128 149.08ZM145.53 94.396C147.382 94.1534 144.141 83.3709 144.714 92.7642C144.78 93.3375 144.714 94.5062 145.53 94.396ZM144.736 185.617C144.736 186.278 144.56 188.527 145.618 188.395C147.47 188.153 144.383 178.208 144.736 185.617ZM145.86 119.07C145.84 118.983 145.79 118.906 145.72 118.851C145.65 118.796 145.564 118.766 145.475 118.766C145.386 118.766 145.299 118.796 145.229 118.851C145.159 118.906 145.11 118.983 145.089 119.07C144.74 120.984 144.695 122.941 144.956 124.869C145.018 124.994 145.127 125.09 145.259 125.136C145.391 125.181 145.536 125.173 145.662 125.112C145.745 125.065 145.819 125.006 145.883 124.935C146.234 122.995 146.226 121.007 145.86 119.07ZM144.802 198.45C144.934 199.354 146.191 199.288 146.147 197.656C145.949 192.496 144.78 192.408 144.758 194.966C144.67 196.126 144.67 197.29 144.758 198.45H144.802ZM144.736 132.498C144.644 133.459 144.718 134.429 144.956 135.365C145.043 135.5 145.177 135.598 145.332 135.639C145.488 135.679 145.652 135.66 145.794 135.585L146.015 135.365C146.015 135.144 146.015 128.199 145.023 129.632C144.515 130.315 144.736 131.683 144.736 132.498ZM145.706 161.406C145.698 161.353 145.68 161.303 145.652 161.258C145.624 161.213 145.588 161.174 145.544 161.143C145.501 161.112 145.452 161.09 145.401 161.078C145.349 161.067 145.295 161.066 145.243 161.075C145.159 161.085 145.08 161.123 145.02 161.183C144.96 161.243 144.922 161.321 144.912 161.406C144.912 162.332 144.295 167.624 145.397 167.734C146.765 167.911 145.838 162.663 145.706 161.406ZM145.64 150.734C145.64 150.64 145.603 150.55 145.537 150.484C145.47 150.418 145.381 150.381 145.287 150.381C145.194 150.381 145.104 150.418 145.038 150.484C144.972 150.55 144.934 150.64 144.934 150.734C144.185 160.568 146.147 156.687 146.147 156.555C146.101 154.606 145.932 152.661 145.64 150.734ZM145.927 140.392C145.927 139.907 145.111 139.995 145.023 140.392C144.934 140.789 144.295 147.889 145.816 146.125C146.185 144.22 146.222 142.266 145.927 140.348V140.392ZM144.78 173.996V176.4C144.78 177.988 146.676 179.244 145.86 173.269C145.64 171.814 144.868 171.99 144.78 173.996ZM271.016 262.814C267.651 262.082 264.37 261.003 261.226 259.595C261.38 263.078 261.557 266.452 261.733 269.804C267.554 269.649 270.377 268.856 271.016 262.858V262.814ZM353.285 276.132L353.858 266.011C348.676 266.492 343.473 266.699 338.269 266.629C340.408 275.096 344.818 275.912 353.285 276.132ZM362.855 413.856C361.289 382.854 360.473 298.998 361.443 265.107C359.459 265.416 357.298 265.68 355.049 265.901C353.527 316.616 352.844 363.141 356.041 414.452C358.329 414.563 360.621 414.363 362.855 413.856ZM204.58 205.947L106.369 204.403C102.4 204.403 98.3648 204.161 94.3737 204.403C93.9107 204.403 93.9768 205.131 94.3737 205.175C99.2468 205.638 110.404 205.66 115.895 205.771L204.469 207.27C205.329 207.27 205.462 205.947 204.58 205.947Z" fill="white"/>
<path d="M337.915 414.187C343.422 414.658 348.954 414.761 354.475 414.495C352.27 368.984 351.432 323.451 353.218 277.786C348.411 277.786 340.473 276.595 338.114 271.678C337.283 270.105 336.895 268.338 336.989 266.562C322.767 266.187 309.405 263.497 305.833 256.838C305.042 258.386 303.774 259.639 302.216 260.41C302.216 263.012 301.819 275.404 302.878 277.367C303.694 278.932 305.502 278.712 306.979 278.976C307.125 279.017 307.249 279.115 307.323 279.247C307.398 279.379 307.417 279.536 307.376 279.682C307.348 279.775 307.297 279.861 307.227 279.93C307.158 279.999 307.073 280.05 306.979 280.079C302.878 280.74 301.048 278.337 300.827 274.522C300.463 270.046 300.463 265.548 300.827 261.072C294.521 264.048 283.32 265.239 272.162 263.056C272.162 269.848 267.554 271.567 261.688 271.722C265.437 339.04 274.433 380.494 285.789 414.385C286.164 415.466 309.471 415.223 309.427 414.187C307.707 376.217 306.781 342.899 310.948 309.67L308.743 292.03C302.79 289.472 303.892 287.62 304.884 288.259L308.501 290.464C309.316 290.839 310 290.795 309.956 291.831C315.931 332.734 325.523 371.785 337.915 414.187ZM124.846 189.365C118.522 189.122 112.189 189.269 105.883 189.806C104.472 189.96 104.119 190.115 104.119 191.526C104.119 193.51 104.119 197.634 105.023 197.105C105.155 197.634 119.973 197.524 124.074 197.303C125.199 197.303 125.419 196.575 124.78 196.311C125.287 196.245 125.464 189.63 124.846 189.365ZM105.178 196.642C105.288 194.666 105.288 192.686 105.178 190.71C111.285 190.556 118.077 190.71 124.008 190.291C124.008 191.107 123.677 195.804 124.251 196.245C121.891 196.09 105.552 196.465 105.178 196.642Z" fill="white"/>
<path d="M342.414 137.526C343.957 144.897 344.973 152.369 345.457 159.884C345.831 165.242 346.625 163.875 337.761 165.463C336.041 165.772 334.343 166.169 332.624 166.389C333.572 167.536 340.076 175.209 337.43 175.474C333.858 180.236 309.714 197.81 303.429 201.316C303.099 203.521 302.856 205.572 302.724 207.733C302.42 207.745 302.122 207.82 301.849 207.953C301.576 208.086 301.333 208.274 301.136 208.505C301.158 205.919 301.379 203.339 301.798 200.787C291.434 193.444 281.578 176.885 279.99 172.739C279.24 170.799 283.187 168.131 284.4 166.94C281.754 164.735 274.963 161.825 275.293 160.744C277.664 153.698 280.885 146.967 284.885 140.701C282.394 142.223 279.952 143.827 277.565 145.508C276.639 110.007 276.661 73.4042 274.522 38.0581H280.233C281.225 38.0581 281.159 35.5003 280.233 35.5003H274.279C260.63 33.0748 246.981 30.6713 233.398 27.8489C212.253 23.4389 190.732 18.0587 169.608 14.1118V11.4878C169.608 10.9145 167.271 10.8484 167.271 11.4878V13.9354C137.26 21.7411 106.876 28.2679 76.6671 34.949C72.8036 35.5944 68.9764 36.4408 65.2011 37.4848L57.8584 37.6391C57.0426 37.6391 57.0646 39.8441 57.8584 39.8441H65.4877C64.3853 98.894 64.275 157.9 63.8119 216.906C63.8119 218.185 63.2386 228.195 64.3632 228.195C77.064 228.46 166.366 228.195 166.366 228.195C166.366 286.495 166.293 344.803 166.146 403.118C148.175 412.621 123.479 425.873 119.356 428.321C118.606 428.519 54.9037 428.321 46.7232 428.519C46.2381 428.519 46.2381 429.446 46.7232 429.446C57.4174 429.82 375.555 429.975 375.555 429.975C376.437 429.975 376.613 428.497 375.731 428.497H361.134C360.642 424.259 359.794 420.069 358.598 415.973C353.576 416.48 348.516 416.48 343.494 415.973C339.988 417.23 326.141 422.588 325.59 428.431H309.868C309.492 424.343 308.709 420.303 307.531 416.37C302.124 417.621 296.517 417.748 291.059 416.745C288.7 417.583 275.249 422.456 274.257 428.475H219.419C218.096 427.152 170.799 404.066 170.005 403.801V228.261H258.337C257.543 239.286 257.212 256.574 257.72 256.794C280.453 266.474 302.327 262.593 305.105 255.295C299.769 247.952 300.188 228.482 300.232 224.822C300.655 225.498 301.151 226.126 301.709 226.696C301.423 233.311 301.423 253.729 310.331 259.616C319.768 265.879 350.55 266.474 363.89 263.1C364.023 256.794 363.714 248.636 363.427 244.38C351.696 243.447 340.056 241.604 328.61 238.867C327.398 238.603 319.041 237.059 318.908 236.067C318.776 235.075 318.622 233.73 318.534 232.539L314.124 231.547C314.105 225.94 314.667 220.346 315.799 214.855L319.195 214.723C319.371 213.576 319.195 211.481 320.54 211.481C323.787 210.41 327.102 209.555 330.463 208.924C336.093 207.733 341.708 206.594 347.309 205.506C345.858 199.568 344.9 193.52 344.442 187.425C344.442 186.719 345.457 186.543 345.523 187.248C346.245 193.316 347.38 199.328 348.918 205.241C355.352 203.897 361.861 202.948 368.411 202.397C368.524 202.421 368.626 202.483 368.7 202.574C368.773 202.664 368.813 202.777 368.813 202.893C368.813 203.009 368.773 203.122 368.7 203.212C368.626 203.302 368.524 203.365 368.411 203.389C352.667 204.646 336.438 208.924 321.003 212.584C319.656 220.112 319.263 227.779 319.835 235.406C329.664 237.987 339.632 240.011 349.69 241.469C366.095 243.476 390.372 247.467 393.79 224.822C399.215 191.063 372.644 151.241 342.414 137.526ZM166.146 428.365H125.684C139.113 421.022 152.695 414.43 166.256 406.8L166.146 428.365ZM266.937 35.4562L169.917 36.4484C169.917 29.2822 169.762 23.2184 169.63 16.0081C201.051 23.2184 235.052 29.8334 266.937 35.4562ZM167.204 16.1624C167.072 23.3066 166.94 29.3924 166.852 36.4925C134.284 36.8012 103.656 36.8894 71.0885 37.4848C103.833 31.0903 167.204 16.1624 167.204 16.1624ZM212.98 428.497H169.784V407.021C182.595 414.363 199.397 422.257 212.98 428.387V428.497ZM273.022 166.764C264.202 185.11 260.035 206.63 258.425 226.938C194.48 226.938 129.3 225.395 65.5318 226.784C65.9067 221.999 65.2011 214.105 65.2452 208.968C65.6862 152.564 67.5604 96.5126 67.34 40.0205C93.5354 40.0205 272.625 38.1242 272.625 38.1242C273.838 71.552 276.198 144.912 276.352 146.5C263.827 155.456 252.562 166.054 242.858 178.009C247.028 178.765 251.145 179.789 255.184 181.074C255.319 181.133 255.426 181.241 255.484 181.377C255.541 181.512 255.544 181.664 255.493 181.802C255.443 181.925 255.352 182.026 255.234 182.086C255.117 182.147 254.982 182.163 254.853 182.133C246.496 180.148 215.913 173.666 201.933 175.187C201.602 175.187 201.669 175.76 201.779 176.444C200.473 176.177 199.134 176.117 197.81 176.267C193.951 171.064 189.872 165.242 183.191 169.652C180.214 164.052 154.68 115.211 153.688 115.123C152.453 113.315 151.02 115.123 151.836 116.644L180.39 174.195C178.185 176.091 177.855 179.024 179.729 179.641C178.582 182.023 180.17 184.845 180.964 184.514C180.104 188.924 186.652 193.003 189.585 192.452C189.982 193.202 191.79 197.061 192.562 197.017C192.987 197.349 193.514 197.525 194.053 197.514C194.593 197.502 195.112 197.305 195.522 196.954C195.932 196.603 196.209 196.122 196.304 195.59C196.4 195.059 196.308 194.511 196.046 194.04L197.898 195.032C197.369 195.914 197.06 196.377 197.214 196.553C206.321 207.182 228.944 220.345 237.61 221.69C244.622 222.771 252.869 222.991 256.992 221.823C258.888 203.676 263.232 182.353 271.986 166.124C272.019 166.056 272.065 165.995 272.122 165.945C272.179 165.894 272.245 165.856 272.317 165.831C272.388 165.806 272.464 165.796 272.54 165.801C272.616 165.806 272.69 165.826 272.758 165.86C272.829 165.893 272.893 165.94 272.945 165.998C272.997 166.057 273.037 166.125 273.062 166.199C273.087 166.274 273.096 166.353 273.089 166.431C273.082 166.509 273.06 166.585 273.022 166.654V166.764ZM190.291 180.501C190.149 180.234 189.941 180.008 189.686 179.845C189.431 179.683 189.138 179.59 188.835 179.575C189.082 179.42 189.292 179.214 189.452 178.97C189.612 178.727 189.718 178.452 189.762 178.164C190.599 179.068 190.842 178.472 190.599 178.164C189.453 176.51 188.394 171.924 187.468 172.343C186.608 172.034 183.962 172.916 182.507 172.784C181.934 172.784 181.493 172.409 181.934 171.791C183.599 169.976 185.894 168.864 188.35 168.682C191.614 169.256 195.649 174.724 197.369 177.194C199.287 182.309 196.046 190.137 194.723 191.438L190.07 182.375C190.276 182.114 190.406 181.8 190.444 181.469C190.483 181.139 190.43 180.803 190.291 180.501ZM180.942 172.651L152.431 115.718C152.431 114.395 153.379 115.542 153.798 116.225C156.268 121.187 182.463 170.248 182.463 170.248C182.034 170.496 181.672 170.844 181.407 171.262C181.142 171.681 180.982 172.158 180.942 172.651ZM181.669 174.503C182.97 173.82 186.697 172.695 187.623 174.371C187.733 174.9 187.843 175.408 187.931 175.937C186.472 175.668 184.966 175.815 183.586 176.36C182.205 176.906 181.007 177.829 180.126 179.024C178.781 177.48 180.104 175.275 181.669 174.503ZM180.346 180.435C181.162 178.23 185.881 175.628 188.02 176.929C190.158 178.23 187.424 179.134 187.027 179.685C185.728 179.773 184.481 180.237 183.44 181.02C182.399 181.803 181.608 182.871 181.162 184.095C180.691 183.626 180.364 183.033 180.22 182.384C180.075 181.736 180.119 181.059 180.346 180.435ZM185.219 181.03C186.145 180.677 190.798 179.553 189.254 182.023C187.049 182.221 185.175 183.897 186.278 186.058C187.204 187.866 188.152 189.674 189.122 191.46C182.882 190.776 178.273 183.61 185.219 181.03ZM186.763 184.382C186.985 183.967 187.299 183.608 187.681 183.332C188.063 183.057 188.503 182.873 188.968 182.794C189.784 184.382 195.318 194.679 195.318 195.495C195.318 196.311 193.51 196.994 193.113 196.245C190.879 192.349 188.747 188.395 186.719 184.382H186.763ZM195.076 192.011C198.493 189.497 199.486 181.714 198.493 176.995L202.132 177.524C202.654 183.321 201.368 189.137 198.449 194.172C197.744 193.731 195.362 192.673 195.031 192.011H195.076ZM313.462 228.901C310.485 228.724 307.487 229.342 304.267 227.446C301.886 226.034 299.438 223.036 300.232 220.235C301.114 221.426 301.555 220.39 301.224 220.015C300.621 219.358 300.209 218.548 300.034 217.673C299.859 216.798 299.927 215.892 300.232 215.053C300.96 216.531 301.665 215.671 301.401 215.208C300.32 213.201 300.078 209.607 302.658 208.593C302.459 213.664 308.016 214.392 307.619 213.003C307.619 213.003 305.414 203.367 307.905 203.852C309.118 207.115 310.772 214.238 314.52 215.23C313.667 219.734 313.297 224.318 313.418 228.901H313.462Z" fill="white"/>
<path d="M91.1546 201.603C108.089 177.348 129.72 140.414 143.876 114.77C144.411 115.1 145.027 115.274 145.655 115.271C146.283 115.267 146.898 115.088 147.429 114.752C147.96 114.417 148.386 113.938 148.659 113.372C148.931 112.806 149.039 112.175 148.97 111.551C166.125 115.961 184.007 118.54 201.338 122.399C201.669 127.008 208.152 125.244 207.16 121.473C221.536 106.964 237.015 91.5292 251.061 77.1526L251.59 77.3731C252.418 77.6464 253.32 77.582 254.1 77.1939C254.881 76.8057 255.476 76.1253 255.758 75.3004C256.045 74.5261 256.024 73.6711 255.698 72.9121C255.373 72.1531 254.768 71.5483 254.009 71.2227C253.25 70.897 252.395 70.8754 251.621 71.1624C250.846 71.4494 250.212 72.0231 249.848 72.7646C249.536 73.3533 249.405 74.0215 249.471 74.6847C249.538 75.3479 249.8 75.9765 250.223 76.4911C236.023 90.8897 220.235 105.707 206.763 120.591C206.407 120.102 205.916 119.727 205.352 119.511C204.597 119.238 203.765 119.273 203.035 119.606C202.306 119.94 201.736 120.547 201.449 121.297C192.629 119.511 152.939 110.823 148.793 110.669C147.184 105.906 139.687 110.029 142.928 113.998C126.324 144.118 108.552 171.99 90.4049 201.096C89.6844 200.749 88.8682 200.654 88.0872 200.826C87.3062 200.998 86.6055 201.427 86.0972 202.044C85.589 202.662 85.3027 203.432 85.2842 204.231C85.2656 205.031 85.5159 205.813 85.9949 206.454C88.9276 210.621 95.1236 205.197 91.1546 201.603ZM252.517 56.3815C251.701 56.4917 251.987 57.6163 252.031 58.1675C252.958 67.4726 254.501 56.183 252.517 56.3815Z" fill="white"/>
<path d="M204.601 99.0264C203.256 98.8941 204.16 104.142 204.292 105.377C204.3 105.429 204.318 105.48 204.346 105.525C204.374 105.57 204.41 105.609 204.454 105.64C204.497 105.671 204.546 105.693 204.597 105.704C204.649 105.716 204.703 105.717 204.755 105.708C204.839 105.698 204.918 105.66 204.978 105.6C205.038 105.54 205.076 105.461 205.086 105.377C205.064 104.429 205.703 99.2248 204.601 99.0264ZM205.064 116.137C205.813 106.325 203.851 110.184 203.851 110.316C203.898 112.258 204.068 114.195 204.358 116.115C204.355 116.209 204.389 116.3 204.454 116.368C204.518 116.436 204.606 116.476 204.7 116.479C204.793 116.482 204.884 116.448 204.953 116.383C205.021 116.319 205.061 116.231 205.064 116.137ZM204.38 78.2112C203.564 78.3214 203.851 79.446 203.917 79.9972C204.909 89.3023 206.365 78.0127 204.38 78.2112ZM252.096 65.1576C251.523 70.5598 253.574 71.0449 253.309 67.0539C253.309 66.1939 253.044 65.334 252.934 64.474C252.934 64.0992 252.229 63.7905 252.096 65.1576ZM230.576 67.8036C234.677 68.2225 243.453 67.9579 243.982 67.9359C247.289 67.9359 246.959 67.9359 246.716 64.7607C246.716 63.0849 246.496 61.2547 245.724 61.4752L229.164 61.1224C227.863 60.7696 228.348 62.9305 228.415 64.3197C228.547 66.8334 227.665 67.4949 230.576 67.8036ZM229.495 62.0485L245.658 62.5336L245.79 66.7672H229.473L229.495 62.0485ZM204.16 62.4454C204.19 62.5439 204.258 62.6266 204.349 62.676C204.439 62.7254 204.545 62.7376 204.645 62.71C204.71 62.6909 204.769 62.657 204.819 62.6112C204.869 62.5653 204.907 62.5086 204.931 62.4454C205.268 60.5302 205.313 58.5749 205.064 56.6463C205.035 56.5794 204.993 56.5191 204.941 56.4691C204.888 56.4192 204.826 56.3806 204.757 56.3557C204.689 56.3309 204.616 56.3204 204.544 56.3249C204.472 56.3293 204.401 56.3487 204.336 56.3817C204.256 56.4227 204.188 56.4834 204.138 56.5581C203.817 58.4853 203.817 60.4521 204.138 62.3793L204.16 62.4454ZM204.579 67.4508C203.498 67.4508 203.917 69.5455 203.961 70.1409C204.358 78.2332 206.651 67.4949 204.579 67.4508ZM116.29 108.177C116.29 108.508 116.886 108.552 117.79 108.552C121.648 108.552 135.584 109.654 135.827 108.111C136.62 108.111 136.334 103.326 136.224 102.4C137.216 100.041 118.363 101.783 116.996 101.672C116.379 101.496 116.092 102.18 116.202 103.194C116.379 104.914 116.202 107.383 116.29 108.177ZM117.238 102.621C123.192 102.621 129.52 102.775 135.452 102.621V107.714C129.234 107.957 123.214 107.714 117.15 107.89C117.269 106.136 117.298 104.378 117.238 102.621ZM87.6474 62.8864C87.3166 80.1516 87.4489 170.424 87.493 198.295C87.493 199.177 88.8822 199.288 88.8822 198.295C88.8822 180.391 89.0806 90.03 88.5073 62.7541C89.1688 62.7541 91.4841 62.6439 91.9471 61.8942C92.4102 61.1445 89.1688 52.567 88.6837 51.2881C88.5073 50.8471 87.934 51.1558 87.8458 51.4645C86.7874 54.9705 85.6408 58.4103 84.7147 61.9603C84.4501 63.0408 86.9638 62.9085 87.6474 62.8864ZM205.218 92.6098V90.1843C205.218 88.6188 203.322 87.3399 204.138 93.3375C204.358 94.8148 205.064 94.8148 205.218 92.6098ZM144.779 104.539C144.911 105.443 146.19 105.355 146.124 103.723C145.926 98.5633 144.757 98.4751 144.735 101.055C144.647 102.215 144.647 103.379 144.735 104.539H144.779ZM145.529 63.2392C146.741 63.129 145.793 57.6385 145.529 56.6242C145.529 56.2494 144.845 56.1612 144.823 56.6242C144.823 58.6087 144.779 60.5932 144.691 62.5777C144.687 62.6817 144.708 62.785 144.751 62.8794C144.795 62.9738 144.86 63.0566 144.942 63.121C145.024 63.1854 145.119 63.2297 145.221 63.2503C145.323 63.2708 145.428 63.267 145.529 63.2392ZM144.757 80.0413V82.5109C144.757 84.0765 146.653 85.3113 145.837 79.3578C145.529 77.8363 144.845 77.9686 144.757 80.0413ZM145.374 73.7571C146.741 73.8894 145.815 68.6415 145.683 67.3846C145.683 67.2794 145.641 67.1784 145.567 67.104C145.492 67.0296 145.391 66.9877 145.286 66.9877C145.181 66.9877 145.08 67.0296 145.005 67.104C144.931 67.1784 144.889 67.2794 144.889 67.3846C144.889 68.3548 144.272 73.6468 145.374 73.7571Z" fill="white"/>
</svg>
