<svg width="25" height="24" viewBox="0 0 25 24" fill="none" xmlns="http://www.w3.org/2000/svg">
<g id="celebration">
<mask id="mask0_891_3539" style="mask-type:alpha" maskUnits="userSpaceOnUse" x="0" y="0" width="25" height="24">
<rect id="Bounding box" x="0.375" width="24" height="24" fill="#D9D9D9"/>
</mask>
<g mask="url(#mask0_891_3539)">
<path id="celebration_2" d="M3.17322 21.173L7.55772 8.904L15.4422 16.7885L3.17322 21.173ZM14.3577 12.7037L13.5192 11.8655L19.0037 6.38075C19.5051 5.87958 20.1115 5.629 20.823 5.629C21.5345 5.629 22.1409 5.87958 22.6422 6.38075L23.1267 6.8655L22.3077 7.70375L21.823 7.21925C21.5511 6.94742 21.2211 6.8115 20.8327 6.8115C20.4442 6.8115 20.1141 6.94742 19.8422 7.21925L14.3577 12.7037ZM10.7037 9.05L9.86547 8.2115L10.4655 7.6115C10.7628 7.31417 10.9115 6.95392 10.9115 6.53075C10.9115 6.10775 10.7628 5.7475 10.4655 5.45L9.83447 4.81925L10.673 3.98075L11.3037 4.6115C11.8371 5.14483 12.1037 5.78458 12.1037 6.53075C12.1037 7.27692 11.8371 7.91667 11.3037 8.45L10.7037 9.05ZM12.5307 10.877L11.6922 10.0385L15.177 6.554C15.4486 6.28217 15.5845 5.952 15.5845 5.5635C15.5845 5.175 15.4486 4.84483 15.177 4.573L13.6922 3.0885L14.5307 2.25L16.0152 3.73475C16.5231 4.24242 16.777 4.852 16.777 5.5635C16.777 6.275 16.5231 6.88458 16.0152 7.39225L12.5307 10.877ZM16.1845 14.5308L15.346 13.6923L16.5422 12.4963C17.0819 11.9564 17.7331 11.6865 18.496 11.6865C19.2588 11.6865 19.9101 11.9564 20.45 12.4963L21.646 13.6923L20.8075 14.5308L19.6115 13.3348C19.3076 13.0308 18.9358 12.8787 18.496 12.8787C18.0563 12.8787 17.6846 13.0308 17.3807 13.3348L16.1845 14.5308Z" fill="#F74F09"/>
</g>
</g>
</svg>
