<svg width="16" height="17" viewBox="0 0 16 17" fill="none" xmlns="http://www.w3.org/2000/svg">
<g id="center_focus_weak">
<mask id="mask0_891_3554" style="mask-type:alpha" maskUnits="userSpaceOnUse" x="0" y="0" width="16" height="17">
<rect id="Bounding box" y="0.25" width="16" height="16" fill="#D9D9D9"/>
</mask>
<g mask="url(#mask0_891_3554)">
<path id="center_focus_weak_2" d="M3.74791 13.5832C3.43825 13.5832 3.18064 13.4804 2.97508 13.2748C2.76953 13.0693 2.66675 12.8117 2.66675 12.502V10.2498H3.33341V12.5062C3.33341 12.6088 3.37614 12.7029 3.46158 12.7883C3.54703 12.8738 3.64108 12.9165 3.74375 12.9165H6.00008V13.5832H3.74791ZM10.0001 13.5832V12.9165H12.2564C12.3591 12.9165 12.4531 12.8738 12.5386 12.7883C12.624 12.7029 12.6667 12.6088 12.6667 12.5062V10.2498H13.3334V12.502C13.3334 12.8117 13.2306 13.0693 13.0251 13.2748C12.8195 13.4804 12.5619 13.5832 12.2522 13.5832H10.0001ZM2.66675 6.24984V3.99767C2.66675 3.688 2.76953 3.43039 2.97508 3.22484C3.18064 3.01928 3.43825 2.9165 3.74791 2.9165H6.00008V3.58317H3.74375C3.64108 3.58317 3.54703 3.62589 3.46158 3.71134C3.37614 3.79678 3.33341 3.89084 3.33341 3.9935V6.24984H2.66675ZM12.6667 6.24984V3.9935C12.6667 3.89084 12.624 3.79678 12.5386 3.71134C12.4531 3.62589 12.3591 3.58317 12.2564 3.58317H10.0001V2.9165H12.2522C12.5619 2.9165 12.8195 3.01928 13.0251 3.22484C13.2306 3.43039 13.3334 3.688 13.3334 3.99767V6.24984H12.6667ZM8.00008 10.2498C7.45008 10.2498 6.97925 10.054 6.58758 9.66234C6.19591 9.27067 6.00008 8.79984 6.00008 8.24984C6.00008 7.69984 6.19591 7.229 6.58758 6.83734C6.97925 6.44567 7.45008 6.24984 8.00008 6.24984C8.55008 6.24984 9.02092 6.44567 9.41258 6.83734C9.80425 7.229 10.0001 7.69984 10.0001 8.24984C10.0001 8.79984 9.80425 9.27067 9.41258 9.66234C9.02092 10.054 8.55008 10.2498 8.00008 10.2498Z" fill="#1E1E1E"/>
</g>
</g>
</svg>
