<svg width="13" height="13" viewBox="0 0 13 13" fill="none" xmlns="http://www.w3.org/2000/svg">
<g id="check_circle">
<mask id="mask0_891_3571" style="mask-type:alpha" maskUnits="userSpaceOnUse" x="0" y="0" width="13" height="13">
<rect id="Bounding box" x="0.75" y="0.25" width="12" height="12" fill="#D9D9D9"/>
</mask>
<g mask="url(#mask0_891_3571)">
<path id="check_circle_2" d="M6.03078 8.20384L9.22885 5.00577L8.875 4.65192L6.03078 7.49614L4.60578 6.07115L4.25192 6.42499L6.03078 8.20384ZM6.75168 10.75C6.1294 10.75 5.54436 10.6319 4.99655 10.3958C4.44874 10.1596 3.97222 9.83908 3.56699 9.43423C3.16176 9.02938 2.84096 8.55331 2.60457 8.00602C2.36819 7.45872 2.25 6.87394 2.25 6.25167C2.25 5.6294 2.36808 5.04435 2.60424 4.49655C2.8404 3.94874 3.16091 3.47222 3.56576 3.06699C3.97061 2.66176 4.44668 2.34096 4.99398 2.10457C5.54128 1.86819 6.12606 1.75 6.74832 1.75C7.3706 1.75 7.95564 1.86808 8.50345 2.10424C9.05126 2.3404 9.52778 2.66091 9.93301 3.06576C10.3382 3.47061 10.659 3.94668 10.8954 4.49397C11.1318 5.04127 11.25 5.62605 11.25 6.24832C11.25 6.87059 11.1319 7.45564 10.8958 8.00344C10.6596 8.55125 10.3391 9.02777 9.93424 9.433C9.52939 9.83823 9.05332 10.159 8.50602 10.3954C7.95872 10.6318 7.37394 10.75 6.75168 10.75Z" fill="#1E1E1E"/>
</g>
</g>
</svg>
