<svg width="37" height="37" viewBox="0 0 37 37" fill="none" xmlns="http://www.w3.org/2000/svg">
<g id="contrast">
<mask id="mask0_865_15105" style="mask-type:alpha" maskUnits="userSpaceOnUse" x="0" y="0" width="37" height="37">
<path id="Bounding box" d="M0 0H37V37H0V0Z" fill="#D9D9D9"/>
</mask>
<g mask="url(#mask0_865_15105)">
<path id="contrast_2" d="M18.4999 33.9167C16.3673 33.9167 14.3631 33.512 12.4874 32.7026C10.6117 31.8932 8.98013 30.7948 7.59263 29.4073C6.20513 28.0198 5.10669 26.3882 4.29731 24.5125C3.48794 22.6368 3.08325 20.6326 3.08325 18.5C3.08325 16.3674 3.48794 14.3632 4.29731 12.4875C5.10669 10.6118 6.20513 8.98022 7.59263 7.59272C8.98013 6.20522 10.6117 5.10678 12.4874 4.29741C14.3631 3.48803 16.3673 3.08334 18.4999 3.08334C20.6326 3.08334 22.6367 3.48803 24.5124 4.29741C26.3881 5.10678 28.0197 6.20522 29.4072 7.59272C30.7947 8.98022 31.8931 10.6118 32.7025 12.4875C33.5119 14.3632 33.9166 16.3674 33.9166 18.5C33.9166 20.6326 33.5119 22.6368 32.7025 24.5125C31.8931 26.3882 30.7947 28.0198 29.4072 29.4073C28.0197 30.7948 26.3881 31.8932 24.5124 32.7026C22.6367 33.512 20.6326 33.9167 18.4999 33.9167ZM20.0416 30.7177C23.0992 30.3323 25.6622 28.9898 27.7306 26.6901C29.7991 24.3905 30.8333 21.6604 30.8333 18.5C30.8333 15.3396 29.7991 12.6096 27.7306 10.3099C25.6622 8.01025 23.0992 6.66772 20.0416 6.2823V30.7177Z" fill="#6E6D75"/>
</g>
</g>
</svg>
