<svg width="16" height="17" viewBox="0 0 16 17" fill="none" xmlns="http://www.w3.org/2000/svg">
<g id="copy_all">
<mask id="mask0_891_3559" style="mask-type:alpha" maskUnits="userSpaceOnUse" x="0" y="0" width="16" height="17">
<rect id="Bounding box" y="0.25" width="16" height="16" fill="#D9D9D9"/>
</mask>
<g mask="url(#mask0_891_3559)">
<path id="copy_all_2" d="M2.66675 11.8653V11.0448H3.48725V11.8653H2.66675ZM2.66675 9.48083V8.66033H3.48725V9.48083H2.66675ZM2.66675 7.09617V6.27567H3.48725V7.09617H2.66675ZM5.05141 14.25V13.4295H5.87191V14.25H5.05141ZM6.20525 11.7885C5.89836 11.7885 5.64214 11.6857 5.43658 11.4802C5.23103 11.2746 5.12825 11.0184 5.12825 10.7115V3.327C5.12825 3.02011 5.23103 2.76389 5.43658 2.55833C5.64214 2.35278 5.89836 2.25 6.20525 2.25H11.5897C11.8966 2.25 12.1529 2.35278 12.3584 2.55833C12.564 2.76389 12.6667 3.02011 12.6667 3.327V10.7115C12.6667 11.0184 12.564 11.2746 12.3584 11.4802C12.1529 11.6857 11.8966 11.7885 11.5897 11.7885H6.20525ZM7.43591 14.25V13.4295H8.25642V14.25H7.43591ZM3.48725 14.25C3.26158 14.25 3.06841 14.1697 2.90775 14.009C2.74708 13.8483 2.66675 13.6552 2.66675 13.4295H3.48725V14.25ZM9.82058 14.25V13.4295H10.6411C10.6411 13.6594 10.5607 13.8536 10.4001 14.0122C10.2394 14.1707 10.0462 14.25 9.82058 14.25ZM2.66675 4.7115C2.66675 4.48583 2.74708 4.29267 2.90775 4.132C3.06841 3.97133 3.26158 3.891 3.48725 3.891V4.7115H2.66675Z" fill="#1E1E1E"/>
</g>
</g>
</svg>
