<svg width="22" height="22" viewBox="0 0 22 22" fill="none" xmlns="http://www.w3.org/2000/svg">
<path d="M9.72765 10.9988L3.28234 3.31604C3.1743 3.18836 3.26515 2.99438 3.43211 2.99438H5.39149C5.50689 2.99438 5.61738 3.04595 5.6935 3.13434L11.0093 9.47162L16.3252 3.13434C16.3989 3.04595 16.5093 2.99438 16.6272 2.99438H18.5866C18.7535 2.99438 18.8444 3.18836 18.7364 3.31604L12.291 10.9988L18.7364 18.6817C18.7606 18.7101 18.7761 18.7449 18.7811 18.7819C18.7861 18.819 18.7804 18.8566 18.7646 18.8905C18.7488 18.9244 18.7237 18.953 18.6921 18.973C18.6606 18.993 18.6239 19.0035 18.5866 19.0033H16.6272C16.5118 19.0033 16.4013 18.9518 16.3252 18.8634L11.0093 12.5261L5.6935 18.8634C5.61984 18.9518 5.50935 19.0033 5.39149 19.0033H3.43211C3.26515 19.0033 3.1743 18.8093 3.28234 18.6817L9.72765 10.9988Z" fill="white"/>
</svg>
