<svg width="37" height="37" viewBox="0 0 37 37" fill="none" xmlns="http://www.w3.org/2000/svg">
<mask id="mask0_462_9962" style="mask-type:alpha" maskUnits="userSpaceOnUse" x="0" y="0" width="37" height="38">
<rect y="0.000976562" width="37" height="37" fill="#D9D9D9"/>
</mask>
<g mask="url(#mask0_462_9962)">
<path d="M21.1594 32.376L10.7917 21.5843V18.501H16.1875C17.5493 18.501 18.7248 18.0577 19.7141 17.1713C20.7033 16.2848 21.3007 15.1864 21.5063 13.876H9.25V10.7926H21.0437C20.6069 9.89334 19.9582 9.15462 19.0974 8.5765C18.2366 7.99837 17.2667 7.70931 16.1875 7.70931H9.25V4.62598H27.75V7.70931H22.7396C23.0993 8.14612 23.4205 8.62146 23.7031 9.13535C23.9858 9.64924 24.2042 10.2017 24.3583 10.7926H27.75V13.876H24.6281C24.4226 16.06 23.5233 17.8907 21.9302 19.3682C20.3372 20.8456 18.4229 21.5843 16.1875 21.5843H15.0698L25.4375 32.376H21.1594Z" fill="#6E6D75"/>
</g>
</svg>
