<svg width="26" height="26" viewBox="0 0 26 26" fill="none" xmlns="http://www.w3.org/2000/svg">
<g clip-path="url(#clip0_194_3494)">
<path d="M16.2501 18.6381H14.0999V11.6071C14.0999 11.4794 13.9954 11.375 13.8678 11.375H12.1267C11.999 11.375 11.8945 11.4794 11.8945 11.6071V18.6381H9.75012C9.55571 18.6381 9.44834 18.8616 9.56731 19.0125L12.8173 23.1243C12.839 23.152 12.8668 23.1745 12.8984 23.1899C12.9301 23.2054 12.9649 23.2134 13.0001 23.2134C13.0354 23.2134 13.0701 23.2054 13.1018 23.1899C13.1335 23.1745 13.1612 23.152 13.1829 23.1243L16.4329 19.0125C16.5519 18.8616 16.4445 18.6381 16.2501 18.6381Z" fill="#9C9BA1"/>
<path d="M21.6879 8.77839C20.3589 5.27303 16.9725 2.7804 13.0058 2.7804C9.03906 2.7804 5.65268 5.27013 4.32366 8.77548C1.83683 9.42839 0 11.6947 0 14.3875C0 17.594 2.5971 20.1911 5.80067 20.1911H6.96429C7.09196 20.1911 7.19643 20.0866 7.19643 19.959V18.2179C7.19643 18.0902 7.09196 17.9858 6.96429 17.9858H5.80067C4.82277 17.9858 3.9029 17.5969 3.21808 16.8918C2.53616 16.1895 2.17344 15.2436 2.20536 14.2628C2.23147 13.4967 2.49263 12.777 2.96562 12.1706C3.45022 11.5525 4.12924 11.1027 4.88371 10.9025L5.98348 10.6152L6.38683 9.55316C6.63638 8.89156 6.9846 8.27348 7.42277 7.71343C7.85534 7.15834 8.36775 6.67038 8.9433 6.26544C10.1359 5.42682 11.5404 4.98285 13.0058 4.98285C14.4712 4.98285 15.8757 5.42682 17.0683 6.26544C17.6458 6.67169 18.1565 7.15919 18.5888 7.71343C19.027 8.27348 19.3752 8.89446 19.6248 9.55316L20.0252 10.6123L21.1221 10.9025C22.6949 11.3262 23.7946 12.7567 23.7946 14.3875C23.7946 15.348 23.4203 16.2534 22.7413 16.9324C22.4083 17.2674 22.0122 17.5329 21.5758 17.7137C21.1395 17.8945 20.6716 17.987 20.1993 17.9858H19.0357C18.908 17.9858 18.8036 18.0902 18.8036 18.2179V19.959C18.8036 20.0866 18.908 20.1911 19.0357 20.1911H20.1993C23.4029 20.1911 26 17.594 26 14.3875C26 11.6976 24.169 9.43419 21.6879 8.77839Z" fill="#9C9BA1"/>
</g>
<defs>
<clipPath id="clip0_194_3494">
<rect width="26" height="26" fill="white"/>
</clipPath>
</defs>
</svg>
