<svg width="18" height="18" viewBox="0 0 18 18" fill="none" xmlns="http://www.w3.org/2000/svg">
<rect x="0.25" y="0.25" width="17.5" height="17.5" rx="8.75" fill="#E5D7FF"/>
<rect x="0.25" y="0.25" width="17.5" height="17.5" rx="8.75" stroke="#573CFA" stroke-width="0.5"/>
<g clip-path="url(#clip0_3012_29924)">
<rect width="10" height="10" transform="translate(4 4)" fill="white" fill-opacity="0.01"/>
<g clip-path="url(#clip1_3012_29924)">
<path d="M6.16127 11.6775C6.18359 11.6775 6.20592 11.6753 6.22824 11.6719L8.10547 11.3427C8.12779 11.3382 8.149 11.3282 8.16462 11.3115L12.8956 6.58043C12.906 6.5701 12.9142 6.55784 12.9198 6.54434C12.9254 6.53083 12.9283 6.51636 12.9283 6.50174C12.9283 6.48713 12.9254 6.47265 12.9198 6.45915C12.9142 6.44565 12.906 6.43339 12.8956 6.42306L11.0407 4.56703C11.0195 4.54583 10.9916 4.53467 10.9615 4.53467C10.9314 4.53467 10.9035 4.54583 10.8823 4.56703L6.15123 9.29806C6.13449 9.3148 6.12444 9.33489 6.11998 9.35721L5.79074 11.2344C5.77988 11.2942 5.78376 11.3558 5.80204 11.4137C5.82032 11.4717 5.85245 11.5243 5.89565 11.567C5.96931 11.6385 6.06194 11.6775 6.16127 11.6775ZM6.9135 9.7311L10.9615 5.68422L11.7796 6.5023L7.73158 10.5492L6.7394 10.7244L6.9135 9.7311ZM13.1066 12.615H4.8923C4.69475 12.615 4.53516 12.7746 4.53516 12.9722V13.374C4.53516 13.4231 4.57533 13.4632 4.62444 13.4632H13.3744C13.4235 13.4632 13.4637 13.4231 13.4637 13.374V12.9722C13.4637 12.7746 13.3041 12.615 13.1066 12.615Z" fill="#573CFA"/>
</g>
</g>
<defs>
<clipPath id="clip0_3012_29924">
<rect width="10" height="10" fill="white" transform="translate(4 4)"/>
</clipPath>
<clipPath id="clip1_3012_29924">
<rect width="10" height="10" fill="white" transform="translate(4 4)"/>
</clipPath>
</defs>
</svg>
