<svg width="22" height="22" viewBox="0 0 22 22" fill="none" xmlns="http://www.w3.org/2000/svg">
<path d="M19.4211 2.35446L14.7755 2.93147C14.6135 2.95111 14.5472 3.14754 14.6601 3.26294L16.0032 4.60602L12.2342 8.375C12.1977 8.41191 12.1772 8.46177 12.1772 8.51372C12.1772 8.56568 12.1977 8.61553 12.2342 8.65245L13.3416 9.75982C13.4177 9.83593 13.543 9.83593 13.6191 9.75982L17.3905 5.98839L18.7336 7.33147C18.7595 7.35737 18.7922 7.37544 18.8279 7.38362C18.8636 7.39179 18.9009 7.38974 18.9355 7.3777C18.9701 7.36565 19.0006 7.3441 19.0235 7.31551C19.0464 7.28692 19.0608 7.25246 19.0651 7.21607L19.6396 2.57299C19.6437 2.54333 19.6408 2.51314 19.6313 2.48478C19.6217 2.45641 19.6058 2.43064 19.5846 2.40947C19.5634 2.38831 19.5377 2.37233 19.5093 2.36279C19.4809 2.35324 19.4507 2.35039 19.4211 2.35446ZM8.65679 12.2299C8.61987 12.1933 8.57002 12.1728 8.51806 12.1728C8.46611 12.1728 8.41625 12.1933 8.37933 12.2299L4.61036 16.0013L3.26728 14.6583C3.24137 14.6324 3.20868 14.6143 3.17297 14.6061C3.13726 14.5979 3.09996 14.6 3.06536 14.612C3.03076 14.6241 3.00026 14.6456 2.97734 14.6742C2.95443 14.7028 2.94003 14.7373 2.93581 14.7737L2.3588 19.4167C2.34407 19.5444 2.44965 19.65 2.57732 19.6353L7.22286 19.0583C7.38492 19.0386 7.45121 18.8422 7.33826 18.7268L5.99518 17.3837L9.76661 13.6123C9.84273 13.5362 9.84273 13.4109 9.76661 13.3348L8.65679 12.2299Z" fill="white"/>
</svg>
