<svg width="25" height="24" viewBox="0 0 25 24" fill="none" xmlns="http://www.w3.org/2000/svg">
<g id="exclamation-circle">
<path id="Vector" d="M12.5 1.5C6.70156 1.5 2 6.20156 2 12C2 17.7984 6.70156 22.5 12.5 22.5C18.2984 22.5 23 17.7984 23 12C23 6.20156 18.2984 1.5 12.5 1.5ZM11.75 6.9375C11.75 6.83437 11.8344 6.75 11.9375 6.75H13.0625C13.1656 6.75 13.25 6.83437 13.25 6.9375V13.3125C13.25 13.4156 13.1656 13.5 13.0625 13.5H11.9375C11.8344 13.5 11.75 13.4156 11.75 13.3125V6.9375ZM12.5 17.25C12.2056 17.244 11.9253 17.1228 11.7192 16.9125C11.5132 16.7022 11.3977 16.4195 11.3977 16.125C11.3977 15.8305 11.5132 15.5478 11.7192 15.3375C11.9253 15.1272 12.2056 15.006 12.5 15C12.7944 15.006 13.0747 15.1272 13.2808 15.3375C13.4868 15.5478 13.6023 15.8305 13.6023 16.125C13.6023 16.4195 13.4868 16.7022 13.2808 16.9125C13.0747 17.1228 12.7944 17.244 12.5 17.25Z" fill="#FAAD14"/>
</g>
</svg>
