<svg width="65" height="64" viewBox="0 0 65 64" fill="none" xmlns="http://www.w3.org/2000/svg">
<g id="FileAdd" clip-path="url(#clip0_2477_5047)">
<path id="Vector" d="M56.9717 16.0429L41.6003 0.671429C41.1717 0.242857 40.5931 0 39.986 0H9.64314C8.37885 0 7.35742 1.02143 7.35742 2.28571V61.7143C7.35742 62.9786 8.37885 64 9.64314 64H55.3574C56.6217 64 57.6431 62.9786 57.6431 61.7143V17.6643C57.6431 17.0571 57.4003 16.4714 56.9717 16.0429ZM52.3717 18.7143H38.9289V5.27143L52.3717 18.7143ZM52.5003 58.8571H12.5003V5.14286H34.0717V20.5714C34.0717 21.3671 34.3878 22.1301 34.9504 22.6928C35.513 23.2554 36.2761 23.5714 37.0717 23.5714H52.5003V58.8571ZM34.786 29.1429C34.786 28.8286 34.5289 28.5714 34.2146 28.5714H30.786C30.4717 28.5714 30.2146 28.8286 30.2146 29.1429V36.8571H22.5003C22.186 36.8571 21.9289 37.1143 21.9289 37.4286V40.8571C21.9289 41.1714 22.186 41.4286 22.5003 41.4286H30.2146V49.1429C30.2146 49.4571 30.4717 49.7143 30.786 49.7143H34.2146C34.5289 49.7143 34.786 49.4571 34.786 49.1429V41.4286H42.5003C42.8146 41.4286 43.0717 41.1714 43.0717 40.8571V37.4286C43.0717 37.1143 42.8146 36.8571 42.5003 36.8571H34.786V29.1429Z" fill="#6E6D75"/>
</g>
<defs>
<clipPath id="clip0_2477_5047">
<rect width="64" height="64" fill="white" transform="translate(0.5)"/>
</clipPath>
</defs>
</svg>
