<svg width="37" height="37" viewBox="0 0 37 37" fill="none" xmlns="http://www.w3.org/2000/svg">
<mask id="mask0_462_9968" style="mask-type:alpha" maskUnits="userSpaceOnUse" x="0" y="0" width="37" height="38">
<rect y="0.000976562" width="37" height="37" fill="#D9D9D9"/>
</mask>
<g mask="url(#mask0_462_9968)">
<path d="M27.3639 31.2197C25.7452 31.2197 24.377 30.6609 23.2592 29.5432C22.1415 28.4255 21.5827 27.0572 21.5827 25.4385C21.5827 23.8197 22.1415 22.4515 23.2592 21.3338C24.377 20.2161 25.7452 19.6572 27.3639 19.6572C28.9827 19.6572 30.3509 20.2161 31.4686 21.3338C32.5863 22.4515 33.1452 23.8197 33.1452 25.4385C33.1452 27.0572 32.5863 28.4255 31.4686 29.5432C30.3509 30.6609 28.9827 31.2197 27.3639 31.2197ZM27.3639 28.1364C28.1091 28.1364 28.745 27.873 29.2717 27.3463C29.7985 26.8196 30.0618 26.1836 30.0618 25.4385C30.0618 24.6933 29.7985 24.0574 29.2717 23.5307C28.745 23.0039 28.1091 22.7406 27.3639 22.7406C26.6188 22.7406 25.9829 23.0039 25.4561 23.5307C24.9294 24.0574 24.666 24.6933 24.666 25.4385C24.666 26.1836 24.9294 26.8196 25.4561 27.3463C25.9829 27.873 26.6188 28.1364 27.3639 28.1364ZM6.16602 26.9801V23.8968H18.4993V26.9801H6.16602ZM9.63477 17.3447C8.01602 17.3447 6.64779 16.7859 5.53008 15.6682C4.41237 14.5505 3.85352 13.1822 3.85352 11.5635C3.85352 9.94473 4.41237 8.5765 5.53008 7.45879C6.64779 6.34108 8.01602 5.78223 9.63477 5.78223C11.2535 5.78223 12.6217 6.34108 13.7395 7.45879C14.8572 8.5765 15.416 9.94473 15.416 11.5635C15.416 13.1822 14.8572 14.5505 13.7395 15.6682C12.6217 16.7859 11.2535 17.3447 9.63477 17.3447ZM9.63477 14.2614C10.3799 14.2614 11.0158 13.998 11.5426 13.4713C12.0693 12.9446 12.3327 12.3086 12.3327 11.5635C12.3327 10.8183 12.0693 10.1824 11.5426 9.65566C11.0158 9.12893 10.3799 8.86556 9.63477 8.86556C8.88963 8.86556 8.25369 9.12893 7.72695 9.65566C7.20022 10.1824 6.93685 10.8183 6.93685 11.5635C6.93685 12.3086 7.20022 12.9446 7.72695 13.4713C8.25369 13.998 8.88963 14.2614 9.63477 14.2614ZM18.4993 13.1051V10.0218H30.8327V13.1051H18.4993Z" fill="#6E6D75"/>
</g>
</svg>
