<svg width="817" height="451" viewBox="0 0 817 451" fill="none" xmlns="http://www.w3.org/2000/svg">
<g clip-path="url(#clip0_447_14365)">
<rect width="817" height="451" rx="20" fill="#F5F5F5"/>
<path d="M1054.53 -14L1054.53 441M1010.85 -14L1010.85 441M967.164 -14L967.164 441M923.479 -14L923.479 441M879.793 -14L879.793 441M836.108 -14L836.108 441M792.422 -14L792.422 441M748.737 -14L748.737 441M705.052 -14L705.052 441M661.366 -14V441M617.681 -14V441M578 -4.53598L1064 -4.53602M578 39.144L1064 39.144M578 82.824L1064 82.824M578 126.504L1064 126.504M578 170.184L1064 170.184M578 213.864L1064 213.864M578 257.544L1064 257.544M578 301.224L1064 301.224M578 344.904L1064 344.904M578 388.584L1064 388.584M578 432.264L1064 432.264" stroke="url(#paint0_linear_447_14365)"/>
<path d="M-9.53479 -14L-9.53481 441M34.1506 -14L34.1506 441M77.836 -14L77.836 441M121.521 -14L121.521 441M165.207 -14L165.207 441M208.892 -14L208.892 441M252.578 -14L252.578 441M296.263 -14L296.263 441M339.948 -14L339.948 441M383.634 -14V441M427.319 -14V441M467 -4.53598L-19 -4.53602M467 39.144L-19 39.144M467 82.824L-19 82.824M467 126.504L-19 126.504M467 170.184L-19 170.184M467 213.864L-19 213.864M467 257.544L-19 257.544M467 301.224L-19 301.224M467 344.904L-19 344.904M467 388.584L-19 388.584M467 432.264L-19 432.264" stroke="url(#paint1_linear_447_14365)" stroke-opacity="0.6"/>
<rect width="817" height="46" transform="translate(0 405)" fill="#5750FB"/>
<path d="M-149.303 437V421.155H-142.331C-140.734 421.155 -139.445 421.578 -138.464 422.423C-137.476 423.268 -136.981 424.439 -136.981 425.936C-136.981 427.439 -137.472 428.61 -138.453 429.448C-139.434 430.286 -140.727 430.705 -142.331 430.705H-146.671V437H-149.303ZM-146.671 428.267H-142.331C-141.565 428.267 -140.938 428.066 -140.451 427.665C-139.957 427.264 -139.71 426.695 -139.71 425.957C-139.71 425.198 -139.953 424.621 -140.44 424.228C-140.927 423.826 -141.558 423.626 -142.331 423.626H-146.671V428.267ZM-129.886 437.333C-130.681 437.333 -131.43 437.193 -132.132 436.914C-132.826 436.628 -133.431 436.227 -133.947 435.711C-134.463 435.195 -134.871 434.554 -135.172 433.788C-135.465 433.015 -135.612 432.162 -135.612 431.231C-135.612 430.308 -135.458 429.463 -135.15 428.696C-134.842 427.923 -134.427 427.282 -133.904 426.773C-133.381 426.265 -132.776 425.871 -132.089 425.592C-131.394 425.305 -130.66 425.162 -129.886 425.162C-128.125 425.162 -126.732 425.792 -125.708 427.053C-124.684 428.313 -124.29 429.928 -124.526 431.897H-133.077C-132.977 432.95 -132.636 433.749 -132.056 434.293C-131.476 434.837 -130.753 435.109 -129.886 435.109C-129.228 435.109 -128.662 434.963 -128.189 434.669C-127.717 434.368 -127.398 433.949 -127.233 433.412H-124.569C-124.827 434.637 -125.436 435.596 -126.395 436.291C-127.348 436.986 -128.511 437.333 -129.886 437.333ZM-132.991 430.028H-127.179C-127.222 429.19 -127.495 428.542 -127.996 428.084C-128.49 427.618 -129.127 427.386 -129.908 427.386C-130.66 427.386 -131.315 427.611 -131.874 428.062C-132.425 428.507 -132.798 429.162 -132.991 430.028ZM-121.782 437V425.495H-119.268V427.536C-119.025 426.892 -118.62 426.372 -118.054 425.979C-117.481 425.585 -116.844 425.388 -116.142 425.388C-115.734 425.388 -115.311 425.438 -114.874 425.538V428.138C-115.361 428.059 -115.762 428.02 -116.078 428.02C-117.001 428.02 -117.75 428.327 -118.323 428.943C-118.896 429.552 -119.182 430.476 -119.182 431.715V437H-121.782ZM-108.177 437.333C-108.671 437.333 -109.147 437.283 -109.606 437.183C-110.057 437.09 -110.494 436.936 -110.916 436.721C-111.332 436.506 -111.697 436.241 -112.012 435.926C-112.32 435.611 -112.574 435.224 -112.775 434.766C-112.975 434.3 -113.086 433.785 -113.108 433.219H-110.529C-110.501 433.842 -110.257 434.336 -109.799 434.701C-109.341 435.059 -108.757 435.238 -108.048 435.238C-107.482 435.238 -107.01 435.134 -106.63 434.927C-106.25 434.712 -106.061 434.375 -106.061 433.917C-106.061 433.53 -106.2 433.212 -106.48 432.961C-106.752 432.703 -107.121 432.531 -107.586 432.445L-109.67 432.005C-110.637 431.797 -111.403 431.418 -111.969 430.866C-112.535 430.315 -112.818 429.609 -112.818 428.75C-112.818 428.012 -112.596 427.364 -112.152 426.806C-111.708 426.247 -111.149 425.835 -110.476 425.57C-109.795 425.298 -109.072 425.162 -108.306 425.162C-107.747 425.162 -107.207 425.241 -106.684 425.398C-106.161 425.549 -105.681 425.774 -105.244 426.075C-104.807 426.369 -104.453 426.766 -104.181 427.268C-103.902 427.762 -103.751 428.32 -103.73 428.943H-106.308C-106.351 428.449 -106.558 428.045 -106.931 427.729C-107.303 427.414 -107.787 427.257 -108.381 427.257C-108.904 427.257 -109.341 427.371 -109.692 427.601C-110.035 427.83 -110.207 428.141 -110.207 428.535C-110.207 429.122 -109.699 429.538 -108.682 429.781L-106.705 430.2C-105.638 430.415 -104.829 430.83 -104.278 431.446C-103.726 432.062 -103.45 432.807 -103.45 433.681C-103.45 434.318 -103.594 434.88 -103.88 435.367C-104.159 435.854 -104.535 436.237 -105.008 436.517C-105.473 436.789 -105.975 436.993 -106.512 437.129C-107.049 437.265 -107.604 437.333 -108.177 437.333ZM-95.41 437.333C-96.5201 437.333 -97.5191 437.097 -98.4071 436.624C-99.288 436.151 -99.9934 435.45 -100.523 434.519C-101.046 433.58 -101.307 432.485 -101.307 431.231C-101.307 429.985 -101.043 428.897 -100.513 427.966C-99.9826 427.035 -99.2772 426.337 -98.3964 425.871C-97.5083 425.398 -96.5129 425.162 -95.41 425.162C-94.3072 425.162 -93.3153 425.398 -92.4345 425.871C-91.5464 426.337 -90.8374 427.035 -90.3075 427.966C-89.7776 428.897 -89.5126 429.985 -89.5126 431.231C-89.5126 432.485 -89.7776 433.58 -90.3075 434.519C-90.8374 435.45 -91.5464 436.151 -92.4345 436.624C-93.3153 437.097 -94.3072 437.333 -95.41 437.333ZM-97.7518 428.438C-98.3749 429.083 -98.6864 430.014 -98.6864 431.231C-98.6864 432.449 -98.3749 433.383 -97.7518 434.035C-97.1216 434.68 -96.341 435.002 -95.41 435.002C-94.4862 435.002 -93.7092 434.676 -93.079 434.024C-92.4488 433.373 -92.1337 432.442 -92.1337 431.231C-92.1337 430.021 -92.4488 429.094 -93.079 428.449C-93.7092 427.798 -94.4862 427.472 -95.41 427.472C-96.341 427.472 -97.1216 427.794 -97.7518 428.438ZM-86.8541 437V425.495H-84.3189V426.924C-84.0038 426.444 -83.5348 426.032 -82.9117 425.688C-82.2887 425.338 -81.5618 425.162 -80.7311 425.162C-79.4133 425.162 -78.3857 425.563 -77.648 426.365C-76.9033 427.167 -76.5309 428.199 -76.5309 429.459V437H-79.152V429.985C-79.152 429.269 -79.3596 428.678 -79.775 428.213C-80.1904 427.747 -80.7597 427.515 -81.483 427.515C-82.2421 427.515 -82.8902 427.783 -83.4273 428.32C-83.9645 428.85 -84.233 429.52 -84.233 430.329V437H-86.8541ZM-70.3167 437.333C-71.3695 437.333 -72.2467 437.032 -72.9486 436.431C-73.6432 435.829 -73.9905 434.991 -73.9905 433.917C-73.9905 433.258 -73.8509 432.674 -73.5716 432.166C-73.2923 431.65 -72.902 431.231 -72.4007 430.909C-71.8994 430.58 -71.348 430.318 -70.7464 430.125C-70.1448 429.924 -69.4788 429.781 -68.7484 429.695L-66.8148 429.48V429.255C-66.8148 428.596 -67.026 428.102 -67.4486 427.772C-67.8711 427.443 -68.3939 427.278 -69.0169 427.278C-69.6543 427.278 -70.1842 427.443 -70.6068 427.772C-71.0221 428.102 -71.262 428.546 -71.3265 429.104H-73.8402C-73.7471 427.851 -73.2565 426.881 -72.3685 426.193C-71.4805 425.506 -70.3418 425.162 -68.9525 425.162C-68.4798 425.162 -68.0322 425.205 -67.6097 425.291C-67.18 425.377 -66.7611 425.524 -66.3529 425.731C-65.9446 425.939 -65.5937 426.204 -65.3001 426.526C-64.9993 426.841 -64.7594 427.253 -64.5804 427.762C-64.4014 428.263 -64.3118 428.836 -64.3118 429.48V433.638C-64.3118 434.59 -64.2581 435.711 -64.1507 437H-66.6859V435.217C-67.5452 436.628 -68.7555 437.333 -70.3167 437.333ZM-71.4339 433.702C-71.4339 434.146 -71.2799 434.511 -70.972 434.798C-70.664 435.077 -70.263 435.217 -69.7689 435.217C-68.9668 435.217 -68.2757 434.909 -67.6956 434.293C-67.1084 433.67 -66.8148 432.843 -66.8148 431.812V431.285L-68.888 431.607C-69.7331 431.729 -70.3704 431.973 -70.8001 432.338C-71.2226 432.696 -71.4339 433.151 -71.4339 433.702ZM-61.0625 437V420.607H-58.4414V437H-61.0625ZM-55.1921 437V425.495H-52.5711V437H-55.1921ZM-55.0632 423.583C-55.3783 423.254 -55.5359 422.863 -55.5359 422.412C-55.5359 421.961 -55.3783 421.574 -55.0632 421.252C-54.741 420.93 -54.3507 420.769 -53.8923 420.769C-53.434 420.769 -53.0401 420.93 -52.7107 421.252C-52.3813 421.574 -52.2166 421.961 -52.2166 422.412C-52.2166 422.863 -52.3813 423.254 -52.7107 423.583C-53.0401 423.905 -53.434 424.066 -53.8923 424.066C-54.3507 424.066 -54.741 423.905 -55.0632 423.583ZM-44.9819 437.333C-45.4761 437.333 -45.9523 437.283 -46.4106 437.183C-46.8618 437.09 -47.2986 436.936 -47.7212 436.721C-48.1365 436.506 -48.5018 436.241 -48.8169 435.926C-49.1248 435.611 -49.379 435.224 -49.5796 434.766C-49.7801 434.3 -49.8911 433.785 -49.9126 433.219H-47.3344C-47.3058 433.842 -47.0623 434.336 -46.604 434.701C-46.1456 435.059 -45.562 435.238 -44.853 435.238C-44.2872 435.238 -43.8146 435.134 -43.435 434.927C-43.0555 434.712 -42.8657 434.375 -42.8657 433.917C-42.8657 433.53 -43.0053 433.212 -43.2846 432.961C-43.5568 432.703 -43.9256 432.531 -44.3911 432.445L-46.4751 432.005C-47.4419 431.797 -48.2081 431.418 -48.7739 430.866C-49.3397 430.315 -49.6225 429.609 -49.6225 428.75C-49.6225 428.012 -49.4005 427.364 -48.9565 426.806C-48.5125 426.247 -47.9539 425.835 -47.2807 425.57C-46.6004 425.298 -45.8771 425.162 -45.1108 425.162C-44.5522 425.162 -44.0115 425.241 -43.4887 425.398C-42.966 425.549 -42.4861 425.774 -42.0493 426.075C-41.6124 426.369 -41.258 426.766 -40.9858 427.268C-40.7065 427.762 -40.5561 428.32 -40.5346 428.943H-43.1128C-43.1557 428.449 -43.3634 428.045 -43.7358 427.729C-44.1082 427.414 -44.5916 427.257 -45.186 427.257C-45.7088 427.257 -46.1456 427.371 -46.4966 427.601C-46.8403 427.83 -47.0122 428.141 -47.0122 428.535C-47.0122 429.122 -46.5037 429.538 -45.4868 429.781L-43.5102 430.2C-42.4432 430.415 -41.6339 430.83 -41.0825 431.446C-40.5311 432.062 -40.2553 432.807 -40.2553 433.681C-40.2553 434.318 -40.3986 434.88 -40.685 435.367C-40.9643 435.854 -41.3403 436.237 -41.813 436.517C-42.2785 436.789 -42.7798 436.993 -43.3169 437.129C-43.854 437.265 -44.409 437.333 -44.9819 437.333ZM-32.3869 437.333C-33.1818 437.333 -33.9302 437.193 -34.632 436.914C-35.3267 436.628 -35.9318 436.227 -36.4475 435.711C-36.9631 435.195 -37.3713 434.554 -37.6721 433.788C-37.9657 433.015 -38.1125 432.162 -38.1125 431.231C-38.1125 430.308 -37.9585 429.463 -37.6506 428.696C-37.3426 427.923 -36.9273 427.282 -36.4045 426.773C-35.8817 426.265 -35.2766 425.871 -34.5891 425.592C-33.8944 425.305 -33.1604 425.162 -32.3869 425.162C-30.6252 425.162 -29.2323 425.792 -28.2082 427.053C-27.1841 428.313 -26.7902 429.928 -27.0266 431.897H-35.5773C-35.4771 432.95 -35.1369 433.749 -34.5568 434.293C-33.9768 434.837 -33.2535 435.109 -32.3869 435.109C-31.7281 435.109 -31.1623 434.963 -30.6897 434.669C-30.217 434.368 -29.8983 433.949 -29.7336 433.412H-27.0695C-27.3273 434.637 -27.9361 435.596 -28.8957 436.291C-29.8482 436.986 -31.0119 437.333 -32.3869 437.333ZM-35.4914 430.028H-29.6799C-29.7229 429.19 -29.995 428.542 -30.4963 428.084C-30.9904 427.618 -31.6278 427.386 -32.4084 427.386C-33.1604 427.386 -33.8156 427.611 -34.3742 428.062C-34.9257 428.507 -35.298 429.162 -35.4914 430.028ZM-19.7489 437.333C-20.4364 437.333 -21.0881 437.197 -21.704 436.925C-22.3199 436.653 -22.8642 436.266 -23.3368 435.765C-23.8095 435.256 -24.1855 434.612 -24.4648 433.831C-24.7369 433.05 -24.873 432.184 -24.873 431.231C-24.873 430.286 -24.7369 429.427 -24.4648 428.653C-24.1855 427.873 -23.8095 427.232 -23.3368 426.73C-22.8642 426.229 -22.3199 425.842 -21.704 425.57C-21.0881 425.298 -20.4364 425.162 -19.7489 425.162C-18.9683 425.162 -18.2808 425.316 -17.6864 425.624C-17.0849 425.925 -16.5979 426.337 -16.2255 426.859V420.607H-13.6044V437H-16.1396V435.528C-16.4905 436.073 -16.9739 436.509 -17.5898 436.839C-18.2057 437.168 -18.9254 437.333 -19.7489 437.333ZM-22.2304 431.231C-22.2304 432.427 -21.9511 433.348 -21.3925 433.992C-20.8267 434.637 -20.1106 434.959 -19.2441 434.959C-18.3775 434.959 -17.6578 434.633 -17.0849 433.981C-16.512 433.323 -16.2255 432.406 -16.2255 431.231C-16.2255 430.043 -16.512 429.13 -17.0849 428.492C-17.6506 427.855 -18.3704 427.536 -19.2441 427.536C-20.1106 427.536 -20.8267 427.855 -21.3925 428.492C-21.9511 429.13 -22.2304 430.043 -22.2304 431.231ZM-3.78648 437V421.155H-0.445663L4.72133 433.348L9.89906 421.155H13.2399V437H10.7477V425.388L5.80629 437H3.64711L-1.30504 425.388V437H-3.78648ZM19.7655 437.333C18.7128 437.333 17.8355 437.032 17.1337 436.431C16.4391 435.829 16.0917 434.991 16.0917 433.917C16.0917 433.258 16.2314 432.674 16.5107 432.166C16.79 431.65 17.1803 431.231 17.6816 430.909C18.1829 430.58 18.7343 430.318 19.3359 430.125C19.9374 429.924 20.6034 429.781 21.3339 429.695L23.2675 429.48V429.255C23.2675 428.596 23.0562 428.102 22.6337 427.772C22.2112 427.443 21.6884 427.278 21.0654 427.278C20.428 427.278 19.898 427.443 19.4755 427.772C19.0601 428.102 18.8202 428.546 18.7558 429.104H16.2421C16.3352 427.851 16.8258 426.881 17.7138 426.193C18.6018 425.506 19.7405 425.162 21.1298 425.162C21.6025 425.162 22.0501 425.205 22.4726 425.291C22.9023 425.377 23.3212 425.524 23.7294 425.731C24.1376 425.939 24.4885 426.204 24.7822 426.526C25.0829 426.841 25.3228 427.253 25.5019 427.762C25.6809 428.263 25.7704 428.836 25.7704 429.48V433.638C25.7704 434.59 25.8241 435.711 25.9316 437H23.3964V435.217C22.537 436.628 21.3267 437.333 19.7655 437.333ZM18.6484 433.702C18.6484 434.146 18.8023 434.511 19.1103 434.798C19.4182 435.077 19.8193 435.217 20.3134 435.217C21.1155 435.217 21.8066 434.909 22.3866 434.293C22.9739 433.67 23.2675 432.843 23.2675 431.812V431.285L21.1943 431.607C20.3492 431.729 19.7118 431.973 19.2822 432.338C18.8596 432.696 18.6484 433.151 18.6484 433.702ZM33.5207 441.512C31.7948 441.512 30.4771 441.218 29.5676 440.631C28.6652 440.044 28.2141 439.295 28.2141 438.386C28.2141 437.892 28.3394 437.419 28.59 436.968C28.8479 436.517 29.1773 436.116 29.5783 435.765C29.1773 435.528 28.8693 435.224 28.6545 434.852C28.4468 434.479 28.343 434.075 28.343 433.638C28.343 432.628 28.9016 431.783 30.0188 431.103C29.4888 430.508 29.2238 429.767 29.2238 428.879C29.2238 427.747 29.6607 426.845 30.5344 426.172C31.4152 425.499 32.5396 425.162 33.9074 425.162C34.7596 425.162 35.5367 425.302 36.2385 425.581L37.9572 422.981L39.923 424.571L37.8283 426.73C38.3296 427.346 38.5803 428.07 38.5803 428.9C38.5803 430.039 38.1434 430.945 37.2697 431.618C36.4032 432.284 35.2824 432.617 33.9074 432.617C32.9406 432.617 32.0705 432.435 31.2971 432.069C30.9748 432.37 30.8137 432.692 30.8137 433.036C30.8137 433.344 30.9354 433.588 31.1789 433.767C31.4296 433.946 31.7697 434.042 32.1994 434.057L35.5402 434.207C36.7219 434.257 37.6421 434.59 38.301 435.206C38.967 435.822 39.3 436.61 39.3 437.569C39.3 438.114 39.189 438.615 38.967 439.073C38.7522 439.532 38.4191 439.947 37.968 440.319C37.524 440.692 36.9224 440.982 36.1633 441.189C35.4042 441.404 34.5233 441.512 33.5207 441.512ZM30.5881 437.902C30.5881 438.404 30.8352 438.794 31.3293 439.073C31.8234 439.36 32.5826 439.503 33.6066 439.503C34.6809 439.503 35.465 439.349 35.9592 439.041C36.4533 438.74 36.7004 438.332 36.7004 437.816C36.7004 437.401 36.5572 437.075 36.2707 436.839C35.9842 436.603 35.5796 436.474 35.0568 436.452L31.4904 436.27C30.8889 436.757 30.5881 437.301 30.5881 437.902ZM31.7805 428.879C31.7805 429.416 31.9738 429.849 32.3605 430.179C32.7544 430.501 33.2701 430.662 33.9074 430.662C34.5376 430.662 35.0461 430.501 35.4328 430.179C35.8267 429.849 36.0236 429.416 36.0236 428.879C36.0236 428.327 35.8303 427.894 35.4436 427.579C35.0568 427.257 34.5448 427.096 33.9074 427.096C33.2557 427.096 32.7365 427.253 32.3498 427.568C31.9703 427.883 31.7805 428.32 31.7805 428.879ZM44.4829 437.333C43.4302 437.333 42.5529 437.032 41.8511 436.431C41.1564 435.829 40.8091 434.991 40.8091 433.917C40.8091 433.258 40.9487 432.674 41.228 432.166C41.5073 431.65 41.8976 431.231 42.3989 430.909C42.9002 430.58 43.4516 430.318 44.0532 430.125C44.6548 429.924 45.3208 429.781 46.0513 429.695L47.9848 429.48V429.255C47.9848 428.596 47.7736 428.102 47.3511 427.772C46.9285 427.443 46.4057 427.278 45.7827 427.278C45.1453 427.278 44.6154 427.443 44.1929 427.772C43.7775 428.102 43.5376 428.546 43.4731 429.104H40.9595C41.0526 427.851 41.5431 426.881 42.4311 426.193C43.3192 425.506 44.4578 425.162 45.8472 425.162C46.3198 425.162 46.7674 425.205 47.1899 425.291C47.6196 425.377 48.0386 425.524 48.4468 425.731C48.855 425.939 49.2059 426.204 49.4995 426.526C49.8003 426.841 50.0402 427.253 50.2192 427.762C50.3983 428.263 50.4878 428.836 50.4878 429.48V433.638C50.4878 434.59 50.5415 435.711 50.6489 437H48.1138V435.217C47.2544 436.628 46.0441 437.333 44.4829 437.333ZM43.3657 433.702C43.3657 434.146 43.5197 434.511 43.8276 434.798C44.1356 435.077 44.5366 435.217 45.0307 435.217C45.8328 435.217 46.5239 434.909 47.104 434.293C47.6912 433.67 47.9848 432.843 47.9848 431.812V431.285L45.9116 431.607C45.0666 431.729 44.4292 431.973 43.9995 432.338C43.577 432.696 43.3657 433.151 43.3657 433.702ZM53.0818 437V435.131L58.5818 427.676H53.3289V425.495H61.8797V427.343L56.3797 434.819H62.1912V437H53.0818ZM64.8497 437V425.495H67.4707V437H64.8497ZM64.9786 423.583C64.6635 423.254 64.5059 422.863 64.5059 422.412C64.5059 421.961 64.6635 421.574 64.9786 421.252C65.3008 420.93 65.6911 420.769 66.1495 420.769C66.6078 420.769 67.0017 420.93 67.3311 421.252C67.6605 421.574 67.8252 421.961 67.8252 422.412C67.8252 422.863 67.6605 423.254 67.3311 423.583C67.0017 423.905 66.6078 424.066 66.1495 424.066C65.6911 424.066 65.3008 423.905 64.9786 423.583ZM70.72 437V425.495H73.2552V426.924C73.5703 426.444 74.0394 426.032 74.6624 425.688C75.2855 425.338 76.0123 425.162 76.8431 425.162C78.1608 425.162 79.1885 425.563 79.9261 426.365C80.6709 427.167 81.0433 428.199 81.0433 429.459V437H78.4222V429.985C78.4222 429.269 78.2145 428.678 77.7991 428.213C77.3838 427.747 76.8144 427.515 76.0911 427.515C75.332 427.515 74.6839 427.783 74.1468 428.32C73.6097 428.85 73.3411 429.52 73.3411 430.329V437H70.72ZM89.4381 437.333C88.6432 437.333 87.8948 437.193 87.193 436.914C86.4983 436.628 85.8932 436.227 85.3775 435.711C84.8619 435.195 84.4537 434.554 84.1529 433.788C83.8593 433.015 83.7125 432.162 83.7125 431.231C83.7125 430.308 83.8665 429.463 84.1744 428.696C84.4824 427.923 84.8977 427.282 85.4205 426.773C85.9433 426.265 86.5484 425.871 87.2359 425.592C87.9306 425.305 88.6646 425.162 89.4381 425.162C91.1998 425.162 92.5927 425.792 93.6168 427.053C94.6409 428.313 95.0348 429.928 94.7984 431.897H86.2477C86.3479 432.95 86.6881 433.749 87.2682 434.293C87.8482 434.837 88.5715 435.109 89.4381 435.109C90.0969 435.109 90.6627 434.963 91.1353 434.669C91.608 434.368 91.9267 433.949 92.0914 433.412H94.7555C94.4977 434.637 93.8889 435.596 92.9293 436.291C91.9768 436.986 90.8131 437.333 89.4381 437.333ZM86.3336 430.028H92.1451C92.1021 429.19 91.83 428.542 91.3287 428.084C90.8346 427.618 90.1972 427.386 89.4166 427.386C88.6646 427.386 88.0094 427.611 87.4508 428.062C86.8993 428.507 86.5269 429.162 86.3336 430.028ZM111.587 437.924C111.257 436.032 109.915 433.656 107.363 431.742C106.109 430.796 104.833 430.18 103.579 429.916V428.992C106.065 428.398 108.507 426.726 110.069 424.46C110.861 423.316 111.367 422.194 111.587 421.028H112.511C112.885 423.25 114.601 425.714 116.933 427.364C118.077 428.178 119.265 428.728 120.475 428.992V429.916C118.033 430.422 115.195 432.6 113.787 434.822C113.083 435.944 112.665 436.978 112.511 437.924H111.587ZM137.466 437.333C135.919 437.333 134.526 436.989 133.287 436.302C132.048 435.614 131.074 434.644 130.365 433.391C129.656 432.13 129.301 430.694 129.301 429.083C129.301 427.457 129.656 426.014 130.365 424.754C131.074 423.493 132.044 422.527 133.276 421.854C134.515 421.173 135.912 420.833 137.466 420.833C138.683 420.833 139.807 421.048 140.839 421.478C141.877 421.907 142.747 422.541 143.449 423.379C144.158 424.21 144.62 425.18 144.835 426.29H142.02C141.77 425.366 141.222 424.636 140.377 424.099C139.539 423.562 138.561 423.293 137.444 423.293C135.847 423.293 134.54 423.83 133.523 424.904C132.513 425.971 132.009 427.364 132.009 429.083C132.009 430.766 132.517 432.152 133.534 433.24C134.558 434.322 135.861 434.862 137.444 434.862C138.619 434.862 139.628 434.572 140.473 433.992C141.326 433.405 141.884 432.567 142.149 431.479H144.953C144.731 432.696 144.265 433.749 143.556 434.637C142.847 435.525 141.97 436.198 140.925 436.656C139.886 437.107 138.733 437.333 137.466 437.333ZM150.576 437.333C149.523 437.333 148.646 437.032 147.944 436.431C147.25 435.829 146.902 434.991 146.902 433.917C146.902 433.258 147.042 432.674 147.321 432.166C147.601 431.65 147.991 431.231 148.492 430.909C148.993 430.58 149.545 430.318 150.146 430.125C150.748 429.924 151.414 429.781 152.145 429.695L154.078 429.48V429.255C154.078 428.596 153.867 428.102 153.444 427.772C153.022 427.443 152.499 427.278 151.876 427.278C151.239 427.278 150.709 427.443 150.286 427.772C149.871 428.102 149.631 428.546 149.566 429.104H147.053C147.146 427.851 147.636 426.881 148.524 426.193C149.412 425.506 150.551 425.162 151.94 425.162C152.413 425.162 152.861 425.205 153.283 425.291C153.713 425.377 154.132 425.524 154.54 425.731C154.948 425.939 155.299 426.204 155.593 426.526C155.894 426.841 156.133 427.253 156.312 427.762C156.492 428.263 156.581 428.836 156.581 429.48V433.638C156.581 434.59 156.635 435.711 156.742 437H154.207V435.217C153.348 436.628 152.137 437.333 150.576 437.333ZM149.459 433.702C149.459 434.146 149.613 434.511 149.921 434.798C150.229 435.077 150.63 435.217 151.124 435.217C151.926 435.217 152.617 434.909 153.197 434.293C153.785 433.67 154.078 432.843 154.078 431.812V431.285L152.005 431.607C151.16 431.729 150.522 431.973 150.093 432.338C149.67 432.696 149.459 433.151 149.459 433.702ZM159.83 437V420.607H162.451V437H159.83ZM170.9 437.333C170.105 437.333 169.357 437.193 168.655 436.914C167.96 436.628 167.355 436.227 166.839 435.711C166.324 435.195 165.916 434.554 165.615 433.788C165.321 433.015 165.174 432.162 165.174 431.231C165.174 430.308 165.328 429.463 165.636 428.696C165.944 427.923 166.36 427.282 166.882 426.773C167.405 426.265 168.01 425.871 168.698 425.592C169.392 425.305 170.127 425.162 170.9 425.162C172.662 425.162 174.055 425.792 175.079 427.053C176.103 428.313 176.497 429.928 176.26 431.897H167.71C167.81 432.95 168.15 433.749 168.73 434.293C169.31 434.837 170.033 435.109 170.9 435.109C171.559 435.109 172.125 434.963 172.597 434.669C173.07 434.368 173.389 433.949 173.553 433.412H176.217C175.96 434.637 175.351 435.596 174.391 436.291C173.439 436.986 172.275 437.333 170.9 437.333ZM167.795 430.028H173.607C173.564 429.19 173.292 428.542 172.791 428.084C172.296 427.618 171.659 427.386 170.878 427.386C170.127 427.386 169.471 427.611 168.913 428.062C168.361 428.507 167.989 429.162 167.795 430.028ZM179.005 437V425.495H181.54V426.924C181.855 426.444 182.324 426.032 182.947 425.688C183.57 425.338 184.297 425.162 185.128 425.162C186.445 425.162 187.473 425.563 188.211 426.365C188.956 427.167 189.328 428.199 189.328 429.459V437H186.707V429.985C186.707 429.269 186.499 428.678 186.084 428.213C185.668 427.747 185.099 427.515 184.376 427.515C183.617 427.515 182.969 427.783 182.431 428.32C181.894 428.85 181.626 429.52 181.626 430.329V437H179.005ZM197.121 437.333C196.434 437.333 195.782 437.197 195.166 436.925C194.55 436.653 194.006 436.266 193.533 435.765C193.061 435.256 192.685 434.612 192.405 433.831C192.133 433.05 191.997 432.184 191.997 431.231C191.997 430.286 192.133 429.427 192.405 428.653C192.685 427.873 193.061 427.232 193.533 426.73C194.006 426.229 194.55 425.842 195.166 425.57C195.782 425.298 196.434 425.162 197.121 425.162C197.902 425.162 198.589 425.316 199.184 425.624C199.785 425.925 200.272 426.337 200.645 426.859V420.607H203.266V437H200.731V435.528C200.38 436.073 199.896 436.509 199.28 436.839C198.665 437.168 197.945 437.333 197.121 437.333ZM194.64 431.231C194.64 432.427 194.919 433.348 195.478 433.992C196.043 434.637 196.76 434.959 197.626 434.959C198.493 434.959 199.212 434.633 199.785 433.981C200.358 433.323 200.645 432.406 200.645 431.231C200.645 430.043 200.358 429.13 199.785 428.492C199.22 427.855 198.5 427.536 197.626 427.536C196.76 427.536 196.043 427.855 195.478 428.492C194.919 429.13 194.64 430.043 194.64 431.231ZM209.598 437.333C208.545 437.333 207.668 437.032 206.966 436.431C206.272 435.829 205.924 434.991 205.924 433.917C205.924 433.258 206.064 432.674 206.343 432.166C206.622 431.65 207.013 431.231 207.514 430.909C208.015 430.58 208.567 430.318 209.168 430.125C209.77 429.924 210.436 429.781 211.166 429.695L213.1 429.48V429.255C213.1 428.596 212.889 428.102 212.466 427.772C212.044 427.443 211.521 427.278 210.898 427.278C210.26 427.278 209.731 427.443 209.308 427.772C208.893 428.102 208.653 428.546 208.588 429.104H206.075C206.168 427.851 206.658 426.881 207.546 426.193C208.434 425.506 209.573 425.162 210.962 425.162C211.435 425.162 211.883 425.205 212.305 425.291C212.735 425.377 213.154 425.524 213.562 425.731C213.97 425.939 214.321 426.204 214.615 426.526C214.915 426.841 215.155 427.253 215.334 427.762C215.513 428.263 215.603 428.836 215.603 429.48V433.638C215.603 434.59 215.657 435.711 215.764 437H213.229V435.217C212.37 436.628 211.159 437.333 209.598 437.333ZM208.481 433.702C208.481 434.146 208.635 434.511 208.943 434.798C209.251 435.077 209.652 435.217 210.146 435.217C210.948 435.217 211.639 434.909 212.219 434.293C212.806 433.67 213.1 432.843 213.1 431.812V431.285L211.027 431.607C210.182 431.729 209.544 431.973 209.115 432.338C208.692 432.696 208.481 433.151 208.481 433.702ZM218.852 437V425.495H221.366V427.536C221.609 426.892 222.014 426.372 222.58 425.979C223.153 425.585 223.79 425.388 224.492 425.388C224.9 425.388 225.323 425.438 225.759 425.538V428.138C225.272 428.059 224.871 428.02 224.556 428.02C223.633 428.02 222.884 428.327 222.311 428.943C221.738 429.552 221.452 430.476 221.452 431.715V437H218.852ZM242.204 437.924C241.874 436.032 240.532 433.656 237.98 431.742C236.726 430.796 235.45 430.18 234.196 429.916V428.992C236.682 428.398 239.124 426.726 240.686 424.46C241.478 423.316 241.984 422.194 242.204 421.028H243.128C243.502 423.25 245.218 425.714 247.55 427.364C248.694 428.178 249.882 428.728 251.092 428.992V429.916C248.65 430.422 245.812 432.6 244.404 434.822C243.7 435.944 243.282 436.978 243.128 437.924H242.204ZM260.52 437V421.155H267.492C269.089 421.155 270.378 421.578 271.359 422.423C272.347 423.268 272.842 424.439 272.842 425.936C272.842 427.439 272.351 428.61 271.37 429.448C270.389 430.286 269.096 430.705 267.492 430.705H263.152V437H260.52ZM263.152 428.267H267.492C268.258 428.267 268.885 428.066 269.372 427.665C269.866 427.264 270.113 426.695 270.113 425.957C270.113 425.198 269.87 424.621 269.383 424.228C268.896 423.826 268.265 423.626 267.492 423.626H263.152V428.267ZM276.112 437V420.607H278.733V426.795C279.07 426.337 279.539 425.95 280.141 425.635C280.742 425.32 281.441 425.162 282.235 425.162C283.553 425.162 284.581 425.563 285.318 426.365C286.063 427.167 286.436 428.199 286.436 429.459V437H283.815V429.985C283.815 429.269 283.607 428.678 283.191 428.213C282.776 427.747 282.207 427.515 281.483 427.515C280.724 427.515 280.076 427.783 279.539 428.32C279.002 428.85 278.733 429.52 278.733 430.329V437H276.112ZM295.002 437.333C293.892 437.333 292.893 437.097 292.005 436.624C291.124 436.151 290.419 435.45 289.889 434.519C289.366 433.58 289.105 432.485 289.105 431.231C289.105 429.985 289.37 428.897 289.9 427.966C290.43 427.035 291.135 426.337 292.016 425.871C292.904 425.398 293.899 425.162 295.002 425.162C296.105 425.162 297.097 425.398 297.978 425.871C298.866 426.337 299.575 427.035 300.105 427.966C300.635 428.897 300.9 429.985 300.9 431.231C300.9 432.485 300.635 433.58 300.105 434.519C299.575 435.45 298.866 436.151 297.978 436.624C297.097 437.097 296.105 437.333 295.002 437.333ZM292.661 428.438C292.037 429.083 291.726 430.014 291.726 431.231C291.726 432.449 292.037 433.383 292.661 434.035C293.291 434.68 294.071 435.002 295.002 435.002C295.926 435.002 296.703 434.676 297.333 434.024C297.964 433.373 298.279 432.442 298.279 431.231C298.279 430.021 297.964 429.094 297.333 428.449C296.703 427.798 295.926 427.472 295.002 427.472C294.071 427.472 293.291 427.794 292.661 428.438ZM308.478 437.215C305.793 437.215 304.45 435.861 304.45 433.154V427.676H302.248V425.495H304.45V422.96L307.071 421.639V425.495H309.885V427.676H307.071V433.079C307.071 434.311 307.701 434.927 308.962 434.927C309.334 434.927 309.742 434.884 310.186 434.798V437C309.663 437.143 309.094 437.215 308.478 437.215ZM317.679 437.333C316.569 437.333 315.57 437.097 314.682 436.624C313.801 436.151 313.095 435.45 312.565 434.519C312.043 433.58 311.781 432.485 311.781 431.231C311.781 429.985 312.046 428.897 312.576 427.966C313.106 427.035 313.811 426.337 314.692 425.871C315.58 425.398 316.576 425.162 317.679 425.162C318.781 425.162 319.773 425.398 320.654 425.871C321.542 426.337 322.251 427.035 322.781 427.966C323.311 428.897 323.576 429.985 323.576 431.231C323.576 432.485 323.311 433.58 322.781 434.519C322.251 435.45 321.542 436.151 320.654 436.624C319.773 437.097 318.781 437.333 317.679 437.333ZM315.337 428.438C314.714 429.083 314.402 430.014 314.402 431.231C314.402 432.449 314.714 433.383 315.337 434.035C315.967 434.68 316.748 435.002 317.679 435.002C318.602 435.002 319.379 434.676 320.01 434.024C320.64 433.373 320.955 432.442 320.955 431.231C320.955 430.021 320.64 429.094 320.01 428.449C319.379 427.798 318.602 427.472 317.679 427.472C316.748 427.472 315.967 427.794 315.337 428.438ZM332.422 437.333C331.613 437.333 330.897 437.172 330.274 436.85C329.658 436.52 329.171 436.087 328.813 435.55V437H326.278V420.607H328.899V426.838C329.257 426.337 329.737 425.932 330.338 425.624C330.94 425.316 331.634 425.162 332.422 425.162C333.11 425.162 333.761 425.298 334.377 425.57C334.993 425.842 335.537 426.229 336.01 426.73C336.483 427.232 336.855 427.873 337.127 428.653C337.406 429.427 337.546 430.286 337.546 431.231C337.546 432.184 337.406 433.05 337.127 433.831C336.855 434.612 336.483 435.256 336.01 435.765C335.537 436.266 334.993 436.653 334.377 436.925C333.761 437.197 333.11 437.333 332.422 437.333ZM328.899 431.231C328.899 432.435 329.178 433.358 329.737 434.003C330.302 434.64 331.022 434.959 331.896 434.959C332.769 434.959 333.486 434.64 334.044 434.003C334.603 433.358 334.882 432.435 334.882 431.231C334.882 430.043 334.603 429.13 334.044 428.492C333.486 427.855 332.769 427.536 331.896 427.536C331.036 427.536 330.32 427.862 329.747 428.514C329.181 429.165 328.899 430.071 328.899 431.231ZM345.533 437.333C344.423 437.333 343.424 437.097 342.536 436.624C341.655 436.151 340.949 435.45 340.419 434.519C339.897 433.58 339.635 432.485 339.635 431.231C339.635 429.985 339.9 428.897 340.43 427.966C340.96 427.035 341.665 426.337 342.546 425.871C343.434 425.398 344.43 425.162 345.533 425.162C346.636 425.162 347.627 425.398 348.508 425.871C349.396 426.337 350.105 427.035 350.635 427.966C351.165 428.897 351.43 429.985 351.43 431.231C351.43 432.485 351.165 433.58 350.635 434.519C350.105 435.45 349.396 436.151 348.508 436.624C347.627 437.097 346.636 437.333 345.533 437.333ZM343.191 428.438C342.568 429.083 342.256 430.014 342.256 431.231C342.256 432.449 342.568 433.383 343.191 434.035C343.821 434.68 344.602 435.002 345.533 435.002C346.457 435.002 347.234 434.676 347.864 434.024C348.494 433.373 348.809 432.442 348.809 431.231C348.809 430.021 348.494 429.094 347.864 428.449C347.234 427.798 346.457 427.472 345.533 427.472C344.602 427.472 343.821 427.794 343.191 428.438ZM359.395 437.333C358.285 437.333 357.286 437.097 356.398 436.624C355.517 436.151 354.812 435.45 354.282 434.519C353.759 433.58 353.498 432.485 353.498 431.231C353.498 429.985 353.763 428.897 354.293 427.966C354.823 427.035 355.528 426.337 356.409 425.871C357.297 425.398 358.292 425.162 359.395 425.162C360.498 425.162 361.49 425.398 362.371 425.871C363.259 426.337 363.968 427.035 364.498 427.966C365.028 428.897 365.293 429.985 365.293 431.231C365.293 432.485 365.028 433.58 364.498 434.519C363.968 435.45 363.259 436.151 362.371 436.624C361.49 437.097 360.498 437.333 359.395 437.333ZM357.053 428.438C356.43 429.083 356.119 430.014 356.119 431.231C356.119 432.449 356.43 433.383 357.053 434.035C357.684 434.68 358.464 435.002 359.395 435.002C360.319 435.002 361.096 434.676 361.726 434.024C362.357 433.373 362.672 432.442 362.672 431.231C362.672 430.021 362.357 429.094 361.726 428.449C361.096 427.798 360.319 427.472 359.395 427.472C358.464 427.472 357.684 427.794 357.053 428.438ZM367.994 437V420.607H370.594V430.361L375.148 425.495H378.489L374.203 429.985L378.693 437H375.739L372.42 431.876L370.594 433.767V437H367.994ZM394.977 437.924C394.647 436.032 393.305 433.656 390.753 431.742C389.499 430.796 388.223 430.18 386.969 429.916V428.992C389.455 428.398 391.897 426.726 393.459 424.46C394.251 423.316 394.757 422.194 394.977 421.028H395.901C396.275 423.25 397.991 425.714 400.323 427.364C401.467 428.178 402.655 428.728 403.865 428.992V429.916C401.423 430.422 398.585 432.6 397.177 434.822C396.473 435.944 396.055 436.978 395.901 437.924H394.977ZM413.293 437V421.155H420.265C421.862 421.155 423.151 421.578 424.132 422.423C425.12 423.268 425.614 424.439 425.614 425.936C425.614 427.439 425.124 428.61 424.143 429.448C423.162 430.286 421.869 430.705 420.265 430.705H415.925V437H413.293ZM415.925 428.267H420.265C421.031 428.267 421.658 428.066 422.145 427.665C422.639 427.264 422.886 426.695 422.886 425.957C422.886 425.198 422.642 424.621 422.155 424.228C421.668 423.826 421.038 423.626 420.265 423.626H415.925V428.267ZM432.709 437.333C431.914 437.333 431.166 437.193 430.464 436.914C429.77 436.628 429.164 436.227 428.649 435.711C428.133 435.195 427.725 434.554 427.424 433.788C427.131 433.015 426.984 432.162 426.984 431.231C426.984 430.308 427.138 429.463 427.446 428.696C427.754 427.923 428.169 427.282 428.692 426.773C429.215 426.265 429.82 425.871 430.507 425.592C431.202 425.305 431.936 425.162 432.709 425.162C434.471 425.162 435.864 425.792 436.888 427.053C437.912 428.313 438.306 429.928 438.07 431.897H429.519C429.619 432.95 429.959 433.749 430.539 434.293C431.12 434.837 431.843 435.109 432.709 435.109C433.368 435.109 433.934 434.963 434.407 434.669C434.879 434.368 435.198 433.949 435.363 433.412H438.027C437.769 434.637 437.16 435.596 436.201 436.291C435.248 436.986 434.084 437.333 432.709 437.333ZM429.605 430.028H435.416C435.373 429.19 435.101 428.542 434.6 428.084C434.106 427.618 433.469 427.386 432.688 427.386C431.936 427.386 431.281 427.611 430.722 428.062C430.171 428.507 429.798 429.162 429.605 430.028ZM440.814 437V425.495H443.328V427.536C443.571 426.892 443.976 426.372 444.542 425.979C445.115 425.585 445.752 425.388 446.454 425.388C446.862 425.388 447.285 425.438 447.721 425.538V428.138C447.234 428.059 446.833 428.02 446.518 428.02C445.594 428.02 444.846 428.327 444.273 428.943C443.7 429.552 443.414 430.476 443.414 431.715V437H440.814ZM454.419 437.333C453.925 437.333 453.449 437.283 452.99 437.183C452.539 437.09 452.102 436.936 451.68 436.721C451.264 436.506 450.899 436.241 450.584 435.926C450.276 435.611 450.022 435.224 449.821 434.766C449.621 434.3 449.51 433.785 449.488 433.219H452.066C452.095 433.842 452.339 434.336 452.797 434.701C453.255 435.059 453.839 435.238 454.548 435.238C455.114 435.238 455.586 435.134 455.966 434.927C456.345 434.712 456.535 434.375 456.535 433.917C456.535 433.53 456.396 433.212 456.116 432.961C455.844 432.703 455.475 432.531 455.01 432.445L452.926 432.005C451.959 431.797 451.193 431.418 450.627 430.866C450.061 430.315 449.778 429.609 449.778 428.75C449.778 428.012 450 427.364 450.444 426.806C450.888 426.247 451.447 425.835 452.12 425.57C452.8 425.298 453.524 425.162 454.29 425.162C454.849 425.162 455.389 425.241 455.912 425.398C456.435 425.549 456.915 425.774 457.352 426.075C457.788 426.369 458.143 426.766 458.415 427.268C458.694 427.762 458.845 428.32 458.866 428.943H456.288C456.245 428.449 456.037 428.045 455.665 427.729C455.293 427.414 454.809 427.257 454.215 427.257C453.692 427.257 453.255 427.371 452.904 427.601C452.561 427.83 452.389 428.141 452.389 428.535C452.389 429.122 452.897 429.538 453.914 429.781L455.891 430.2C456.958 430.415 457.767 430.83 458.318 431.446C458.87 432.062 459.146 432.807 459.146 433.681C459.146 434.318 459.002 434.88 458.716 435.367C458.437 435.854 458.061 436.237 457.588 436.517C457.122 436.789 456.621 436.993 456.084 437.129C455.547 437.265 454.992 437.333 454.419 437.333ZM467.186 437.333C466.076 437.333 465.077 437.097 464.189 436.624C463.308 436.151 462.602 435.45 462.073 434.519C461.55 433.58 461.288 432.485 461.288 431.231C461.288 429.985 461.553 428.897 462.083 427.966C462.613 427.035 463.319 426.337 464.199 425.871C465.087 425.398 466.083 425.162 467.186 425.162C468.289 425.162 469.281 425.398 470.161 425.871C471.049 426.337 471.758 427.035 472.288 427.966C472.818 428.897 473.083 429.985 473.083 431.231C473.083 432.485 472.818 433.58 472.288 434.519C471.758 435.45 471.049 436.151 470.161 436.624C469.281 437.097 468.289 437.333 467.186 437.333ZM464.844 428.438C464.221 429.083 463.909 430.014 463.909 431.231C463.909 432.449 464.221 433.383 464.844 434.035C465.474 434.68 466.255 435.002 467.186 435.002C468.11 435.002 468.887 434.676 469.517 434.024C470.147 433.373 470.462 432.442 470.462 431.231C470.462 430.021 470.147 429.094 469.517 428.449C468.887 427.798 468.11 427.472 467.186 427.472C466.255 427.472 465.474 427.794 464.844 428.438ZM475.742 437V425.495H478.277V426.924C478.592 426.444 479.061 426.032 479.684 425.688C480.307 425.338 481.034 425.162 481.865 425.162C483.183 425.162 484.21 425.563 484.948 426.365C485.693 427.167 486.065 428.199 486.065 429.459V437H483.444V429.985C483.444 429.269 483.236 428.678 482.821 428.213C482.405 427.747 481.836 427.515 481.113 427.515C480.354 427.515 479.706 427.783 479.169 428.32C478.631 428.85 478.363 429.52 478.363 430.329V437H475.742ZM492.279 437.333C491.226 437.333 490.349 437.032 489.647 436.431C488.953 435.829 488.605 434.991 488.605 433.917C488.605 433.258 488.745 432.674 489.024 432.166C489.304 431.65 489.694 431.231 490.195 430.909C490.696 430.58 491.248 430.318 491.849 430.125C492.451 429.924 493.117 429.781 493.847 429.695L495.781 429.48V429.255C495.781 428.596 495.57 428.102 495.147 427.772C494.725 427.443 494.202 427.278 493.579 427.278C492.942 427.278 492.412 427.443 491.989 427.772C491.574 428.102 491.334 428.546 491.269 429.104H488.756C488.849 427.851 489.339 426.881 490.227 426.193C491.115 425.506 492.254 425.162 493.643 425.162C494.116 425.162 494.564 425.205 494.986 425.291C495.416 425.377 495.835 425.524 496.243 425.731C496.651 425.939 497.002 426.204 497.296 426.526C497.596 426.841 497.836 427.253 498.015 427.762C498.194 428.263 498.284 428.836 498.284 429.48V433.638C498.284 434.59 498.338 435.711 498.445 437H495.91V435.217C495.051 436.628 493.84 437.333 492.279 437.333ZM491.162 433.702C491.162 434.146 491.316 434.511 491.624 434.798C491.932 435.077 492.333 435.217 492.827 435.217C493.629 435.217 494.32 434.909 494.9 434.293C495.487 433.67 495.781 432.843 495.781 431.812V431.285L493.708 431.607C492.863 431.729 492.225 431.973 491.796 432.338C491.373 432.696 491.162 433.151 491.162 433.702ZM501.533 437V420.607H504.154V437H501.533ZM507.404 437V425.495H510.025V437H507.404ZM507.533 423.583C507.217 423.254 507.06 422.863 507.06 422.412C507.06 421.961 507.217 421.574 507.533 421.252C507.855 420.93 508.245 420.769 508.703 420.769C509.162 420.769 509.556 420.93 509.885 421.252C510.215 421.574 510.379 421.961 510.379 422.412C510.379 422.863 510.215 423.254 509.885 423.583C509.556 423.905 509.162 424.066 508.703 424.066C508.245 424.066 507.855 423.905 507.533 423.583ZM517.614 437.333C517.12 437.333 516.644 437.283 516.185 437.183C515.734 437.09 515.297 436.936 514.875 436.721C514.459 436.506 514.094 436.241 513.779 435.926C513.471 435.611 513.217 435.224 513.016 434.766C512.816 434.3 512.705 433.785 512.683 433.219H515.261C515.29 433.842 515.534 434.336 515.992 434.701C516.45 435.059 517.034 435.238 517.743 435.238C518.309 435.238 518.781 435.134 519.161 434.927C519.54 434.712 519.73 434.375 519.73 433.917C519.73 433.53 519.591 433.212 519.311 432.961C519.039 432.703 518.67 432.531 518.205 432.445L516.121 432.005C515.154 431.797 514.388 431.418 513.822 430.866C513.256 430.315 512.973 429.609 512.973 428.75C512.973 428.012 513.195 427.364 513.639 426.806C514.083 426.247 514.642 425.835 515.315 425.57C515.995 425.298 516.719 425.162 517.485 425.162C518.044 425.162 518.584 425.241 519.107 425.398C519.63 425.549 520.11 425.774 520.547 426.075C520.983 426.369 521.338 426.766 521.61 427.268C521.889 427.762 522.04 428.32 522.061 428.943H519.483C519.44 428.449 519.232 428.045 518.86 427.729C518.488 427.414 518.004 427.257 517.41 427.257C516.887 427.257 516.45 427.371 516.099 427.601C515.756 427.83 515.584 428.141 515.584 428.535C515.584 429.122 516.092 429.538 517.109 429.781L519.086 430.2C520.153 430.415 520.962 430.83 521.513 431.446C522.065 432.062 522.341 432.807 522.341 433.681C522.341 434.318 522.197 434.88 521.911 435.367C521.632 435.854 521.256 436.237 520.783 436.517C520.317 436.789 519.816 436.993 519.279 437.129C518.742 437.265 518.187 437.333 517.614 437.333ZM530.209 437.333C529.414 437.333 528.666 437.193 527.964 436.914C527.269 436.628 526.664 436.227 526.148 435.711C525.633 435.195 525.225 434.554 524.924 433.788C524.63 433.015 524.483 432.162 524.483 431.231C524.483 430.308 524.637 429.463 524.945 428.696C525.253 427.923 525.669 427.282 526.191 426.773C526.714 426.265 527.319 425.871 528.007 425.592C528.701 425.305 529.435 425.162 530.209 425.162C531.971 425.162 533.364 425.792 534.388 427.053C535.412 428.313 535.806 429.928 535.569 431.897H527.018C527.119 432.95 527.459 433.749 528.039 434.293C528.619 434.837 529.342 435.109 530.209 435.109C530.868 435.109 531.434 434.963 531.906 434.669C532.379 434.368 532.698 433.949 532.862 433.412H535.526C535.268 434.637 534.66 435.596 533.7 436.291C532.748 436.986 531.584 437.333 530.209 437.333ZM527.104 430.028H532.916C532.873 429.19 532.601 428.542 532.1 428.084C531.605 427.618 530.968 427.386 530.187 427.386C529.435 427.386 528.78 427.611 528.222 428.062C527.67 428.507 527.298 429.162 527.104 430.028ZM542.847 437.333C542.159 437.333 541.508 437.197 540.892 436.925C540.276 436.653 539.732 436.266 539.259 435.765C538.786 435.256 538.41 434.612 538.131 433.831C537.859 433.05 537.723 432.184 537.723 431.231C537.723 430.286 537.859 429.427 538.131 428.653C538.41 427.873 538.786 427.232 539.259 426.73C539.732 426.229 540.276 425.842 540.892 425.57C541.508 425.298 542.159 425.162 542.847 425.162C543.628 425.162 544.315 425.316 544.909 425.624C545.511 425.925 545.998 426.337 546.37 426.859V420.607H548.991V437H546.456V435.528C546.105 436.073 545.622 436.509 545.006 436.839C544.39 437.168 543.67 437.333 542.847 437.333ZM540.365 431.231C540.365 432.427 540.645 433.348 541.203 433.992C541.769 434.637 542.485 434.959 543.352 434.959C544.218 434.959 544.938 434.633 545.511 433.981C546.084 433.323 546.37 432.406 546.37 431.231C546.37 430.043 546.084 429.13 545.511 428.492C544.945 427.855 544.226 427.536 543.352 427.536C542.485 427.536 541.769 427.855 541.203 428.492C540.645 429.13 540.365 430.043 540.365 431.231ZM558.809 437V421.155H562.15L567.317 433.348L572.495 421.155H575.836V437H573.344V425.388L568.402 437H566.243L561.291 425.388V437H558.809ZM582.361 437.333C581.309 437.333 580.431 437.032 579.73 436.431C579.035 435.829 578.688 434.991 578.688 433.917C578.688 433.258 578.827 432.674 579.107 432.166C579.386 431.65 579.776 431.231 580.277 430.909C580.779 430.58 581.33 430.318 581.932 430.125C582.533 429.924 583.199 429.781 583.93 429.695L585.863 429.48V429.255C585.863 428.596 585.652 428.102 585.23 427.772C584.807 427.443 584.284 427.278 583.661 427.278C583.024 427.278 582.494 427.443 582.071 427.772C581.656 428.102 581.416 428.546 581.352 429.104H578.838C578.931 427.851 579.422 426.881 580.31 426.193C581.198 425.506 582.336 425.162 583.726 425.162C584.198 425.162 584.646 425.205 585.068 425.291C585.498 425.377 585.917 425.524 586.325 425.731C586.733 425.939 587.084 426.204 587.378 426.526C587.679 426.841 587.919 427.253 588.098 427.762C588.277 428.263 588.366 428.836 588.366 429.48V433.638C588.366 434.59 588.42 435.711 588.527 437H585.992V435.217C585.133 436.628 583.923 437.333 582.361 437.333ZM581.244 433.702C581.244 434.146 581.398 434.511 581.706 434.798C582.014 435.077 582.415 435.217 582.909 435.217C583.711 435.217 584.402 434.909 584.982 434.293C585.57 433.67 585.863 432.843 585.863 431.812V431.285L583.79 431.607C582.945 431.729 582.308 431.973 581.878 432.338C581.455 432.696 581.244 433.151 581.244 433.702ZM596.117 441.512C594.391 441.512 593.073 441.218 592.163 440.631C591.261 440.044 590.81 439.295 590.81 438.386C590.81 437.892 590.935 437.419 591.186 436.968C591.444 436.517 591.773 436.116 592.174 435.765C591.773 435.528 591.465 435.224 591.25 434.852C591.043 434.479 590.939 434.075 590.939 433.638C590.939 432.628 591.497 431.783 592.615 431.103C592.085 430.508 591.82 429.767 591.82 428.879C591.82 427.747 592.257 426.845 593.13 426.172C594.011 425.499 595.135 425.162 596.503 425.162C597.356 425.162 598.133 425.302 598.834 425.581L600.553 422.981L602.519 424.571L600.424 426.73C600.925 427.346 601.176 428.07 601.176 428.9C601.176 430.039 600.739 430.945 599.866 431.618C598.999 432.284 597.878 432.617 596.503 432.617C595.536 432.617 594.666 432.435 593.893 432.069C593.571 432.37 593.41 432.692 593.41 433.036C593.41 433.344 593.531 433.588 593.775 433.767C594.025 433.946 594.366 434.042 594.795 434.057L598.136 434.207C599.318 434.257 600.238 434.59 600.897 435.206C601.563 435.822 601.896 436.61 601.896 437.569C601.896 438.114 601.785 438.615 601.563 439.073C601.348 439.532 601.015 439.947 600.564 440.319C600.12 440.692 599.518 440.982 598.759 441.189C598 441.404 597.119 441.512 596.117 441.512ZM593.184 437.902C593.184 438.404 593.431 438.794 593.925 439.073C594.419 439.36 595.178 439.503 596.203 439.503C597.277 439.503 598.061 439.349 598.555 439.041C599.049 438.74 599.296 438.332 599.296 437.816C599.296 437.401 599.153 437.075 598.867 436.839C598.58 436.603 598.175 436.474 597.653 436.452L594.086 436.27C593.485 436.757 593.184 437.301 593.184 437.902ZM594.376 428.879C594.376 429.416 594.57 429.849 594.956 430.179C595.35 430.501 595.866 430.662 596.503 430.662C597.134 430.662 597.642 430.501 598.029 430.179C598.423 429.849 598.62 429.416 598.62 428.879C598.62 428.327 598.426 427.894 598.039 427.579C597.653 427.257 597.141 427.096 596.503 427.096C595.852 427.096 595.332 427.253 594.946 427.568C594.566 427.883 594.376 428.32 594.376 428.879ZM607.079 437.333C606.026 437.333 605.149 437.032 604.447 436.431C603.752 435.829 603.405 434.991 603.405 433.917C603.405 433.258 603.545 432.674 603.824 432.166C604.103 431.65 604.493 431.231 604.995 430.909C605.496 430.58 606.047 430.318 606.649 430.125C607.251 429.924 607.917 429.781 608.647 429.695L610.581 429.48V429.255C610.581 428.596 610.369 428.102 609.947 427.772C609.524 427.443 609.002 427.278 608.379 427.278C607.741 427.278 607.211 427.443 606.789 427.772C606.373 428.102 606.133 428.546 606.069 429.104H603.555C603.648 427.851 604.139 426.881 605.027 426.193C605.915 425.506 607.054 425.162 608.443 425.162C608.916 425.162 609.363 425.205 609.786 425.291C610.215 425.377 610.634 425.524 611.043 425.731C611.451 425.939 611.802 426.204 612.095 426.526C612.396 426.841 612.636 427.253 612.815 427.762C612.994 428.263 613.084 428.836 613.084 429.48V433.638C613.084 434.59 613.137 435.711 613.245 437H610.71V435.217C609.85 436.628 608.64 437.333 607.079 437.333ZM605.962 433.702C605.962 434.146 606.116 434.511 606.423 434.798C606.731 435.077 607.132 435.217 607.627 435.217C608.429 435.217 609.12 434.909 609.7 434.293C610.287 433.67 610.581 432.843 610.581 431.812V431.285L608.507 431.607C607.662 431.729 607.025 431.973 606.595 432.338C606.173 432.696 605.962 433.151 605.962 433.702ZM615.678 437V435.131L621.178 427.676H615.925V425.495H624.476V427.343L618.976 434.819H624.787V437H615.678ZM627.445 437V425.495H630.067V437H627.445ZM627.574 423.583C627.259 423.254 627.102 422.863 627.102 422.412C627.102 421.961 627.259 421.574 627.574 421.252C627.897 420.93 628.287 420.769 628.745 420.769C629.204 420.769 629.598 420.93 629.927 421.252C630.256 421.574 630.421 421.961 630.421 422.412C630.421 422.863 630.256 423.254 629.927 423.583C629.598 423.905 629.204 424.066 628.745 424.066C628.287 424.066 627.897 423.905 627.574 423.583ZM633.316 437V425.495H635.851V426.924C636.166 426.444 636.635 426.032 637.258 425.688C637.881 425.338 638.608 425.162 639.439 425.162C640.757 425.162 641.784 425.563 642.522 426.365C643.267 427.167 643.639 428.199 643.639 429.459V437H641.018V429.985C641.018 429.269 640.81 428.678 640.395 428.213C639.98 427.747 639.41 427.515 638.687 427.515C637.928 427.515 637.28 427.783 636.743 428.32C636.206 428.85 635.937 429.52 635.937 430.329V437H633.316ZM652.034 437.333C651.239 437.333 650.491 437.193 649.789 436.914C649.094 436.628 648.489 436.227 647.973 435.711C647.458 435.195 647.05 434.554 646.749 433.788C646.455 433.015 646.308 432.162 646.308 431.231C646.308 430.308 646.462 429.463 646.77 428.696C647.078 427.923 647.494 427.282 648.016 426.773C648.539 426.265 649.144 425.871 649.832 425.592C650.526 425.305 651.26 425.162 652.034 425.162C653.796 425.162 655.189 425.792 656.213 427.053C657.237 428.313 657.631 429.928 657.394 431.897H648.844C648.944 432.95 649.284 433.749 649.864 434.293C650.444 434.837 651.167 435.109 652.034 435.109C652.693 435.109 653.259 434.963 653.731 434.669C654.204 434.368 654.523 433.949 654.687 433.412H657.351C657.094 434.637 656.485 435.596 655.525 436.291C654.573 436.986 653.409 437.333 652.034 437.333ZM648.929 430.028H654.741C654.698 429.19 654.426 428.542 653.925 428.084C653.43 427.618 652.793 427.386 652.012 427.386C651.26 427.386 650.605 427.611 650.047 428.062C649.495 428.507 649.123 429.162 648.929 430.028ZM674.183 437.924C673.853 436.032 672.511 433.656 669.959 431.742C668.705 430.796 667.429 430.18 666.175 429.916V428.992C668.661 428.398 671.103 426.726 672.665 424.46C673.457 423.316 673.963 422.194 674.183 421.028H675.107C675.481 423.25 677.197 425.714 679.529 427.364C680.673 428.178 681.861 428.728 683.071 428.992V429.916C680.629 430.422 677.791 432.6 676.383 434.822C675.679 435.944 675.261 436.978 675.107 437.924H674.183ZM700.061 437.333C698.515 437.333 697.122 436.989 695.883 436.302C694.644 435.614 693.67 434.644 692.961 433.391C692.252 432.13 691.897 430.694 691.897 429.083C691.897 427.457 692.252 426.014 692.961 424.754C693.67 423.493 694.64 422.527 695.872 421.854C697.111 421.173 698.507 420.833 700.061 420.833C701.279 420.833 702.403 421.048 703.434 421.478C704.473 421.907 705.343 422.541 706.045 423.379C706.754 424.21 707.216 425.18 707.431 426.29H704.616C704.365 425.366 703.818 424.636 702.973 424.099C702.135 423.562 701.157 423.293 700.04 423.293C698.443 423.293 697.136 423.83 696.119 424.904C695.109 425.971 694.604 427.364 694.604 429.083C694.604 430.766 695.113 432.152 696.13 433.24C697.154 434.322 698.457 434.862 700.04 434.862C701.214 434.862 702.224 434.572 703.069 433.992C703.921 433.405 704.48 432.567 704.745 431.479H707.549C707.327 432.696 706.861 433.749 706.152 434.637C705.443 435.525 704.566 436.198 703.52 436.656C702.482 437.107 701.329 437.333 700.061 437.333ZM713.172 437.333C712.119 437.333 711.242 437.032 710.54 436.431C709.846 435.829 709.498 434.991 709.498 433.917C709.498 433.258 709.638 432.674 709.917 432.166C710.196 431.65 710.587 431.231 711.088 430.909C711.589 430.58 712.141 430.318 712.742 430.125C713.344 429.924 714.01 429.781 714.74 429.695L716.674 429.48V429.255C716.674 428.596 716.463 428.102 716.04 427.772C715.618 427.443 715.095 427.278 714.472 427.278C713.834 427.278 713.305 427.443 712.882 427.772C712.467 428.102 712.227 428.546 712.162 429.104H709.649C709.742 427.851 710.232 426.881 711.12 426.193C712.008 425.506 713.147 425.162 714.536 425.162C715.009 425.162 715.457 425.205 715.879 425.291C716.309 425.377 716.728 425.524 717.136 425.731C717.544 425.939 717.895 426.204 718.189 426.526C718.489 426.841 718.729 427.253 718.908 427.762C719.087 428.263 719.177 428.836 719.177 429.48V433.638C719.177 434.59 719.231 435.711 719.338 437H716.803V435.217C715.944 436.628 714.733 437.333 713.172 437.333ZM712.055 433.702C712.055 434.146 712.209 434.511 712.517 434.798C712.825 435.077 713.226 435.217 713.72 435.217C714.522 435.217 715.213 434.909 715.793 434.293C716.38 433.67 716.674 432.843 716.674 431.812V431.285L714.601 431.607C713.756 431.729 713.118 431.973 712.689 432.338C712.266 432.696 712.055 433.151 712.055 433.702ZM722.426 437V420.607H725.047V437H722.426ZM733.496 437.333C732.701 437.333 731.953 437.193 731.251 436.914C730.556 436.628 729.951 436.227 729.435 435.711C728.92 435.195 728.511 434.554 728.211 433.788C727.917 433.015 727.77 432.162 727.77 431.231C727.77 430.308 727.924 429.463 728.232 428.696C728.54 427.923 728.955 427.282 729.478 426.773C730.001 426.265 730.606 425.871 731.294 425.592C731.988 425.305 732.722 425.162 733.496 425.162C735.258 425.162 736.65 425.792 737.675 427.053C738.699 428.313 739.093 429.928 738.856 431.897H730.305C730.406 432.95 730.746 433.749 731.326 434.293C731.906 434.837 732.629 435.109 733.496 435.109C734.155 435.109 734.72 434.963 735.193 434.669C735.666 434.368 735.984 433.949 736.149 433.412H738.813C738.555 434.637 737.947 435.596 736.987 436.291C736.035 436.986 734.871 437.333 733.496 437.333ZM730.391 430.028H736.203C736.16 429.19 735.888 428.542 735.386 428.084C734.892 427.618 734.255 427.386 733.474 427.386C732.722 427.386 732.067 427.611 731.509 428.062C730.957 428.507 730.585 429.162 730.391 430.028ZM741.601 437V425.495H744.136V426.924C744.451 426.444 744.92 426.032 745.543 425.688C746.166 425.338 746.893 425.162 747.724 425.162C749.041 425.162 750.069 425.563 750.807 426.365C751.551 427.167 751.924 428.199 751.924 429.459V437H749.303V429.985C749.303 429.269 749.095 428.678 748.68 428.213C748.264 427.747 747.695 427.515 746.972 427.515C746.213 427.515 745.564 427.783 745.027 428.32C744.49 428.85 744.222 429.52 744.222 430.329V437H741.601ZM759.717 437.333C759.03 437.333 758.378 437.197 757.762 436.925C757.146 436.653 756.602 436.266 756.129 435.765C755.656 435.256 755.281 434.612 755.001 433.831C754.729 433.05 754.593 432.184 754.593 431.231C754.593 430.286 754.729 429.427 755.001 428.653C755.281 427.873 755.656 427.232 756.129 426.73C756.602 426.229 757.146 425.842 757.762 425.57C758.378 425.298 759.03 425.162 759.717 425.162C760.498 425.162 761.185 425.316 761.78 425.624C762.381 425.925 762.868 426.337 763.24 426.859V420.607H765.862V437H763.326V435.528C762.976 436.073 762.492 436.509 761.876 436.839C761.26 437.168 760.541 437.333 759.717 437.333ZM757.236 431.231C757.236 432.427 757.515 433.348 758.073 433.992C758.639 434.637 759.355 434.959 760.222 434.959C761.088 434.959 761.808 434.633 762.381 433.981C762.954 433.323 763.24 432.406 763.24 431.231C763.24 430.043 762.954 429.13 762.381 428.492C761.815 427.855 761.096 427.536 760.222 427.536C759.355 427.536 758.639 427.855 758.073 428.492C757.515 429.13 757.236 430.043 757.236 431.231ZM772.194 437.333C771.141 437.333 770.264 437.032 769.562 436.431C768.867 435.829 768.52 434.991 768.52 433.917C768.52 433.258 768.66 432.674 768.939 432.166C769.218 431.65 769.609 431.231 770.11 430.909C770.611 430.58 771.163 430.318 771.764 430.125C772.366 429.924 773.032 429.781 773.762 429.695L775.696 429.48V429.255C775.696 428.596 775.485 428.102 775.062 427.772C774.64 427.443 774.117 427.278 773.494 427.278C772.856 427.278 772.326 427.443 771.904 427.772C771.489 428.102 771.249 428.546 771.184 429.104H768.67C768.764 427.851 769.254 426.881 770.142 426.193C771.03 425.506 772.169 425.162 773.558 425.162C774.031 425.162 774.478 425.205 774.901 425.291C775.331 425.377 775.75 425.524 776.158 425.731C776.566 425.939 776.917 426.204 777.211 426.526C777.511 426.841 777.751 427.253 777.93 427.762C778.109 428.263 778.199 428.836 778.199 429.48V433.638C778.199 434.59 778.253 435.711 778.36 437H775.825V435.217C774.965 436.628 773.755 437.333 772.194 437.333ZM771.077 433.702C771.077 434.146 771.231 434.511 771.539 434.798C771.847 435.077 772.248 435.217 772.742 435.217C773.544 435.217 774.235 434.909 774.815 434.293C775.402 433.67 775.696 432.843 775.696 431.812V431.285L773.623 431.607C772.778 431.729 772.14 431.973 771.711 432.338C771.288 432.696 771.077 433.151 771.077 433.702ZM781.448 437V425.495H783.962V427.536C784.205 426.892 784.61 426.372 785.176 425.979C785.749 425.585 786.386 425.388 787.088 425.388C787.496 425.388 787.918 425.438 788.355 425.538V428.138C787.868 428.059 787.467 428.02 787.152 428.02C786.228 428.02 785.48 428.327 784.907 428.943C784.334 429.552 784.048 430.476 784.048 431.715V437H781.448ZM804.8 437.924C804.47 436.032 803.128 433.656 800.576 431.742C799.322 430.796 798.046 430.18 796.792 429.916V428.992C799.278 428.398 801.72 426.726 803.282 424.46C804.074 423.316 804.58 422.194 804.8 421.028H805.724C806.098 423.25 807.814 425.714 810.146 427.364C811.29 428.178 812.478 428.728 813.688 428.992V429.916C811.246 430.422 808.408 432.6 807 434.822C806.296 435.944 805.878 436.978 805.724 437.924H804.8ZM823.116 437V421.155H830.088C831.685 421.155 832.974 421.578 833.955 422.423C834.943 423.268 835.437 424.439 835.437 425.936C835.437 427.439 834.947 428.61 833.966 429.448C832.985 430.286 831.692 430.705 830.088 430.705H825.748V437H823.116ZM825.748 428.267H830.088C830.854 428.267 831.481 428.066 831.968 427.665C832.462 427.264 832.709 426.695 832.709 425.957C832.709 425.198 832.465 424.621 831.978 424.228C831.491 423.826 830.861 423.626 830.088 423.626H825.748V428.267ZM838.708 437V420.607H841.329V426.795C841.666 426.337 842.135 425.95 842.737 425.635C843.338 425.32 844.036 425.162 844.831 425.162C846.149 425.162 847.177 425.563 847.914 426.365C848.659 427.167 849.031 428.199 849.031 429.459V437H846.41V429.985C846.41 429.269 846.203 428.678 845.787 428.213C845.372 427.747 844.803 427.515 844.079 427.515C843.32 427.515 842.672 427.783 842.135 428.32C841.598 428.85 841.329 429.52 841.329 430.329V437H838.708ZM857.598 437.333C856.488 437.333 855.489 437.097 854.601 436.624C853.72 436.151 853.015 435.45 852.485 434.519C851.962 433.58 851.701 432.485 851.701 431.231C851.701 429.985 851.966 428.897 852.496 427.966C853.026 427.035 853.731 426.337 854.612 425.871C855.5 425.398 856.495 425.162 857.598 425.162C858.701 425.162 859.693 425.398 860.574 425.871C861.462 426.337 862.171 427.035 862.701 427.966C863.231 428.897 863.496 429.985 863.496 431.231C863.496 432.485 863.231 433.58 862.701 434.519C862.171 435.45 861.462 436.151 860.574 436.624C859.693 437.097 858.701 437.333 857.598 437.333ZM855.256 428.438C854.633 429.083 854.322 430.014 854.322 431.231C854.322 432.449 854.633 433.383 855.256 434.035C855.887 434.68 856.667 435.002 857.598 435.002C858.522 435.002 859.299 434.676 859.929 434.024C860.559 433.373 860.875 432.442 860.875 431.231C860.875 430.021 860.559 429.094 859.929 428.449C859.299 427.798 858.522 427.472 857.598 427.472C856.667 427.472 855.887 427.794 855.256 428.438ZM871.074 437.215C868.388 437.215 867.046 435.861 867.046 433.154V427.676H864.844V425.495H867.046V422.96L869.667 421.639V425.495H872.481V427.676H869.667V433.079C869.667 434.311 870.297 434.927 871.557 434.927C871.93 434.927 872.338 434.884 872.782 434.798V437C872.259 437.143 871.69 437.215 871.074 437.215ZM880.275 437.333C879.165 437.333 878.165 437.097 877.277 436.624C876.397 436.151 875.691 435.45 875.161 434.519C874.638 433.58 874.377 432.485 874.377 431.231C874.377 429.985 874.642 428.897 875.172 427.966C875.702 427.035 876.407 426.337 877.288 425.871C878.176 425.398 879.172 425.162 880.275 425.162C881.377 425.162 882.369 425.398 883.25 425.871C884.138 426.337 884.847 427.035 885.377 427.966C885.907 428.897 886.172 429.985 886.172 431.231C886.172 432.485 885.907 433.58 885.377 434.519C884.847 435.45 884.138 436.151 883.25 436.624C882.369 437.097 881.377 437.333 880.275 437.333ZM877.933 428.438C877.31 429.083 876.998 430.014 876.998 431.231C876.998 432.449 877.31 433.383 877.933 434.035C878.563 434.68 879.344 435.002 880.275 435.002C881.198 435.002 881.975 434.676 882.606 434.024C883.236 433.373 883.551 432.442 883.551 431.231C883.551 430.021 883.236 429.094 882.606 428.449C881.975 427.798 881.198 427.472 880.275 427.472C879.344 427.472 878.563 427.794 877.933 428.438ZM895.018 437.333C894.209 437.333 893.493 437.172 892.87 436.85C892.254 436.52 891.767 436.087 891.409 435.55V437H888.873V420.607H891.495V426.838C891.853 426.337 892.332 425.932 892.934 425.624C893.536 425.316 894.23 425.162 895.018 425.162C895.705 425.162 896.357 425.298 896.973 425.57C897.589 425.842 898.133 426.229 898.606 426.73C899.078 427.232 899.451 427.873 899.723 428.653C900.002 429.427 900.142 430.286 900.142 431.231C900.142 432.184 900.002 433.05 899.723 433.831C899.451 434.612 899.078 435.256 898.606 435.765C898.133 436.266 897.589 436.653 896.973 436.925C896.357 437.197 895.705 437.333 895.018 437.333ZM891.495 431.231C891.495 432.435 891.774 433.358 892.332 434.003C892.898 434.64 893.618 434.959 894.492 434.959C895.365 434.959 896.081 434.64 896.64 434.003C897.199 433.358 897.478 432.435 897.478 431.231C897.478 430.043 897.199 429.13 896.64 428.492C896.081 427.855 895.365 427.536 894.492 427.536C893.632 427.536 892.916 427.862 892.343 428.514C891.777 429.165 891.495 430.071 891.495 431.231ZM908.129 437.333C907.019 437.333 906.019 437.097 905.131 436.624C904.251 436.151 903.545 435.45 903.015 434.519C902.492 433.58 902.231 432.485 902.231 431.231C902.231 429.985 902.496 428.897 903.026 427.966C903.556 427.035 904.261 426.337 905.142 425.871C906.03 425.398 907.026 425.162 908.129 425.162C909.231 425.162 910.223 425.398 911.104 425.871C911.992 426.337 912.701 427.035 913.231 427.966C913.761 428.897 914.026 429.985 914.026 431.231C914.026 432.485 913.761 433.58 913.231 434.519C912.701 435.45 911.992 436.151 911.104 436.624C910.223 437.097 909.231 437.333 908.129 437.333ZM905.787 428.438C905.164 429.083 904.852 430.014 904.852 431.231C904.852 432.449 905.164 433.383 905.787 434.035C906.417 434.68 907.198 435.002 908.129 435.002C909.052 435.002 909.829 434.676 910.46 434.024C911.09 433.373 911.405 432.442 911.405 431.231C911.405 430.021 911.09 429.094 910.46 428.449C909.829 427.798 909.052 427.472 908.129 427.472C907.198 427.472 906.417 427.794 905.787 428.438ZM921.991 437.333C920.881 437.333 919.882 437.097 918.994 436.624C918.113 436.151 917.408 435.45 916.878 434.519C916.355 433.58 916.094 432.485 916.094 431.231C916.094 429.985 916.359 428.897 916.889 427.966C917.418 427.035 918.124 426.337 919.005 425.871C919.893 425.398 920.888 425.162 921.991 425.162C923.094 425.162 924.086 425.398 924.967 425.871C925.855 426.337 926.564 427.035 927.094 427.966C927.624 428.897 927.889 429.985 927.889 431.231C927.889 432.485 927.624 433.58 927.094 434.519C926.564 435.45 925.855 436.151 924.967 436.624C924.086 437.097 923.094 437.333 921.991 437.333ZM919.649 428.438C919.026 429.083 918.715 430.014 918.715 431.231C918.715 432.449 919.026 433.383 919.649 434.035C920.28 434.68 921.06 435.002 921.991 435.002C922.915 435.002 923.692 434.676 924.322 434.024C924.952 433.373 925.267 432.442 925.267 431.231C925.267 430.021 924.952 429.094 924.322 428.449C923.692 427.798 922.915 427.472 921.991 427.472C921.06 427.472 920.28 427.794 919.649 428.438ZM930.59 437V420.607H933.19V430.361L937.744 425.495H941.085L936.799 429.985L941.289 437H938.335L935.016 431.876L933.19 433.767V437H930.59ZM957.573 437.924C957.243 436.032 955.901 433.656 953.349 431.742C952.095 430.796 950.819 430.18 949.565 429.916V428.992C952.051 428.398 954.493 426.726 956.055 424.46C956.847 423.316 957.353 422.194 957.573 421.028H958.497C958.871 423.25 960.587 425.714 962.919 427.364C964.063 428.178 965.251 428.728 966.461 428.992V429.916C964.019 430.422 961.181 432.6 959.773 434.822C959.069 435.944 958.651 436.978 958.497 437.924H957.573Z" fill="#F5F5F5"/>
<path d="M82.4427 83.6878C78.1164 80.6465 70.8772 78.6332 62.1816 79.8755C57.8981 80.4752 54.2142 81.7602 51.2586 83.6878L49.4595 81.8887C53.1434 75.8918 54.6426 67.8816 53.2719 60.4282C52.5865 56.6587 51.3871 53.4889 49.5452 50.7903L51.3443 48.9912C56.3989 52.5893 64.5376 54.0457 72.2908 52.7178C76.1031 52.0753 79.4871 50.8331 82.3571 48.9912L84.1562 50.7903C80.3866 56.5302 79.1016 66.2967 80.6865 73.3645C81.5004 76.9198 82.6998 79.747 84.2418 81.8887L82.4427 83.6878Z" fill="#5750FB"/>
<mask id="path-6-outside-1_447_14365" maskUnits="userSpaceOnUse" x="302.971" y="66.6322" width="255" height="259" fill="black">
<rect fill="white" x="302.971" y="66.6322" width="255" height="259"/>
<path fill-rule="evenodd" clip-rule="evenodd" d="M511.063 144.816C510.012 147.101 511.063 146.964 511.292 146.553C511.862 145.587 512.659 144.776 513.616 144.19C514.572 143.605 515.657 143.263 516.776 143.194C517.684 143.169 518.592 143.207 519.495 143.308C520.706 143.468 520.98 143.605 521.095 143.308C521.209 143.011 513.645 139.172 511.063 144.816ZM553.313 132.363C553.342 132.272 553.335 132.173 553.292 132.088C553.249 132.003 553.175 131.937 553.085 131.906C544.607 127.793 539.375 137.778 540.54 138.304C540.951 138.464 540.883 138.121 542.117 136.682C547.509 130.535 553.062 133.186 553.313 132.363ZM547.92 124.068C548.286 124.343 549.337 123.794 546.984 122.469C543.807 120.687 537.272 121.418 537.295 122.24C537.318 123.063 546.549 123.36 547.92 124.068ZM530.349 159.577C529.275 156.081 527.355 138.555 526.396 138.67C525.436 138.784 527.561 161.291 529.8 161.245C531.206 161.113 532.584 160.775 533.891 160.24C534.485 160.012 538.026 158.572 537.706 157.955C537.387 157.338 535.33 159.235 530.349 159.577ZM555.392 154.802C555.525 155.603 555.608 156.412 555.644 157.224C556.055 165.061 549.931 165.77 549.657 165.998C549.383 166.227 548.994 167.004 551.828 165.998C561.059 162.913 554.296 148.289 555.392 154.802ZM490.11 174.476C490.155 174.513 490.211 174.533 490.27 174.533C490.328 174.533 490.385 174.513 490.43 174.476C490.467 174.431 490.487 174.374 490.487 174.316C490.487 174.257 490.467 174.201 490.43 174.156C447.563 138.076 417.95 113.375 362.013 67.6975C361.97 67.6557 361.913 67.6322 361.853 67.6322C361.793 67.6322 361.736 67.6557 361.693 67.6975C361.651 67.7402 361.628 67.7977 361.628 67.8575C361.628 67.9173 361.651 67.9747 361.693 68.0174C412.648 110.907 440.091 133.643 490.11 174.476ZM413.677 209.048L426.016 211.744C426.076 211.744 426.134 211.72 426.177 211.677C426.22 211.634 426.244 211.576 426.244 211.515C426.244 211.455 426.22 211.397 426.177 211.354C426.134 211.311 426.076 211.287 426.016 211.287L413.745 208.339C271.892 174.338 262.958 175.961 413.677 209.048ZM452.773 268.846C452.808 268.805 452.828 268.752 452.828 268.698C452.828 268.643 452.808 268.59 452.773 268.549C452.748 268.495 452.703 268.453 452.648 268.432C452.592 268.41 452.531 268.411 452.476 268.435C415.276 282.625 396.471 289.365 310.92 323.275C310.891 323.285 310.865 323.301 310.843 323.321C310.82 323.342 310.802 323.367 310.789 323.394C310.776 323.422 310.769 323.452 310.768 323.483C310.767 323.513 310.772 323.543 310.783 323.572C310.808 323.632 310.856 323.679 310.915 323.705C310.975 323.73 311.042 323.732 311.103 323.709C402.96 289.023 442.605 272.845 452.773 268.846Z"/>
</mask>
<path fill-rule="evenodd" clip-rule="evenodd" d="M511.063 144.816C510.012 147.101 511.063 146.964 511.292 146.553C511.862 145.587 512.659 144.776 513.616 144.19C514.572 143.605 515.657 143.263 516.776 143.194C517.684 143.169 518.592 143.207 519.495 143.308C520.706 143.468 520.98 143.605 521.095 143.308C521.209 143.011 513.645 139.172 511.063 144.816ZM553.313 132.363C553.342 132.272 553.335 132.173 553.292 132.088C553.249 132.003 553.175 131.937 553.085 131.906C544.607 127.793 539.375 137.778 540.54 138.304C540.951 138.464 540.883 138.121 542.117 136.682C547.509 130.535 553.062 133.186 553.313 132.363ZM547.92 124.068C548.286 124.343 549.337 123.794 546.984 122.469C543.807 120.687 537.272 121.418 537.295 122.24C537.318 123.063 546.549 123.36 547.92 124.068ZM530.349 159.577C529.275 156.081 527.355 138.555 526.396 138.67C525.436 138.784 527.561 161.291 529.8 161.245C531.206 161.113 532.584 160.775 533.891 160.24C534.485 160.012 538.026 158.572 537.706 157.955C537.387 157.338 535.33 159.235 530.349 159.577ZM555.392 154.802C555.525 155.603 555.608 156.412 555.644 157.224C556.055 165.061 549.931 165.77 549.657 165.998C549.383 166.227 548.994 167.004 551.828 165.998C561.059 162.913 554.296 148.289 555.392 154.802ZM490.11 174.476C490.155 174.513 490.211 174.533 490.27 174.533C490.328 174.533 490.385 174.513 490.43 174.476C490.467 174.431 490.487 174.374 490.487 174.316C490.487 174.257 490.467 174.201 490.43 174.156C447.563 138.076 417.95 113.375 362.013 67.6975C361.97 67.6557 361.913 67.6322 361.853 67.6322C361.793 67.6322 361.736 67.6557 361.693 67.6975C361.651 67.7402 361.628 67.7977 361.628 67.8575C361.628 67.9173 361.651 67.9747 361.693 68.0174C412.648 110.907 440.091 133.643 490.11 174.476ZM413.677 209.048L426.016 211.744C426.076 211.744 426.134 211.72 426.177 211.677C426.22 211.634 426.244 211.576 426.244 211.515C426.244 211.455 426.22 211.397 426.177 211.354C426.134 211.311 426.076 211.287 426.016 211.287L413.745 208.339C271.892 174.338 262.958 175.961 413.677 209.048ZM452.773 268.846C452.808 268.805 452.828 268.752 452.828 268.698C452.828 268.643 452.808 268.59 452.773 268.549C452.748 268.495 452.703 268.453 452.648 268.432C452.592 268.41 452.531 268.411 452.476 268.435C415.276 282.625 396.471 289.365 310.92 323.275C310.891 323.285 310.865 323.301 310.843 323.321C310.82 323.342 310.802 323.367 310.789 323.394C310.776 323.422 310.769 323.452 310.768 323.483C310.767 323.513 310.772 323.543 310.783 323.572C310.808 323.632 310.856 323.679 310.915 323.705C310.975 323.73 311.042 323.732 311.103 323.709C402.96 289.023 442.605 272.845 452.773 268.846Z" fill="#5750FB"/>
<path d="M511.063 144.816L511.972 145.234L511.973 145.232L511.063 144.816ZM511.292 146.553L510.431 146.045L510.424 146.056L510.418 146.067L511.292 146.553ZM516.776 143.194L516.748 142.194L516.731 142.195L516.715 142.196L516.776 143.194ZM519.495 143.308L519.626 142.317L519.616 142.315L519.606 142.314L519.495 143.308ZM553.313 132.363L552.361 132.058L552.357 132.071L553.313 132.363ZM553.085 131.906L552.648 132.806L552.701 132.832L552.757 132.851L553.085 131.906ZM540.54 138.304L540.129 139.216L540.153 139.226L540.177 139.236L540.54 138.304ZM542.117 136.682L541.365 136.022L541.357 136.031L542.117 136.682ZM547.92 124.068L548.52 123.268L548.454 123.218L548.379 123.18L547.92 124.068ZM546.984 122.469L547.474 121.598L547.473 121.597L546.984 122.469ZM530.349 159.577L529.393 159.871L529.626 160.629L530.417 160.575L530.349 159.577ZM529.8 161.245L529.821 162.245L529.857 162.244L529.894 162.241L529.8 161.245ZM533.891 160.24L533.532 159.307L533.522 159.31L533.512 159.314L533.891 160.24ZM555.392 154.802L556.379 154.639L556.378 154.636L555.392 154.802ZM555.644 157.224L554.645 157.267L554.645 157.276L555.644 157.224ZM551.828 165.998L551.511 165.05L551.502 165.053L551.493 165.056L551.828 165.998ZM490.11 174.476L490.746 173.704L490.742 173.701L490.11 174.476ZM490.43 174.476L491.066 175.247L491.14 175.186L491.201 175.112L490.43 174.476ZM490.43 174.156L491.201 173.519L491.143 173.449L491.074 173.391L490.43 174.156ZM362.013 67.6975L361.313 68.4117L361.345 68.4434L361.38 68.4721L362.013 67.6975ZM361.693 67.6975L360.993 66.9834L360.986 66.9904L360.979 66.9975L361.693 67.6975ZM361.693 68.0174L360.979 68.7174L361.012 68.7516L361.049 68.7825L361.693 68.0174ZM413.677 209.048L413.462 210.024L413.463 210.025L413.677 209.048ZM426.016 211.744L425.802 212.721L425.908 212.744H426.016V211.744ZM426.016 211.287L425.782 212.259L425.897 212.287H426.016V211.287ZM413.745 208.339L413.979 207.367L413.978 207.367L413.745 208.339ZM452.773 268.846L453.139 269.777L453.371 269.686L453.533 269.496L452.773 268.846ZM452.828 268.698H453.828H452.828ZM452.773 268.549L451.865 268.969L451.923 269.094L452.013 269.199L452.773 268.549ZM452.476 268.435L452.832 269.369L452.851 269.362L452.868 269.355L452.476 268.435ZM310.92 323.275L311.254 324.217L311.272 324.211L311.289 324.204L310.92 323.275ZM310.783 323.572L309.849 323.929L309.856 323.946L309.863 323.962L310.783 323.572ZM311.103 323.709L311.455 324.645L311.456 324.644L311.103 323.709ZM510.155 144.398C509.872 145.012 509.7 145.528 509.635 145.96C509.576 146.351 509.572 146.889 509.917 147.32C510.33 147.836 510.931 147.847 511.305 147.733C511.655 147.625 511.978 147.378 512.166 147.039L510.418 146.067C510.492 145.934 510.597 145.857 510.719 145.82C510.865 145.776 511.226 145.755 511.479 146.071C511.664 146.302 511.58 146.472 511.612 146.259C511.638 146.087 511.729 145.763 511.972 145.234L510.155 144.398ZM512.153 147.061C512.64 146.236 513.321 145.543 514.138 145.043L513.093 143.338C511.998 144.009 511.083 144.938 510.431 146.045L512.153 147.061ZM514.138 145.043C514.954 144.543 515.881 144.251 516.837 144.192L516.715 142.196C515.432 142.275 514.189 142.667 513.093 143.338L514.138 145.043ZM516.803 144.194C517.665 144.17 518.527 144.206 519.384 144.302L519.606 142.314C518.658 142.208 517.703 142.168 516.748 142.194L516.803 144.194ZM519.364 144.3C519.654 144.338 519.887 144.375 520.086 144.406C520.272 144.434 520.467 144.465 520.633 144.477C520.778 144.487 521.069 144.502 521.366 144.373C521.743 144.209 521.935 143.909 522.028 143.667L520.161 142.949C520.175 142.914 520.209 142.837 520.282 142.751C520.361 142.658 520.461 142.586 520.568 142.539C520.665 142.497 520.743 142.487 520.773 142.485C520.802 142.482 520.809 142.484 520.779 142.482C520.711 142.477 520.604 142.462 520.393 142.429C520.197 142.399 519.942 142.359 519.626 142.317L519.364 144.3ZM522.028 143.667C522.133 143.393 522.096 143.148 522.051 143.002C522.008 142.859 521.943 142.755 521.903 142.698C521.823 142.583 521.734 142.501 521.683 142.458C521.573 142.362 521.443 142.276 521.322 142.202C521.071 142.049 520.73 141.876 520.332 141.705C519.534 141.364 518.43 141.003 517.221 140.843C516.018 140.684 514.646 140.715 513.364 141.23C512.052 141.756 510.905 142.759 510.154 144.4L511.973 145.232C512.513 144.052 513.279 143.418 514.108 143.086C514.967 142.742 515.963 142.694 516.959 142.826C517.95 142.957 518.876 143.258 519.545 143.544C519.88 143.688 520.132 143.819 520.282 143.91C520.362 143.959 520.386 143.98 520.375 143.97C520.374 143.97 520.321 143.926 520.263 143.843C520.234 143.801 520.177 143.712 520.137 143.582C520.097 143.448 520.059 143.214 520.161 142.949L522.028 143.667ZM554.265 132.668C554.374 132.329 554.346 131.96 554.186 131.641L552.397 132.535C552.323 132.387 552.31 132.216 552.361 132.058L554.265 132.668ZM554.186 131.641C554.027 131.322 553.749 131.078 553.412 130.961L552.757 132.851C552.601 132.797 552.472 132.683 552.397 132.535L554.186 131.641ZM553.521 131.006C551.209 129.884 549.063 129.704 547.169 130.12C545.292 130.533 543.726 131.518 542.518 132.63C541.314 133.741 540.429 135.011 539.917 136.068C539.664 136.588 539.477 137.107 539.408 137.559C539.374 137.779 539.358 138.053 539.422 138.328C539.489 138.614 539.677 139.012 540.129 139.216L540.951 137.392C541.257 137.53 541.35 137.789 541.369 137.873C541.386 137.946 541.371 137.955 541.385 137.86C541.412 137.682 541.51 137.366 541.716 136.941C542.121 136.106 542.856 135.039 543.874 134.101C544.889 133.166 546.147 132.392 547.599 132.073C549.034 131.758 550.722 131.871 552.648 132.806L553.521 131.006ZM540.177 139.236C540.371 139.311 540.762 139.43 541.2 139.231C541.528 139.082 541.733 138.806 541.813 138.701C542.046 138.398 542.28 138.028 542.876 137.332L541.357 136.031C540.719 136.775 540.37 137.296 540.226 137.484C540.188 137.534 540.179 137.541 540.189 137.532C540.199 137.522 540.261 137.461 540.372 137.41C540.5 137.352 540.635 137.333 540.753 137.342C540.805 137.346 540.844 137.355 540.868 137.361C540.879 137.364 540.888 137.367 540.894 137.369C540.897 137.37 540.899 137.371 540.9 137.371C540.902 137.372 540.902 137.372 540.902 137.372L540.177 139.236ZM542.868 137.341C545.38 134.479 547.872 133.707 549.742 133.521C550.699 133.426 551.509 133.482 552.159 133.519C552.455 133.536 552.799 133.555 553.078 133.528C553.219 133.514 553.432 133.482 553.644 133.378C553.887 133.26 554.154 133.032 554.269 132.655L552.357 132.071C552.44 131.797 552.635 131.645 552.766 131.581C552.867 131.532 552.93 131.533 552.883 131.537C552.79 131.547 552.617 131.542 552.273 131.522C551.643 131.486 550.68 131.418 549.544 131.531C547.226 131.762 544.246 132.738 541.365 136.022L542.868 137.341ZM547.32 124.868C547.702 125.155 548.175 125.189 548.544 125.079C548.951 124.959 549.435 124.584 549.47 123.922C549.5 123.367 549.184 122.921 548.892 122.62C548.572 122.291 548.105 121.953 547.474 121.598L546.493 123.34C547.039 123.648 547.323 123.876 547.457 124.013C547.618 124.179 547.458 124.102 547.473 123.815C547.494 123.422 547.794 123.216 547.975 123.162C548.117 123.12 548.322 123.119 548.52 123.268L547.32 124.868ZM547.473 121.597C545.642 120.57 542.989 120.314 540.909 120.378C539.848 120.411 538.864 120.529 538.122 120.706C537.759 120.792 537.401 120.904 537.112 121.054C536.97 121.128 536.792 121.238 536.639 121.401C536.483 121.565 536.284 121.861 536.296 122.268L538.295 122.213C538.303 122.517 538.153 122.711 538.092 122.775C538.033 122.837 537.996 122.849 538.037 122.828C538.113 122.788 538.287 122.722 538.584 122.651C539.16 122.515 540.003 122.407 540.971 122.377C542.946 122.316 545.149 122.586 546.494 123.341L547.473 121.597ZM536.296 122.268C536.311 122.815 536.694 123.115 536.837 123.213C537.016 123.336 537.216 123.417 537.378 123.472C537.712 123.587 538.144 123.679 538.601 123.759C539.529 123.92 540.76 124.059 541.996 124.192C543.248 124.326 544.511 124.453 545.554 124.591C546.074 124.66 546.522 124.729 546.873 124.8C547.049 124.836 547.19 124.87 547.298 124.901C547.351 124.916 547.392 124.93 547.422 124.941C547.453 124.952 547.464 124.958 547.461 124.957L548.379 123.18C548.072 123.021 547.653 122.918 547.269 122.84C546.853 122.756 546.355 122.68 545.816 122.608C544.741 122.466 543.439 122.335 542.209 122.203C540.962 122.07 539.796 121.936 538.943 121.788C538.51 121.713 538.206 121.642 538.026 121.58C537.93 121.547 537.929 121.536 537.969 121.565C537.974 121.568 538.282 121.769 538.295 122.213L536.296 122.268ZM531.305 159.284C531.061 158.489 530.749 156.812 530.4 154.659C530.055 152.533 529.686 150.029 529.318 147.619C528.951 145.219 528.585 142.909 528.248 141.203C528.081 140.355 527.915 139.624 527.753 139.097C527.674 138.842 527.58 138.581 527.464 138.368C527.409 138.266 527.316 138.115 527.174 137.981C527.034 137.85 526.721 137.624 526.278 137.677L526.514 139.663C526.13 139.708 525.88 139.51 525.803 139.438C525.724 139.364 525.697 139.305 525.709 139.326C525.727 139.359 525.774 139.467 525.841 139.686C525.972 140.109 526.122 140.756 526.286 141.59C526.613 143.248 526.974 145.516 527.341 147.921C527.707 150.315 528.079 152.841 528.426 154.98C528.769 157.093 529.1 158.918 529.393 159.871L531.305 159.284ZM526.278 137.677C525.733 137.741 525.491 138.163 525.429 138.281C525.343 138.445 525.299 138.614 525.273 138.733C525.219 138.986 525.191 139.299 525.176 139.628C525.144 140.3 525.159 141.225 525.209 142.298C525.31 144.454 525.558 147.302 525.906 150.139C526.253 152.972 526.704 155.826 527.216 157.984C527.47 159.055 527.749 160.002 528.057 160.698C528.209 161.041 528.393 161.381 528.621 161.649C528.834 161.899 529.235 162.257 529.821 162.245L529.78 160.246C530.086 160.239 530.207 160.427 530.144 160.352C530.096 160.296 530.005 160.157 529.886 159.888C529.653 159.362 529.407 158.557 529.162 157.523C528.675 155.469 528.235 152.698 527.891 149.896C527.548 147.098 527.305 144.301 527.207 142.205C527.158 141.153 527.146 140.301 527.174 139.721C527.187 139.424 527.21 139.241 527.229 139.152C527.24 139.1 527.238 139.136 527.201 139.209C527.187 139.235 526.998 139.605 526.514 139.663L526.278 137.677ZM529.894 162.241C531.397 162.1 532.872 161.737 534.269 161.166L533.512 159.314C532.296 159.812 531.014 160.127 529.707 160.25L529.894 162.241ZM534.249 161.173C534.562 161.053 535.631 160.622 536.593 160.135C537.066 159.896 537.563 159.618 537.934 159.336C538.112 159.201 538.327 159.016 538.485 158.784C538.635 158.565 538.886 158.057 538.594 157.495L536.819 158.415C536.607 158.008 536.817 157.68 536.832 157.658C536.856 157.624 536.842 157.654 536.724 157.744C536.502 157.913 536.137 158.125 535.69 158.351C534.812 158.795 533.813 159.198 533.532 159.307L534.249 161.173ZM538.594 157.495C538.495 157.304 538.342 157.129 538.133 157.006C537.932 156.888 537.73 156.847 537.57 156.836C537.281 156.816 537.007 156.89 536.83 156.944C536.479 157.051 535.939 157.278 535.426 157.47C534.308 157.887 532.646 158.417 530.28 158.58L530.417 160.575C533.033 160.395 534.89 159.805 536.126 159.343C536.789 159.095 537.134 158.942 537.414 158.856C537.553 158.814 537.532 158.838 537.435 158.831C537.372 158.827 537.252 158.808 537.119 158.73C536.977 158.646 536.878 158.529 536.819 158.415L538.594 157.495ZM554.406 154.964C554.531 155.727 554.611 156.496 554.645 157.267L556.643 157.18C556.606 156.329 556.518 155.48 556.379 154.639L554.406 154.964ZM554.645 157.276C554.834 160.883 553.537 162.701 552.291 163.677C551.642 164.185 550.967 164.495 550.423 164.693C550.152 164.792 549.918 164.862 549.729 164.917C549.641 164.943 549.541 164.972 549.462 164.998C549.422 165.011 549.367 165.03 549.311 165.054C549.276 165.069 549.146 165.123 549.017 165.23L550.297 166.766C550.232 166.821 550.175 166.853 550.149 166.867C550.12 166.883 550.098 166.893 550.088 166.896C550.071 166.904 550.066 166.905 550.086 166.898C550.126 166.885 550.186 166.868 550.291 166.837C550.488 166.779 550.773 166.695 551.108 166.573C551.778 166.329 552.659 165.929 553.524 165.252C555.305 163.857 556.864 161.402 556.642 157.171L554.645 157.276ZM549.017 165.23C548.862 165.359 548.646 165.592 548.536 165.911C548.478 166.08 548.419 166.37 548.532 166.694C548.657 167.05 548.924 167.267 549.177 167.378C549.587 167.556 550.061 167.506 550.433 167.438C550.866 167.36 551.43 167.201 552.162 166.941L551.493 165.056C550.809 165.299 550.359 165.419 550.076 165.471C549.733 165.533 549.79 165.463 549.977 165.544C550.118 165.606 550.323 165.756 550.42 166.033C550.506 166.28 550.455 166.481 550.428 166.561C550.38 166.701 550.315 166.752 550.297 166.766L549.017 165.23ZM552.145 166.947C554.753 166.075 556.272 164.357 557.053 162.403C557.819 160.489 557.865 158.391 557.653 156.678C557.546 155.815 557.371 155.026 557.173 154.378C556.983 153.751 556.751 153.188 556.503 152.815C556.438 152.718 556.354 152.606 556.25 152.504C556.159 152.416 555.975 152.257 555.701 152.185C555.356 152.095 554.976 152.174 554.691 152.432C554.466 152.636 554.378 152.882 554.341 153.012C554.263 153.286 554.26 153.597 554.274 153.872C554.29 154.173 554.334 154.538 554.406 154.968L556.378 154.636C556.314 154.251 556.282 153.967 556.272 153.769C556.26 153.544 556.281 153.505 556.265 153.561C556.258 153.582 556.211 153.753 556.035 153.913C555.799 154.127 555.476 154.194 555.194 154.12C554.983 154.065 554.869 153.952 554.853 153.936C554.824 153.907 554.82 153.897 554.839 153.925C554.926 154.056 555.09 154.401 555.26 154.96C555.424 155.498 555.575 156.174 555.668 156.924C555.856 158.439 555.794 160.168 555.197 161.66C554.616 163.112 553.518 164.379 551.511 165.05L552.145 166.947ZM489.474 175.247C489.698 175.432 489.979 175.533 490.27 175.533V173.533C490.444 173.533 490.612 173.594 490.746 173.704L489.474 175.247ZM490.27 175.533C490.56 175.533 490.842 175.432 491.066 175.247L489.793 173.704C489.928 173.594 490.096 173.533 490.27 173.533V175.533ZM491.201 175.112C491.386 174.888 491.487 174.606 491.487 174.316H489.487C489.487 174.142 489.548 173.973 489.658 173.839L491.201 175.112ZM491.487 174.316C491.487 174.025 491.386 173.743 491.201 173.519L489.658 174.792C489.548 174.658 489.487 174.49 489.487 174.316H491.487ZM491.074 173.391C448.204 137.308 418.586 112.604 362.645 66.923L361.38 68.4721C417.313 114.146 446.922 138.843 489.786 174.921L491.074 173.391ZM362.713 66.9834C362.483 66.7583 362.174 66.6322 361.853 66.6322V68.6322C361.651 68.6322 361.457 68.553 361.313 68.4117L362.713 66.9834ZM361.853 66.6322C361.531 66.6322 361.223 66.7583 360.993 66.9834L362.393 68.4117C362.249 68.553 362.055 68.6322 361.853 68.6322V66.6322ZM360.979 66.9975C360.754 67.2272 360.628 67.5359 360.628 67.8575H362.628C362.628 68.0594 362.548 68.2533 362.407 68.3975L360.979 66.9975ZM360.628 67.8575C360.628 68.179 360.754 68.4878 360.979 68.7174L362.407 67.3174C362.548 67.4616 362.628 67.6555 362.628 67.8575H360.628ZM361.049 68.7825C412.008 111.675 439.455 134.414 489.478 175.25L490.742 173.701C440.728 132.871 413.289 110.139 362.337 67.2524L361.049 68.7825ZM413.463 210.025L425.802 212.721L426.229 210.767L413.89 208.071L413.463 210.025ZM426.016 212.744C426.341 212.744 426.654 212.615 426.884 212.384L425.47 210.97C425.615 210.825 425.811 210.744 426.016 210.744V212.744ZM426.884 212.384C427.115 212.154 427.244 211.841 427.244 211.515H425.244C425.244 211.311 425.325 211.115 425.47 210.97L426.884 212.384ZM427.244 211.515C427.244 211.19 427.115 210.877 426.884 210.647L425.47 212.061C425.325 211.916 425.244 211.72 425.244 211.515H427.244ZM426.884 210.647C426.654 210.416 426.341 210.287 426.016 210.287V212.287C425.811 212.287 425.615 212.206 425.47 212.061L426.884 210.647ZM426.249 210.315L413.979 207.367L413.512 209.312L425.782 212.259L426.249 210.315ZM413.978 207.367C378.511 198.866 351.35 192.591 332.913 188.477C323.695 186.42 316.655 184.903 311.846 183.918C309.443 183.426 307.591 183.065 306.301 182.836C305.658 182.722 305.144 182.638 304.768 182.588C304.581 182.563 304.415 182.545 304.278 182.535C304.209 182.531 304.136 182.527 304.063 182.528C304.008 182.529 303.884 182.532 303.746 182.568C303.683 182.584 303.529 182.628 303.371 182.749C303.183 182.892 302.958 183.178 302.971 183.588C302.982 183.926 303.154 184.146 303.221 184.223C303.301 184.316 303.382 184.376 303.425 184.407C303.573 184.511 303.754 184.582 303.854 184.621C304.112 184.721 304.506 184.847 305.013 184.996C306.039 185.299 307.64 185.73 309.814 186.287C314.165 187.402 320.853 189.033 329.926 191.17C348.073 195.446 375.779 201.752 413.462 210.024L413.891 208.071C376.215 199.8 348.518 193.496 330.384 189.224C321.316 187.087 314.643 185.46 310.31 184.35C308.142 183.794 306.569 183.37 305.578 183.078C305.076 182.93 304.751 182.823 304.576 182.756C304.46 182.711 304.496 182.715 304.572 182.768C304.597 182.786 304.664 182.834 304.735 182.916C304.792 182.983 304.959 183.193 304.97 183.522C304.983 183.925 304.762 184.203 304.583 184.339C304.434 184.453 304.293 184.492 304.247 184.504C304.187 184.519 304.141 184.524 304.124 184.526C304.103 184.528 304.09 184.528 304.089 184.528C304.088 184.528 304.103 184.528 304.141 184.531C304.217 184.536 304.335 184.548 304.503 184.571C304.837 184.615 305.318 184.693 305.952 184.805C307.216 185.029 309.048 185.386 311.445 185.877C316.237 186.859 323.265 188.373 332.478 190.429C350.902 194.54 378.053 200.812 413.512 209.312L413.978 207.367ZM453.533 269.496C453.723 269.274 453.828 268.99 453.828 268.698H451.828C451.828 268.514 451.894 268.336 452.013 268.196L453.533 269.496ZM453.828 268.698C453.828 268.405 453.723 268.121 453.533 267.899L452.013 269.199C451.894 269.059 451.828 268.882 451.828 268.698H453.828ZM453.681 268.129C453.547 267.839 453.305 267.613 453.007 267.498L452.289 269.365C452.101 269.293 451.95 269.151 451.865 268.969L453.681 268.129ZM453.007 267.498C452.709 267.384 452.378 267.39 452.084 267.515L452.868 269.355C452.684 269.433 452.476 269.437 452.289 269.365L453.007 267.498ZM452.12 267.5C414.923 281.689 396.11 288.433 310.552 322.345L311.289 324.204C396.832 290.298 415.63 283.56 452.832 269.369L452.12 267.5ZM310.586 322.332C310.432 322.387 310.29 322.472 310.169 322.583L311.516 324.06C311.44 324.13 311.351 324.183 311.254 324.217L310.586 322.332ZM310.169 322.583C310.047 322.693 309.95 322.827 309.881 322.975L311.697 323.814C311.654 323.907 311.593 323.991 311.516 324.06L310.169 322.583ZM309.881 322.975C309.812 323.124 309.774 323.285 309.769 323.449L311.768 323.516C311.764 323.619 311.74 323.72 311.697 323.814L309.881 322.975ZM309.769 323.449C309.763 323.613 309.791 323.776 309.849 323.929L311.717 323.214C311.754 323.31 311.771 323.413 311.768 323.516L309.769 323.449ZM309.863 323.962C309.989 324.26 310.225 324.497 310.522 324.624L311.309 322.786C311.487 322.862 311.628 323.004 311.704 323.181L309.863 323.962ZM310.522 324.624C310.818 324.751 311.153 324.759 311.455 324.645L310.751 322.773C310.932 322.705 311.132 322.709 311.309 322.786L310.522 324.624ZM311.456 324.644C403.322 289.955 442.976 273.773 453.139 269.777L452.407 267.915C442.233 271.916 402.598 288.09 310.75 322.773L311.456 324.644Z" fill="#5750FB" mask="url(#path-6-outside-1_447_14365)"/>
<path fill-rule="evenodd" clip-rule="evenodd" d="M719.821 241.746C711.22 227.808 698.952 216.504 684.358 209.07C683.215 202.513 671.265 142.531 618.413 128.707C618.413 128.707 621.246 61.3224 575.272 59.0602C528.338 56.7752 510.218 82.8928 510.241 82.8242C510.264 82.7557 482.501 98.545 506.082 150.095C510.972 181.559 531.606 200.113 564.487 191.727L567.983 198.765C564.738 199.108 538.918 202.33 509.921 222.78C443.245 269.76 417.676 370.46 440 409.305C442.254 413.622 445.501 417.341 449.474 420.158C453.446 422.974 458.031 424.807 462.85 425.506C514.445 432.909 536.13 368.701 541.683 316.831C547.258 326.2 554.707 337.876 563.573 350.032C562.796 362.805 559.003 398.588 562.545 423.152C562.547 423.182 562.556 423.211 562.57 423.238C562.585 423.265 562.604 423.288 562.627 423.307C562.651 423.327 562.678 423.341 562.707 423.349C562.736 423.358 562.766 423.361 562.796 423.358C562.853 423.343 562.903 423.311 562.94 423.266C562.977 423.221 562.999 423.165 563.002 423.106C560.877 402.541 563.778 361.686 564.053 350.695C565.492 352.683 567 354.671 568.623 356.659C568.417 359.949 567.092 369.752 566.338 381.588C564.281 414.88 568.623 426.397 568.097 423.084C565.035 398.68 568.714 366.918 569.08 357.298C596.705 393.31 639.321 434.806 682.736 421.256C755.376 398.52 741.072 277.803 719.821 241.746ZM616.631 182.884C592.387 196.092 591.656 196.594 592.592 206.785C591.884 207.22 591.153 207.677 590.444 208.156H590.262C589.211 197.691 589.051 194.972 597.597 189.876L614.186 179.594L616.631 182.884ZM590.422 209.71H590.559L593.004 210.739C596.111 239.21 584.938 250.041 575.98 308.491C574.518 307.348 572.873 305.954 571.662 304.903C575.935 276.181 590.582 238.753 591.016 221.958C591.08 217.867 590.882 213.776 590.422 209.71ZM592.113 208.613L592.729 208.225V209.162L592.044 208.888L592.113 208.613ZM565.698 192.23C565.241 191.407 565.195 190.539 564.601 190.699C526.487 199.314 505.42 171.117 506.425 138.144C507.959 136 509.671 133.99 511.543 132.135C512.126 131.577 512.77 131.086 513.463 130.672C513.55 130.636 513.621 130.571 513.663 130.486C513.705 130.402 513.715 130.306 513.691 130.215C513.394 129.278 508.39 131.015 506.539 135.676C507.316 121.966 511.361 102.749 526.647 91.8043C526.647 91.8043 578.448 134.374 581.487 134.648C584.526 134.922 583.978 121.395 590.879 119.11C597.779 116.825 604.292 119.476 604.406 128.661C604.274 132.241 603.21 135.724 601.318 138.766C599.427 141.808 596.773 144.303 593.621 146.004C599.683 157.448 606.46 168.499 613.911 179.091C593.986 190.882 590.879 191.682 589.325 196.937C587.811 195.56 586.148 194.357 584.366 193.35C575.82 188.734 566.475 191.499 565.698 192.23ZM565.949 192.733C566.292 192.733 576.46 189.122 588.914 197.463C588.72 198.311 588.605 199.175 588.571 200.045C580.939 194.881 572.576 194.949 568.006 197.76L565.949 192.733ZM510.789 223.992C541.34 202.078 568.486 199.565 568.486 199.565C569.331 199.565 568.486 198.605 568.486 198.377C574.701 196.092 582.721 198.102 588.731 200.959C588.759 203.174 588.904 205.386 589.165 207.585C588.754 207.402 579.202 203.427 578.951 203.952C578.7 204.478 588.936 208.911 589.165 209.002C577.74 216.382 576.415 218.622 589.439 210.373C589.839 214.167 590 217.983 589.919 221.798C589.485 238.044 575.386 273.896 571.296 304.401C566.47 300.073 561.943 295.424 557.746 290.485C551.097 282.922 549.474 281.688 547.212 270.308C545.224 260.232 520.546 236.033 518.056 242.888C514.011 239.278 511.521 241.86 512.16 244.968C509.67 243.871 508.253 246.59 508.504 249.538C507.179 248.555 505.031 249.378 505.488 253.902C506.105 259.843 510.355 270.308 511.589 273.919C517.439 290.873 523.951 293.593 521.506 300.539C517.667 311.416 497.651 327.639 488.511 334.745C498.953 295.512 506.219 279.905 505.511 279.654C504.803 279.403 497.605 299.808 496.371 303.852C490.154 299.232 482.892 296.22 475.23 295.084C467.568 293.948 459.743 294.723 452.453 297.34C465.661 268.983 484.489 242.866 510.789 223.992ZM452.111 298.14C459.456 295.842 467.22 295.204 474.843 296.271C482.465 297.338 489.755 300.083 496.188 304.309L495.434 306.594C479.599 296.426 462.69 295.695 450.785 301.019C451.219 300.128 451.654 299.122 452.111 298.14ZM463.124 423.495C458.617 422.834 454.333 421.109 450.626 418.462C446.918 415.816 443.895 412.324 441.805 408.277C425.81 380.445 437.578 331.501 450.465 301.841C462.027 297.271 478.548 297.66 495.297 307.143C492.852 315.46 491.115 320.441 487.916 335.225C479.005 342.217 470.345 348.158 460.908 357.253C457.291 360.511 454.063 364.176 451.288 368.175C451.251 368.22 451.23 368.277 451.23 368.335C451.23 368.393 451.251 368.45 451.288 368.495C451.331 368.537 451.388 368.56 451.448 368.56C451.508 368.56 451.565 368.537 451.608 368.495C454.425 364.571 457.684 360.983 461.319 357.801C476.606 343.451 529.618 309.542 522.534 294.689C517.964 285.23 515.474 282.259 512.503 273.736C510.264 268.094 508.357 262.326 506.791 256.461C505.351 249.949 507.316 249.195 508.664 250.977C510.949 263.385 525.939 285.252 530.44 296.22C533.65 302.863 537.197 309.338 541.066 315.62C535.17 366.461 513.463 430.967 463.124 423.495ZM682.256 419.77C655.91 427.974 629.701 415.383 606.577 395.549C565.127 359.949 534.211 300.973 531.926 295.626C528.11 286.212 509.441 256.781 510.035 248.395C510.584 240.535 520.546 258.769 525.573 266.675C525.673 266.857 525.841 266.992 526.041 267.05C526.24 267.107 526.454 267.084 526.636 266.984C526.818 266.884 526.952 266.716 527.01 266.516C527.068 266.317 527.044 266.103 526.944 265.921C523.605 259.555 519.73 253.486 515.359 247.778C511.886 243.802 512.709 237.587 522.42 250.063C530.44 260.369 530.372 263.956 531.857 263.134C531.944 263.086 532.021 263.021 532.084 262.944C532.146 262.866 532.192 262.777 532.22 262.681C532.247 262.586 532.256 262.486 532.244 262.387C532.233 262.288 532.202 262.192 532.154 262.105C528.687 255.62 524.402 249.607 519.404 244.214C518.17 237.656 543.739 259.866 545.887 270.514C546.487 274.476 547.673 278.326 549.406 281.939C552.308 287.377 565.789 301.407 572.667 307.074C602.715 332.209 625.771 331.684 656.184 345.554C666.763 350.398 675.241 356.11 678.897 363.834C678.915 363.873 678.94 363.908 678.972 363.937C679.003 363.966 679.04 363.989 679.081 364.003C679.121 364.018 679.164 364.025 679.207 364.023C679.25 364.022 679.292 364.012 679.331 363.993C679.37 363.975 679.405 363.95 679.434 363.918C679.463 363.887 679.486 363.85 679.501 363.81C679.516 363.769 679.522 363.726 679.521 363.683C679.519 363.641 679.509 363.598 679.491 363.559C675.812 355.63 667.243 349.849 656.504 344.777C652.871 343.086 648.963 341.509 644.942 340.001C645.947 332.735 647.41 324.874 648.872 317.699C664.035 313.703 679.997 313.886 695.063 318.231C710.13 322.576 723.739 330.92 734.445 342.377C730.721 377.841 715.937 409.305 682.256 419.77ZM734.582 342.217C710.156 315.62 673.801 309.451 648.918 317.494C649.192 316.146 649.535 314.592 649.809 313.335C678.874 306.183 713.789 313.129 734.811 337.739C734.838 337.757 734.869 337.768 734.902 337.768C734.935 337.768 734.967 337.757 734.994 337.739C734.879 339.27 734.742 340.755 734.582 342.217ZM649.9 312.901C656.252 284.087 661.325 273.622 660.663 273.37C660.625 273.337 660.576 273.318 660.525 273.318C660.475 273.318 660.426 273.337 660.388 273.37C652.345 296.015 647.295 312.695 644.508 339.932C614.803 328.827 600.384 327.502 576.369 308.605C585.966 252.166 597.231 238.524 594.123 211.036C604.2 215.24 606.896 215.286 593.963 209.596C593.963 209.322 593.781 207.905 593.712 207.494C604.863 200.182 603.538 199.862 593.552 206.077C592.752 197.211 592.981 196.937 616.928 183.227C619.969 187.311 623.242 191.217 626.73 194.926C626.73 194.926 658.218 198.994 677.16 206.351C693.932 213.938 709.47 225.979 718.953 242.226C728.641 258.815 738.033 299.054 734.948 337.442C713.926 311.598 678.166 305.36 649.9 312.901Z" fill="#5750FB" stroke="#5750FB"/>
</g>
<defs>
<linearGradient id="paint0_linear_447_14365" x1="1123.5" y1="303.5" x2="545.5" y2="182" gradientUnits="userSpaceOnUse">
<stop stop-opacity="0"/>
<stop offset="0.746945" stop-color="#E8E8E8" stop-opacity="0.921009"/>
<stop offset="1" stop-color="#FCFCFC"/>
</linearGradient>
<linearGradient id="paint1_linear_447_14365" x1="-78.5" y1="303.5" x2="499.5" y2="182" gradientUnits="userSpaceOnUse">
<stop stop-opacity="0"/>
<stop offset="0.655024" stop-color="#E8E8E8" stop-opacity="0.921009"/>
<stop offset="1" stop-color="#FCFCFC"/>
</linearGradient>
<clipPath id="clip0_447_14365">
<rect width="817" height="451" rx="20" fill="white"/>
</clipPath>
</defs>
</svg>
