<svg width="17" height="17" viewBox="0 0 17 17" fill="none" xmlns="http://www.w3.org/2000/svg">
<g id="heart_check">
<mask id="mask0_891_3577" style="mask-type:alpha" maskUnits="userSpaceOnUse" x="0" y="0" width="17" height="17">
<rect id="Bounding box" x="0.375" y="0.75" width="16" height="16" fill="#D9D9D9"/>
</mask>
<g mask="url(#mask0_891_3577)">
<path id="heart_check_2" d="M7.70833 14.3012L6.26483 13.0038C5.35794 12.179 4.59278 11.4577 3.96933 10.8397C3.34578 10.2218 2.8415 9.65749 2.4565 9.14682C2.07139 8.63615 1.79489 8.15599 1.627 7.70632C1.459 7.25676 1.375 6.79354 1.375 6.31665C1.375 5.37054 1.694 4.58015 2.332 3.94549C2.97011 3.31093 3.76222 2.99365 4.70833 2.99365C5.29033 2.99365 5.84033 3.12804 6.35833 3.39682C6.87633 3.6656 7.32633 4.05426 7.70833 4.56282C8.09033 4.05426 8.54033 3.6656 9.05833 3.39682C9.57633 3.12804 10.1263 2.99365 10.7083 2.99365C11.5844 2.99365 12.3206 3.26693 12.9167 3.81349C13.5128 4.36004 13.8673 5.01454 13.9802 5.77699C13.7707 5.70087 13.5544 5.65065 13.3313 5.62632C13.1083 5.60199 12.8818 5.58982 12.6518 5.58982C11.6946 5.59404 10.8397 5.95321 10.0872 6.66732C9.33461 7.38143 8.95833 8.2936 8.95833 9.40382C8.95833 9.89015 9.05683 10.3805 9.25383 10.875C9.45083 11.3694 9.73694 11.791 10.1122 12.1397C9.88828 12.3414 9.62078 12.581 9.30967 12.8583C8.99856 13.1357 8.71006 13.3961 8.44417 13.6397L7.70833 14.3012ZM12.3417 11.2962L10.6788 9.64999L11.3917 8.94749L12.3417 9.88715L14.6917 7.53082L15.4045 8.23332L12.3417 11.2962Z" fill="#F1F1F1"/>
</g>
</g>
</svg>
