<svg width="23" height="22" viewBox="0 0 23 22" fill="none" xmlns="http://www.w3.org/2000/svg">
<g id="ic:baseline-whatsapp">
<g id="Vector">
<path fill-rule="evenodd" clip-rule="evenodd" d="M11.5364 18.4706C10.1797 18.4706 8.85057 18.1039 7.68641 17.4164L7.41141 17.2514L4.55141 18.0031L5.31224 15.2164L5.12891 14.9322C4.37517 13.7286 3.97495 12.3374 3.97391 10.9172C3.97391 6.75556 7.36557 3.3639 11.5272 3.3639C13.5439 3.3639 15.4414 4.15223 16.8622 5.58223C17.5658 6.28253 18.1233 7.1155 18.5025 8.03287C18.8817 8.95023 19.0751 9.93375 19.0714 10.9264C19.0897 15.0881 15.6981 18.4706 11.5364 18.4706ZM14.1306 12.0814C14.3322 12.1639 15.4506 12.7139 15.6797 12.8239C15.9089 12.9339 16.0464 12.9797 16.1106 13.0806C16.1747 13.1814 16.1747 13.6306 15.9822 14.1622C15.7989 14.6939 14.8914 15.1797 14.4514 15.2439C14.0572 15.2989 13.5622 15.3264 13.0214 15.1522C12.6914 15.0514 12.2697 14.9139 11.7289 14.6756C9.45557 13.6947 7.96141 11.4031 7.85141 11.2472L7.84962 11.2449C7.73289 11.0892 6.92557 10.013 6.92557 8.90056C6.92557 7.78223 7.51224 7.23223 7.71391 7.00306C7.92474 6.7739 8.16307 6.7189 8.31891 6.7189H8.75891C8.89641 6.72806 9.08891 6.67306 9.27224 7.11306C9.45557 7.5714 9.91391 8.68973 9.96891 8.79973C10.0239 8.90973 10.0606 9.03806 9.98724 9.1939C9.91391 9.34056 9.86807 9.4414 9.75807 9.56973C9.64807 9.69806 9.51974 9.86306 9.41891 9.9639C9.29974 10.0831 9.18974 10.2022 9.31807 10.4314C9.45557 10.6606 9.90474 11.4031 10.5831 12.0081C11.4447 12.7781 12.1781 13.0256 12.4072 13.1356C12.6364 13.2547 12.7739 13.2364 12.9022 13.0806C13.0306 12.9339 13.4614 12.4206 13.6172 12.1914C13.7731 11.9714 13.9197 12.0081 14.1306 12.0814Z" fill="#1A1A1A"/>
<path fill-rule="evenodd" clip-rule="evenodd" d="M15.0176 2.52061C16.1208 2.97859 17.1218 3.65166 17.9622 4.50056C19.6764 6.21473 20.6206 8.49723 20.6206 10.9264C20.6206 15.9314 16.5414 20.0106 11.5364 20.0106C10.0147 20.0106 8.52057 19.6256 7.19141 18.9014L2.37891 20.1664L3.66224 15.4547C2.87391 14.0797 2.45224 12.5214 2.45224 10.9172C2.45224 5.91223 6.53141 1.83306 11.5364 1.83306C12.7309 1.8289 13.9143 2.06263 15.0176 2.52061ZM7.68641 17.4164C8.85057 18.1039 10.1797 18.4706 11.5364 18.4706C15.6981 18.4706 19.0897 15.0881 19.0714 10.9264C19.0751 9.93375 18.8817 8.95023 18.5025 8.03287C18.1233 7.1155 17.5658 6.28253 16.8622 5.58223C15.4414 4.15223 13.5439 3.3639 11.5272 3.3639C7.36557 3.3639 3.97391 6.75556 3.97391 10.9172C3.97495 12.3374 4.37517 13.7286 5.12891 14.9322L5.31224 15.2164L4.55141 18.0031L7.41141 17.2514L7.68641 17.4164Z" fill="#1A1A1A"/>
</g>
</g>
</svg>
