<svg width="14" height="14" viewBox="0 0 14 14" fill="none" xmlns="http://www.w3.org/2000/svg">
<g id="Inbox">
<path id="Vector" d="M12.1006 6.09908L12.0978 6.08815L10.5638 2.1903C10.4955 1.97018 10.2918 1.81842 10.0607 1.81842H3.84275C3.61032 1.81842 3.40388 1.97291 3.33825 2.19576L1.90407 6.05397L1.89997 6.06354L1.89724 6.07447C1.87946 6.14147 1.874 6.20983 1.88357 6.27682C1.8822 6.29869 1.88083 6.32057 1.88083 6.34244V11.345C1.88119 11.5653 1.96889 11.7766 2.1247 11.9324C2.28051 12.0882 2.49173 12.1759 2.71208 12.1762H11.2871C11.7451 12.1762 12.1183 11.803 12.1197 11.345V6.34244C12.1197 6.32467 12.1197 6.3069 12.1183 6.29186C12.1238 6.22487 12.1183 6.16061 12.1006 6.09908ZM8.05642 5.51119L8.05232 5.72584C8.04138 6.33971 7.61755 6.7526 6.99821 6.7526C6.69607 6.7526 6.4363 6.65553 6.249 6.47096C6.06169 6.28639 5.95915 6.02936 5.95368 5.72584L5.94958 5.51119H3.13591L4.22282 2.86842H9.68064L10.7976 5.51119H8.05642V5.51119ZM2.92946 6.56119H5.08005C5.41228 7.34186 6.11911 7.8026 6.99958 7.8026C7.46032 7.8026 7.88825 7.67408 8.23415 7.43072C8.53767 7.21744 8.77419 6.9194 8.92732 6.56119H11.067V11.1262H2.92946V6.56119V6.56119Z" fill="white"/>
</g>
</svg>
