<svg width="18" height="18" viewBox="0 0 18 18" fill="none" xmlns="http://www.w3.org/2000/svg">
<mask id="mask0_1123_48228" style="mask-type:alpha" maskUnits="userSpaceOnUse" x="0" y="0" width="18" height="18">
<rect width="18" height="18" fill="white"/>
</mask>
<g mask="url(#mask0_1123_48228)">
<path d="M5.85578 15H12.1442V12.75C12.1442 11.8673 11.8409 11.113 11.2341 10.487C10.6274 9.86106 9.88269 9.54808 9 9.54808C8.11731 9.54808 7.3726 9.86106 6.76586 10.487C6.15914 11.113 5.85578 11.8673 5.85578 12.75V15ZM3.75 15.75V15H5.10576V12.75C5.10576 11.824 5.38965 11.0026 5.95744 10.2858C6.52523 9.56899 7.25287 9.14039 8.14037 9C7.25287 8.85 6.52523 8.41899 5.95744 7.70696C5.38965 6.99495 5.10576 6.17596 5.10576 5.25V3H3.75V2.25H14.25V3H12.8942V5.25C12.8942 6.17596 12.6104 6.99495 12.0426 7.70696C11.4748 8.41899 10.7471 8.85 9.85963 9C10.7471 9.14039 11.4748 9.56899 12.0426 10.2858C12.6104 11.0026 12.8942 11.824 12.8942 12.75V15H14.25V15.75H3.75Z" fill="#1E1E1E"/>
</g>
</svg>
