<svg width="37" height="37" viewBox="0 0 37 37" fill="none" xmlns="http://www.w3.org/2000/svg">
<g id="insert_text">
<mask id="mask0_865_15110" style="mask-type:alpha" maskUnits="userSpaceOnUse" x="0" y="0" width="37" height="37">
<path id="Bounding box" d="M0 0H37V37H0V0Z" fill="#D9D9D9"/>
</mask>
<g mask="url(#mask0_865_15110)">
<path id="insert_text_2" d="M17.4584 24.6667C17.1823 24.6667 16.9584 24.4428 16.9584 24.1667V15.9167C16.9584 15.6405 16.7346 15.4167 16.4584 15.4167H12.8334C12.5573 15.4167 12.3334 15.1928 12.3334 14.9167V12.8333C12.3334 12.5572 12.5573 12.3333 12.8334 12.3333H24.1667C24.4429 12.3333 24.6667 12.5572 24.6667 12.8333V14.9167C24.6667 15.1928 24.4429 15.4167 24.1667 15.4167H20.5417C20.2656 15.4167 20.0417 15.6405 20.0417 15.9167V24.1667C20.0417 24.4428 19.8179 24.6667 19.5417 24.6667H17.4584ZM1.54175 35.4583V26.2083H4.62508V10.7917H1.54175V1.54166H10.7917V4.62499H26.2084V1.54166H35.4584V10.7917H32.3751V26.2083H35.4584V35.4583H26.2084V32.375H10.7917V35.4583H1.54175ZM10.7917 29.2917H26.2084V26.2083H29.2917V10.7917H26.2084V7.70832H10.7917V10.7917H7.70842V26.2083H10.7917V29.2917ZM4.62508 7.70832H7.70842V4.62499H4.62508V7.70832ZM29.2917 7.70832H32.3751V4.62499H29.2917V7.70832ZM29.2917 32.375H32.3751V29.2917H29.2917V32.375ZM4.62508 32.375H7.70842V29.2917H4.62508V32.375Z" fill="#6E6D75"/>
</g>
</g>
</svg>
