<svg width="27" height="27" viewBox="0 0 27 27" fill="none" xmlns="http://www.w3.org/2000/svg">
<g id="ri:instagram-fill">
<path id="Vector" d="M14.6136 2.45312C15.8324 2.45638 16.451 2.46288 16.9851 2.47804L17.1952 2.48562C17.4379 2.49429 17.6773 2.50512 17.9666 2.51812C19.1192 2.57229 19.9057 2.75429 20.5958 3.02188C21.3108 3.29704 21.9131 3.66971 22.5155 4.27096C23.0663 4.81251 23.4926 5.4676 23.7646 6.19062C24.0321 6.88071 24.2141 7.66721 24.2683 8.82096C24.2813 9.10913 24.2921 9.34854 24.3008 9.59229L24.3073 9.80246C24.3236 10.3355 24.3301 10.954 24.3322 12.1728L24.3333 12.981V14.4001C24.336 15.1903 24.3277 15.9805 24.3084 16.7705L24.3019 16.9806C24.2932 17.2244 24.2824 17.4638 24.2694 17.752C24.2152 18.9057 24.0311 19.6911 23.7646 20.3823C23.4934 21.1057 23.067 21.761 22.5155 22.302C21.9738 22.8526 21.3187 23.2789 20.5958 23.551C19.9057 23.8186 19.1192 24.0006 17.9666 24.0548C17.7095 24.0669 17.4524 24.0777 17.1952 24.0873L16.9851 24.0938C16.451 24.109 15.8324 24.1165 14.6136 24.1187L13.8055 24.1198H12.3874C11.5968 24.1225 10.8063 24.1142 10.016 24.0949L9.80581 24.0884C9.54864 24.0786 9.29152 24.0674 9.03447 24.0548C7.88181 24.0006 7.09531 23.8186 6.40414 23.551C5.6812 23.2795 5.02638 22.8532 4.48556 22.302C3.93419 21.7606 3.50755 21.1055 3.23539 20.3823C2.96781 19.6922 2.78581 18.9057 2.73164 17.752C2.71957 17.4949 2.70874 17.2378 2.69914 16.9806L2.69372 16.7705C2.67376 15.9805 2.66473 15.1903 2.66664 14.4001V12.1728C2.66362 11.3826 2.67156 10.5924 2.69047 9.80246L2.69806 9.59229C2.70672 9.34854 2.71756 9.10913 2.73056 8.82096C2.78472 7.66721 2.96672 6.88179 3.23431 6.19062C3.50635 5.46685 3.93384 4.81157 4.48664 4.27096C5.02732 3.72006 5.68171 3.29378 6.40414 3.02188C7.09531 2.75429 7.88072 2.57229 9.03447 2.51812C9.32264 2.50512 9.56314 2.49429 9.80581 2.48562L10.016 2.47912C10.8059 2.45988 11.5961 2.45157 12.3863 2.45421L14.6136 2.45312ZM13.5 7.86979C12.0634 7.86979 10.6856 8.44047 9.66981 9.4563C8.65399 10.4721 8.08331 11.8499 8.08331 13.2865C8.08331 14.723 8.65399 16.1008 9.66981 17.1166C10.6856 18.1324 12.0634 18.7031 13.5 18.7031C14.9366 18.7031 16.3143 18.1324 17.3301 17.1166C18.346 16.1008 18.9166 14.723 18.9166 13.2865C18.9166 11.8499 18.346 10.4721 17.3301 9.4563C16.3143 8.44047 14.9366 7.86979 13.5 7.86979ZM13.5 10.0365C13.9268 10.0364 14.3494 10.1204 14.7437 10.2836C15.1381 10.4469 15.4964 10.6862 15.7982 10.988C16.1001 11.2897 16.3395 11.648 16.5029 12.0422C16.6663 12.4365 16.7504 12.8591 16.7505 13.2859C16.7506 13.7127 16.6666 14.1353 16.5033 14.5297C16.3401 14.924 16.1007 15.2823 15.799 15.5842C15.4973 15.886 15.139 16.1255 14.7447 16.2889C14.3505 16.4523 13.9279 16.5364 13.5011 16.5365C12.6391 16.5365 11.8125 16.194 11.203 15.5846C10.5935 14.9751 10.2511 14.1484 10.2511 13.2865C10.2511 12.4245 10.5935 11.5979 11.203 10.9884C11.8125 10.3789 12.6391 10.0365 13.5011 10.0365M19.1886 6.24479C18.8294 6.24479 18.485 6.38746 18.231 6.64142C17.9771 6.89537 17.8344 7.23981 17.8344 7.59896C17.8344 7.95811 17.9771 8.30254 18.231 8.5565C18.485 8.81045 18.8294 8.95312 19.1886 8.95312C19.5477 8.95312 19.8921 8.81045 20.1461 8.5565C20.4001 8.30254 20.5427 7.95811 20.5427 7.59896C20.5427 7.23981 20.4001 6.89537 20.1461 6.64142C19.8921 6.38746 19.5477 6.24479 19.1886 6.24479Z" fill="black"/>
</g>
</svg>
