<svg width="31" height="31" viewBox="0 0 31 31" fill="none" xmlns="http://www.w3.org/2000/svg">
<path d="M4.70801 30.9167C3.86009 30.9167 3.13422 30.6148 2.5304 30.011C1.92658 29.4072 1.62467 28.6813 1.62467 27.8334V10.4511C1.16217 10.1684 0.789605 9.8023 0.506966 9.35264C0.224327 8.90299 0.0830078 8.38268 0.0830078 7.79171V3.16671C0.0830078 2.31879 0.384918 1.59292 0.988737 0.989103C1.59256 0.385284 2.31842 0.083374 3.16634 0.083374H27.833C28.6809 0.083374 29.4068 0.385284 30.0106 0.989103C30.6144 1.59292 30.9163 2.31879 30.9163 3.16671V7.79171C30.9163 8.38268 30.775 8.90299 30.4924 9.35264C30.2097 9.8023 29.8372 10.1684 29.3747 10.4511V27.8334C29.3747 28.6813 29.0728 29.4072 28.4689 30.011C27.8651 30.6148 27.1393 30.9167 26.2913 30.9167H4.70801ZM4.70801 10.875V27.8334H26.2913V10.875H4.70801ZM3.16634 7.79171H27.833V3.16671H3.16634V7.79171ZM10.8747 18.5834H20.1247V15.5H10.8747V18.5834Z" fill="#6E6D75"/>
</svg>
