<svg width="37" height="37" viewBox="0 0 37 37" fill="none" xmlns="http://www.w3.org/2000/svg">
<mask id="mask0_462_9950" style="mask-type:alpha" maskUnits="userSpaceOnUse" x="0" y="0" width="37" height="38">
<rect y="0.000976562" width="37" height="37" fill="#D9D9D9"/>
</mask>
<g mask="url(#mask0_462_9950)">
<path d="M6.16732 30.8343C5.3194 30.8343 4.59353 30.5324 3.98971 29.9285C3.38589 29.3247 3.08398 28.5989 3.08398 27.7509V9.25094C3.08398 8.40302 3.38589 7.67715 3.98971 7.07333C4.59353 6.46951 5.3194 6.1676 6.16732 6.1676H30.834C31.6819 6.1676 32.4078 6.46951 33.0116 7.07333C33.6154 7.67715 33.9173 8.40302 33.9173 9.25094V27.7509C33.9173 28.5989 33.6154 29.3247 33.0116 29.9285C32.4078 30.5324 31.6819 30.8343 30.834 30.8343H6.16732ZM6.16732 16.9593H12.334V9.25094H6.16732V16.9593ZM15.4173 16.9593H21.584V9.25094H15.4173V16.9593ZM24.6673 16.9593H30.834V9.25094H24.6673V16.9593ZM12.334 27.7509V20.0426H6.16732V27.7509H12.334ZM15.4173 27.7509H21.584V20.0426H15.4173V27.7509ZM24.6673 27.7509H30.834V20.0426H24.6673V27.7509Z" fill="#6E6D75"/>
</g>
</svg>
