<svg width="218" height="144" viewBox="0 0 218 144" fill="none" xmlns="http://www.w3.org/2000/svg">
<g id="all_inbox">
<mask id="mask0_1_69920" style="mask-type:alpha" maskUnits="userSpaceOnUse" x="0" y="0" width="219" height="219">
<rect id="Bounding box" x="33.3203" width="188" height="188" transform="rotate(10.2084 33.3203 0)" fill="#D9D9D9"/>
</mask>
<g mask="url(#mask0_1_69920)">
<path id="all_inbox_2" d="M117.086 124.923C121.84 125.779 126.276 125.085 130.394 122.842C134.513 120.599 136.977 117.229 137.787 112.732L166.118 117.834L175.837 63.8686C176.114 62.3267 175.726 60.7976 174.673 59.2814C173.619 57.7651 172.322 56.8681 170.78 56.5905L90.6027 42.1522C89.0608 41.8745 87.5318 42.2624 86.0155 43.3159C84.4992 44.3695 83.6022 45.6671 83.3246 47.209L73.6065 101.174L101.938 106.276C101.128 110.773 102.262 114.791 105.339 118.33C108.416 121.869 112.332 124.067 117.086 124.923ZM72.9713 140.061C69.6306 139.459 67.0648 137.869 65.2738 135.292C63.4829 132.714 62.8882 129.755 63.4898 126.414L77.9281 46.2372C78.5297 42.8965 80.1193 40.3307 82.6969 38.5397C85.2746 36.7487 88.2338 36.1541 91.5745 36.7556L171.752 51.1939C175.092 51.7955 177.658 53.3852 179.449 55.9628C181.24 58.5405 181.835 61.4997 181.233 64.8404L166.795 145.017C166.193 148.358 164.604 150.924 162.026 152.715C159.448 154.506 156.489 155.101 153.148 154.499L72.9713 140.061ZM48.4077 157.127C45.067 156.526 42.5012 154.936 40.7102 152.359C38.9193 149.781 38.3246 146.822 38.9262 143.481L54.3363 57.9075L59.7328 58.8793L44.3227 144.453C44.0451 145.995 44.433 147.524 45.4865 149.04C46.54 150.556 47.8377 151.453 49.3795 151.731L134.953 167.141L133.981 172.538L48.4077 157.127Z" fill="#CCCCCF"/>
</g>
</g>
</svg>
