<svg width="30" height="30" viewBox="0 0 30 30" fill="none" xmlns="http://www.w3.org/2000/svg">
<g id="local_shipping">
<mask id="mask0_3209_30909" style="mask-type:alpha" maskUnits="userSpaceOnUse" x="0" y="0" width="30" height="30">
<rect id="Bounding box" width="30" height="30" fill="#D9D9D9"/>
</mask>
<g mask="url(#mask0_3209_30909)">
<path id="local_shipping_2" d="M7.30505 24.4472C6.32922 24.4472 5.50078 24.1059 4.81974 23.4234C4.13869 22.7409 3.79817 21.9123 3.79817 20.9375H1.68286V7.88469C1.68286 7.25323 1.90161 6.71875 2.33911 6.28125C2.77661 5.84375 3.31099 5.625 3.94224 5.625H20.9616V10.3847H24.2788L28.3172 15.7934V20.9375H26.0579C26.0579 21.9123 25.7163 22.7409 25.0332 23.4234C24.3503 24.1059 23.521 24.4472 22.5454 24.4472C21.5697 24.4472 20.7413 24.1059 20.06 23.4234C19.379 22.7409 19.0385 21.9123 19.0385 20.9375H10.8172C10.8172 21.915 10.4758 22.7443 9.79286 23.4253C9.10994 24.1066 8.28067 24.4472 7.30505 24.4472ZM7.30786 22.5722C7.76619 22.5722 8.15317 22.4143 8.4688 22.0984C8.78442 21.7828 8.94224 21.3958 8.94224 20.9375C8.94224 20.4792 8.78442 20.0921 8.4688 19.7762C8.15317 19.4606 7.76619 19.3028 7.30786 19.3028C6.84953 19.3028 6.46244 19.4606 6.14661 19.7762C5.83099 20.0921 5.67317 20.4792 5.67317 20.9375C5.67317 21.3958 5.83099 21.7828 6.14661 22.0984C6.46244 22.4143 6.84953 22.5722 7.30786 22.5722ZM3.55786 19.0625H4.46161C4.72765 18.5994 5.11182 18.2111 5.61411 17.8978C6.11661 17.5845 6.68119 17.4278 7.30786 17.4278C7.91828 17.4278 8.47869 17.5825 8.98911 17.8919C9.49953 18.2013 9.88776 18.5915 10.1538 19.0625H19.0866V7.5H3.94224C3.84619 7.5 3.75807 7.5401 3.67786 7.62031C3.59786 7.70031 3.55786 7.78844 3.55786 7.88469V19.0625ZM22.5482 22.5722C23.0065 22.5722 23.3935 22.4143 23.7091 22.0984C24.0249 21.7828 24.1829 21.3958 24.1829 20.9375C24.1829 20.4792 24.0249 20.0921 23.7091 19.7762C23.3935 19.4606 23.0065 19.3028 22.5482 19.3028C22.0898 19.3028 21.7028 19.4606 21.3869 19.7762C21.0713 20.0921 20.9135 20.4792 20.9135 20.9375C20.9135 21.3958 21.0713 21.7828 21.3869 22.0984C21.7028 22.4143 22.0898 22.5722 22.5482 22.5722ZM20.9616 16.5625H26.5625L23.3172 12.2597H20.9616V16.5625Z" fill="#CCCCCF"/>
</g>
</g>
</svg>
