<svg width="355" height="229" viewBox="0 0 355 229" fill="none" xmlns="http://www.w3.org/2000/svg">
<path d="M178.107 90.0923C179.17 90.0923 184.765 88.88 185.716 88.7308C187.115 88.4884 188.775 88.0594 188.887 86.5488C188.887 85.6163 188.216 84.5346 187.451 85.0941C187.292 85.2057 187.174 85.367 187.117 85.5527C187.06 85.7384 187.066 85.9379 187.134 86.1198C187.414 86.8472 186.817 86.7912 177.809 88.7495C177.643 88.8007 177.503 88.9123 177.416 89.0622C177.329 89.2121 177.302 89.3892 177.339 89.5584C177.377 89.7276 177.477 89.8765 177.619 89.9754C177.761 90.0743 177.936 90.116 178.107 90.0923Z" fill="black"/>
<path fill-rule="evenodd" clip-rule="evenodd" d="M74.8796 96.7503C77.1238 96.1401 79.2314 95.1084 81.09 93.7104C81.8174 93.1509 81.5749 91.8454 81.3698 91.0993C81.3113 90.9058 81.1835 90.7407 81.0109 90.6356C80.8382 90.5304 80.6328 90.4928 80.4341 90.5297C80.2353 90.5667 80.0572 90.6757 79.9339 90.8359C79.8106 90.9961 79.7508 91.1962 79.7658 91.3978C79.8013 91.802 79.8762 92.2018 79.9897 92.5914C77.7356 94.2367 76.1848 94.8344 75.2408 95.1983C74.3337 95.5479 73.987 95.6816 74.1149 96.3214C74.1729 96.4704 74.2809 96.5946 74.4203 96.6729C74.5598 96.7511 74.7221 96.7785 74.8796 96.7503ZM69.8067 93.3C73.5368 93.3 72.2686 91.0993 71.2615 91.4351L69.8254 91.6589C69.2177 88.777 69.151 87.0178 69.1112 85.9708C69.0705 84.897 69.0581 84.5721 68.5199 84.5532C68.3596 84.5428 68.2016 84.5956 68.0796 84.7001C67.9577 84.8046 67.8814 84.9527 67.8672 85.1127C67.7354 87.4188 67.9047 89.7322 68.3707 91.9946C68.5758 93.0017 68.9488 93.3 69.8067 93.3ZM55.4463 44.4371C55.8566 44.9033 56.8636 44.4371 56.5652 43.7284C55.6138 41.4069 54.2547 38.9495 52.8642 36.4354C51.529 34.0214 50.165 31.5551 49.1052 29.1068C48.7695 28.3048 48.0981 26.9434 47.4454 26.8688C47.3637 26.8573 47.2803 26.8686 47.2046 26.9015C47.1289 26.9344 47.0638 26.9876 47.0164 27.0553C46.6061 27.6148 47.2029 29.1627 47.4827 29.8155C47.5599 29.9816 47.6638 30.2088 47.7911 30.4873C49.0791 33.3043 52.7646 41.3651 55.4463 44.4371ZM115.91 36.5668C115.945 36.7124 116.017 36.8463 116.12 36.9552C116.222 37.0641 116.352 37.1443 116.495 37.1876C116.639 37.231 116.791 37.2361 116.937 37.2024C117.083 37.1688 117.217 37.0975 117.327 36.9957C118.867 35.5937 120.266 34.0446 121.505 32.3705C122.53 35.6504 123.367 38.3508 124.056 40.5738C127.129 50.4856 127.26 50.9086 127.976 50.9086C128.102 50.9051 128.225 50.8746 128.338 50.8192C128.451 50.7638 128.55 50.6848 128.63 50.5875C128.71 50.4902 128.767 50.3769 128.799 50.2553C128.831 50.1338 128.837 50.0067 128.815 49.8829C128.147 47.7716 127.468 45.6757 126.791 43.5858L126.79 43.5834C125.349 39.1388 123.917 34.7218 122.624 30.2444C122.581 30.0808 122.491 29.9334 122.365 29.8208C122.239 29.7082 122.082 29.6353 121.915 29.6114C121.747 29.5875 121.577 29.6136 121.424 29.6864C121.271 29.7592 121.144 29.8755 121.057 30.0206C119.986 31.7052 118.735 33.2685 117.327 34.6831C116.208 29.573 113.597 17.8981 113.597 17.8981C113.55 17.7101 113.43 17.5486 113.264 17.4489C113.098 17.3492 112.899 17.3196 112.711 17.3666C112.523 17.4136 112.362 17.5333 112.262 17.6994C112.162 17.8656 112.133 18.0645 112.18 18.2525C112.435 19.4159 113.025 22.401 113.665 25.6369L113.666 25.6389C114.616 30.4425 115.676 35.7979 115.91 36.5668ZM18.7617 133.584C14.157 131.382 9.93608 129.136 5.44315 126.745C4.07653 126.018 2.68475 125.277 1.24934 124.52C0.0557436 123.886 -0.764856 126.068 1.10014 126.572C6.4735 129.926 12.2032 132.672 18.1835 134.759C18.9295 134.964 19.4517 133.994 18.7617 133.584ZM23.5361 90.5212C23.6643 90.6346 23.8241 90.7061 23.9941 90.7261C24.1642 90.7461 24.3362 90.7137 24.4872 90.6331C25.0737 90.3487 25.0209 89.8654 24.8694 88.4791C24.7029 86.9558 24.4172 84.3421 24.7297 79.7042C31.1016 87.396 34.6402 91.7647 36.6493 94.2451C39.0323 97.1871 39.2634 97.4725 39.5183 97.4956C39.5457 97.498 39.5734 97.4975 39.604 97.4969C39.6185 97.4966 39.6336 97.4963 39.6497 97.4963C39.781 97.5045 39.9119 97.475 40.027 97.4113C40.1421 97.3475 40.2365 97.2522 40.2992 97.1366C40.362 97.0209 40.3903 96.8898 40.381 96.7586C40.3716 96.6273 40.325 96.5015 40.2465 96.396C39.2815 95.1803 36.9886 92.3208 34.4232 89.1217L34.4226 89.1209C30.6913 84.4678 26.3839 79.0962 24.7483 77.0186C24.6445 76.8871 24.5052 76.7881 24.3469 76.7333C24.1886 76.6785 24.0178 76.6703 23.8549 76.7095C23.6921 76.7488 23.5438 76.8339 23.4278 76.9548C23.3118 77.0756 23.2329 77.2272 23.2004 77.3916C22.8213 80.7977 22.7588 84.2315 23.0139 87.6491C20.6312 85.5126 18.2924 83.322 15.9559 81.1334C12.8059 78.1829 9.65981 75.2361 6.41539 72.4307C6.24432 72.2934 6.03032 72.2208 5.81102 72.2257C5.59172 72.2306 5.38116 72.3126 5.21636 72.4574C5.05156 72.6021 4.94306 72.8004 4.90994 73.0172C4.87683 73.234 4.92121 73.4556 5.03529 73.6429C6.62054 76.1014 13.5089 81.9469 18.6877 86.3417C20.6983 88.0479 22.4512 89.5354 23.5361 90.5212ZM170.647 21.3484C170.647 21.5314 170.72 21.7069 170.849 21.8363C170.979 21.9657 171.154 22.0384 171.337 22.0384C171.52 22.0384 171.696 21.9657 171.825 21.8363C171.955 21.7069 172.027 21.5314 172.027 21.3484C172.347 14.4981 172.06 7.633 171.17 0.833357C171.15 0.653947 171.08 0.48396 170.966 0.343999C170.852 0.204038 170.7 0.100116 170.528 0.044838C170.356 -0.0104396 170.172 -0.0146984 169.998 0.0325728C169.824 0.079844 169.667 0.176617 169.547 0.311159C169.218 0.734992 169.327 1.51673 169.577 3.30593C169.965 6.08309 170.693 11.2875 170.647 21.3484ZM221.114 53.7434C234.603 30.9852 234.581 30.9339 234.45 30.6166C234.446 30.606 234.441 30.5952 234.437 30.5832C234.435 30.5764 234.432 30.5692 234.43 30.5615C234.168 29.6665 233.51 29.8695 229.224 31.1916C228.329 31.4674 227.277 31.7919 226.038 32.1654C226.655 29.9729 227.324 27.7313 227.999 25.4704C229.361 20.9041 230.747 16.2591 231.782 11.7809C231.814 11.5644 231.764 11.3437 231.642 11.1622C231.52 10.9807 231.334 10.8516 231.121 10.8001C230.908 10.7487 230.684 10.7787 230.492 10.8843C230.3 10.9899 230.155 11.1633 230.085 11.3706C229.165 14.627 228.249 17.8515 227.34 21.047L227.338 21.0555C226.166 25.1776 225.009 29.2517 223.874 33.2844C223.842 33.4324 223.847 33.5863 223.891 33.7316C223.934 33.8768 224.013 34.0088 224.121 34.115C224.229 34.2213 224.363 34.2983 224.509 34.339C224.655 34.3796 224.809 34.3825 224.956 34.3474C224.956 34.3474 229.898 32.8181 231.894 32.1654L219.977 53.1093C219.906 53.2589 219.895 53.4297 219.946 53.5872C219.996 53.7446 220.105 53.8769 220.249 53.9575C220.394 54.038 220.563 54.0607 220.724 54.0209C220.885 53.9812 221.024 53.882 221.114 53.7434ZM354.462 108.444C353.492 107.978 335.551 119.13 335.364 119.261C334.711 119.727 335.364 120.883 336.035 120.529C337.117 120.044 354.257 110.514 354.835 109.488C354.879 109.395 354.904 109.294 354.909 109.191C354.915 109.089 354.899 108.986 354.865 108.889C354.83 108.792 354.777 108.702 354.708 108.626C354.638 108.55 354.555 108.488 354.462 108.444ZM306.979 87.1269C306.979 87.1269 324.957 73.4192 328.314 70.8082C329.042 70.23 328.314 68.9432 327.456 69.0364C324.072 69.1171 320.702 69.4978 317.386 70.1741C322.2 65.0383 326.463 59.4127 330.105 53.3891C330.72 52.382 329.228 51.3376 328.631 52.3633C324.523 59.0658 319.633 65.2574 314.066 70.8082C313.469 71.3863 313.842 72.8037 314.812 72.6732C318.104 71.8349 321.46 71.2735 324.846 70.9947C324.846 70.9947 310.597 82.4644 306.195 86.1012C306.121 86.2201 306.085 86.3587 306.092 86.4987C306.099 86.6386 306.148 86.7731 306.233 86.8845C306.318 86.9958 306.435 87.0787 306.568 87.122C306.701 87.1653 306.845 87.167 306.979 87.1269ZM285.187 26.3867L285.19 26.3813C293.157 12.71 294.462 10.4696 292.786 10.0465C292.028 9.85702 292.002 9.90613 282.531 27.6392L282.53 27.6409C281.745 29.1112 280.895 30.7031 279.974 32.4265C279.917 32.5924 279.921 32.7729 279.984 32.9363C280.048 33.0997 280.166 33.2357 280.32 33.3202C280.474 33.4048 280.652 33.4325 280.824 33.3987C280.996 33.3649 281.15 33.2716 281.26 33.1352C282.719 30.6222 284.024 28.3827 285.187 26.3867Z" fill="black"/>
<path d="M269.548 91.4537C271.158 92.2468 272.921 92.6796 274.714 92.7219C274.815 92.7104 274.912 92.6789 275.001 92.6294C275.089 92.5799 275.167 92.5133 275.23 92.4335C275.292 92.3536 275.338 92.2622 275.365 92.1644C275.392 92.0667 275.399 91.9645 275.386 91.864C275.312 91.2834 274.951 91.2356 274.162 91.1311C273.354 91.024 272.097 90.8575 270.238 89.999L270.425 88.6189C270.518 88.2273 270.052 87.5931 269.548 87.7796C269.045 87.9661 268.914 88.5629 268.765 89.6446L268.748 89.7664C268.612 90.7441 268.58 90.9696 269.548 91.4537Z" fill="black"/>
<path d="M334.115 154.864C326.505 130.861 307.277 112.398 281.316 104.229C281.299 103.754 281.249 103.28 281.167 102.812C288.254 99.7157 289.839 89.0665 288.273 79.7975C289.634 77.5781 293.252 66.1643 290.585 67.7309L285.718 70.603C285.028 68.738 284.226 67.0036 283.368 65.2878C283.554 62.3038 280.832 56.9699 276.038 53.4823C271.637 50.2745 264.065 47.4024 253.024 51.9903C244.408 55.5711 234.691 63.4787 233.218 74.9671C231.353 89.8871 236.295 97.1233 227.064 110.98C216.863 106.361 205.99 103.402 194.855 102.215C194.855 101.379 194.799 100.544 194.687 99.7157C199.443 97.3098 200.45 89.4768 200.655 86.9218C206.25 82.0728 206.903 72.4121 202.52 72.1883C203.646 65.2673 204.078 58.2511 203.807 51.2443C203.565 46.8989 201.7 45.9291 200.842 45.7426C200.236 45.6281 199.611 45.6863 199.037 45.9106C198.463 46.1349 197.964 46.5161 197.597 47.0108C196.198 44.1573 193.512 44.5117 192.002 46.6751C191.853 45.9072 191.467 45.2054 190.898 44.6689C190.329 44.1324 189.606 43.7882 188.831 43.6851C188.056 43.582 187.268 43.7252 186.578 44.0944C185.889 44.4636 185.333 45.0402 184.989 45.7426C184.628 44.9726 184.045 44.3276 183.316 43.8894C182.587 43.4512 181.744 43.2396 180.895 43.2816C180.045 43.3236 179.227 43.6172 178.545 44.1251C177.863 44.6331 177.347 45.3324 177.063 46.1342C175.198 42.0872 170.442 43.0197 169.379 47.1227C167.98 43.9708 164.157 43.9895 162.833 47.6449C159.345 45.0712 156.604 47.6449 156.044 51.8784C155.706 59.0772 156.005 66.2919 156.94 73.4378C150.617 72.0204 155.541 86.8285 159.308 87.1829C159.961 92.7779 162.273 98.9324 166.768 100.424C166.768 101.17 166.656 101.935 166.656 102.681C154.598 104.607 142.993 108.721 132.415 114.822C126.596 110.719 113.653 105.143 101.213 106.169C98.9594 101.407 97.2635 96.4 96.1592 91.2486C95.3386 86.7539 97.4461 84.9822 97.4274 81.103C99.8421 76.2368 100.444 70.6694 99.1246 65.3997C93.2498 46.7497 57.7589 53.8367 58.766 74.3144C58.8965 76.6456 59.1017 78.9769 59.3068 80.7859C54.9241 82.1101 55.5768 82.4271 56.7891 87.761C57.4418 90.6704 58.1878 93.0763 61.2464 92.4422C62.6452 98.5034 66.17 108.183 74.4879 108.183C74.9915 108.183 74.4879 107.866 74.9542 110.999C54.0848 120.081 27.8816 137.109 21.093 166.949C19.4518 174.148 18.4633 184.368 23.1631 192.089C28.3292 200.687 37.4677 201.228 44.0325 200.799C42.4958 209.242 42.001 217.842 42.5591 226.405C42.5625 226.525 42.5987 226.641 42.6638 226.742C42.7289 226.842 42.8203 226.923 42.9281 226.975C43.0359 227.027 43.156 227.048 43.2751 227.036C43.3942 227.025 43.5078 226.981 43.6035 226.909C44.6106 226.312 42.6337 225.678 45.7856 200.668C63.3539 199.046 80.1016 191.492 95.5811 183.547C98.1361 185.412 100.673 187.277 103.302 188.956C105.464 193.327 108.777 197.027 112.885 199.656C116.993 202.285 121.74 203.744 126.615 203.876C126.148 211.727 126.148 219.599 126.615 227.45C126.622 227.544 126.648 227.637 126.691 227.722C126.735 227.806 126.795 227.881 126.868 227.942C126.941 228.003 127.025 228.049 127.117 228.076C127.208 228.104 127.303 228.113 127.398 228.102C129.002 227.953 126.932 227.151 128.2 203.857C143.717 203.857 156.455 193.73 169.23 185.991C184.262 192.872 221.114 205.685 240.603 201.992C241.499 209.937 241.368 217.472 242.133 225.156C242.157 225.293 242.23 225.418 242.337 225.508C242.445 225.598 242.58 225.647 242.72 225.647C242.86 225.647 242.996 225.598 243.103 225.508C243.211 225.418 243.283 225.293 243.308 225.156C243.797 217.304 243.479 209.424 242.357 201.638C255.878 198.43 264.177 188.9 266.378 174.092C267.273 173.495 268.243 172.824 269.25 172.059C280.794 176.666 304.685 187.874 316.36 188.285C315.819 196.957 315.054 206.114 314.924 215.103C314.95 215.255 315.028 215.393 315.146 215.492C315.264 215.592 315.413 215.646 315.567 215.646C315.721 215.646 315.87 215.592 315.988 215.492C316.106 215.393 316.185 215.255 316.211 215.103C316.472 212.623 318.169 191.455 318.076 188.229C336.763 187.8 339.71 172.507 334.115 154.864ZM201.028 75.1536C201.532 74.4822 201.811 73.6989 202.539 73.9227C205.15 74.6874 203.061 81.1776 200.879 84.0683C201.065 81.103 201.121 78.1003 201.028 75.1536ZM156.511 75.1536C157.107 75.1536 157.033 75.4147 158.376 75.6758L159.122 84.8889C156.361 82.3339 154.366 75.1909 156.511 75.1909V75.1536ZM286.091 73.2886C286.17 73.0265 286.35 72.8065 286.591 72.6771C286.833 72.5477 287.116 72.5194 287.378 72.5986C287.64 72.6777 287.86 72.8578 287.989 73.0991C288.119 73.3404 288.147 73.6233 288.068 73.8854C287.415 76.198 286.911 77.8765 286.482 79.4804C286.372 79.68 286.217 79.8512 286.029 79.9807C285.842 80.1101 285.626 80.1943 285.401 80.2264C283.76 80.2824 285.513 74.9671 286.091 73.2513V73.2886ZM254.703 80.7486C255.766 79.9467 257.053 80.9724 257.258 80.9911C259.011 82.1101 260.988 80.4875 260.484 80.0213L260.111 79.7229C258.731 78.6412 255.896 76.4032 256.493 74.8739C256.941 73.7176 258.769 73.8854 259.962 73.8295C260.005 73.8282 260.046 73.8173 260.084 73.7976C260.121 73.7779 260.154 73.7499 260.179 73.7158C260.204 73.6817 260.221 73.6423 260.229 73.6006C260.236 73.5589 260.235 73.516 260.223 73.4751C260.037 72.8783 259.813 72.2815 259.589 71.6101C266.637 68.1145 274.365 66.2048 282.23 66.0151C283.032 67.8801 283.722 69.6519 284.338 71.405C282.006 72.7291 279.358 74.1838 278.743 76.8321C278.189 76.7633 277.626 76.8197 277.097 76.9972C276.567 77.1748 276.085 77.4689 275.684 77.8579C272.756 74.333 260.634 74.6314 258.19 74.7247C255.039 74.8552 263.356 81.2149 265.65 83.0053C273.353 88.9919 278.388 84.8703 276.467 79.4058C276.737 79.0756 277.091 78.8249 277.491 78.6803C277.892 78.5358 278.325 78.5029 278.743 78.5852C278.812 78.9396 278.925 79.2841 279.078 79.611C278.986 79.565 278.884 79.541 278.78 79.541C278.676 79.541 278.574 79.565 278.482 79.611C277.717 80.0959 278.482 80.7486 280.235 83.8632C280.018 84.0831 279.788 84.2887 279.545 84.4786C278.836 85.0008 279.451 87.2761 281.82 84.4786C282.174 84.0497 281.503 82.8001 280.757 81.6998C281.657 82.3134 282.736 82.6098 283.823 82.5423C284.911 82.4747 285.945 82.0471 286.762 81.3268C287.577 86.3339 287.116 91.4657 285.419 96.2468C283.554 100.816 278.873 101.077 279.824 102.812C280.07 108.96 279.569 115.116 278.332 121.145C273.539 120.1 264.102 108.407 260.335 102.979C260.725 98.4446 260.14 93.8787 258.619 89.5887C257.37 87.4253 254.889 86.4369 254.237 83.9937C253.982 83.4489 253.89 82.842 253.973 82.2463C254.056 81.6506 254.309 81.0915 254.703 80.6367V80.7486ZM282.976 77.6341C282.771 78.2495 282.641 79.1074 281.969 79.1074C281.298 79.1074 280.962 78.3241 281.037 77.6527C281.111 76.9813 281.298 75.4334 282.006 75.0231C282.143 74.9557 282.293 74.9206 282.445 74.9206C282.597 74.9206 282.747 74.9557 282.883 75.0231C283.76 75.2655 283.293 76.571 282.976 77.5222V77.6341ZM272.924 81.9236C272.719 82.4271 272.514 83.341 271.917 83.6207C271.812 83.6718 271.697 83.6984 271.581 83.6984C271.465 83.6984 271.35 83.6718 271.245 83.6207C270.126 83.2104 271.357 79.0515 272.364 78.2495C272.452 78.16 272.561 78.0941 272.681 78.0579C272.801 78.0218 272.929 78.0164 273.051 78.0425C273.174 78.0685 273.288 78.125 273.383 78.2069C273.478 78.2887 273.551 78.3932 273.595 78.5106C273.987 79.3685 273.036 81.5319 272.924 81.8117V81.9236ZM268.84 80.1145C268.597 80.5994 268.485 81.047 267.851 81.047C267.702 81.0574 267.553 81.031 267.416 80.9701C267.279 80.9092 267.16 80.8158 267.068 80.698C266.976 80.5801 266.914 80.4415 266.888 80.2943C266.862 80.147 266.872 79.9957 266.919 79.8534C267.124 79.238 267.348 77.8392 268.094 77.4662C268.212 77.4116 268.34 77.3818 268.47 77.3788C268.6 77.3757 268.73 77.3993 268.85 77.4483C268.971 77.4972 269.08 77.5704 269.171 77.6634C269.263 77.7563 269.334 77.8669 269.38 77.9884C269.641 78.6039 269.213 79.4431 268.84 80.1145ZM259.515 104.024C264.811 113.162 278.761 126.404 279.843 121.965C281.063 116.696 281.627 111.296 281.522 105.889C307.072 114.915 324.417 131.458 331.97 153.782C326.502 151.173 320.495 149.894 314.439 150.052C314.178 143.916 305.767 132.055 302.54 128.493C301.887 127.765 300.675 128.698 301.384 129.425C306.221 134.903 309.923 141.286 312.275 148.206C303.137 141.324 284.729 131.719 259.496 139.627C252.949 128.453 243.391 119.346 231.913 113.349C240.172 107.947 249.671 104.738 259.515 104.024ZM162.255 61.9494C173.47 58.8883 185.254 58.5494 196.627 60.961C196.435 64.1215 196.535 67.293 196.925 70.4352H196.589C195.042 63.3109 185.12 61.1102 181.781 68.5702C180.076 67.9918 178.227 67.9918 176.522 68.5702C173.296 61.8562 163.952 64.0196 162.236 70.659H161.882C162.274 67.7735 162.399 64.8579 162.255 61.9494ZM187.619 77.2984C187.954 76.3472 190.976 69.2975 192.934 69.0924C193.097 69.0903 193.258 69.1271 193.404 69.1998C193.55 69.2724 193.676 69.3787 193.773 69.51C193.87 69.6412 193.934 69.7936 193.96 69.9545C193.986 70.1154 193.973 70.2802 193.923 70.4352C192.258 72.8068 190.774 75.3006 189.484 77.8952C189.018 79.0515 187.19 78.6039 187.619 77.2984ZM184.915 74.6874C184.691 75.2469 183.684 75.5826 183.329 74.9298C182.975 74.2771 183.833 71.7966 186.257 68.1599C186.873 67.246 187.451 66.7984 187.954 66.873C188.118 66.9198 188.268 67.006 188.391 67.1241C188.514 67.2422 188.606 67.3885 188.66 67.5504C188.713 67.7123 188.726 67.8847 188.697 68.0527C188.669 68.2207 188.599 68.3792 188.495 68.5142C187.076 70.4324 185.875 72.503 184.915 74.6874ZM168.689 77.7833C169.491 76.0302 170.386 74.2584 171.244 72.524C171.336 72.3567 171.471 72.2171 171.635 72.1199C171.799 72.0227 171.986 71.9713 172.177 71.9713C172.367 71.9713 172.555 72.0227 172.719 72.1199C172.883 72.2171 173.018 72.3567 173.109 72.524C173.226 72.701 173.289 72.9085 173.289 73.1208C173.289 73.333 173.226 73.5406 173.109 73.7176C172.288 75.3401 171.449 77.0373 170.554 78.6785C169.845 79.611 168.13 78.9023 168.689 77.7833ZM166.432 75.4334L166.321 75.5639C165.742 76.4032 164.288 75.8623 164.679 74.7993C165.756 71.9338 167.131 69.1896 168.782 66.6119C169.584 65.6421 171.207 66.4814 170.647 67.619C169.323 70.2673 167.701 72.7478 166.432 75.4334ZM159.774 75.6012C160.968 75.0977 161.304 73.7362 161.639 72.5613L162.031 72.4494C161.933 73.7432 162.092 75.0437 162.499 76.2759C162.905 77.5081 163.551 78.6479 164.4 79.6296C165.405 80.6175 166.666 81.3064 168.041 81.6196C169.415 81.9329 170.85 81.858 172.184 81.4035C173.519 80.949 174.701 80.1327 175.599 79.0455C176.496 77.9584 177.074 76.6433 177.268 75.2469C177.075 77.0429 176.994 78.8493 177.026 80.6554C177.026 81.7744 176.765 83.1731 178.145 83.2664H180.01C180.979 83.2664 181.241 81.5879 180.122 81.5692H178.741C178.633 78.2463 178.814 74.9203 179.282 71.6288C179.413 70.7149 178.089 70.5844 177.902 71.4423C177.082 75.452 177.902 73.1581 177.175 70.1927C178.477 69.7258 179.901 69.7258 181.203 70.1927C180.793 71.6879 180.712 73.2545 180.966 74.7841C181.22 76.3136 181.804 77.7697 182.677 79.0515C183.341 79.9124 184.183 80.6205 185.145 81.1278C186.107 81.635 187.167 81.9295 188.253 81.9914C189.339 82.0533 190.426 81.8811 191.439 81.4865C192.453 81.0919 193.37 80.4841 194.128 79.7042C195.96 77.6596 196.935 74.9883 196.851 72.2442H197.205C197.429 73.8668 197.764 76.1048 199.48 75.9742C199.294 82.3525 199.853 93.2814 194.799 97.2725C194.146 97.7947 193.4 98.3915 193.307 98.9883C193.074 100.965 193.074 102.961 193.307 104.938C193.848 110.104 184.803 120.324 180.122 124.688C171.095 112.416 168.503 111.204 168.521 100.443C168.521 99.3613 168.391 99.1935 167.645 98.8205C160.091 95.1651 160.781 84.6278 159.774 75.6012ZM166.749 104.322C166.955 110.048 171.449 117.788 179.376 126.124C180.979 128.213 195.153 110.812 194.874 107.045V103.893C233.05 108.388 260.41 130.358 264.774 159.974C248.921 156.859 228.891 160.515 225.497 161.167C224.041 151.892 221.298 142.866 217.347 134.349C217.28 134.183 217.15 134.051 216.986 133.981C216.821 133.911 216.636 133.909 216.47 133.976C216.305 134.043 216.172 134.172 216.102 134.337C216.032 134.501 216.031 134.687 216.097 134.852C219.527 143.258 222.028 152.013 223.557 160.962C213.747 150.63 198.827 146.042 178.033 146.975C165.516 147.555 153.083 149.322 140.901 152.253C141.875 146.565 144.196 141.194 147.671 136.587C147.747 136.448 147.77 136.286 147.735 136.131C147.701 135.977 147.612 135.84 147.484 135.746C147.356 135.653 147.198 135.609 147.041 135.623C146.883 135.637 146.736 135.708 146.626 135.822C142.707 140.664 140.134 146.454 139.166 152.607C125.644 155.851 112.513 160.547 100.001 166.613C101.717 130.078 135.492 110.495 166.749 104.322ZM85.8644 69.7824C85.8453 71.5532 85.9512 73.3232 86.1815 75.079C79.4675 75.2469 68.7997 77.8579 60.8548 80.3197C60.6496 78.6785 60.1834 75.6945 60.1647 73.9227C68.1589 70.1127 77.0782 68.6758 85.8644 69.7824ZM79.9337 79.7975C76.2037 86.1385 77.0057 87.2575 75.7561 87.2575C75.6159 87.266 75.4757 87.2407 75.3473 87.1838C75.2189 87.1268 75.1061 87.0398 75.0183 86.9301C74.9306 86.8204 74.8705 86.6913 74.8431 86.5535C74.8157 86.4157 74.8218 86.2734 74.8609 86.1385C76.5581 79.7229 78.1806 78.5293 79.0012 78.3801C79.1801 78.3436 79.3658 78.3616 79.5344 78.4317C79.703 78.5018 79.8467 78.6208 79.947 78.7733C80.0474 78.9258 80.0997 79.1049 80.0974 79.2874C80.095 79.47 80.038 79.6476 79.9337 79.7975ZM74.1709 81.1962C73.4808 82.3339 73.313 83.9191 72.3059 83.6767C71.2988 83.4342 72.0261 81.1589 72.6229 79.9467C73.2197 78.7344 73.7419 78.7158 74.0963 78.809C74.296 78.8633 74.4736 78.9789 74.6041 79.1395C74.7346 79.3001 74.8114 79.4977 74.8236 79.7042C74.7505 80.253 74.5243 80.7701 74.1709 81.1962ZM60.2953 84.9262C60.0901 85.4111 60.0715 86.9031 59.0644 86.9031C58.8684 86.9107 58.6755 86.8524 58.5166 86.7374C58.3577 86.6225 58.2419 86.4576 58.1878 86.269C58.0891 84.9643 58.5041 83.6727 59.3441 82.6696C59.5174 82.5147 59.7352 82.4187 59.9663 82.3953C60.1975 82.3718 60.4302 82.4221 60.631 82.539C61.0786 82.8374 60.9853 83.6207 60.2953 84.8703V84.9262ZM60.9853 89.2717C62.6825 83.1731 63.6523 82.2779 64.2304 82.1474C64.3493 82.12 64.4734 82.1264 64.5888 82.166C64.7042 82.2055 64.8061 82.2766 64.8832 82.3712C65.1367 82.665 65.264 83.047 65.2375 83.4342L62.7757 89.7939C62.6991 90.0313 62.5312 90.2285 62.3091 90.3422C62.087 90.4559 61.8289 90.4767 61.5914 90.4C61.354 90.3233 61.1568 90.1555 61.0431 89.9334C60.9294 89.7113 60.9087 89.4532 60.9853 89.2157V89.2717ZM62.8503 92.0878C66.4311 91.0434 67.5874 91.3418 67.1958 85.896C67.0652 84.3481 66.7668 80.8232 68.3334 80.8792C69.6016 80.8792 69.6389 86.7726 71.5226 88.6003C73.4062 90.428 75.8494 89.1411 77.9009 88.6003C83.4959 87.071 82.265 84.6838 81.8547 77.2797L86.5545 76.9067C88.6619 87.8356 91.4967 79.6483 93.399 78.4174C94.6113 77.6527 95.6557 79.3312 95.8795 80.6181C96.3084 83.3783 94.0145 86.3996 94.4994 90.4466C95.5984 96.3043 97.4803 101.988 100.094 107.344C96.01 115.102 84.2792 122.264 79.0572 125.098C76.8565 117.116 76.67 106.635 75.3272 106.672C69.1354 106.709 65.0697 102.028 62.7757 92.0319L62.8503 92.0878ZM75.122 112.789C75.4577 115.605 76.8378 127.709 78.852 126.702C83.9248 124.315 99.367 114.169 101.568 107.642C104.831 108.388 115.014 106.411 130.83 115.941C119.159 122.912 109.794 133.159 103.899 145.408C88.8111 143.543 70.1425 141.212 54.4578 149.493C59.2509 138.191 62.123 137.072 60.7615 136.176C60.691 136.128 60.6115 136.095 60.5278 136.078C60.4441 136.061 60.3578 136.062 60.2742 136.079C60.1906 136.096 60.1114 136.131 60.0413 136.179C59.9712 136.228 59.9117 136.291 59.8663 136.363C59.3814 137.09 52.5742 148.336 52.4063 150.63C49.7767 152.234 44.163 156.337 42.4845 159.564C35.6282 159.697 28.947 161.752 23.2004 165.494C28.87 143.543 46.7927 125.322 75.0474 112.733L75.122 112.789ZM26.7626 194.234C19.6383 186.774 21.1676 174.297 22.6409 167.452C40.8433 155.498 64.9018 160.608 94.1823 182.671C84.3351 186.886 41.3096 209.322 26.7626 194.234ZM44.3682 159.526C59.1763 143.133 80.5865 144.177 103.134 146.956C97.3528 160.291 96.8493 174.372 101.68 185.86C84.8946 173.29 65.0697 159.47 44.3682 159.47V159.526ZM128.069 202.421C109.699 202.421 99.8333 186.289 100.094 168.385C126.204 156.654 149.013 150.649 174.004 148.914C196.832 147.329 212.199 151.488 222.27 161.969C173.072 172.992 152.762 202.365 128.069 202.365V202.421ZM240.865 200.37C222.606 204.491 192.375 193.712 170.89 185.114C205.131 164.897 235.941 157.27 265.016 161.802C267.31 182.634 258.731 196.323 240.865 200.37ZM266.732 172.134C267.7 161.349 265.42 150.522 260.186 141.044C280.216 135.859 297.132 138.881 311.828 150.257C292.525 151.693 273.073 166.762 266.713 172.134H266.732ZM317.46 186.625C306.046 186.625 282.025 175.435 270.966 170.921C282.79 161.969 296.796 152.477 313.655 151.805C320.242 151.398 326.811 152.839 332.623 155.964C337.621 172.824 335.122 186.513 317.441 186.625H317.46Z" fill="black"/>
</svg>
