<svg width="22" height="22" viewBox="0 0 22 22" fill="none" xmlns="http://www.w3.org/2000/svg">
<path d="M15.3211 4.90635C15.3211 4.79832 15.2328 4.70993 15.1247 4.70993H5.69615C5.58811 4.70993 5.49972 4.79832 5.49972 4.90635V6.08493C5.49972 6.19296 5.58811 6.28135 5.69615 6.28135H15.1247C15.2328 6.28135 15.3211 6.19296 15.3211 6.08493V4.90635ZM15.1247 8.24564H5.69615C5.58811 8.24564 5.49972 8.33403 5.49972 8.44207V9.62064C5.49972 9.72868 5.58811 9.81707 5.69615 9.81707H15.1247C15.2328 9.81707 15.3211 9.72868 15.3211 9.62064V8.44207C15.3211 8.33403 15.2328 8.24564 15.1247 8.24564ZM10.214 11.7814H5.69615C5.58811 11.7814 5.49972 11.8697 5.49972 11.9778V13.1564C5.49972 13.2644 5.58811 13.3528 5.69615 13.3528H10.214C10.322 13.3528 10.4104 13.2644 10.4104 13.1564V11.9778C10.4104 11.8697 10.322 11.7814 10.214 11.7814ZM9.03544 19.3439H3.53544V2.05814H17.2854V10.5046C17.2854 10.6126 17.3738 10.701 17.4819 10.701H18.8569C18.9649 10.701 19.0533 10.6126 19.0533 10.5046V1.076C19.0533 0.641399 18.7022 0.290283 18.2676 0.290283H2.55329C2.11869 0.290283 1.76758 0.641399 1.76758 1.076V20.326C1.76758 20.7606 2.11869 21.1117 2.55329 21.1117H9.03544C9.14347 21.1117 9.23186 21.0233 9.23186 20.9153V19.5403C9.23186 19.4322 9.14347 19.3439 9.03544 19.3439ZM17.7962 17.5171C18.5082 16.8713 18.9551 15.9383 18.9551 14.8997C18.9551 12.9476 17.3714 11.3639 15.4194 11.3639C13.4674 11.3639 11.8836 12.9476 11.8836 14.8997C11.8836 15.9383 12.3305 16.8713 13.0426 17.5171C11.643 18.3151 10.6805 19.7932 10.6069 21.4972C10.602 21.6077 10.6928 21.701 10.8033 21.701H11.9843C12.0874 21.701 12.1734 21.62 12.1807 21.5144C12.2765 19.8153 13.6932 18.4599 15.4194 18.4599C17.1455 18.4599 18.5622 19.8153 18.658 21.5144C18.6629 21.6175 18.7488 21.701 18.8544 21.701H20.0354C20.1484 21.701 20.2368 21.6077 20.2319 21.4972C20.1607 19.7907 19.1957 18.3151 17.7962 17.5171ZM15.4194 12.9354C16.5046 12.9354 17.3837 13.8144 17.3837 14.8997C17.3837 15.9849 16.5046 16.8639 15.4194 16.8639C14.3341 16.8639 13.4551 15.9849 13.4551 14.8997C13.4551 13.8144 14.3341 12.9354 15.4194 12.9354Z" fill="white"/>
</svg>
