<svg width="22" height="22" viewBox="0 0 22 22" fill="none" xmlns="http://www.w3.org/2000/svg">
<path d="M20.6251 2.35266H1.37514C1.2671 2.35266 1.17871 2.44105 1.17871 2.54909V4.12052C1.17871 4.22855 1.2671 4.31695 1.37514 4.31695H20.6251C20.7332 4.31695 20.8216 4.22855 20.8216 4.12052V2.54909C20.8216 2.44105 20.7332 2.35266 20.6251 2.35266ZM20.6251 17.6741H1.37514C1.2671 17.6741 1.17871 17.7625 1.17871 17.8705V19.4419C1.17871 19.55 1.2671 19.6384 1.37514 19.6384H20.6251C20.7332 19.6384 20.8216 19.55 20.8216 19.4419V17.8705C20.8216 17.7625 20.7332 17.6741 20.6251 17.6741ZM20.6251 10.0134H1.37514C1.2671 10.0134 1.17871 10.1018 1.17871 10.2098V11.7812C1.17871 11.8893 1.2671 11.9777 1.37514 11.9777H20.6251C20.7332 11.9777 20.8216 11.8893 20.8216 11.7812V10.2098C20.8216 10.1018 20.7332 10.0134 20.6251 10.0134Z" fill="#07060A"/>
</svg>
