<svg width="21" height="21" viewBox="0 0 21 21" fill="none" xmlns="http://www.w3.org/2000/svg">
<g id="Rupees Circle" clip-path="url(#clip0_4359_34394)">
<path id="Vector" d="M10.8808 0.800049C5.31428 0.800049 0.800781 5.31355 0.800781 10.88C0.800781 16.4465 5.31428 20.96 10.8808 20.96C16.4473 20.96 20.9608 16.4465 20.9608 10.88C20.9608 5.31355 16.4473 0.800049 10.8808 0.800049ZM10.8808 19.25C6.25928 19.25 2.51078 15.5015 2.51078 10.88C2.51078 6.25855 6.25928 2.51005 10.8808 2.51005C15.5023 2.51005 19.2508 6.25855 19.2508 10.88C19.2508 15.5015 15.5023 19.25 10.8808 19.25Z" fill="#252525"/>
<path id="&#226;&#130;&#185;" d="M14.8034 10.2158H13.5039C13.4155 10.7129 13.1945 11.1312 12.8409 11.4709C12.4961 11.8022 12.0585 12.0425 11.5281 12.1916L13.8487 15.3602H11.7933L9.76446 12.378H7.52344V11.1602H9.83076C10.3081 11.1602 10.6927 11.0774 10.9844 10.9117C11.285 10.746 11.4839 10.5141 11.5811 10.2158H7.52344V9.10991H11.5679C11.4706 8.81168 11.2717 8.58387 10.9712 8.42648C10.6794 8.2608 10.2993 8.17796 9.83076 8.17796H7.52344V6.96021H14.8034V8.07855H12.6155C12.8453 8.20281 13.0221 8.35192 13.1459 8.52589C13.2785 8.69985 13.3713 8.89452 13.4243 9.10991H14.8034V10.2158Z" fill="#252525"/>
</g>
<defs>
<clipPath id="clip0_4359_34394">
<rect width="20.16" height="20.16" fill="white" transform="translate(0.800781 0.800049)"/>
</clipPath>
</defs>
</svg>
