<svg width="20" height="20" viewBox="0 0 20 20" fill="none" xmlns="http://www.w3.org/2000/svg">
<g id="Bell" clip-path="url(#clip0_4359_34397)">
<path id="Vector" d="M16.6791 15.3628H16.1648V8.07706C16.1648 5.05349 13.9298 2.55491 11.022 2.1392V1.30563C11.022 0.832058 10.6384 0.448486 10.1648 0.448486C9.69127 0.448486 9.3077 0.832058 9.3077 1.30563V2.1392C6.39984 2.55491 4.16484 5.05349 4.16484 8.07706V15.3628H3.65056C3.27127 15.3628 2.96484 15.6692 2.96484 16.0485V16.7342C2.96484 16.8285 3.04199 16.9056 3.13627 16.9056H7.76484C7.76484 18.2299 8.84056 19.3056 10.1648 19.3056C11.4891 19.3056 12.5648 18.2299 12.5648 16.9056H17.1934C17.2877 16.9056 17.3648 16.8285 17.3648 16.7342V16.0485C17.3648 15.6692 17.0584 15.3628 16.6791 15.3628ZM10.1648 17.9342C9.59699 17.9342 9.13627 17.4735 9.13627 16.9056H11.1934C11.1934 17.4735 10.7327 17.9342 10.1648 17.9342ZM5.7077 15.3628V8.07706C5.7077 6.88563 6.17056 5.76706 7.0127 4.92492C7.85484 4.08277 8.97342 3.61992 10.1648 3.61992C11.3563 3.61992 12.4748 4.08277 13.317 4.92492C14.1591 5.76706 14.622 6.88563 14.622 8.07706V15.3628H5.7077Z" fill="#1C1A27"/>
</g>
<defs>
<clipPath id="clip0_4359_34397">
<rect width="19.2" height="19.2" fill="white" transform="translate(0.5625 0.280029)"/>
</clipPath>
</defs>
</svg>
