<svg width="30" height="30" viewBox="0 0 30 30" fill="none" xmlns="http://www.w3.org/2000/svg">
<g id="Icons">
<mask id="mask0_1_61199" style="mask-type:alpha" maskUnits="userSpaceOnUse" x="0" y="0" width="30" height="30">
<path id="Bounding box" d="M0 0H30V30H0V0Z" fill="#D9D9D9"/>
</mask>
<g mask="url(#mask0_1_61199)">
<path id="insert_text" d="M14.25 20C13.9739 20 13.75 19.7761 13.75 19.5V13C13.75 12.7239 13.5261 12.5 13.25 12.5H10.5C10.2239 12.5 10 12.2761 10 12V10.5C10 10.2239 10.2239 10 10.5 10H19.5C19.7761 10 20 10.2239 20 10.5V12C20 12.2761 19.7761 12.5 19.5 12.5H16.75C16.4739 12.5 16.25 12.7239 16.25 13V19.5C16.25 19.7761 16.0261 20 15.75 20H14.25ZM1.25 28.75V21.25H3.75V8.75H1.25V1.25H8.75V3.75H21.25V1.25H28.75V8.75H26.25V21.25H28.75V28.75H21.25V26.25H8.75V28.75H1.25ZM8.75 23.75H21.25V21.25H23.75V8.75H21.25V6.25H8.75V8.75H6.25V21.25H8.75V23.75ZM3.75 6.25H6.25V3.75H3.75V6.25ZM23.75 6.25H26.25V3.75H23.75V6.25ZM23.75 26.25H26.25V23.75H23.75V26.25ZM3.75 26.25H6.25V23.75H3.75V26.25Z" fill="#CCCCCF"/>
</g>
</g>
</svg>
