<svg width="30" height="30" viewBox="0 0 30 30" fill="none" xmlns="http://www.w3.org/2000/svg">
<g id="Icons">
<mask id="mask0_1_61206" style="mask-type:alpha" maskUnits="userSpaceOnUse" x="0" y="0" width="30" height="30">
<path id="Bounding box" d="M0 0H30V30H0V0Z" fill="#D9D9D9"/>
</mask>
<g mask="url(#mask0_1_61206)">
<path id="brush" d="M7.5 26.2496C6.5625 26.2496 5.63542 26.0205 4.71875 25.5622C3.80208 25.1038 3.0625 24.4996 2.5 23.7496C3.04167 23.7496 3.59375 23.5361 4.15625 23.109C4.71875 22.6819 5 22.0621 5 21.2496C5 20.208 5.36458 19.3226 6.09375 18.5934C6.82292 17.8642 7.70833 17.4996 8.75 17.4996C9.79167 17.4996 10.6771 17.8642 11.4062 18.5934C12.1354 19.3226 12.5 20.208 12.5 21.2496C12.5 22.6246 12.0104 23.8017 11.0312 24.7809C10.0521 25.7601 8.875 26.2496 7.5 26.2496ZM7.5 23.7496C8.1875 23.7496 8.77604 23.5049 9.26562 23.0153C9.75521 22.5257 10 21.9371 10 21.2496C10 20.8955 9.88021 20.5986 9.64062 20.359C9.40104 20.1194 9.10417 19.9996 8.75 19.9996C8.39583 19.9996 8.09896 20.1194 7.85938 20.359C7.61979 20.5986 7.5 20.8955 7.5 21.2496C7.5 21.7288 7.44271 22.1663 7.32812 22.5621C7.21354 22.958 7.0625 23.333 6.875 23.6871C6.97917 23.7288 7.08333 23.7496 7.1875 23.7496H7.5ZM14.6875 18.7496L11.25 15.3121L22.4375 4.12465C22.6667 3.89548 22.9531 3.77569 23.2969 3.76527C23.6406 3.75486 23.9375 3.87465 24.1875 4.12465L25.875 5.81215C26.125 6.06215 26.25 6.35382 26.25 6.68715C26.25 7.02048 26.125 7.31215 25.875 7.56215L14.6875 18.7496Z" fill="#CCCCCF"/>
</g>
</g>
</svg>
