<svg width="30" height="30" viewBox="0 0 30 30" fill="none" xmlns="http://www.w3.org/2000/svg">
<g id="Icons">
<mask id="mask0_1_61185" style="mask-type:alpha" maskUnits="userSpaceOnUse" x="0" y="0" width="30" height="30">
<path id="Bounding box" d="M0 0H30V30H0V0Z" fill="#D9D9D9"/>
</mask>
<g mask="url(#mask0_1_61185)">
<path id="inventory_2" d="M6.24976 27.5C5.56226 27.5 4.97371 27.2552 4.48413 26.7656C3.99455 26.276 3.74976 25.6875 3.74976 25V10.9062C3.37476 10.6771 3.07267 10.3802 2.84351 10.0156C2.61434 9.65104 2.49976 9.22917 2.49976 8.75V5C2.49976 4.3125 2.74455 3.72396 3.23413 3.23438C3.72371 2.74479 4.31226 2.5 4.99976 2.5H24.9998C25.6873 2.5 26.2758 2.74479 26.7654 3.23438C27.255 3.72396 27.4998 4.3125 27.4998 5V8.75C27.4998 9.22917 27.3852 9.65104 27.156 10.0156C26.9268 10.3802 26.6248 10.6771 26.2498 10.9062V25C26.2498 25.6875 26.005 26.276 25.5154 26.7656C25.0258 27.2552 24.4373 27.5 23.7498 27.5H6.24976ZM6.24976 11.25V25H23.7498V11.25H6.24976ZM4.99976 8.75H24.9998V5H4.99976V8.75ZM11.2498 17.5H18.7498V15H11.2498V17.5Z" fill="#CCCCCF"/>
</g>
</g>
</svg>
