<svg width="16" height="17" viewBox="0 0 16 17" fill="none" xmlns="http://www.w3.org/2000/svg">
<g id="package_2">
<mask id="mask0_891_3564" style="mask-type:alpha" maskUnits="userSpaceOnUse" x="0" y="0" width="16" height="17">
<rect id="Bounding box" y="0.25" width="16" height="16" fill="#D9D9D9"/>
</mask>
<g mask="url(#mask0_891_3564)">
<path id="package_2_2" d="M7.66675 14.1561V8.4408L2.66675 5.5498V10.6561C2.66675 10.8494 2.71441 11.0289 2.80975 11.1946C2.90497 11.3605 3.0368 11.4917 3.20525 11.5883L7.66675 14.1561ZM8.33342 14.1561L12.7949 11.5883C12.9634 11.4917 13.0952 11.3605 13.1904 11.1946C13.2857 11.0289 13.3334 10.8494 13.3334 10.6561V5.5498L8.33342 8.4408V14.1561ZM10.7782 6.2588L12.9629 5.00613L8.53858 2.4588C8.37014 2.36224 8.19064 2.31396 8.00008 2.31396C7.80953 2.31396 7.63003 2.36224 7.46158 2.4588L5.85008 3.3883L10.7782 6.2588ZM8.00008 7.8678L10.1116 6.64463L5.16158 3.78313L3.04625 4.9973L8.00008 7.8678Z" fill="#1E1E1E"/>
</g>
</g>
</svg>
