<svg width="30" height="30" viewBox="0 0 30 30" fill="none" xmlns="http://www.w3.org/2000/svg">
<g id="package_2">
<mask id="mask0_3209_30906" style="mask-type:alpha" maskUnits="userSpaceOnUse" x="0" y="0" width="30" height="30">
<rect id="Bounding box" width="30" height="30" fill="#D9D9D9"/>
</mask>
<g mask="url(#mask0_3209_30906)">
<path id="package_2_2" d="M14.0625 24.4611V15.538L6.25 11.0139V19.7208C6.25 19.7848 6.26604 19.8449 6.29812 19.9011C6.33021 19.9572 6.37823 20.0052 6.44219 20.0452L14.0625 24.4611ZM15.9375 24.4611L23.5578 20.0452C23.6218 20.0052 23.6698 19.9572 23.7019 19.9011C23.734 19.8449 23.75 19.7848 23.75 19.7208V11.0139L15.9375 15.538V24.4611ZM13.8703 26.5068L5.505 21.6918C5.14917 21.4868 4.87187 21.2128 4.67312 20.8699C4.47437 20.5268 4.375 20.1501 4.375 19.7399V10.2593C4.375 9.84905 4.47437 9.47238 4.67312 9.12926C4.87187 8.78634 5.14917 8.51238 5.505 8.30738L13.8703 3.49238C14.2259 3.28718 14.6025 3.18457 15 3.18457C15.3975 3.18457 15.7741 3.28718 16.1297 3.49238L24.495 8.30738C24.8508 8.51238 25.1281 8.78634 25.3269 9.12926C25.5256 9.47238 25.625 9.84905 25.625 10.2593V19.7399C25.625 20.1501 25.5256 20.5268 25.3269 20.8699C25.1281 21.2128 24.8508 21.4868 24.495 21.6918L16.1297 26.5068C15.7741 26.712 15.3975 26.8146 15 26.8146C14.6025 26.8146 14.2259 26.712 13.8703 26.5068ZM19.8197 11.1246L22.7188 9.46113L15.1922 5.1077C15.1282 5.0677 15.0642 5.0477 15 5.0477C14.9358 5.0477 14.8718 5.0677 14.8078 5.1077L12.0938 6.6702L19.8197 11.1246ZM15 13.9227L17.9062 12.2399L10.1875 7.77832L7.28125 9.46113L15 13.9227Z" fill="#CCCCCF"/>
</g>
</g>
</svg>
