<svg width="538" height="538" viewBox="0 0 538 538" fill="none" xmlns="http://www.w3.org/2000/svg">
<path d="M488.368 137.647C488.072 135.629 487.857 134.957 485.328 133.8C474.757 129.416 435.16 128.797 423.727 128.662C423.768 126.465 423.259 124.292 422.248 122.341C417.971 118.01 390.613 118.521 384.803 117.338C384.265 117.338 384.319 117.337 384.184 116.853C382.812 113.491 382.463 102.22 380.23 98.2923C376.06 90.9217 360.243 86.6984 350.478 93.6655C345.441 92.1472 340.058 92.2224 335.065 93.8807C332.373 94.9762 329.953 96.6463 327.973 98.7743C325.994 100.902 324.503 103.437 323.605 106.201C322.085 111.285 321.262 116.551 321.157 121.857C316.181 123.498 290.249 125.434 287.263 129.308C286.527 130.438 286.04 131.713 285.838 133.047C267.546 134.419 269.509 134.661 269.294 134.016C262.462 112.738 237.848 91.4597 237.848 91.4597C237.283 90.9486 236.718 91.4597 235.481 91.9977C234.074 87.9996 232.272 84.1518 230.101 80.5114C230.153 79.6138 229.848 78.7319 229.254 78.0571C228.66 77.3824 227.824 76.969 226.927 76.9068C229.348 74.0285 225.313 69.4286 219.771 73.2215C218.83 71.8496 217.835 70.5315 216.812 69.0789C217.421 68.6903 217.973 68.2196 218.453 67.6801C219.018 66.6579 215.763 67.6801 235.104 64.0486C238.682 63.3223 254.472 60.1212 256.624 59.4218C256.868 59.3921 257.095 59.2799 257.266 59.1037C257.437 58.9275 257.543 58.698 257.566 58.4534C261.332 56.3821 257.135 45.1917 255.521 41.2105C262.22 34.7276 260.901 27.7605 255.226 25.743C252.61 24.9423 249.835 24.8128 247.156 25.3664C244.611 20.9712 241.153 17.1734 237.014 14.2298C233.975 12.562 231.634 13.5842 230.935 15.1713C230.235 16.7584 204.358 47.4513 204.035 47.6396C199.139 49.0384 191.903 52.105 189.509 56.5973C183.967 67.1152 194.727 80.0272 205.218 75.9384L207.128 75.3197C208.258 76.9606 209.657 78.8167 210.894 80.4576C210.659 80.8882 210.461 81.3382 210.303 81.8026C210.007 82.771 208.043 85.3534 209.334 87.9358C210.625 90.5182 219.556 96.8128 222.246 98.5075L221.681 98.8034C221.494 98.8811 221.345 99.0283 221.265 99.214C221.185 99.3997 221.18 99.6094 221.251 99.7987C222.811 104.372 231.231 126.268 227.142 125.407C221.17 124.116 206.402 118.333 188.433 112.469C178.561 109.241 171.943 106.12 163.147 104.076C162.501 99.8525 161.775 98.5075 161.129 95.0912C164.033 93.8534 166.491 91.7611 168.177 89.0925C169.146 87.4785 168.016 88.1241 170.06 88.5276C170.724 88.7253 171.438 88.6594 172.054 88.3437C172.671 88.0281 173.141 87.4869 173.369 86.8329C175.79 87.6668 178.103 86.2949 177.565 83.4704C179.287 83.4704 182.461 83.4704 182.945 80.4845C183.672 76.8799 179.206 75.6156 178.076 74.2706C176.042 71.7427 174.574 68.8071 173.772 65.6626C171.082 57.0546 168.984 42.5286 164.25 37.0141C162.768 35.3749 160.945 34.0792 158.91 33.2177C156.875 32.3562 154.677 31.9497 152.468 32.0266C150.26 32.1034 148.095 32.6618 146.124 33.6627C144.154 34.6636 142.426 36.0828 141.062 37.8211C139.35 36.8514 137.548 36.0497 135.682 35.427C133.395 35.0538 131.055 35.1575 128.81 35.7315C126.565 36.3055 124.463 37.3375 122.635 38.7626C113.812 46.2677 118.358 59.1797 112.413 73.0332C110.557 77.3372 101.304 86.6177 108.083 90.1416C108.782 90.3573 109.527 90.3787 110.238 90.2034C110.949 90.0281 111.599 89.6626 112.118 89.1463C112.184 89.842 112.385 90.5181 112.709 91.1369C113.516 92.1026 114.561 92.8413 115.74 93.28C116.919 93.7187 118.193 93.8423 119.434 93.6386C120.204 93.384 120.898 92.94 121.452 92.3474C121.632 92.906 121.957 93.4071 122.393 93.8C124.599 95.5485 127.289 95.3871 129.603 91.8901C129.962 92.398 130.46 92.7921 131.037 93.0257C131.614 93.2594 132.246 93.3227 132.857 93.2082V102.112C131.378 102.3 129.898 102.489 128.419 102.758C128.295 102.733 128.167 102.733 128.042 102.758C111.81 105.141 96.5975 112.112 84.1954 122.852C71.7758 133.415 61.5959 146.357 54.2557 160.915C47.7728 175.173 48.4722 180.445 50.7049 190.506C52.0793 196.291 54.7156 201.702 58.4252 206.35C62.514 211.891 68.8355 218.562 77.9815 228.434C80.1604 230.775 82.9042 233.815 85.2176 236.128C83.9802 241.777 75.2377 275.913 75.7488 282.826C75.7488 283.526 76.3944 284.36 77.7932 284.951C82.3749 286.32 87.1107 287.106 91.8888 287.292C90.3017 344.4 94.3636 419.317 99.3939 474.919C99.1885 474.99 99.0037 475.11 98.8559 475.269C97.9947 477.641 97.9947 480.24 98.8559 482.613C99.2056 483.339 99.8781 483.285 101.546 483.42C101.546 486.863 101.842 490.844 102.057 494.314C101.454 494.783 100.912 495.325 100.443 495.928C100.255 496.359 100.228 496.224 101.438 503.272C100.608 505.555 99.9687 507.903 99.5284 510.293C99.2775 512.076 99.1249 513.872 99.0711 515.673C99.0651 516.638 99.3666 517.58 99.9319 518.363C103.338 521.024 107.153 523.113 111.23 524.55C115.782 523.826 120.082 521.977 123.738 519.17C124.192 518.763 124.54 518.251 124.751 517.679C124.962 517.107 125.03 516.492 124.949 515.888C124.786 511.486 124.035 507.125 122.716 502.922C123.254 500.619 123.542 498.266 123.577 495.901C123.416 495.39 123.12 495.148 121.667 494.207C122.017 490.871 122.34 487.105 122.582 483.796H125.944C128.069 483.662 127.424 479.95 127.531 476.991C127.531 475.941 126.509 475.565 125.541 475.35L151.042 310.991C152.898 321.213 157.283 346.768 157.256 357.205C157.256 359.733 150.773 443.123 149.186 464.966C148.93 465.025 148.697 465.156 148.513 465.343C147.559 467.643 147.361 470.186 147.948 472.606C148.244 473.413 148.997 473.413 150.127 473.601C149.724 477.367 149.347 481.402 149.051 485.303C147.975 485.303 147.652 485.572 147.303 486.567C146.254 489.58 145.178 500.259 147.061 503.218C148.325 505.182 190.961 513.332 202.259 508.356C204.519 507.334 204.411 505.02 204.035 502.572C203.389 498.161 185.205 492.108 179.825 489.472C179.314 489.203 179.421 489.284 179.206 488.88C176.516 483.984 175.763 481.913 174.983 481.537C174.205 481.312 173.387 481.266 172.589 481.402C172.4 479.546 172.212 477.744 171.997 475.699C172.445 475.777 172.907 475.712 173.315 475.511C174.445 474.704 174.337 471.315 174.606 469.055C174.638 468.748 174.552 468.44 174.364 468.194C172.912 466.069 171.674 475 186.173 424.347C185.689 429.996 181.708 475.188 183.107 477.421C183.51 477.986 184.29 478.013 185.259 478.093C203.093 479.896 429.618 488.262 448.637 488.477C451.892 488.477 462.087 488.692 463.055 488.046C472.093 482.559 492.268 165.919 488.368 137.647ZM287.828 129.819C290.518 126.188 319.167 124.574 321.938 122.987C322.09 122.918 322.221 122.809 322.315 122.672C322.41 122.534 322.466 122.373 322.476 122.206C322.606 116.977 323.457 111.79 325.004 106.793C325.864 104.248 327.274 101.923 329.133 99.9843C330.993 98.0456 333.257 96.5403 335.764 95.5754C343.054 92.8854 355.455 95.2526 359.033 101.709C361.265 105.663 361.319 119.355 363.606 121.265C365.892 123.175 397.634 122.529 401.266 126.241C401.486 126.683 401.64 127.154 401.723 127.64C402.551 133.507 402.487 139.466 401.535 145.314C394.191 148.246 304.103 152.281 290.007 150.693C288.017 150.478 287.855 150.693 287.317 148.703C285.999 144.533 285.461 132.993 287.828 129.819ZM218.48 80.2424C218.668 78.6822 217.969 79.4085 219.475 79.7313C219.262 80.1087 219.142 80.5321 219.128 80.9656C219.113 81.3991 219.203 81.8297 219.391 82.2207C219.578 82.6117 219.858 82.9516 220.205 83.2114C220.552 83.4711 220.957 83.6431 221.385 83.7125C221.132 84.0683 220.978 84.4854 220.941 84.9206C220.903 85.3557 220.982 85.7931 221.17 86.1873C221.816 87.5323 222.73 87.7206 224.102 87.882C223.568 88.4882 222.817 88.8594 222.011 88.9148C221.205 88.9702 220.41 88.7054 219.798 88.1779C219.556 87.9358 218.373 86.4832 216.812 84.5464C217.605 83.2149 218.168 81.7601 218.48 80.2424ZM228.083 79.2202C228.271 79.3256 228.436 79.4682 228.567 79.6392C228.698 79.8103 228.793 80.0062 228.846 80.2151C228.899 80.424 228.908 80.6415 228.874 80.8543C228.84 81.0671 228.764 81.2708 228.648 81.4529C227.486 81.3304 226.312 81.4123 225.178 81.695C223.968 81.964 221.843 82.1523 221.332 81.3453C220.578 80.0541 226.093 77.8483 228.083 79.2202ZM222.408 74.0285C225.34 72.818 227.007 74.8624 226.496 75.9653C224.615 77.1829 222.416 77.8191 220.175 77.7945C220.053 77.7923 219.932 77.7648 219.821 77.7139C219.71 77.663 219.611 77.5897 219.529 77.4986C218.937 76.9337 219.341 76.3419 219.852 75.8039C220.589 75.0622 221.455 74.4607 222.408 74.0285ZM217.7 65.7702C214.391 60.9551 206.348 50.2489 205.057 48.1776L230.693 18.5876C231.607 26.6576 240.431 41.4526 244.815 48.1776C244.959 48.3594 245.157 48.4912 245.38 48.5542C247.824 52.2126 250.839 55.455 254.311 58.1575C252.213 58.4265 225.286 64.2638 217.7 65.7702ZM254.553 27.626C255.233 27.8623 255.856 28.2367 256.384 28.7254C256.912 29.2142 257.333 29.8068 257.621 30.4661C257.909 31.1255 258.058 31.8372 258.057 32.5567C258.057 33.2761 257.908 33.9878 257.62 34.6469C256.167 38.655 252.24 41.6678 248.689 44.1964C247.72 44.9227 246.779 45.5952 245.999 46.1063C242.371 40.945 239.083 35.5536 236.153 29.9663C241.641 28.3254 249.55 25.5816 254.553 27.626ZM204.627 74.1092C195.884 77.5255 186.873 66.4158 191.177 57.4581C193.087 53.4231 200.027 50.0875 204.25 48.5811C205.353 50.5986 214.66 64.5597 216.247 67.0614C212.628 69.8065 208.734 72.1684 204.627 74.1092ZM208.635 74.4051C210.975 73.087 213.746 71.3116 215.925 69.7783C216.812 71.204 217.727 72.7642 218.615 74.1899C218.143 74.5552 217.769 75.0309 217.525 75.5751C217.281 76.1194 217.175 76.7153 217.216 77.3103C216.481 76.924 215.645 76.7737 214.822 76.8799C213.735 77.0994 212.773 77.7247 212.132 78.6284L208.635 74.4051ZM217.888 93.4503C211.997 88.3124 211.459 88.7159 210.894 87.1557C210.329 85.5955 211.943 83.309 212.293 82.3406C212.885 80.619 214.768 78.0097 216.328 79.1126C217.377 79.8389 215.898 84.0353 215.521 84.8961C215.375 85.1228 215.257 85.3667 215.171 85.6224C216.167 87.0139 217.236 88.3518 218.373 89.6305C219.003 90.1849 219.754 90.5841 220.566 90.7964C221.378 91.0086 222.228 91.0279 223.049 90.8528C223.87 90.6777 224.638 90.3129 225.293 89.7877C225.947 89.2626 226.47 88.5915 226.819 87.8282L228.11 87.5592C228.217 87.5338 228.311 87.4709 228.375 87.3821C228.439 87.2932 228.469 87.1842 228.46 87.075C228.46 86.3756 226.9 87.075 224.802 86.3218C223.887 86.0528 223.295 85.9721 223.08 85.4072C222.596 84.2505 226.846 83.309 228.164 83.3359C228.517 83.294 228.874 83.3223 229.216 83.4193C229.558 83.5162 229.877 83.6799 230.155 83.9008C230.424 84.1429 234.27 91.2714 234.782 92.455L223.268 97.835C221.735 96.8397 219.718 95.1181 217.888 93.4503ZM226.846 126.699C227.118 126.785 227.404 126.816 227.688 126.789C227.973 126.762 228.248 126.679 228.499 126.543C228.75 126.408 228.972 126.223 229.15 126C229.328 125.777 229.459 125.521 229.536 125.246C230.881 121.211 225.636 107.438 223.08 99.8794L237.149 93.262C240.404 96.1941 261.359 115.428 267.357 134.634C270.801 145.394 269.483 156.154 257.243 163.928C247.837 169.588 236.904 172.183 225.958 171.353C215.001 170.659 204.258 167.999 194.243 163.498C194.647 157.714 194.512 144.829 195.508 137.862C195.517 137.751 195.485 137.641 195.419 137.551C195.353 137.462 195.256 137.4 195.147 137.377C195.038 137.353 194.924 137.371 194.827 137.426C194.73 137.48 194.656 137.569 194.62 137.674C193.847 140.016 193.271 142.418 192.898 144.856C192.173 151.207 192.083 157.614 192.629 163.982C192.414 164.412 192.091 162.153 196.099 200.163C196.099 200.62 211.11 266.202 210.706 275.052C205.326 277.957 174.418 281.185 167.666 281.32C165.541 276.128 153.866 240.97 152.037 235.375C162.797 182.032 153.947 217.352 169.522 184.937C174.976 173.537 179.843 161.865 184.102 149.967C185.135 147.226 185.962 144.412 186.577 141.548C186.792 141.063 187.088 140.552 186.577 139.987L179.69 130.707C187.007 112.227 186.765 113.222 186.738 112.764C204.089 118.709 220.767 125.327 226.846 126.699ZM194.889 166.269C200.721 168.742 206.786 170.625 212.993 171.891C210.706 187.412 208.07 208.394 205.299 232.147C196.153 188.676 199.462 211.837 194.889 166.269ZM112.064 447.67C111.257 468.409 112.064 467.495 111.176 467.522C111.059 467.522 110.947 467.477 110.862 467.397C110.777 467.317 110.726 467.208 110.719 467.091C109.67 443.581 112.494 398.981 118.116 288.152H119.138C117.336 329.713 112.252 442.585 112.064 447.67ZM130.06 132.671C123.409 125.151 117.288 117.178 111.741 108.81C116.865 106.885 122.175 105.496 127.585 104.668C129.36 108.756 134.74 123.794 136.247 128.044L130.114 132.751L130.06 132.671ZM133.261 104.237C138.426 109.617 149.186 119.49 156.691 120.189C156.673 120.218 156.653 120.251 156.63 120.287C155.686 121.818 150.966 129.469 150.02 130.599C147.141 129.658 135.198 115.347 133.1 112.872C132.266 110.639 130.867 106.82 129.952 104.641L133.261 104.237ZM123.577 145.986V145.717C123.577 145.609 129.118 135.925 129.656 134.957C129.898 134.5 129.065 135.253 136.65 129.039C149.401 165.193 148.971 168.797 155.48 193.007C119.65 140.31 123.738 145.717 123.577 145.986ZM152.548 128.931C153.075 130.852 153.786 132.717 154.673 134.5C155.211 135.091 153.651 140.821 151.096 166.564C146.482 149.892 141.033 133.462 134.767 117.338C136.919 119.678 146.496 130.196 149.428 131.326C149.61 131.443 149.825 131.501 150.042 131.491C150.258 131.481 150.467 131.405 150.638 131.272C150.934 130.949 151.634 130.007 152.494 128.797L152.548 128.931ZM159.354 198.495C162.932 182.355 170.625 143.726 171.459 127.344L177.915 131.594C185.608 142.354 184.909 141.117 184.855 141.601C183.86 147.331 166.187 189.322 159.3 198.36L159.354 198.495ZM177.538 129.846L171.593 126.188C172.284 120.563 172.679 114.906 172.777 109.241C176.516 110.505 180.39 111.931 184.021 113.518C183.376 115.051 178.749 126.753 177.538 129.846ZM166.994 145.26C166.189 141.427 165.128 137.653 163.819 133.962C163.954 133.37 164.519 130.761 164.868 129.12C165.489 129.816 166.145 130.48 166.832 131.11C167.505 131.702 168.043 132.052 168.769 131.702C168.204 136.221 167.639 140.525 166.994 145.26ZM170.491 108.46C170.462 114.757 170.049 121.045 169.253 127.291C168.769 128.259 168.365 129.039 168.07 129.55C164.921 126.541 161.94 123.362 159.139 120.027C163.9 118.709 163.954 111.312 163.47 106.362C165.918 106.954 168.258 107.6 170.491 108.353V108.46ZM137.619 89.6305C137.78 89.1732 137.619 89.3077 138.022 89.3884C139.658 89.5611 141.305 89.1878 142.706 88.3265C144.108 87.4653 145.185 86.1645 145.769 84.6271C146.376 81.9796 146.198 79.2129 145.258 76.6647C144.855 75.4608 144.541 74.2291 144.317 72.9794C142.972 67.5994 139.69 62.3539 141.196 57.0815C141.56 55.6471 142.469 54.4114 143.73 53.6376C144.991 52.8638 146.505 52.6131 147.948 52.9389C148.682 53.2035 149.393 53.5274 150.073 53.9073C152.36 55.0909 154.001 55.9517 155.077 54.8757C155.077 54.8757 158.332 51.6746 161.425 52.5085C162.663 52.9927 165.568 59.1528 166.213 62.5153C165.728 61.868 165.018 61.4264 164.223 61.2779C162.017 61.0089 160.484 62.8112 160.807 63.3492C162.607 63.7524 164.488 63.5831 166.187 62.865C167.109 67.9313 167.532 73.0759 167.451 78.2249C166.203 77.4147 164.831 76.8149 163.389 76.4495C162.298 76.4127 161.212 76.6242 160.215 77.0682C159.143 76.7983 158.037 76.6895 156.933 76.7454C153.839 77.3372 151.284 80.6997 149.724 82.1254C149.024 82.771 148.513 84.5464 149.724 85.2996C150.934 86.0528 152.683 84.6809 153.221 84.0622C155.439 81.8345 157.852 79.809 160.43 78.0097C162.655 79.4798 164.953 80.8356 167.316 82.0716C167.01 83.3841 166.91 84.7364 167.02 86.0797C166.391 87.6614 165.432 89.0912 164.208 90.2738C162.984 91.4565 161.521 92.3651 159.919 92.9392C159.708 93.0058 159.512 93.1144 159.344 93.2585C159.176 93.4026 159.039 93.5793 158.941 93.7778C158.843 93.9764 158.786 94.1927 158.774 94.4138C158.762 94.6349 158.794 94.8562 158.87 95.0643C159.408 98.4268 161.99 105.448 161.21 112.522C160.968 114.728 160.269 117.499 158.063 117.741C151.607 118.467 139.609 107.358 135.063 102.677V92.4819C136.272 91.8316 137.186 90.7442 137.619 89.4422V89.6305ZM134.498 66.7117C134.95 69.5628 135.246 72.4364 135.386 75.3197C133.853 75.8577 131.808 73.8402 131.432 72.4145C130.571 69.4555 131.324 67.5725 134.498 66.7117ZM78.0084 282.45C77.6856 276.021 85.648 244.44 87.1813 237.876C87.9293 238.68 88.8487 239.305 89.8713 239.706C90.104 239.732 90.3393 239.687 90.5458 239.576C90.7523 239.466 90.9205 239.295 91.028 239.087C91.2163 238.818 91.8619 237.796 92.8034 236.397C93.5842 238.047 94.6809 239.527 96.0314 240.755C92.0233 244.036 91.1625 243.794 91.5122 244.44C91.5639 244.538 91.6515 244.613 91.7568 244.648C91.8621 244.683 91.9768 244.676 92.0771 244.628C103.536 239.571 109.401 230.398 110.073 217.567C110.082 217.461 110.051 217.356 109.986 217.271C109.921 217.187 109.828 217.129 109.723 217.11C108.809 217.11 109.454 219.315 106.469 226.794C105.123 225.454 103.47 224.466 101.653 223.915C102.012 223.445 102.408 223.005 102.837 222.597C103.456 222.436 103.805 221.817 103.456 220.929C102.568 218.589 97.0536 209.04 95.6548 206.646C95.6699 206.493 95.6699 206.34 95.6548 206.188C95.8162 202.449 96.7039 195.832 97.5378 188.703C99.1466 174.703 99.8923 160.616 99.7705 146.524C99.5735 142.431 98.8132 138.385 97.5109 134.5C97.4859 134.386 97.4166 134.286 97.3182 134.223C97.2198 134.16 97.1005 134.138 96.9863 134.163C96.8722 134.188 96.7726 134.258 96.7095 134.356C96.6465 134.454 96.6251 134.574 96.6501 134.688C97.484 140.606 97.9144 164.063 97.9144 164.601C95.4127 168.394 83.5498 184.48 83.6036 186.982C83.8856 188.487 84.3555 189.951 85.0024 191.339C85.0024 192.039 83.3615 187.681 94.256 207.91C95.6817 210.6 100.066 218.67 101.223 221.198C97.0359 226.339 93.1642 231.729 89.6292 237.338C83.5767 232.496 65.4192 212.052 60.2544 205.058C56.7248 200.661 54.2165 195.534 52.9107 190.048C51.483 185.421 51.0611 180.541 51.6733 175.737C54.3633 158.387 71.9021 136.114 85.5673 124.627C93.0987 118.165 101.641 112.985 110.853 109.294C112.387 111.984 115.588 116.611 118.923 121.399C128.742 135.092 128.796 133.02 128.204 134.042C126.751 136.732 122.34 143.78 121.64 145.367C121.264 146.255 118.143 142.274 156.072 198.818C154.862 205.381 141.573 279.007 138.802 285.167C134.122 287.023 82.6621 286.404 78.0084 282.45ZM96.5963 240.271C96.5946 240.268 96.5928 240.266 96.5911 240.263C95.4989 238.703 94.6818 236.968 94.1753 235.133C95.6191 232.377 97.3215 229.765 99.2594 227.332C100.416 225.798 100.362 225.637 101.142 225.691C102.892 225.938 104.56 226.592 106.011 227.601C103.979 232.543 100.74 236.897 96.5911 240.263C96.566 240.284 96.5408 240.304 96.5156 240.324L96.5963 240.271ZM93.6373 203.148C91.9964 200.459 85.9708 189.08 85.8094 187.008C86.9392 183.996 92.9379 174.904 98.2103 166.188C97.5916 175.495 94.6864 191.366 93.5566 203.202L93.6373 203.148ZM122.582 515.888C122.581 516.288 122.527 516.686 122.42 517.072C122.372 517.171 122.298 517.255 122.205 517.314C119.439 519.433 116.313 521.037 112.978 522.048C111.149 522.613 111.122 522.667 107.114 520.811C104.932 519.856 102.82 518.751 100.793 517.502C100.147 516.91 100.066 514.973 100.066 514.112C101.924 515.807 103.973 517.278 106.173 518.497C109.992 520.569 112.602 520.945 118.439 518.228C119.889 517.578 121.276 516.794 122.582 515.888ZM120.214 484.011C119.972 486.997 119.703 490.064 119.434 492.808C117.167 491.413 114.802 490.182 112.36 489.122C110.046 488.531 105.904 491.382 103.967 492.808C103.752 490.71 103.536 488.073 103.133 483.5C106.173 483.662 109.777 483.742 112.817 483.769C121.048 483.85 120.268 483.608 120.214 484.011ZM125.083 481.321C124.814 481.321 101.115 481.725 100.147 481.644C99.3738 479.753 99.1772 477.675 99.5822 475.672C99.9516 475.572 100.33 475.509 100.712 475.484C108.902 475.533 117.08 476.126 125.191 477.26C125.259 478.677 125.223 480.098 125.083 481.51V481.321ZM169.468 475.457C169.657 477.502 169.818 479.627 170.006 481.698C169.088 481.853 168.188 482.096 167.316 482.424C165.245 483.527 167.02 487.347 166.348 488.208C163.819 487.912 155.238 485.518 150.692 485.222C150.854 481.59 151.069 477.152 151.257 473.736C156.583 474.489 164.357 475.108 169.468 475.457ZM201.748 503.568C201.748 504.644 201.964 505.8 201.157 506.258C191.768 510.427 151.822 503.971 147.921 502.384C147.549 501.533 147.331 500.622 147.276 499.694C162.125 502.196 189.778 509.244 201.748 503.568ZM171.674 473.44C171.405 473.44 149.778 472.068 149.024 471.933C148.727 470.555 148.6 469.146 148.648 467.737C148.618 467.117 148.738 466.499 148.997 465.935C152.252 465.37 168.823 468.625 172.105 469.405C172.037 470.757 171.893 472.104 171.674 473.44ZM184.963 357.77C183.268 365.84 166.509 448.288 163.766 460.851C163.729 460.956 163.655 461.044 163.558 461.099C163.461 461.154 163.348 461.171 163.239 461.148C163.13 461.125 163.033 461.063 162.966 460.973C162.9 460.884 162.869 460.773 162.878 460.662C165.084 449.283 180.928 365.974 182.757 357.286C183.618 353.224 176.382 289.901 175.521 283.122H176.947C180.874 308.516 185.797 353.654 184.963 357.77ZM461.172 486.432C449.793 487.32 187.034 476.291 184.667 475.995C184.102 468.921 188.298 421.038 188.917 413.964C193.221 398.711 201.426 368.772 203.847 353.035C205.945 339.289 202.259 308.516 200.43 294.635C200.968 289.632 201.479 284.656 202.017 279.706C205.119 279.244 208.172 278.497 211.136 277.473C211.943 277.097 212.75 276.586 212.831 275.725C213.342 270.936 207.451 243.122 206.563 238.307C209.522 212.106 212.508 188.999 214.795 172.16C229.778 174.85 245.407 173.908 258.373 165.677C270.854 157.768 272.872 146.847 269.886 135.925C274.863 135.441 280.108 134.984 285.542 134.553C284.95 138.884 285.058 149.349 287.344 151.151C291.675 154.594 393.841 150.532 402.288 147.17C402.704 147.025 403.056 146.74 403.283 146.363C404.574 143.888 404.467 133.531 404.09 129.658C412.456 129.658 482.1 129.12 487.077 135.818C492.699 143.404 469.968 485.572 461.172 486.298V486.432Z" fill="#1C1A27"/>
<path d="M94.1753 235.133C94.6818 236.968 95.4989 238.703 96.5911 240.263C100.74 236.897 103.979 232.543 106.011 227.601C104.56 226.592 102.892 225.938 101.142 225.691C100.362 225.637 100.416 225.798 99.2594 227.332C97.3215 229.765 95.6191 232.377 94.1753 235.133Z" fill="#1C1A27"/>
<path d="M130.06 132.671C123.409 125.151 117.288 117.178 111.741 108.81C116.865 106.885 122.175 105.496 127.585 104.668C129.36 108.756 134.74 123.794 136.247 128.044L130.114 132.751L130.06 132.671Z" fill="#1C1A27"/>
<path d="M177.538 129.846L171.593 126.188C172.284 120.563 172.679 114.906 172.777 109.241C176.516 110.505 180.39 111.931 184.021 113.518C183.376 115.051 178.749 126.753 177.538 129.846Z" fill="#1C1A27"/>
<path d="M133.261 104.237C138.426 109.617 149.186 119.49 156.691 120.189L156.63 120.287C155.686 121.818 150.966 129.469 150.02 130.599C147.141 129.658 135.198 115.347 133.1 112.872C132.266 110.639 130.867 106.82 129.952 104.641L133.261 104.237Z" fill="#1C1A27"/>
<path d="M170.491 108.46C170.462 114.757 170.049 121.045 169.253 127.291C168.769 128.259 168.365 129.039 168.07 129.55C164.921 126.541 161.94 123.362 159.139 120.027C163.9 118.709 163.954 111.312 163.47 106.362C165.918 106.954 168.258 107.6 170.491 108.353V108.46Z" fill="#1C1A27"/>
<path d="M208.635 74.4051C210.975 73.087 213.746 71.3116 215.925 69.7783C216.812 71.204 217.727 72.7642 218.615 74.1899C218.143 74.5552 217.769 75.0309 217.525 75.5751C217.281 76.1194 217.175 76.7153 217.216 77.3103C216.481 76.924 215.645 76.7737 214.822 76.8799C213.735 77.0994 212.773 77.7247 212.132 78.6284L208.635 74.4051Z" fill="#1C1A27"/>
<path d="M254.553 27.626C255.233 27.8623 255.856 28.2367 256.384 28.7254C256.912 29.2142 257.333 29.8068 257.621 30.4661C257.909 31.1255 258.058 31.8372 258.057 32.5567C258.057 33.2761 257.908 33.9878 257.62 34.6469C256.167 38.655 252.24 41.6678 248.689 44.1964C247.72 44.9227 246.779 45.5952 245.999 46.1063C242.371 40.945 239.083 35.5536 236.153 29.9663C241.641 28.3254 249.55 25.5816 254.553 27.626Z" fill="#573CFA"/>
<path d="M273.867 288.798C273.572 286.942 272.953 286.592 271.931 286.297C266.551 284.736 235.32 282.961 232.684 284.736C230.047 286.512 224.856 307.144 226.685 313.546C226.858 313.916 227.109 314.244 227.419 314.509C227.73 314.773 228.094 314.968 228.487 315.08C234.862 317.77 265.663 320.271 268.999 318.388C272.334 316.505 274.648 293.882 273.867 288.798ZM268.999 314.488C268.775 315.229 268.449 315.935 268.03 316.586C265.878 317.796 232.361 315.994 228.38 313.008C226.577 307.01 231.07 286.915 233.195 285.436C235.32 283.956 268.38 286.781 271.823 288.314C272.926 292.806 270.639 309.35 268.999 314.488ZM262.408 337.756C259.718 335.685 224.748 334.017 222.058 335.739C219.368 337.46 214.23 357.985 216.059 364.549C216.237 364.915 216.489 365.241 216.799 365.505C217.109 365.769 217.471 365.966 217.862 366.082C224.291 368.772 250.868 370.789 257.082 369.767C257.488 369.752 257.885 369.645 258.244 369.454C258.603 369.263 258.914 368.993 259.153 368.664C261.816 364.979 265.233 340.043 262.408 337.756ZM257.405 367.561C255.199 368.799 221.87 366.997 217.754 363.984C215.952 357.985 220.444 337.891 222.569 336.411C224.694 334.932 258.05 337.864 261.171 339.29C262.516 344.32 259.18 366.566 257.405 367.561ZM256.167 387.521C253.477 385.477 218.507 383.782 215.817 385.504C213.127 387.225 207.989 407.723 209.819 414.26C209.992 414.63 210.242 414.958 210.553 415.222C210.864 415.487 211.228 415.682 211.621 415.793C218.05 418.483 244.627 420.501 250.841 419.478C251.249 419.46 251.648 419.349 252.007 419.153C252.366 418.957 252.676 418.682 252.912 418.349C255.549 414.798 259.019 389.835 256.167 387.521ZM252.105 415.255C252.105 415.578 251.433 417.192 251.137 417.326C248.931 418.564 215.602 416.735 211.486 413.749C209.711 407.777 214.176 387.683 216.301 386.176C218.427 384.67 251.46 387.521 254.93 389.055C256.006 393.412 253.935 409.579 252.105 415.255Z" fill="#1C1A27"/>
<path d="M462.169 189.78C456.008 190.56 336.142 189.457 330.359 188.004C329.941 184.126 329.887 180.218 330.197 176.33L462.68 178.562C463.233 182.29 463.059 186.09 462.169 189.753V189.78Z" fill="#573CFA"/>
<path d="M461.9 211.461C456.116 212.241 336.519 211.192 330.09 209.686C329.726 205.803 329.726 201.894 330.09 198.011L462.572 200.244C463.063 203.983 462.835 207.781 461.9 211.434V211.461Z" fill="#573CFA"/>
<path d="M461.577 234.03C455.444 234.81 336.142 233.761 329.767 232.282C329.389 228.39 329.389 224.471 329.767 220.58L462.249 222.813C462.754 226.56 462.525 230.37 461.577 234.03Z" fill="#573CFA"/>
<path d="M352.201 259.074C353.788 258.186 353.95 256.788 353.197 255.9C351.065 254.532 348.675 253.617 346.176 253.21C345.938 250.81 345.086 248.512 343.701 246.539C341.011 244.118 339.262 249.659 338.321 253.129C336.061 253.317 331.085 253.963 330.708 256.196C330.708 256.976 331.246 257.46 331.946 257.81C333.532 258.446 335.158 258.977 336.815 259.397C334.663 261.656 329.821 266.902 332.833 267.467C333.879 267.696 335.976 266.773 337.95 265.905C339.226 265.344 340.451 264.806 341.307 264.615C341.761 264.87 342.333 265.245 342.967 265.66C345.15 267.092 348.063 269.003 349.377 268.086C350.856 267.052 349.199 264.01 347.841 261.517C347.644 261.155 347.453 260.804 347.279 260.473C348.956 260.144 350.602 259.676 352.201 259.074Z" fill="#FB8D1A"/>
<path d="M377.891 260.285C379.505 259.424 379.666 258.025 378.886 257.137C376.775 255.748 374.39 254.83 371.892 254.447C371.655 252.039 370.802 249.733 369.417 247.749C366.727 245.355 364.979 250.896 364.037 254.367C361.778 254.555 356.801 255.174 356.425 257.433C356.29 258.186 356.963 258.697 357.662 259.047C359.244 259.669 360.861 260.199 362.504 260.634C360.379 262.867 355.51 268.139 358.523 268.704C359.526 268.924 361.543 268.074 363.456 267.269C364.826 266.692 366.143 266.138 366.996 266.014C367.449 266.266 367.999 266.621 368.601 267.011L368.721 267.089L368.723 267.09C370.931 268.524 373.778 270.372 375.066 269.457C376.515 268.429 374.899 265.412 373.568 262.927C373.366 262.551 373.172 262.187 372.995 261.845C374.675 261.489 376.315 260.966 377.891 260.285Z" fill="#FB8D1A"/>
<path d="M404.656 261.28C406.243 260.392 406.405 258.993 405.652 258.133C403.528 256.75 401.135 255.833 398.631 255.443C398.406 253.04 397.552 250.739 396.156 248.771C393.466 246.35 391.717 251.892 390.776 255.362C388.516 255.577 383.54 256.196 383.19 258.428C383.19 259.209 383.728 259.72 384.428 260.042C386.003 260.689 387.621 261.229 389.27 261.656C387.144 263.889 382.276 269.162 385.288 269.726C386.334 269.955 388.431 269.033 390.405 268.165C391.681 267.604 392.906 267.065 393.762 266.875C394.195 267.123 394.735 267.479 395.334 267.873C397.527 269.317 400.501 271.275 401.832 270.345C403.286 269.329 401.69 266.372 400.357 263.904L400.356 263.902C400.136 263.495 399.924 263.102 399.734 262.732C401.414 262.393 403.061 261.907 404.656 261.28Z" fill="#FB8D1A"/>
<path d="M166.43 205.435C166.398 205.699 166.315 205.953 166.185 206.184C166.055 206.415 165.88 206.618 165.672 206.782C165.463 206.945 165.224 207.066 164.969 207.137C164.714 207.209 164.447 207.229 164.184 207.197C163.921 207.166 163.666 207.082 163.435 206.952C163.204 206.822 163.001 206.648 162.838 206.439C162.674 206.231 162.553 205.992 162.482 205.737C162.41 205.481 162.39 205.214 162.422 204.951C162.422 204.705 162.471 204.462 162.566 204.235C162.661 204.008 162.8 203.802 162.975 203.629C163.15 203.456 163.358 203.32 163.586 203.229C163.815 203.137 164.059 203.092 164.305 203.095C164.615 203.062 164.928 203.101 165.22 203.208C165.512 203.316 165.776 203.491 165.989 203.717C166.203 203.944 166.361 204.217 166.452 204.515C166.542 204.813 166.562 205.128 166.511 205.435H166.43Z" fill="#E8083E"/>
<path fill-rule="evenodd" clip-rule="evenodd" d="M164.09 200.836C163.458 200.847 162.84 201.015 162.289 201.324C161.739 201.633 161.274 202.074 160.935 202.607C160.597 203.14 160.396 203.749 160.35 204.378C160.304 205.008 160.415 205.639 160.673 206.216C162.449 209.793 168.555 208.475 168.447 204.602C168.425 204.062 168.292 203.534 168.057 203.048C167.822 202.562 167.49 202.13 167.082 201.777C166.674 201.424 166.198 201.159 165.683 200.997C165.169 200.835 164.626 200.78 164.09 200.836ZM166.185 206.184C166.315 205.953 166.398 205.699 166.43 205.435H166.511C166.562 205.128 166.542 204.813 166.452 204.515C166.361 204.217 166.203 203.944 165.989 203.717C165.776 203.491 165.512 203.316 165.22 203.208C164.928 203.101 164.615 203.062 164.305 203.095C164.059 203.092 163.815 203.137 163.586 203.229C163.358 203.32 163.15 203.456 162.975 203.629C162.8 203.802 162.661 204.008 162.566 204.235C162.471 204.462 162.422 204.705 162.422 204.951C162.39 205.214 162.41 205.481 162.482 205.737C162.553 205.992 162.674 206.231 162.838 206.439C163.001 206.648 163.204 206.822 163.435 206.952C163.666 207.082 163.921 207.166 164.184 207.197C164.447 207.229 164.714 207.209 164.969 207.137C165.224 207.066 165.463 206.945 165.672 206.782C165.88 206.618 166.055 206.415 166.185 206.184Z" fill="#E8083E"/>
<path d="M165.704 223.674C165.712 223.964 165.658 224.253 165.546 224.521C165.434 224.789 165.266 225.03 165.054 225.228C164.841 225.426 164.589 225.577 164.313 225.67C164.038 225.762 163.746 225.796 163.457 225.767C163.168 225.738 162.888 225.648 162.636 225.502C162.385 225.357 162.167 225.159 161.998 224.923C161.829 224.687 161.712 224.417 161.655 224.132C161.598 223.847 161.603 223.553 161.669 223.27C161.676 222.775 161.877 222.303 162.23 221.956C162.582 221.609 163.057 221.414 163.552 221.414C163.848 221.397 164.145 221.444 164.421 221.553C164.697 221.662 164.947 221.83 165.151 222.045C165.356 222.26 165.512 222.517 165.607 222.798C165.702 223.08 165.735 223.378 165.704 223.674Z" fill="#E8083E"/>
<path fill-rule="evenodd" clip-rule="evenodd" d="M163.363 219.074C162.729 219.078 162.107 219.242 161.553 219.549C160.998 219.857 160.53 220.298 160.19 220.833C159.85 221.368 159.65 221.98 159.607 222.613C159.565 223.245 159.682 223.878 159.947 224.454C161.696 227.978 167.829 226.74 167.721 222.84C167.695 222.302 167.559 221.775 167.323 221.291C167.087 220.807 166.755 220.376 166.348 220.024C165.941 219.672 165.466 219.407 164.953 219.243C164.44 219.08 163.899 219.022 163.363 219.074ZM165.546 224.521C165.658 224.253 165.712 223.964 165.704 223.674C165.735 223.378 165.702 223.08 165.607 222.798C165.512 222.517 165.356 222.26 165.151 222.045C164.947 221.83 164.697 221.662 164.421 221.553C164.145 221.444 163.848 221.397 163.552 221.414C163.057 221.414 162.582 221.609 162.23 221.956C161.877 222.303 161.676 222.775 161.669 223.27C161.603 223.553 161.598 223.847 161.655 224.132C161.712 224.417 161.829 224.687 161.998 224.923C162.167 225.159 162.385 225.357 162.636 225.502C162.888 225.648 163.168 225.738 163.457 225.767C163.746 225.796 164.038 225.762 164.313 225.67C164.589 225.577 164.841 225.426 165.054 225.228C165.266 225.03 165.434 224.789 165.546 224.521Z" fill="#E8083E"/>
<path d="M248.179 305.557C247.076 306.284 246.511 306.526 245.489 305.988C243.823 304.936 242.409 303.531 241.346 301.872C241.285 301.795 241.199 301.741 241.103 301.72C241.006 301.698 240.906 301.711 240.817 301.755C240.729 301.799 240.659 301.872 240.618 301.962C240.577 302.052 240.568 302.153 240.593 302.249C241.496 304.402 242.976 306.264 244.87 307.629C245.558 307.985 246.335 308.131 247.104 308.05C247.874 307.969 248.603 307.663 249.201 307.171C251.396 305.649 253.378 303.84 255.092 301.791C257.186 299.389 259.135 296.865 260.93 294.232C260.988 294.204 261.039 294.163 261.078 294.112C261.117 294.06 261.143 294 261.153 293.936C261.164 293.873 261.16 293.808 261.14 293.746C261.121 293.684 261.087 293.629 261.041 293.583C260.995 293.537 260.939 293.503 260.878 293.484C260.816 293.464 260.751 293.46 260.688 293.471C260.624 293.481 260.564 293.507 260.512 293.546C260.461 293.585 260.419 293.636 260.392 293.694C258.783 295.222 257.234 296.831 255.768 298.371C255.709 298.433 255.651 298.495 255.592 298.556C255.442 298.714 255.293 298.871 255.145 299.027C252.478 301.832 250.108 304.327 248.179 305.557Z" fill="#028640"/>
<path fill-rule="evenodd" clip-rule="evenodd" d="M291.434 296.25C300.392 296.626 441.751 302.571 450.44 303.082C450.534 303.103 450.618 303.154 450.679 303.228C450.74 303.301 450.775 303.393 450.778 303.489C450.781 303.585 450.752 303.679 450.696 303.756C450.639 303.833 450.559 303.89 450.467 303.916C444.522 303.755 300.553 297.676 291.434 297.084C291.342 297.06 291.26 297.006 291.201 296.931C291.142 296.855 291.111 296.762 291.111 296.667C291.111 296.571 291.142 296.478 291.201 296.403C291.26 296.327 291.342 296.274 291.434 296.25ZM315.112 348.686L315.134 348.687C360.15 350.599 433.678 353.721 439.868 354.085C439.961 354.109 440.043 354.162 440.102 354.238C440.16 354.313 440.192 354.406 440.192 354.502C440.192 354.597 440.16 354.69 440.102 354.766C440.043 354.841 439.961 354.895 439.868 354.919C433.924 354.73 289.982 348.651 280.863 348.059C280.799 348.076 280.733 348.077 280.668 348.064C280.604 348.05 280.544 348.022 280.492 347.982C280.44 347.942 280.398 347.89 280.369 347.832C280.34 347.773 280.325 347.708 280.325 347.642C280.325 347.577 280.34 347.512 280.369 347.453C280.387 347.417 280.41 347.383 280.437 347.353L280.446 347.344C280.449 347.34 280.453 347.336 280.457 347.332L280.463 347.327C280.472 347.319 280.482 347.31 280.492 347.302C280.515 347.284 280.54 347.269 280.566 347.256C280.572 347.253 280.578 347.25 280.584 347.248C280.589 347.245 280.594 347.243 280.599 347.241L280.605 347.239L280.617 347.235C280.627 347.231 280.637 347.228 280.647 347.226C280.654 347.224 280.661 347.222 280.668 347.221C280.733 347.208 280.799 347.209 280.863 347.225C283.418 347.34 296.746 347.906 314.696 348.669L314.968 348.68L315.112 348.686ZM308.844 398.451L308.858 398.452L308.889 398.453C353.907 400.365 427.412 403.486 433.601 403.85C433.708 403.85 433.81 403.892 433.886 403.968C433.962 404.044 434.004 404.146 434.004 404.253C434.004 404.36 433.962 404.463 433.886 404.539C433.81 404.614 433.708 404.657 433.601 404.657C427.656 404.495 283.687 398.416 274.595 397.824C274.502 397.801 274.42 397.747 274.362 397.671C274.303 397.596 274.271 397.503 274.271 397.407C274.271 397.312 274.303 397.219 274.362 397.143C274.42 397.068 274.502 397.014 274.595 396.99C277.157 397.106 290.546 397.674 308.565 398.439L308.649 398.443L308.75 398.447L308.793 398.449L308.844 398.451ZM290.251 315.295C299.181 315.672 440.541 321.643 449.23 322.128C449.323 322.148 449.407 322.199 449.468 322.273C449.529 322.347 449.564 322.438 449.567 322.534C449.57 322.63 449.542 322.724 449.485 322.801C449.429 322.879 449.348 322.935 449.257 322.962C443.312 322.8 299.343 316.721 290.251 316.129C290.187 316.145 290.121 316.147 290.056 316.133L290.037 316.129C290.026 316.126 290.015 316.123 290.005 316.119C289.995 316.116 289.985 316.112 289.975 316.108C289.964 316.103 289.953 316.098 289.942 316.092C289.933 316.087 289.925 316.083 289.917 316.078C289.904 316.07 289.892 316.061 289.88 316.052C289.828 316.012 289.786 315.96 289.757 315.901C289.728 315.842 289.714 315.778 289.714 315.712L289.714 315.698L289.714 315.687C289.715 315.68 289.715 315.673 289.716 315.665L289.718 315.651C289.721 315.631 289.725 315.612 289.73 315.593C289.737 315.569 289.746 315.545 289.757 315.523C289.786 315.464 289.828 315.412 289.88 315.372C289.901 315.356 289.923 315.342 289.946 315.33C289.981 315.312 290.018 315.299 290.056 315.291C290.121 315.277 290.187 315.279 290.251 315.295ZM279.706 366.297C288.664 366.674 430.023 372.619 438.712 373.13C438.805 373.151 438.889 373.202 438.95 373.275C439.012 373.349 439.046 373.441 439.049 373.536C439.053 373.632 439.024 373.726 438.967 373.804C438.911 373.881 438.831 373.937 438.739 373.964C432.794 373.776 288.825 367.723 279.706 367.131C279.114 367.078 279.168 366.297 279.706 366.297ZM307.549 417.489C352.547 419.4 426.265 422.53 432.444 422.895C432.538 422.916 432.621 422.967 432.683 423.04C432.744 423.114 432.779 423.206 432.782 423.301C432.785 423.397 432.756 423.491 432.7 423.569C432.643 423.646 432.563 423.702 432.471 423.729C426.526 423.541 282.584 417.461 273.465 416.896C273.351 416.896 273.241 416.851 273.161 416.77C273.08 416.69 273.035 416.58 273.035 416.466C273.035 416.352 273.08 416.242 273.161 416.162C273.241 416.081 273.351 416.036 273.465 416.036C276.029 416.151 289.439 416.72 307.48 417.487L307.507 417.488L307.549 417.489ZM298.966 260.419C298.724 261.441 298.348 262.975 297.514 263.459C291.165 267.036 228.73 266.149 226.901 260.796C225.072 255.443 239.894 176.491 240.889 175.281C241.293 174.904 277.043 173.747 292.403 174.124L292.826 174.135C296.076 174.221 303.877 174.428 305.342 175.765C305.532 175.939 305.672 176.163 305.745 176.41C306.606 180.123 302.517 246.028 298.966 260.419ZM228.65 259.209C228.63 259.495 228.63 259.783 228.65 260.069C232.12 262.248 255.173 263.136 259.181 263.27C259.785 255.441 260.369 252.633 260.621 251.421C260.731 250.891 260.778 250.667 260.735 250.461C260.704 250.31 260.624 250.169 260.485 249.925C260.245 249.501 259.828 248.767 259.181 247.13C259.126 247.156 259.07 247.183 259.015 247.209L258.905 247.262C258.251 247.579 257.626 247.881 257.083 247.48C254.342 244.79 251.789 241.914 249.443 238.872C244.259 240.447 239.606 243.415 235.993 247.453C232.836 250.745 230.576 254.793 229.43 259.209C229.407 259.295 229.356 259.371 229.286 259.425C229.215 259.479 229.129 259.509 229.04 259.509C228.951 259.509 228.864 259.479 228.794 259.425C228.723 259.371 228.672 259.295 228.65 259.209ZM255.077 225.941C256.171 227.128 257.519 228.054 259.02 228.65C259.895 229.041 259.626 229.804 259.036 231.478C258.61 232.685 258.018 234.365 257.567 236.72C259.862 238.379 262.054 240.176 264.131 242.1C266.303 240.404 268.576 238.841 270.936 237.42C270.682 235.671 270.345 234.429 270.04 233.306C269.797 232.407 269.574 231.585 269.43 230.641C269.317 229.862 269.822 229.709 270.784 229.418C271.651 229.156 272.888 228.781 274.38 227.736C276.361 226.163 277.816 224.023 278.549 221.602C278.619 221.428 278.695 221.267 278.765 221.118C278.911 220.808 279.033 220.547 279.033 220.311C277.782 221.24 276.276 221.763 274.718 221.811C273.16 221.859 271.624 221.43 270.318 220.58C269.226 219.825 268.366 218.781 267.834 217.564C267.302 216.348 267.119 215.008 267.305 213.694C267.286 213.694 267.268 213.694 267.25 213.693L267.22 213.693C267.202 213.692 267.185 213.692 267.168 213.691C267.123 213.69 267.083 213.688 267.047 213.686L267.045 213.686C266.915 213.679 266.842 213.675 266.807 213.71C266.764 213.753 266.781 213.857 266.819 214.09C266.884 214.483 267.009 215.245 267.009 216.706C266.998 217.026 266.942 217.735 266.879 218.522L266.879 218.525C266.789 219.658 266.686 220.955 266.686 221.495C267.05 221.858 267.488 221.984 267.845 222.086C268.227 222.195 268.515 222.277 268.515 222.598C268.503 222.705 268.453 222.804 268.374 222.878C268.295 222.952 268.193 222.995 268.085 223.001C266.713 223.216 265.906 223.243 265.099 222.221C264.916 221.891 264.815 221.522 264.803 221.145C264.7 218.591 265.018 216.037 265.745 213.586H265.261C265.309 215.132 264.865 216.654 263.991 217.931C263.118 219.208 261.861 220.174 260.402 220.689C258.943 221.204 257.358 221.242 255.877 220.797C254.395 220.352 253.094 219.447 252.16 218.213C252.232 219.419 252.412 220.617 252.698 221.791C253.17 223.335 253.983 224.754 255.077 225.941ZM267.493 212.645C267.553 212.408 267.624 212.174 267.708 211.945V211.999C268.569 208.448 272.308 207.614 275.805 207.856C276.435 207.898 277.053 208.043 277.635 208.287C277.311 207.412 277.059 206.512 276.881 205.597C276.54 204.4 275.994 203.271 275.267 202.261C272.039 197.258 264.185 196.639 259.127 199.786C256.203 201.822 254.157 204.887 253.398 208.368C254.479 207.439 255.874 206.958 257.298 207.023C259.3 207.017 261.26 207.586 262.947 208.663C263.583 209.125 264.111 209.721 264.492 210.409C264.873 211.097 265.099 211.86 265.153 212.645C265.499 212.412 265.906 212.288 266.323 212.288C266.74 212.288 267.147 212.412 267.493 212.645ZM258.819 219.232C259.555 219.178 260.272 218.978 260.93 218.643C264.507 217.325 267.574 208.421 257.325 208.771C253.936 208.798 252.51 212.671 253.425 216.115C253.745 216.779 254.195 217.373 254.748 217.861C255.302 218.349 255.946 218.721 256.646 218.957C257.345 219.192 258.084 219.286 258.819 219.232ZM278.953 217.325C280.19 213.99 279.222 209.955 275.832 209.578H275.778C265.449 208.125 267.762 217.352 271.232 219.02C271.85 219.418 272.54 219.691 273.263 219.821C273.986 219.951 274.728 219.937 275.445 219.78C276.163 219.622 276.842 219.324 277.444 218.903C278.046 218.482 278.559 217.946 278.953 217.325ZM281.885 211.891L281.212 212.268V212.51C281.568 214.083 281.522 215.721 281.078 217.271C283.687 215.012 283.418 213.048 281.885 211.891ZM250.197 210.649C249.895 210.649 249.606 210.766 249.39 210.977V211.084C247.749 212.725 249.282 214.581 251.192 215.738C250.91 214.223 251.003 212.663 251.461 211.192C251.291 211.166 251.132 211.091 251.004 210.977C250.788 210.766 250.498 210.649 250.197 210.649ZM265.879 243.095C267.048 244.121 268.279 245.073 269.565 245.947V246.028C270.002 245.657 270.585 245.109 271.44 244.304L271.442 244.303L271.443 244.302C272.637 243.178 274.362 241.556 276.962 239.222C276.047 238.442 274.353 237.177 273.734 236.72L265.879 243.095ZM257.917 245.409C259.402 244.639 260.848 243.795 262.248 242.88L254.527 235.402C253.828 235.779 251.837 236.908 250.788 237.608C250.788 237.608 257.164 244.629 257.917 245.409ZM267.413 250.843C268.456 255.022 268.989 259.312 269 263.62C271.394 263.62 295.684 263.62 296.411 261.683C293.99 251.784 286.754 245.086 277.581 241.024C275.277 243.665 272.777 246.129 270.103 248.395C269.967 248.456 269.821 248.487 269.672 248.487C269.524 248.487 269.377 248.456 269.242 248.395C269.002 248.338 268.872 248.252 268.79 248.198C268.74 248.165 268.709 248.144 268.681 248.148C268.632 248.156 268.596 248.246 268.495 248.496C268.35 248.859 268.068 249.561 267.413 250.843ZM304.05 177.002C297.756 174.474 248.26 175.765 241.508 175.953C240.27 180.015 228.811 246.861 228.73 258.724C230.237 250.896 237.957 240.782 249.067 237.204C249.067 236.72 250.17 236.209 254.447 234.514C254.686 234.384 254.837 234.499 255.497 235.003C255.653 235.122 255.839 235.264 256.061 235.429C256.473 233.606 256.994 231.81 257.621 230.049C255.677 229.162 253.993 227.791 252.731 226.067C251.469 224.343 250.67 222.324 250.412 220.204C250.17 219.181 250.17 218.132 250.17 217.514C248.716 216.51 247.607 215.082 246.995 213.425C246.811 212.758 246.792 212.056 246.943 211.381C247.093 210.705 247.406 210.077 247.856 209.551C247.681 209.083 247.681 208.567 247.856 208.099L248.125 207.776C247.943 207.57 247.773 207.355 247.614 207.13C247.194 206.3 247.044 205.36 247.184 204.44C247.416 203.712 247.879 203.08 248.502 202.638C248.207 201.904 248.117 201.104 248.24 200.322C248.363 199.541 248.695 198.807 249.201 198.199C249.664 197.846 250.149 197.522 250.654 197.231C250.64 197.025 250.64 196.818 250.654 196.612C250.9 195.715 251.359 194.889 251.991 194.206C252.623 193.522 253.41 193.001 254.285 192.685C254.721 192.605 255.168 192.605 255.603 192.685C255.826 192.191 256.161 191.757 256.581 191.416C257.001 191.075 257.496 190.837 258.024 190.721C258.907 190.493 259.832 190.493 260.714 190.721C260.806 190.756 260.859 190.79 260.894 190.812C260.922 190.83 260.939 190.841 260.956 190.84C260.982 190.839 261.007 190.81 261.07 190.736C261.098 190.705 261.132 190.665 261.176 190.615L261.213 190.575L261.252 190.533C262.058 189.866 263.071 189.501 264.117 189.501C265.163 189.501 266.176 189.866 266.982 190.533C267.662 189.998 268.487 189.68 269.349 189.618C269.89 189.51 270.451 189.59 270.94 189.844C271.43 190.099 271.817 190.512 272.039 191.017C272.157 191.303 272.178 191.463 272.189 191.541C272.19 191.552 272.191 191.561 272.192 191.568C272.194 191.577 272.195 191.585 272.197 191.59C272.198 191.594 272.2 191.597 272.202 191.599L272.205 191.602C272.215 191.607 272.231 191.598 272.263 191.58C272.378 191.515 272.699 191.334 273.653 191.259C274.218 191.21 274.786 191.272 275.326 191.443C275.866 191.614 276.367 191.89 276.801 192.254C277.325 192.644 277.726 193.177 277.957 193.788C278.602 193.627 279.277 193.629 279.921 193.794C280.565 193.959 281.157 194.282 281.645 194.732C282.134 195.183 282.502 195.749 282.718 196.377C282.933 197.006 282.989 197.678 282.88 198.334C283.343 198.577 283.751 198.913 284.08 199.32C284.408 199.728 284.648 200.198 284.787 200.703C284.926 201.207 284.959 201.735 284.886 202.253C284.812 202.771 284.633 203.268 284.36 203.714C284.624 204.197 284.823 204.712 284.951 205.247C285.087 205.638 285.131 206.055 285.08 206.465C285.029 206.876 284.884 207.269 284.655 207.614C285.193 208.825 284.682 209.739 283.956 210.869C286.485 213.99 284.629 217.218 281.266 219.531C280.773 221.478 280.022 223.351 279.033 225.099C278.227 226.57 277.125 227.858 275.796 228.881C274.467 229.904 272.941 230.641 271.313 231.044C271.457 231.831 271.61 232.426 271.769 233.043C271.995 233.921 272.233 234.843 272.47 236.424L273.519 235.779C273.583 235.738 273.658 235.716 273.734 235.716C273.81 235.716 273.885 235.738 273.949 235.779C278.146 238.092 279.114 238.63 278.711 239.518C287.588 243.687 294.474 250.412 296.976 259.827C299.908 248.96 304.669 182.382 304.05 177.002ZM329.148 219.746C329.417 219.719 463.002 220.553 463.379 220.957C464.832 222.194 464.885 233.627 462.922 235.644C462.552 235.929 462.097 236.081 461.631 236.075C450.897 237.124 332.699 235.16 329.067 233.116C327.695 232.309 328.718 219.908 328.718 220.177C328.718 220.062 328.763 219.953 328.844 219.872C328.924 219.792 329.034 219.746 329.148 219.746ZM329.39 220.58C329.39 220.58 329.256 220.715 329.229 220.58H329.39ZM329.767 232.282C336.142 233.761 455.444 234.81 461.577 234.03C462.525 230.37 462.754 226.56 462.249 222.813L329.767 220.58C329.389 224.471 329.389 228.39 329.767 232.282ZM463.245 176.464C463.517 176.449 463.785 176.535 463.998 176.706C465.37 177.944 465.558 189.322 463.514 191.394C461.469 193.465 332.995 190.748 329.659 188.865C328.287 188.058 329.309 175.657 329.309 175.926C329.283 175.469 329.847 175.469 330.251 175.469C331.058 175.442 463.245 176.464 463.245 176.464ZM329.821 176.33H329.982C330.143 176.33 329.847 176.464 329.821 176.33ZM330.359 188.004C336.142 189.457 456.008 190.56 462.169 189.78V189.753C463.059 186.09 463.233 182.29 462.68 178.562L330.197 176.33C329.887 180.218 329.941 184.126 330.359 188.004ZM433.574 259.182C434.327 260.042 434.193 261.468 432.579 262.329C431.004 262.963 429.374 263.45 427.71 263.782C427.899 264.148 428.11 264.539 428.328 264.943L428.328 264.944C429.661 267.413 431.26 270.377 429.781 271.394C428.442 272.315 425.542 270.405 423.357 268.966C422.732 268.554 422.166 268.181 421.711 267.924C420.907 268.102 419.707 268.627 418.439 269.182C416.44 270.058 414.275 271.006 413.237 270.776C410.225 270.211 415.094 264.938 417.219 262.706C415.576 262.27 413.959 261.74 412.377 261.118C411.677 260.769 411.005 260.258 411.139 259.504C411.489 257.245 416.465 256.626 418.725 256.411C419.64 252.968 421.415 247.399 424.105 249.82C425.477 251.799 426.32 254.095 426.553 256.492C429.057 256.882 431.45 257.799 433.574 259.182ZM428.275 269.673C427.973 268.591 427.198 267.209 426.509 265.982C425.845 264.799 425.262 263.759 425.262 263.27C425.203 262.214 426.182 261.983 428.004 261.553C428.687 261.391 429.489 261.202 430.4 260.93C430.903 260.793 431.377 260.565 431.798 260.258C429.786 259.265 427.651 258.542 425.45 258.106C424.759 257.957 424.692 257.547 424.516 256.469C424.405 255.785 424.249 254.831 423.863 253.506C423.661 252.629 423.296 251.799 422.787 251.058C422.232 251.82 421.78 252.652 421.442 253.533C420.879 254.86 420.571 255.793 420.358 256.441C420 257.525 419.906 257.81 419.317 257.81C417.649 257.837 412.753 258.186 412.269 259.424C413.856 260.367 415.555 261.108 417.326 261.63C418.539 262.245 418.339 262.481 417.23 263.793C416.641 264.49 415.797 265.489 414.771 267.01C414.222 267.749 413.803 268.577 413.533 269.457C414.248 269.33 416.125 268.425 417.826 267.605L417.827 267.604C419.006 267.036 420.1 266.508 420.662 266.31C421.851 265.896 422.172 266.097 423.548 266.963C424.226 267.389 425.16 267.977 426.58 268.731C426.669 268.78 426.761 268.832 426.856 268.887C426.96 268.947 427.067 269.01 427.175 269.073C427.562 269.3 427.958 269.532 428.275 269.673ZM454.421 256.922C456.405 257.375 458.341 258.014 460.205 258.832C462.68 260.096 462.142 261.952 460.42 262.921C458.824 263.54 457.177 264.018 455.497 264.346C456.773 266.3 457.685 268.47 458.187 270.749C458.191 270.943 458.155 271.136 458.082 271.315C458.009 271.495 457.899 271.658 457.761 271.794C457.622 271.93 457.457 272.036 457.276 272.106C457.095 272.176 456.902 272.209 456.708 272.201C455.246 272.263 452.538 270.496 450.746 269.326C450.197 268.968 449.733 268.666 449.418 268.489C448.668 268.709 447.596 269.189 446.455 269.701L446.453 269.701C445.219 270.254 443.903 270.844 442.827 271.179C440.111 271.959 439.357 270.641 440.595 268.489C441.872 266.568 443.322 264.767 444.926 263.109C442.84 262.753 440.851 261.965 439.088 260.796C438.254 259.72 439.573 258.482 441.106 257.89C442.849 257.322 444.656 256.97 446.486 256.841C447.01 254.887 447.741 252.993 448.665 251.192C450.117 248.771 451.947 249.282 453.076 251.972C453.705 253.568 454.156 255.228 454.421 256.922ZM454.356 266.493C453.334 264.722 452.533 263.334 453.749 262.759C454.357 262.467 455.432 262.209 456.515 261.948C457.827 261.632 459.151 261.313 459.667 260.93C458.957 260.507 458.198 260.173 457.407 259.935C455.936 259.417 454.892 259.166 454.155 258.989C452.978 258.707 452.584 258.612 452.485 257.917C452.298 255.749 451.666 253.643 450.628 251.73C449.474 253.652 448.57 255.713 447.938 257.864C447.749 258.475 447.277 258.488 446.261 258.515C445.399 258.539 444.146 258.573 442.343 258.993C441.778 259.128 440.326 259.531 440.111 260.096C440.587 260.643 441.928 261.109 443.212 261.555C444.9 262.141 446.49 262.694 445.894 263.351C444.024 265.3 442.504 267.557 441.402 270.022L442.209 269.726C443.35 269.333 444.54 268.73 445.659 268.164C447.52 267.222 449.183 266.381 450.09 266.767C450.209 266.817 450.882 267.219 451.75 267.738L451.751 267.739C453.252 268.636 455.332 269.88 456.116 270.238C455.749 268.907 455.008 267.622 454.356 266.493ZM349.834 117.284C347.558 119.108 344.671 119.994 341.764 119.759C334.932 119.49 330.466 110.774 337.783 105.959C347.144 99.7991 356.586 111.259 349.834 117.284ZM345.127 105.986C342.882 105.684 340.606 106.262 338.778 107.6C333.398 111.285 336.895 117.499 341.818 117.768C347.467 118.091 352.336 114.944 350.507 109.698C349.956 108.707 349.184 107.857 348.251 107.213C347.318 106.569 346.249 106.149 345.127 105.986ZM110.453 238.09C110.511 238.084 110.572 238.108 110.666 238.146C111.662 238.576 109.375 242.477 108.434 243.58C107.094 245.118 105.535 246.451 103.807 247.534C103.269 247.83 100.014 249.444 99.6641 248.798C99.4784 248.455 100.408 247.688 101.901 246.454C103.219 245.366 104.976 243.915 106.793 242.073C108.729 240.11 109.563 239.074 109.98 238.556C110.251 238.22 110.346 238.102 110.453 238.09ZM149.214 64.2911C150.532 64.1297 152.334 64.6946 152.2 65.3402C150.18 66.4066 147.983 67.0991 145.717 67.3846C145.098 66.9811 146.309 64.6677 149.214 64.2911ZM161.104 75.5622C160.298 75.6941 159.472 75.6105 158.71 75.3201C158.653 75.306 158.6 75.2808 158.553 75.2462C158.506 75.2115 158.467 75.1679 158.437 75.118C158.407 75.068 158.387 75.0126 158.378 74.955C158.37 74.8974 158.373 74.8386 158.387 74.7821C158.401 74.7256 158.426 74.6724 158.461 74.6256C158.495 74.5788 158.539 74.5393 158.589 74.5093C158.639 74.4793 158.694 74.4595 158.752 74.4509C158.81 74.4423 158.868 74.4452 158.925 74.4593C159.679 74.3627 160.384 74.0336 160.942 73.5178C160.779 72.8351 160.554 72.1688 160.27 71.5272C159.774 70.4298 159.36 69.2968 159.032 68.1378C158.984 67.9771 158.939 67.8305 158.899 67.6965C158.51 66.4171 158.471 66.2908 158.763 66.1203C159.678 65.5285 163.121 70.9892 163.121 73.464C163.154 73.8187 163.076 74.1747 162.897 74.483C162.719 74.7914 162.45 75.0368 162.126 75.1856C161.808 75.3663 161.463 75.4935 161.104 75.5622ZM158.58 86.7784C158.243 86.4819 157.975 86.1149 157.795 85.7035C156.262 82.5831 159.893 78.7902 162.476 81.7761C162.906 82.0989 162.422 82.7714 161.991 82.4217C161.747 82.2922 161.475 82.2244 161.198 82.2244C160.921 82.2244 160.649 82.2922 160.404 82.4217C160.132 82.6397 159.91 82.9132 159.752 83.2241C159.595 83.5349 159.505 83.8758 159.49 84.224C159.503 84.5561 159.599 84.8797 159.768 85.166C159.937 85.4522 160.174 85.6923 160.458 85.8649C161.199 86.2862 161.697 86.2525 162.032 86.2297C162.317 86.2104 162.484 86.199 162.583 86.4836C162.611 86.5907 162.599 86.7041 162.55 86.8031C162.5 86.902 162.417 86.9796 162.314 87.0216C161.941 87.2719 161.518 87.4372 161.075 87.5059C160.631 87.5747 160.177 87.5452 159.746 87.4194C159.315 87.2937 158.917 87.0749 158.58 86.7784ZM152.204 69.8471C152.123 69.4863 152.065 69.229 152.065 68.9717C152.026 68.615 152.13 68.2573 152.355 67.9773C152.579 67.6973 152.906 67.518 153.262 67.4788C153.619 67.4395 153.977 67.5436 154.257 67.7681C154.537 67.9926 154.716 68.3191 154.755 68.6758C154.778 68.8798 154.834 69.1171 154.891 69.3597C154.97 69.6931 155.051 70.0365 155.051 70.3167C155.106 70.6659 155.021 71.0226 154.814 71.3095C154.608 71.5965 154.297 71.7906 153.948 71.85C153.773 71.8809 153.594 71.8767 153.421 71.8379C153.247 71.7991 153.083 71.7263 152.938 71.6237C152.793 71.5212 152.67 71.3909 152.576 71.2405C152.481 71.09 152.417 70.9223 152.388 70.7471C152.323 70.3793 152.258 70.0898 152.204 69.8471ZM164.133 69.4345C163.891 69.2268 163.732 68.938 163.686 68.622C163.557 67.8687 163.462 67.4426 163.388 67.1095L163.387 67.1039L163.386 67.1013C163.369 67.0211 163.352 66.9463 163.336 66.8735C163.294 66.5168 163.394 66.1577 163.616 65.8752C163.838 65.5927 164.163 65.4099 164.52 65.3671C164.877 65.3243 165.236 65.425 165.518 65.6469C165.801 65.8689 165.984 66.194 166.026 66.5507C166.047 66.6754 166.068 66.7721 166.098 66.912C166.146 67.1341 166.217 67.4654 166.349 68.1916C166.376 68.3847 166.361 68.5812 166.306 68.7681C166.251 68.9551 166.157 69.1281 166.029 69.2757C165.902 69.4234 165.745 69.5422 165.568 69.6243C165.391 69.7063 165.199 69.7498 165.004 69.7518C164.685 69.7551 164.375 69.6423 164.133 69.4345ZM204.305 241.132C204.628 241.455 204.117 241.939 203.794 241.616C195.885 234.461 193.976 225.476 196.719 215.496C196.704 215.444 196.702 215.389 196.712 215.336C196.722 215.283 196.744 215.233 196.776 215.189C196.809 215.146 196.851 215.111 196.9 215.087C196.948 215.063 197.001 215.05 197.056 215.05C197.11 215.05 197.163 215.063 197.212 215.087C197.26 215.111 197.302 215.146 197.335 215.189C197.367 215.233 197.389 215.283 197.399 215.336C197.409 215.389 197.407 215.444 197.392 215.496C196.235 225.395 197.795 233.304 204.305 241.132Z" fill="black"/>
<path d="M229.699 407.024C228.888 406.894 228.137 406.519 227.547 405.948C226.041 404.724 225.374 403.713 224.958 403.081C224.578 402.505 224.406 402.245 223.996 402.424C223.946 402.452 223.902 402.49 223.867 402.535C223.832 402.58 223.806 402.631 223.791 402.686C223.776 402.741 223.772 402.799 223.78 402.855C223.787 402.912 223.806 402.967 223.835 403.016C224.803 405.329 227.17 408.907 229.726 408.961C232.954 408.961 238.226 402.989 240.109 400.595C241.556 398.755 242.749 397.026 243.554 395.86C243.796 395.509 244.003 395.209 244.171 394.973C244.548 394.569 243.929 394.031 243.552 394.435C241.701 396.181 239.856 398.112 238.122 399.926C234.514 403.7 231.388 406.97 229.699 407.024Z" fill="#028640"/>
<path d="M235.94 357.286C235.145 357.133 234.408 356.76 233.814 356.21C232.307 354.972 231.596 353.946 231.158 353.312C230.767 352.748 230.593 352.496 230.264 352.686C230.212 352.709 230.167 352.742 230.129 352.784C230.091 352.825 230.063 352.874 230.045 352.927C230.027 352.98 230.021 353.036 230.026 353.092C230.031 353.148 230.048 353.202 230.075 353.251C231.071 355.564 233.438 359.142 235.966 359.196C239.194 359.196 244.467 353.224 246.377 350.83C247.704 349.166 248.785 347.592 249.574 346.444L249.576 346.441C249.921 345.939 250.21 345.519 250.439 345.208C250.51 345.126 250.546 345.019 250.538 344.91C250.531 344.802 250.48 344.701 250.398 344.629C250.316 344.558 250.209 344.522 250.101 344.53C249.992 344.537 249.891 344.588 249.82 344.67C247.955 346.44 246.12 348.363 244.404 350.161C240.774 353.965 237.675 357.213 235.94 357.286Z" fill="#028640"/>
<path d="M258.776 212.51C258.423 212.472 258.07 212.575 257.793 212.797C257.516 213.019 257.337 213.341 257.297 213.693V215.469C257.297 215.826 257.439 216.168 257.691 216.42C257.943 216.672 258.285 216.814 258.642 216.814C258.999 216.814 259.341 216.672 259.593 216.42C259.845 216.168 259.987 215.826 259.987 215.469V214.043C260.013 213.862 260.002 213.678 259.955 213.501C259.908 213.325 259.825 213.16 259.712 213.016C259.598 212.873 259.457 212.754 259.296 212.667C259.135 212.58 258.958 212.526 258.776 212.51ZM273.491 217.002C273.664 217.025 273.84 217.013 274.009 216.966C274.177 216.92 274.335 216.841 274.473 216.733C274.61 216.626 274.725 216.492 274.811 216.339C274.896 216.187 274.95 216.019 274.97 215.845V214.097C274.97 213.74 274.828 213.398 274.576 213.146C274.324 212.894 273.982 212.752 273.625 212.752C273.271 212.759 272.932 212.903 272.682 213.154C272.431 213.404 272.287 213.742 272.28 214.097V215.523C272.262 215.699 272.278 215.878 272.329 216.048C272.38 216.219 272.464 216.377 272.577 216.515C272.689 216.652 272.828 216.766 272.985 216.85C273.142 216.934 273.314 216.985 273.491 217.002ZM262.3 226.202C264.5 226.9 266.839 227.039 269.106 226.605C269.375 226.605 269.348 226.175 269.106 226.202L267.411 225.96C265.737 225.821 264.055 225.821 262.381 225.96C262.112 225.745 262.031 226.175 262.3 226.202Z" fill="#1C1A27"/>
</svg>
