<svg width="24" height="24" viewBox="0 0 24 24" fill="none" xmlns="http://www.w3.org/2000/svg">
<g id="phone_in_talk">
<mask id="mask0_1498_2313" style="mask-type:alpha" maskUnits="userSpaceOnUse" x="0" y="0" width="24" height="24">
<rect id="Bounding box" width="24" height="24" fill="#D9D9D9"/>
</mask>
<g mask="url(#mask0_1498_2313)">
<path id="phone_in_talk_2" d="M19.077 11.4498C18.9615 9.56395 18.2438 7.96103 16.924 6.64103C15.6042 5.3212 14.0013 4.60361 12.1155 4.48828V3.48828C13.1988 3.53961 14.2126 3.78028 15.1568 4.21028C16.1009 4.64045 16.9291 5.21162 17.6413 5.92378C18.3534 6.63595 18.9246 7.4642 19.3548 8.40853C19.7849 9.3527 20.0257 10.3664 20.077 11.4498H19.077ZM15.077 11.4498C14.9615 10.6806 14.6313 10.0204 14.0865 9.46903C13.5417 8.9177 12.8847 8.59078 12.1155 8.48828V7.48828C13.1655 7.59078 14.0593 8.0142 14.797 8.75853C15.5348 9.5027 15.9615 10.3998 16.077 11.4498H15.077ZM19.2 19.9998C17.3987 19.9998 15.5926 19.585 13.7818 18.7555C11.9709 17.926 10.3027 16.7484 8.777 15.2228C7.26417 13.6971 6.08975 12.0234 5.25375 10.2018C4.41792 8.37995 4 6.57928 4 4.79978V3.99978H8.4385L9.2865 8.08253L6.5905 10.592C7.04683 11.383 7.51925 12.1054 8.00775 12.7593C8.49625 13.4133 9.00517 14.003 9.5345 14.5285C10.0692 15.0889 10.6721 15.6123 11.3433 16.0988C12.0144 16.5853 12.7795 17.0651 13.6385 17.5383L16.25 14.8305L20 15.5863V19.9998H19.2Z" fill="#1A1A1A"/>
</g>
</g>
</svg>
