<svg width="30" height="30" viewBox="0 0 30 30" fill="none" xmlns="http://www.w3.org/2000/svg">
<g id="print_add">
<mask id="mask0_3209_30903" style="mask-type:alpha" maskUnits="userSpaceOnUse" x="0" y="0" width="30" height="30">
<rect id="Bounding box" width="30" height="30" fill="#D9D9D9"/>
</mask>
<g mask="url(#mask0_3209_30903)">
<path id="print_add_2" d="M22.8725 25.9976V22.2476H19.1225V20.3726H22.8725V16.6226H24.7475V20.3726H28.4975V22.2476H24.7475V25.9976H22.8725ZM8.12497 25.6251V20.6251H3.4856V13.5098C3.4856 12.6243 3.7881 11.8822 4.3931 11.2832C4.9981 10.6842 5.73726 10.3848 6.6106 10.3848H23.3893C24.2748 10.3848 25.017 10.6842 25.6159 11.2832C26.2149 11.8822 26.5143 12.6243 26.5143 13.5098V14.5216C26.2275 14.3854 25.9278 14.2652 25.6153 14.161C25.3028 14.0568 24.9775 13.9856 24.6393 13.9473V13.5866C24.6393 13.2325 24.5196 12.9228 24.28 12.6576C24.0404 12.3924 23.7435 12.2598 23.3893 12.2598H6.6106C6.25643 12.2598 5.95955 12.3796 5.71997 12.6191C5.48039 12.8587 5.3606 13.1556 5.3606 13.5098V18.7501H8.12497V16.5385H18.1393C17.8941 16.8127 17.6766 17.1039 17.4868 17.4123C17.2968 17.7208 17.1346 18.0546 17 18.4135H9.99997V23.7501H16.7956C16.9014 24.0961 17.0516 24.4234 17.2462 24.732C17.441 25.0405 17.6465 25.3382 17.8628 25.6251H8.12497ZM20 10.3848V6.63477H9.99997V10.3848H8.12497V4.75977H21.875V10.3848H20Z" fill="#CCCCCF"/>
</g>
</g>
</svg>
