<svg width="37" height="37" viewBox="0 0 37 37" fill="none" xmlns="http://www.w3.org/2000/svg">
<g id="print">
<mask id="mask0_1209_22005" style="mask-type:alpha" maskUnits="userSpaceOnUse" x="0" y="0" width="37" height="38">
<rect id="Bounding box" y="0.000976562" width="37" height="37" fill="#D9D9D9"/>
</mask>
<g mask="url(#mask0_1209_22005)">
<path id="print_2" d="M24.6673 12.3343V7.70931H12.334V12.3343H9.25065V4.62598H27.7507V12.3343H24.6673ZM27.7507 19.2718C28.1875 19.2718 28.5536 19.1241 28.8491 18.8286C29.1446 18.5331 29.2923 18.1669 29.2923 17.7301C29.2923 17.2933 29.1446 16.9272 28.8491 16.6317C28.5536 16.3362 28.1875 16.1885 27.7507 16.1885C27.3138 16.1885 26.9477 16.3362 26.6522 16.6317C26.3567 16.9272 26.209 17.2933 26.209 17.7301C26.209 18.1669 26.3567 18.5331 26.6522 18.8286C26.9477 19.1241 27.3138 19.2718 27.7507 19.2718ZM24.6673 29.2926V23.126H12.334V29.2926H24.6673ZM27.7507 32.376H9.25065V26.2093H3.08398V16.9593C3.08398 15.6489 3.53364 14.5505 4.43294 13.664C5.33225 12.7775 6.42426 12.3343 7.70898 12.3343H29.2923C30.6027 12.3343 31.7012 12.7775 32.5876 13.664C33.4741 14.5505 33.9173 15.6489 33.9173 16.9593V26.2093H27.7507V32.376ZM30.834 23.126V16.9593C30.834 16.5225 30.6862 16.1564 30.3908 15.8609C30.0953 15.5654 29.7291 15.4176 29.2923 15.4176H7.70898C7.27218 15.4176 6.90603 15.5654 6.61055 15.8609C6.31506 16.1564 6.16732 16.5225 6.16732 16.9593V23.126H9.25065V20.0426H27.7507V23.126H30.834Z" fill="#6E6D75"/>
</g>
</g>
</svg>
