<svg width="37" height="37" viewBox="0 0 37 37" fill="none" xmlns="http://www.w3.org/2000/svg">
<g id="print">
<mask id="mask0_865_14541" style="mask-type:alpha" maskUnits="userSpaceOnUse" x="0" y="0" width="37" height="37">
<rect id="Bounding box" width="37" height="37" fill="#D9D9D9"/>
</mask>
<g mask="url(#mask0_865_14541)">
<path id="print_2" d="M24.6666 12.3333V7.70833H12.3333V12.3333H9.24992V4.625H27.7499V12.3333H24.6666ZM27.7499 19.2708C28.1867 19.2708 28.5529 19.1231 28.8484 18.8276C29.1438 18.5321 29.2916 18.166 29.2916 17.7292C29.2916 17.2924 29.1438 16.9262 28.8484 16.6307C28.5529 16.3352 28.1867 16.1875 27.7499 16.1875C27.3131 16.1875 26.947 16.3352 26.6515 16.6307C26.356 16.9262 26.2083 17.2924 26.2083 17.7292C26.2083 18.166 26.356 18.5321 26.6515 18.8276C26.947 19.1231 27.3131 19.2708 27.7499 19.2708ZM24.6666 29.2917V23.125H12.3333V29.2917H24.6666ZM27.7499 32.375H9.24992V26.2083H3.08325V16.9583C3.08325 15.6479 3.5329 14.5495 4.43221 13.663C5.33152 12.7766 6.42353 12.3333 7.70825 12.3333H29.2916C30.602 12.3333 31.7004 12.7766 32.5869 13.663C33.4734 14.5495 33.9166 15.6479 33.9166 16.9583V26.2083H27.7499V32.375ZM30.8333 23.125V16.9583C30.8333 16.5215 30.6855 16.1554 30.39 15.8599C30.0945 15.5644 29.7284 15.4167 29.2916 15.4167H7.70825C7.27145 15.4167 6.9053 15.5644 6.60981 15.8599C6.31433 16.1554 6.16659 16.5215 6.16659 16.9583V23.125H9.24992V20.0417H27.7499V23.125H30.8333Z" fill="#6E6D75"/>
</g>
</g>
</svg>
