<svg width="547" height="547" viewBox="0 0 547 547" fill="none" xmlns="http://www.w3.org/2000/svg">
<path fill-rule="evenodd" clip-rule="evenodd" d="M337.277 144.792C338.304 145.174 339.397 145.347 340.491 145.3C341.586 145.253 342.66 144.987 343.65 144.519C343.001 145.986 341.846 147.17 340.395 147.855C340.363 147.864 340.332 147.88 340.306 147.9C340.28 147.921 340.258 147.947 340.241 147.976C340.225 148.005 340.214 148.037 340.21 148.07C340.206 148.104 340.208 148.138 340.217 148.17C340.226 148.202 340.241 148.232 340.262 148.259C340.283 148.285 340.309 148.307 340.338 148.324C340.367 148.34 340.399 148.351 340.432 148.355C340.466 148.359 340.499 148.357 340.532 148.348C344.47 147.555 345.455 143.261 345.674 142.878C345.707 142.739 345.693 142.594 345.634 142.465C345.574 142.336 345.472 142.231 345.345 142.167C344.06 141.428 345.345 144.163 337.441 144.245C337.405 144.234 337.368 144.231 337.33 144.235C337.293 144.238 337.257 144.249 337.224 144.267C337.191 144.285 337.162 144.309 337.138 144.338C337.114 144.367 337.096 144.401 337.086 144.437C337.075 144.473 337.071 144.51 337.075 144.548C337.079 144.585 337.09 144.621 337.108 144.654C337.126 144.687 337.15 144.716 337.179 144.74C337.208 144.764 337.241 144.781 337.277 144.792ZM171.646 154.447C171.697 154.497 171.765 154.525 171.837 154.525C171.909 154.525 171.977 154.497 172.028 154.447C172.384 153.845 170.907 154.748 171.044 149.496C172.129 150.323 173.431 150.817 174.791 150.919C174.829 150.931 174.869 150.935 174.908 150.93C174.947 150.926 174.985 150.912 175.019 150.892C175.053 150.871 175.082 150.843 175.104 150.81C175.126 150.777 175.14 150.739 175.146 150.7C175.154 150.624 175.134 150.548 175.088 150.487C175.042 150.426 174.975 150.385 174.9 150.372C174.413 150.172 173.938 149.944 173.478 149.688C172.454 149.174 171.628 148.338 171.126 147.308C171.072 147.167 170.974 147.048 170.845 146.968C170.716 146.889 170.565 146.855 170.415 146.871C169.157 146.871 169.129 153.353 171.646 154.447ZM174.107 133.059C175.272 132.724 176.304 132.036 177.061 131.09C177.132 131.06 177.189 131.003 177.22 130.931C177.25 130.86 177.252 130.78 177.225 130.707C177.175 130.665 177.112 130.641 177.047 130.641C176.982 130.641 176.919 130.665 176.869 130.707C176.274 130.665 175.68 130.795 175.156 131.081C174.632 131.367 174.202 131.797 173.916 132.321C173.834 132.468 173.77 132.624 173.724 132.786C173.451 132.95 173.861 133.333 174.107 133.059Z" fill="black"/>
<path fill-rule="evenodd" clip-rule="evenodd" d="M483.081 267.675C482.507 233.898 478.705 20.7046 478.705 20.7046C478.705 20.6053 478.682 20.5073 478.64 20.4176C478.597 20.3279 478.535 20.2485 478.459 20.1849C478.387 20.1163 478.3 20.0657 478.205 20.0372C478.11 20.0087 478.01 20.0031 477.912 20.0208L254.353 49.5588C254.08 49.5588 254.217 49.805 254.217 50.0785V198.315C250.15 198.315 183.099 200.614 179.319 200.744C179.209 200.748 179.153 200.75 179.153 200.75C179.08 200.75 179.011 200.778 178.959 200.83C178.908 200.881 178.879 200.951 178.879 201.023C178.879 201.061 178.887 201.099 178.902 201.134C178.918 201.17 178.94 201.201 178.969 201.227C178.997 201.253 179.031 201.272 179.067 201.284C179.103 201.296 179.142 201.3 179.18 201.297L179.471 201.291L218.47 200.503C218.47 201.597 220.357 245.057 220.494 246.998C220.713 250.609 221.588 262.096 221.643 262.588C221.279 262.464 220.923 262.317 220.576 262.15C211.828 258.409 202.825 255.292 193.636 252.824C190.901 252.14 188.412 251.566 185.978 251.101C185.659 236.391 183.984 221.743 180.973 207.341C180.517 205.302 180.017 203.278 179.471 201.291C179.42 201.108 179.37 200.926 179.319 200.744C177.066 192.702 174.042 185.293 170.033 179.991C167.201 176.178 163.964 172.685 160.379 169.571L160.57 162.35C162.416 162.868 164.316 163.171 166.232 163.253C169.533 163.527 172.831 162.7 175.613 160.901C178.785 158.658 181.083 154.446 180.919 146.87C182.505 146.87 184.201 147.308 184.201 146.214C184.201 144.327 178.484 132.812 178.348 127.643C178.732 127.534 179.126 127.461 179.524 127.424C181.876 127.424 195.25 124.334 196.098 123.076C196.583 122.451 196.834 121.678 196.809 120.888L178.074 123.623C172.604 109.237 170.115 106.283 164.399 105.189C155.565 103.52 139.784 106.201 134.943 113.64C132.208 117.606 132.208 125.537 132.208 130.734C132.148 132.262 132.249 133.793 132.509 135.301V135.903C132.702 136.84 132.986 137.756 133.357 138.638C133.829 139.807 134.435 140.917 135.162 141.947C136.143 143.344 137.343 144.572 138.717 145.585C138.417 146.296 136.365 151.055 135.982 151.875C135.6 152.696 133.658 157.619 133.412 158.248C123.073 158.631 112.434 164.511 103.928 180.511C97.7485 192.774 93.7417 206.016 92.0857 219.648C90.675 229.789 89.9531 240.014 89.9251 250.253C89.6562 260.58 90.1865 270.913 91.5114 281.159C91.5114 281.159 91.8943 295.134 92.5233 304.652C91.3746 304.652 90.4174 306.457 90.0892 307.852C89.7776 309.141 89.6487 310.466 89.7063 311.791C88.8487 310.401 87.7886 309.147 86.561 308.071C84.7012 306.539 81.8568 305.172 79.7509 307.168C77.0159 309.903 75.2108 317.233 74.445 321.008C71.3544 314.416 65.775 313.131 62.2469 322.949C57.4059 313.049 52.7564 313.842 51.553 319.531C50.0214 315.948 47.2044 313.131 45.2078 316.221C44.5077 317.483 44.0181 318.85 43.7583 320.269C41.16 315.155 37.0302 316.003 36.0182 318.601C35.5964 320.075 35.5964 321.639 36.0182 323.113C36.0182 323.186 36.047 323.256 36.0983 323.307C36.1496 323.358 36.2192 323.387 36.2917 323.387C36.3643 323.387 36.4338 323.358 36.4851 323.307C36.5364 323.256 36.5652 323.186 36.5652 323.113C36.1907 321.772 36.1907 320.353 36.5652 319.011C36.7605 318.604 37.0533 318.252 37.4176 317.986C37.7818 317.72 38.2062 317.549 38.6529 317.486C39.0996 317.424 39.5548 317.473 39.9779 317.63C40.401 317.786 40.7789 318.044 41.078 318.382C43.1566 320.214 43.0745 322.676 43.813 322.621C43.9265 322.606 44.0325 322.556 44.1159 322.477C44.1993 322.399 44.256 322.296 44.2779 322.184C44.5241 321.91 45.536 312.064 49.283 318.327C50.0497 319.696 50.6379 321.158 51.0334 322.676C51.0723 322.828 51.1669 322.96 51.2986 323.047C51.4302 323.133 51.5893 323.166 51.7445 323.141C51.8972 323.116 52.0372 323.041 52.1416 322.927C52.2459 322.812 52.3084 322.666 52.3188 322.512C52.3188 322.238 52.9205 312.31 58.3085 319.476C59.5927 321.271 60.6664 323.207 61.5084 325.247C61.562 325.388 61.6608 325.508 61.7894 325.587C61.9181 325.666 62.0693 325.7 62.2195 325.684C62.3643 325.68 62.5032 325.626 62.6129 325.532C62.7225 325.437 62.7961 325.307 62.8212 325.165C63.3135 324.317 66.0759 313.185 71.3818 319.175C72.518 320.557 73.3561 322.158 73.8433 323.879C73.8758 324.034 73.9628 324.171 74.0884 324.266C74.2139 324.362 74.3696 324.409 74.527 324.399C74.6847 324.39 74.8348 324.328 74.9536 324.224C75.0725 324.12 75.1533 323.98 75.1834 323.825C75.1834 323.551 77.7543 307.059 81.9936 307.415C83.3667 307.569 84.6622 308.131 85.7132 309.028C87.3628 310.426 88.7198 312.136 89.7063 314.061C89.7389 314.166 89.812 314.254 89.9094 314.305C90.0069 314.356 90.1207 314.367 90.2259 314.334C90.3311 314.302 90.419 314.228 90.4703 314.131C90.5216 314.034 90.5321 313.92 90.4994 313.814C90.2004 311.948 90.2004 310.047 90.4994 308.18C90.5683 307.613 90.7701 307.069 91.0885 306.594C91.4069 306.119 91.8329 305.725 92.3319 305.445C95.9968 358.805 108.003 454.612 112.708 491.152L9.21521 518.666C9.14267 518.688 9.08175 518.737 9.04585 518.804C9.00995 518.871 9.002 518.949 9.02376 519.022C9.04552 519.094 9.09521 519.155 9.16189 519.191C9.22856 519.227 9.30678 519.235 9.37931 519.213L113.036 492.301C114.13 500.697 114.786 505.62 114.786 505.62H116.236C114.595 521.319 116.017 520.034 120.858 519.487C126.207 518.748 131.512 517.716 136.748 516.396C140.307 515.625 143.786 514.527 147.141 513.114C147.767 512.822 148.355 512.454 148.892 512.02C149.195 511.784 149.431 511.473 149.575 511.117C151.216 506.687 134.752 507.781 130.02 508.136V504.553H131.634L133.685 486.803L149.685 482.564C155.319 507.808 159.613 526.762 159.613 526.762H161.527C161.336 528.594 161.035 532.232 161.035 535.103C161.035 540.382 161.582 540.054 166.259 539.534C171.625 538.863 176.949 537.886 182.204 536.608C203.181 531.603 197.711 526.652 175.449 528.403V526.844H180.071C180.071 511.883 180.289 493.832 180.618 474.359L255.611 454.011C255.681 453.998 255.745 453.96 255.79 453.905C255.835 453.85 255.859 453.781 255.858 453.71C255.858 453.71 255.365 269.726 255.338 268.222L262.257 267.347C262.257 269.343 261.41 453.71 261.41 453.71C261.41 453.79 261.441 453.866 261.498 453.923C261.554 453.979 261.631 454.011 261.71 454.011C261.785 454.004 261.855 453.969 261.906 453.913C261.956 453.858 261.984 453.785 261.984 453.71C261.984 453.71 262.832 269.125 262.832 267.265L268.821 266.499C268.821 269.562 268.493 455.898 268.493 455.898C268.492 455.99 268.514 456.081 268.557 456.162C268.6 456.243 268.663 456.312 268.739 456.363C268.82 456.402 268.909 456.422 268.999 456.422C269.089 456.422 269.178 456.402 269.259 456.363L321.853 441.183C323.385 451.002 325.108 460.657 327.104 469.956L327.515 470.475C328.309 470.766 329.122 471.003 329.949 471.186L329.73 474.906C329.732 475.05 329.791 475.188 329.894 475.289V477.149L327.925 478.079C327.268 478.407 326.503 478.817 325.709 479.282L324.561 480.02C324.014 480.403 323.494 480.814 322.92 481.251C322.877 481.301 322.854 481.364 322.854 481.429C322.854 481.494 322.877 481.557 322.92 481.607C321.197 482.373 311.405 487.077 312.828 492.027C314.934 499.466 347.289 485.545 347.289 485.545V482.81C347.354 482.798 347.414 482.765 347.458 482.715C347.503 482.666 347.53 482.603 347.535 482.537C347.642 482.215 347.725 481.886 347.781 481.552C347.808 481.206 347.808 480.859 347.781 480.513V477.285C347.745 477.027 347.69 476.771 347.617 476.52C347.545 476.184 347.444 475.854 347.316 475.535C347.27 475.386 347.216 475.24 347.152 475.097C347.188 474.982 347.188 474.858 347.152 474.742L346.878 469.846C347.398 469.6 347.945 469.354 348.465 469.053C348.557 469.01 348.638 468.945 348.7 468.865C348.762 468.784 348.803 468.689 348.82 468.588C348.82 468.588 354.29 433.252 354.454 432.103C354.974 432.103 359.924 430.872 361.702 430.408C362.687 430.161 375.733 426.469 376.936 426.114L383.883 423.816C389.353 435.604 395.561 447.912 402.864 460.684L403.466 461.012C403.466 461.012 405.052 461.012 407.377 460.848C408.99 465.361 408.99 465.443 409.346 465.552C409.51 466.209 409.647 466.646 409.838 467.303C409.209 467.959 404.368 473.484 404.97 474.113C403.684 475.48 396.437 483.549 399.5 487.596C404.286 493.668 428.901 468.451 428.901 468.451L427.834 465.88C428.573 465.47 426.768 460.957 424.607 458.742C424.62 458.651 424.62 458.559 424.607 458.469L423.267 456.199C424.443 455.269 426.275 452.971 426.002 452.069C426.002 452.069 420.204 434.428 415.992 414.681L424.197 412.384C424.197 412.384 424.58 412.22 424.58 412.083V77.3464C424.58 77.0456 424.58 76.7447 424.197 76.7174L288.623 57.7638L463.663 38.6188C463.663 45.1281 472.141 508.765 472.141 508.765C472.148 508.836 472.178 508.902 472.228 508.952C472.278 509.002 472.344 509.033 472.415 509.039C472.453 509.039 472.491 509.031 472.526 509.016C472.561 509 472.593 508.978 472.619 508.949C472.644 508.921 472.664 508.887 472.676 508.851C472.688 508.815 472.692 508.776 472.688 508.738L464.948 37.8257C464.949 37.7287 464.93 37.6326 464.893 37.5432C464.855 37.4539 464.799 37.3731 464.729 37.306C464.658 37.2374 464.571 37.1868 464.476 37.1583C464.381 37.1298 464.28 37.1242 464.182 37.1419L270.189 58.6664C269.915 58.6664 269.259 58.9125 269.259 59.186V197.96L263.57 198.097V55.8767L468.695 30.1677C468.859 38.5641 478.815 511.719 478.815 511.719C478.821 511.784 478.848 511.846 478.891 511.894C478.898 511.901 478.905 511.908 478.912 511.914C478.968 511.965 479.04 511.993 479.116 511.993C479.154 511.993 479.192 511.985 479.227 511.97C479.262 511.954 479.294 511.931 479.319 511.903C479.345 511.875 479.365 511.841 479.377 511.805C479.389 511.768 479.393 511.73 479.389 511.692L470.09 29.4292C470.089 29.3299 470.067 29.232 470.024 29.1423C469.982 29.0525 469.92 28.9731 469.844 28.9096C469.69 28.7864 469.494 28.7276 469.297 28.7455L263.406 54.8921C263.133 54.8921 262.75 55.1656 262.75 55.4391V198.124L255.064 198.315V50.6255L477.338 21.4977C477.475 29.0737 486.527 514.646 486.527 514.646C486.544 514.699 486.576 514.747 486.618 514.784C486.624 514.789 486.63 514.794 486.636 514.798C486.688 514.836 486.75 514.857 486.815 514.857C486.879 514.857 486.941 514.836 486.993 514.798C487.045 514.76 487.083 514.707 487.102 514.646C487.102 514.646 483.492 292.646 483.081 267.675ZM184.118 234.281C185.103 243.799 185.158 248.503 185.322 251.074C181.838 250.306 178.248 250.148 174.71 250.609C174.674 250.615 174.639 250.629 174.608 250.649C174.578 250.669 174.551 250.695 174.531 250.726C174.51 250.757 174.496 250.791 174.49 250.827C174.483 250.864 174.483 250.901 174.491 250.937C174.498 250.973 174.512 251.008 174.532 251.038C174.552 251.069 174.578 251.096 174.609 251.116C174.639 251.137 174.674 251.151 174.71 251.157C174.746 251.164 174.783 251.164 174.819 251.156C178.949 250.363 185.978 251.675 193.335 253.672C202.439 256.23 211.35 259.429 220.002 263.244C222.747 264.369 225.656 265.043 228.617 265.241C232.972 265.637 237.348 265.746 241.718 265.569H242.046C244.517 264.001 247.137 262.682 249.868 261.631C250.031 261.611 250.197 261.611 250.36 261.631C248.515 264.262 246.397 266.692 244.042 268.878C243.938 268.977 243.868 269.106 243.841 269.247C243.814 269.388 243.832 269.533 243.892 269.663C243.953 269.794 244.053 269.901 244.178 269.971C244.303 270.042 244.447 270.071 244.589 270.054L249.731 269.48C248.715 271.448 247.353 273.218 245.711 274.704C240.624 278.971 235.755 273.09 221.807 274.485C216.337 275.032 201.349 280.776 186.908 282.69C178.348 283.894 169.979 283.784 163.962 280.311C158.492 277.248 154.471 271.066 151.353 264.229C147.329 254.779 144.49 244.866 142.902 234.718C145.938 234.718 182.259 234.363 184.146 234.308L184.118 234.281ZM248.117 268.031L246.34 268.222L247.926 266.554C247.896 267.054 247.961 267.555 248.117 268.031ZM186.197 283.976C200.556 282.198 216.61 276.154 221.916 275.771C230.586 274.895 235.318 276.919 241.061 277.603C247.379 278.369 251.263 269.097 251.509 268.824L254.791 268.413C254.791 270.027 254.545 317.643 254.545 319.367C250.087 308.18 242.921 308.262 241.936 316.632C240.952 313.897 238.818 308.809 236.029 308.126C233.239 307.442 231.899 309.685 231.078 312.146C229.82 310.15 227.687 307.524 225.335 307.278C222.983 307.032 220.275 311.408 219.099 313.814C218.894 312.696 218.516 311.616 217.978 310.615C217.759 310.117 217.434 309.674 217.024 309.317C216.615 308.96 216.132 308.698 215.609 308.549C215.087 308.4 214.538 308.368 214.002 308.456C213.466 308.543 212.956 308.748 212.508 309.056C211.542 310.015 210.796 311.172 210.32 312.447C209.66 314.092 209.121 315.783 208.706 317.507C208.46 315.291 207.886 313.158 205.616 313.103C204.647 313.174 203.71 313.474 202.881 313.979C202.288 313.085 201.537 312.306 200.665 311.681C198.231 310.013 194.484 309.63 193.964 313.24C192.351 310.341 186.662 305.309 185.13 308.044C185.814 280.53 186.279 285.699 186.197 284.058V283.976ZM184.064 233.652C182.204 233.652 139.347 233.241 137.377 233.241C137.201 230.756 137.201 228.261 137.377 225.775C138.28 225.775 146.293 226.048 148.481 226.103C150.669 226.158 170.361 226.103 171.92 226.103L183.243 225.72C183.489 228.482 183.79 231.135 184.064 233.652ZM136.42 141.209C135.746 140.261 135.161 139.254 134.67 138.2C134.322 137.435 134.021 136.649 133.767 135.848C144.431 135.57 155.024 134.037 165.329 131.281C163.168 140.197 162.43 136.176 161.035 145.366H158.738C158.519 144.6 160.078 136.669 154.143 135.848C153.471 135.748 152.787 135.785 152.13 135.955C151.472 136.125 150.856 136.426 150.318 136.84C149.779 137.253 149.33 137.771 148.995 138.361C148.661 138.952 148.449 139.604 148.372 140.279C148.142 141.724 148.475 143.202 149.302 144.409C150.033 145.37 151.062 146.063 152.228 146.378C151.461 147.602 150.468 148.669 149.302 149.523C146.977 151.355 141.89 149.359 139.237 147.991C139.921 146.542 140.358 145.557 140.358 145.557C140.431 145.399 140.443 145.22 140.393 145.054C140.342 144.888 140.233 144.746 140.085 144.655C138.668 143.734 137.426 142.567 136.42 141.209ZM138.991 148.703C140.861 149.802 142.878 150.63 144.981 151.164C146.358 151.567 147.828 151.519 149.177 151.027C150.525 150.535 151.68 149.625 152.475 148.429C153.322 147.472 154.362 145.694 153.131 145.53C152.58 145.463 152.049 145.282 151.573 144.997C151.096 144.712 150.685 144.331 150.365 143.877C150.046 143.423 149.825 142.908 149.717 142.363C149.609 141.819 149.617 141.258 149.74 140.716C149.796 140.226 149.951 139.751 150.196 139.322C150.441 138.893 150.77 138.517 151.163 138.218C151.557 137.919 152.006 137.703 152.486 137.583C152.965 137.462 153.463 137.439 153.951 137.516C154.955 137.714 155.852 138.269 156.477 139.079C157.101 139.89 157.408 140.899 157.343 141.92C157.616 144.436 156.714 147.116 158.081 147.062L161.637 146.815C161.793 146.81 161.942 146.749 162.057 146.644C162.172 146.539 162.246 146.396 162.266 146.241C162.266 146.241 162.539 143.78 163.004 141.592C163.934 137.27 164.645 139.431 166.15 131.226C171.455 129.858 175.531 128.491 177.773 127.944C177.773 132.84 181.63 142.275 182.696 145.694C181.192 145.831 179.442 145.256 179.496 146.405C179.907 153.762 177.801 157.81 174.819 160.08C172.281 161.702 169.293 162.478 166.286 162.296C164.246 162.26 162.217 161.985 160.242 161.475C158.929 161.065 159.968 164.484 159.777 169.324C152.584 163.307 143.586 158.603 134.259 158.521C136.147 154.692 138.854 149.003 138.991 148.703ZM146.594 511.856C143.321 513.21 139.935 514.272 136.475 515.028C131.005 516.396 124.66 517.545 120.694 518.064C119.516 518.234 118.328 518.334 117.138 518.365C116.126 515.794 116.783 506.331 116.783 505.429L129.555 504.635L129.309 508.547C129.282 508.645 129.282 508.749 129.309 508.847C129.357 508.868 129.408 508.878 129.459 508.878C129.511 508.878 129.562 508.868 129.61 508.847C137.213 509.011 153.541 508.711 146.594 511.856ZM134.013 485.217L138.608 445.122C124.249 379.482 124.249 362.415 124.249 362.415C127.34 380.849 140.167 439.214 149.521 481.114L134.013 485.217ZM162.621 538.467C162.621 538.467 162.512 538.522 162.539 538.467H162.621ZM192.159 532.013C185.978 534.967 166.204 538.796 162.594 538.522C162 534.613 161.872 530.647 162.211 526.707H175.038C175.038 528.047 174.765 528.676 175.038 528.95C175.135 528.988 175.242 528.988 175.339 528.95C182.587 529.168 199.052 528.703 192.077 532.013H192.159ZM179.442 287.723C174.464 288.27 169.459 288.68 164.454 288.981C159.449 289.282 155.045 289.418 150.341 289.446C145.637 289.473 140.769 289.446 135.982 289.09C110.273 287.668 95.7506 282.362 93.6994 281.624C92.4139 281.186 92.2772 281.104 92.0037 280.995C91.0412 270.74 90.6303 260.442 90.7729 250.144C90.9495 239.955 91.7716 229.788 93.2344 219.703C94.9533 206.245 98.9487 193.176 105.05 181.058C113.993 164.648 125.152 158.986 136.037 159.779C148.755 160.709 161.062 170.2 168.857 180.757C173.862 187.43 177.336 197.386 179.797 207.697C181.192 213.549 182.204 219.539 182.997 225.118L167.079 224.763C164.782 224.763 138.17 225.118 137.268 225.173C137.268 222.028 137.623 218.582 137.87 215.491C138.307 210.021 138.772 205.536 138.772 205.536C138.772 205.536 138.772 205.235 138.526 205.235C138.488 205.227 138.449 205.227 138.411 205.236C138.373 205.244 138.337 205.261 138.306 205.284C138.275 205.307 138.25 205.337 138.231 205.371C138.212 205.405 138.201 205.442 138.198 205.481C138.198 205.481 137.651 209.173 137.049 213.96C136.748 216.695 136.42 219.621 136.174 222.493C135.773 226.339 135.773 230.216 136.174 234.062C136.2 234.216 136.281 234.357 136.401 234.457C136.521 234.557 136.674 234.611 136.83 234.609H142.3C143.78 244.885 146.537 254.936 150.505 264.53C153.651 271.613 157.89 278.013 163.415 281.241C168.867 283.975 174.99 285.086 181.055 284.441C182.386 284.441 183.726 284.331 185.076 284.112C184.756 284.996 184.756 285.964 185.076 286.847L179.442 287.723ZM230.832 459.836L180.727 472.855C181.739 414.736 184.912 309.63 184.912 309.63C184.987 309.623 185.056 309.588 185.107 309.533C185.158 309.477 185.185 309.404 185.185 309.329C185.185 309.329 185.185 307.852 186.252 307.825C187.442 308.006 188.544 308.561 189.397 309.411C190.64 310.352 191.713 311.499 192.57 312.803C193.087 313.61 193.492 314.484 193.773 315.401C193.869 316.029 194.006 316.65 194.183 317.261C194.219 317.369 194.289 317.462 194.383 317.526C194.477 317.59 194.589 317.622 194.703 317.616C194.819 317.597 194.924 317.536 194.999 317.446C195.074 317.356 195.115 317.241 195.113 317.124C195.087 316.604 194.995 316.089 194.84 315.592C194.72 314.675 194.795 313.743 195.058 312.857C195.172 312.474 195.42 312.145 195.756 311.929C196.093 311.713 196.495 311.625 196.891 311.681C197.987 311.724 199.045 312.096 199.927 312.748C200.812 313.392 201.533 314.236 202.033 315.209C202.073 315.29 202.131 315.362 202.202 315.418C202.273 315.475 202.355 315.516 202.443 315.538C202.521 315.571 202.605 315.588 202.689 315.588C202.774 315.588 202.857 315.571 202.935 315.538C203.736 314.963 204.686 314.631 205.67 314.58C205.927 314.58 206.178 314.651 206.395 314.787C206.613 314.922 206.788 315.116 206.901 315.346C207.358 316.514 207.59 317.757 207.585 319.011C207.653 321 207.598 322.991 207.421 324.973C207.444 325.087 207.496 325.192 207.573 325.278C207.65 325.365 207.748 325.429 207.858 325.466C207.945 325.477 208.032 325.471 208.116 325.449C208.2 325.426 208.279 325.387 208.348 325.333C208.416 325.28 208.474 325.213 208.517 325.137C208.559 325.061 208.587 324.978 208.597 324.891C209.065 321.404 209.834 317.963 210.894 314.608C211.342 313.099 212.055 311.682 213 310.423C213.152 310.214 213.348 310.041 213.575 309.918C213.803 309.795 214.055 309.724 214.313 309.712C214.831 309.734 215.333 309.895 215.766 310.18C216.199 310.464 216.548 310.86 216.774 311.326C217.552 312.919 217.963 314.667 217.978 316.44C217.975 316.6 218.028 316.756 218.127 316.881C218.227 317.006 218.368 317.092 218.525 317.124C218.687 317.154 218.855 317.128 219 317.048C219.145 316.968 219.257 316.84 219.318 316.686C220.131 314.665 221.149 312.731 222.354 310.915C222.832 310.246 223.392 309.64 224.022 309.11C224.356 308.84 224.769 308.686 225.198 308.673C226.199 308.857 227.106 309.378 227.769 310.15C228.923 311.36 229.908 312.722 230.696 314.197C230.762 314.323 230.867 314.425 230.994 314.489C231.122 314.553 231.266 314.575 231.407 314.553C231.544 314.526 231.672 314.46 231.773 314.363C231.875 314.266 231.947 314.142 231.981 314.006C232.208 312.607 232.771 311.283 233.622 310.15C233.867 309.839 234.194 309.603 234.566 309.468C234.938 309.333 235.34 309.304 235.728 309.384C236.279 309.556 236.771 309.878 237.15 310.314C237.812 311.049 238.39 311.857 238.873 312.72C240.076 314.975 241.065 317.337 241.827 319.777C241.865 319.907 241.951 320.019 242.067 320.09C242.184 320.161 242.322 320.186 242.456 320.16C242.521 320.153 242.584 320.133 242.641 320.102C242.698 320.071 242.748 320.028 242.789 319.978C242.83 319.927 242.86 319.868 242.878 319.806C242.896 319.743 242.901 319.677 242.894 319.613C242.735 317.583 243.005 315.542 243.687 313.623C243.886 313.04 244.251 312.528 244.737 312.15C245.223 311.771 245.808 311.541 246.422 311.49C247.196 311.544 247.951 311.762 248.634 312.129C249.318 312.497 249.916 313.006 250.388 313.623C251.96 315.515 253.233 317.636 254.162 319.914C254.174 319.948 254.193 319.98 254.218 320.007C254.242 320.033 254.272 320.055 254.305 320.071C254.338 320.086 254.374 320.094 254.41 320.096C254.447 320.097 254.483 320.091 254.517 320.078C254.517 320.078 255.256 452.151 255.283 453.6C253.806 454.011 244.726 456.253 230.832 459.836ZM251.427 268.031C251.044 267.511 250.47 267.867 249.239 268.031C249.417 267.175 249.361 266.286 249.075 265.46C249.786 264.639 250.442 263.819 250.935 263.135C251.392 262.566 251.694 261.887 251.81 261.166C251.814 260.954 251.75 260.746 251.627 260.574C251.503 260.401 251.328 260.273 251.126 260.208C250.309 260.072 249.47 260.187 248.719 260.537C248.719 259.662 248.555 244.646 248.5 242.814C248.5 240.243 247.051 209.994 246.996 209.119L255.201 208.654C255.201 209.802 255.666 243.908 255.748 246.944C255.748 249.022 256.623 266.745 256.678 267.511L251.427 268.031ZM295.652 447.884L269.724 455.05C269.724 452.588 269.396 269.261 269.368 266.335L276.726 265.405C277.3 265.405 277.273 266.335 277.273 247.217C289.854 243.115 304.623 233.542 310.94 221.125V246.26C298.25 246.67 299.508 247.628 293.983 244.209C292.918 243.474 291.759 242.886 290.537 242.458C290.299 242.364 290.039 242.336 289.785 242.378C289.532 242.419 289.295 242.528 289.098 242.694C288.902 242.859 288.754 243.075 288.671 243.317C288.587 243.56 288.57 243.821 288.623 244.072C288.787 245.822 291.358 248.393 290.565 250.226C288.801 253.946 286.298 257.269 283.208 259.99C282.031 260.865 281.512 260.564 281.402 261.248C281.385 261.395 281.415 261.544 281.489 261.672C281.563 261.8 281.677 261.901 281.813 261.959C284.302 262.396 288.896 265.569 295.132 260.181C296.24 259.267 297.24 258.231 298.113 257.091L310.995 259.333C310.995 283.62 311.214 306.129 311.952 328.036C312.363 340.563 313.046 354.347 314.031 368.815C315.152 385.225 316.766 402.483 318.872 419.659C319.747 426.715 320.759 433.717 321.826 440.691L295.652 447.884ZM277.273 246.616V215.737C278.914 213.741 279.707 213.002 285.478 205.536C288.787 205.946 305.033 208.654 310.722 220.332C310.678 220.315 310.629 220.315 310.585 220.332C304.021 232.038 289.525 241.501 277.273 246.67V246.616ZM325.162 128.546C327.897 125.647 324.752 122.036 327.624 119.274C328.224 118.58 328.956 118.012 329.778 117.603C330.6 117.195 331.494 116.954 332.41 116.895C329.85 120.314 328.186 124.319 327.569 128.546H325.162ZM327.432 129.284C326.946 132.268 326.69 135.286 326.667 138.31H325.135C325.135 137.434 324.315 130.105 324.205 129.339L324.533 129.093L327.432 129.284ZM333.203 116.594C335.437 115.64 337.832 115.12 340.26 115.062C342.584 113.257 347.589 110.057 347.589 110.057C345.63 111.57 343.8 113.244 342.119 115.062C341.846 115.636 343.213 115.5 344.854 115.254C345.708 115.802 346.458 116.496 347.07 117.305C350.434 121.79 345.538 124.826 349.258 128.436H341.053C340.982 128.411 340.905 128.411 340.834 128.436C340.817 128.465 340.808 128.498 340.808 128.532C340.808 128.566 340.817 128.599 340.834 128.628V132.128C340.367 131.738 339.792 131.5 339.185 131.446C338.579 131.392 337.971 131.526 337.443 131.828C337.88 127.397 339.767 128.19 328.581 128.272C329.156 124.689 330.605 119.028 332.957 116.73C333.009 116.718 333.058 116.694 333.101 116.661C333.143 116.628 333.178 116.586 333.203 116.539V116.594ZM353.661 131.527C353.348 133.828 352.91 136.111 352.348 138.364H342.393C342.393 137.489 341.518 129.858 341.436 129.12L350.789 129.612C352.02 130.269 353.141 130.597 353.661 131.472V131.527ZM336.649 129.694L335.473 138.364H327.952C327.978 135.363 328.197 132.367 328.609 129.393L336.649 129.694ZM327.952 139.486H336.157C337.196 139.486 336.704 138.2 337.579 132.922H338.537C338.044 134.125 336.075 139.978 337.361 140.197H340.287C340.354 140.199 340.421 140.179 340.475 140.139C340.53 140.1 340.569 140.043 340.588 139.978C340.596 139.909 340.578 139.84 340.537 139.785C340.497 139.729 340.437 139.69 340.369 139.677C340.096 139.677 339.193 139.267 338.208 139.021C338.714 136.968 339.007 134.87 339.084 132.758C339.515 132.756 339.943 132.84 340.342 133.004C340.626 133.106 340.901 133.234 341.162 133.387C341.162 133.906 340.971 131.417 341.408 138.857C341.408 139.54 341.272 139.458 352.594 139.595C353.388 142.33 357.791 144.245 356.041 146.815C354.782 148.675 350.735 150.891 352.731 153.352C354.08 154.569 355.662 155.5 357.381 156.087C357.216 156.461 356.963 156.79 356.642 157.044C353.415 160.19 353.634 165.249 359.049 162.733C359.085 162.686 359.104 162.628 359.104 162.569C359.104 162.51 359.085 162.452 359.049 162.405C359 162.363 358.936 162.339 358.871 162.339C358.806 162.339 358.743 162.363 358.694 162.405C353.716 164.292 354.947 159.889 357.189 157.892C362.085 153.516 348.984 155.157 355.001 149.687C355.737 149.074 356.398 148.376 356.97 147.609C358.502 145.339 356.97 143.342 355.029 141.318C354.467 140.791 354.028 140.147 353.743 139.431C353.836 139.334 353.894 139.209 353.907 139.075C354.564 134.234 355.822 133.605 354.919 131.281C355.111 129.257 355.329 129.038 354.919 128.546C354.867 128.479 354.801 128.425 354.725 128.387C354.649 128.349 354.566 128.329 354.482 128.327H351.118C345.319 125.017 353.114 120.122 345.511 114.98L347.48 114.597C349.258 114.296 351.2 115.035 351.118 116.594C350.844 121.517 355.63 117.359 355.165 122.419C354.919 124.908 355.931 124.197 357.381 125.893C358.83 127.588 358.502 127.725 357.846 129.831C357.189 131.937 358.201 132.238 359.186 133.168C360.635 134.617 356.724 137.79 361.1 139.431C362.386 139.704 362.55 138.747 363.617 138.118C365.887 136.833 367.063 137.516 367.637 139.677C367.824 140.319 367.869 140.994 367.77 141.655C367.671 142.316 367.43 142.947 367.063 143.506C365.778 145.186 364.028 146.451 362.03 147.144C361.888 147.193 361.768 147.293 361.693 147.423C361.618 147.554 361.592 147.707 361.62 147.855C362.276 151.656 362.249 152.012 364.054 160.381C350.625 168.777 343.815 163.116 342.366 161.584V156.853C342.386 156.805 342.396 156.754 342.396 156.702C342.396 156.651 342.386 156.6 342.366 156.552C342.269 156.514 342.161 156.514 342.065 156.552C340.004 156.539 337.97 156.082 336.102 155.212C334.237 154.365 332.604 153.08 331.344 151.465C328.925 147.954 327.733 143.743 327.952 139.486ZM360.772 236.633C362.962 231.584 365.503 226.694 368.375 222.001C368.375 222.001 389.298 225.556 398.214 237.891C398.214 237.891 382.297 259.388 373.435 262.041C364.574 264.694 337.88 261.33 311.132 259.115C311.14 259.046 311.122 258.977 311.082 258.921C311.041 258.865 310.981 258.827 310.913 258.814C297.676 256.079 297.676 255.614 297.238 256.079C296.308 256.735 292.233 264.01 283.563 261.275C286.978 258.371 289.722 254.759 291.604 250.691C292.534 247.956 289.225 244.51 289.689 243.689C289.957 243.687 290.22 243.753 290.455 243.881C295.925 246.014 294.503 248.12 303.31 247.545C306.865 247.299 310.722 246.834 310.722 246.834C310.758 246.831 310.793 246.82 310.824 246.803C310.856 246.786 310.885 246.763 310.907 246.735C310.93 246.707 310.947 246.675 310.958 246.64C310.968 246.606 310.972 246.569 310.968 246.534C318.101 245.868 325.195 244.827 332.219 243.416C336.923 242.075 357.053 236.496 360.854 236.66L360.772 236.633ZM346.577 482.591C346.558 482.63 346.548 482.672 346.548 482.714C346.548 482.757 346.558 482.799 346.577 482.837C344.444 485.135 328.691 489.976 328.691 489.976C327.703 486.689 325.679 483.811 322.92 481.771L324.67 481.087L325.928 480.54C326.776 480.157 327.515 479.747 328.144 479.419L330.359 478.215C330.465 478.168 330.554 478.091 330.617 477.994C330.68 477.897 330.714 477.784 330.714 477.668V475.535H345.784V477.258C345.784 477.586 345.784 478.325 345.948 478.899C346.113 479.473 345.948 479.966 346.113 480.54C346.277 481.114 346.113 481.114 346.113 481.388C346.113 481.661 346.605 482.181 346.66 482.619L346.577 482.591ZM332.52 473.675C332.506 473.803 332.506 473.931 332.52 474.058V474.359H330.55L330.386 471.35C331.09 471.509 331.802 471.628 332.52 471.706V472.062C332.505 472.216 332.505 472.372 332.52 472.527V473.019C332.527 473.249 332.555 473.477 332.602 473.703L332.52 473.675ZM333.887 472.609V471.925C335.099 471.995 336.313 471.995 337.525 471.925V473.456C337.511 473.584 337.511 473.712 337.525 473.839V474.003H333.887V473.757C333.9 473.63 333.9 473.502 333.887 473.374C333.901 473.183 333.901 472.991 333.887 472.8V472.609ZM342.448 473.21C342.469 473.536 342.533 473.858 342.639 474.168H338.619C338.632 474.04 338.632 473.912 338.619 473.785C338.632 473.593 338.632 473.402 338.619 473.21V472.034C339.955 471.913 341.28 471.694 342.584 471.378V473.156L342.448 473.21ZM343.815 472.034C343.83 471.852 343.83 471.669 343.815 471.487C343.831 471.314 343.831 471.14 343.815 470.968C344.57 470.752 345.31 470.487 346.03 470.174L345.812 474.195H343.815C343.834 474.022 343.834 473.848 343.815 473.675C343.842 473.531 343.842 473.382 343.815 473.238C343.829 473.019 343.829 472.8 343.815 472.581C343.925 472.417 343.897 472.226 343.897 472.062L343.815 472.034ZM380.163 424.062C379.042 424.336 377.729 424.637 376.307 425.02C374.885 425.402 362.058 428.985 361.073 429.286L354.29 431.529C355.819 421.891 357.415 412.263 359.076 402.647C360.445 393.435 362.317 384.305 364.683 375.297C365.859 378.99 367.145 382.819 368.512 386.757C371.083 394.005 373.982 401.635 377.319 409.594C379.179 414.052 381.203 418.62 383.336 423.269L380.163 424.062ZM403.602 459.617C394.214 443.267 385.83 426.361 378.495 408.992C375.158 401.088 372.232 393.485 369.634 386.265C365.053 373.51 361.128 360.529 357.873 347.373C354.441 334.253 352.117 320.869 350.926 307.36C350.926 307.322 350.918 307.284 350.903 307.249C350.888 307.213 350.865 307.182 350.837 307.156C350.808 307.13 350.775 307.111 350.738 307.099C350.702 307.087 350.663 307.083 350.625 307.086C350.55 307.093 350.481 307.128 350.43 307.184C350.379 307.239 350.352 307.312 350.352 307.387C351.422 320.951 353.636 334.401 356.97 347.592C358.858 355.551 361.292 364.549 364.41 374.367C361.752 383.595 359.706 392.987 358.283 402.483C356.369 412.876 347.671 465.826 347.343 468.123C344.438 469.584 341.264 470.431 338.017 470.612C334.788 470.822 331.548 470.414 328.472 469.409C323.111 442.876 319.294 416.056 317.039 389.082C315.508 372.015 314.441 355.414 313.703 340.235C313.019 326.56 311.652 268.55 311.624 266.39C341.562 271.006 372.111 269.771 401.578 262.752C401.578 263.6 401.989 347.537 402.016 353.499C402.228 364.039 403.041 374.559 404.45 385.007C405.271 391.68 406.31 398.682 407.568 405.847C408.498 410.989 409.537 416.213 410.686 421.327C413.612 434.291 421.298 455.898 421.298 455.898C416.73 458.715 408.799 459.672 403.575 459.754L403.602 459.617ZM420.368 459.617L416.758 461.122V460.793C416.608 460.355 416.396 459.94 416.129 459.563C417.367 459.235 418.583 458.824 419.766 458.332C419.837 458.813 420.036 459.266 420.34 459.645L420.368 459.617ZM415.609 461.614L412.245 463.063C412.076 462.141 411.712 461.264 411.178 460.493C412.382 460.301 413.64 460.082 414.898 459.781V460.438C415.109 460.878 415.386 461.284 415.718 461.641L415.609 461.614ZM409.537 464.349C409.072 463.364 408.279 461.833 407.814 460.93L410.057 460.684C410.244 461.681 410.666 462.618 411.288 463.419L409.537 464.349ZM426.604 464.759C426.85 465.232 427.153 465.673 427.506 466.072C426.412 469.026 413.667 479.501 413.667 479.501C411.512 476.816 408.548 474.897 405.216 474.031C412.135 467.467 411.151 467.576 409.893 465.443C412.464 464.431 415.855 463.009 418.371 461.915C420.887 460.821 421.653 460.465 423.841 459.371C424.621 461.237 425.564 463.031 426.658 464.732L426.604 464.759ZM423.322 458.578L421.434 459.262C421.368 458.72 421.15 458.208 420.805 457.785C421.405 457.492 421.981 457.154 422.528 456.773L423.322 458.578ZM423.677 453.792C423.131 454.519 422.465 455.148 421.708 455.652C417.38 444.476 414.03 432.946 411.698 421.191C410.604 416.076 409.619 410.88 408.744 405.711C407.541 398.627 406.529 391.598 405.708 384.952C404.34 374.555 403.528 364.092 403.274 353.609C403.274 346.935 402.289 280.01 402.043 262.725L404.778 262.014C404.778 264.749 405.134 347.51 405.161 353.609C405.348 363.867 406.06 374.11 407.294 384.295C408.033 390.777 408.963 397.642 410.029 404.589C410.905 409.622 411.862 414.681 412.956 419.659C415.381 431.379 418.906 442.844 423.486 453.901L423.677 453.792ZM424.361 452.452C424.275 452.707 424.165 452.955 424.033 453.19C421.555 447.039 419.472 440.735 417.797 434.319C415.204 424.402 413.113 414.361 411.534 404.234C410.412 397.314 409.482 390.559 408.799 383.995C407.431 371.796 406.747 360.939 406.693 353.472C406.693 347.346 405.544 264.174 405.489 261.74L408.224 260.974C408.224 265.87 409.975 373.875 409.975 381.916C410.213 391.573 411.348 401.187 413.366 410.634C416.259 424.753 419.92 438.704 424.334 452.424L424.361 452.452ZM418.453 237.152C419.25 237.919 419.795 238.909 420.018 239.992C420.241 241.075 420.13 242.2 419.701 243.218C419.271 244.237 418.543 245.102 417.613 245.698C416.682 246.295 415.592 246.596 414.488 246.561C407.459 246.561 407.13 235.621 414.488 235.293C415.239 235.324 415.977 235.504 416.658 235.823C417.338 236.143 417.949 236.595 418.453 237.152ZM416.238 247.682C415.855 266.554 415.828 269.89 412.081 269.945C409.1 269.945 409.346 266.335 409.346 266.061C409.35 265.997 409.334 265.934 409.299 265.88C409.265 265.825 409.214 265.784 409.154 265.761C409.154 263.026 408.936 244.92 408.936 244.92C409.702 246.081 410.814 246.972 412.115 247.468C413.415 247.964 414.838 248.038 416.183 247.682H416.238ZM270.517 59.6783L286.107 58.01L423.267 77.9208C423.267 83.2267 423.595 408.856 423.595 411.974L415.582 414.271C415.335 413.013 415.062 411.728 414.816 410.469C412.806 401.104 411.661 391.573 411.397 381.998C411.397 373.957 409.373 277.384 409.127 269.316C410.303 271.723 415.007 272.352 416.375 267.566C417.742 262.779 417.195 252.687 416.785 247.491C417.694 247.143 418.522 246.612 419.219 245.932C419.837 245.304 420.324 244.561 420.652 243.743C420.98 242.926 421.143 242.052 421.13 241.172C421.117 240.291 420.93 239.422 420.578 238.615C420.227 237.807 419.718 237.078 419.082 236.469C418.352 235.805 417.487 235.306 416.547 235.005C415.607 234.704 414.613 234.609 413.632 234.726C412.652 234.842 411.708 235.168 410.865 235.681C410.022 236.194 409.298 236.883 408.744 237.699V224.654C408.744 224.654 414.351 203.785 406.775 189.509C395.835 168.887 369.087 161.612 364.82 160.572C364.629 158.849 363.835 152.75 363.097 148.265C365.178 147.463 366.982 146.076 368.293 144.272C368.766 143.569 369.069 142.766 369.178 141.925C369.287 141.085 369.2 140.231 368.922 139.431L368.758 138.993C371.937 133.655 372.918 127.291 371.493 121.243C376.717 120.395 375.651 116.676 377.264 113.613C378.878 110.549 382.297 107.322 379.698 102.673C377.1 98.023 374.857 98.9803 372.56 97.3666C370.263 95.753 368.43 95.9444 364.902 96.8196C361.374 97.6948 362.714 97.5581 359.842 96.1906C356.97 94.8231 354.618 95.3974 351.446 99.8008C348.273 104.204 352.485 108.498 352.485 108.498C339.631 107.678 333.914 115.171 332.957 116.566C332.684 116.566 330.605 115.472 326.885 118.7C323.166 121.927 326.885 126.111 323.439 128.382C322.127 129.284 320.704 130.105 319.774 130.925C318.905 131.549 318.177 132.351 317.641 133.277C314.906 138.446 326.256 137.216 316.383 144.737C311.843 148.21 316.192 149.359 316.383 151.793C316.383 152.75 315.645 153.106 315.043 152.723C314.989 152.683 314.921 152.666 314.854 152.677C314.787 152.687 314.727 152.723 314.687 152.778C314.647 152.832 314.631 152.9 314.641 152.967C314.651 153.033 314.688 153.093 314.742 153.133C316.246 154.227 318.407 152.422 315.918 149.085C313.976 146.35 317.231 146.159 320.048 143.315C321.634 141.701 322.099 140.58 321.826 139.349C320.759 134.918 314.25 136.231 323.576 129.831C323.986 140.963 323.084 139.513 326.585 139.622C326.393 146.46 328.882 153.544 335.501 156.333C337.414 157.135 339.471 157.535 341.545 157.509L341.873 161.366C313.785 169.871 300.165 185.297 283.755 205.618C281.422 208.4 279.275 211.333 277.327 214.397V198.452C277.33 198.359 277.311 198.267 277.273 198.181C277.235 198.096 277.179 198.021 277.108 197.96C276.971 197.821 276.784 197.742 276.589 197.741L270.49 197.905L270.517 59.6783ZM263.789 199.464L275.932 199.163C275.932 203.047 276.097 262.861 276.097 264.53L257.362 267.265C257.362 266.444 257.116 240.817 257.034 237.782C257.034 235.265 255.967 209.72 255.912 208.599L263.516 208.079C263.661 208.066 263.796 208.001 263.897 207.895C263.998 207.789 264.057 207.651 264.063 207.505L263.789 199.464ZM236.924 200.134L237.642 208.845C237.656 209.002 237.728 209.149 237.845 209.255C237.961 209.361 238.114 209.42 238.271 209.42L246.476 209.064C246.476 210.076 246.695 225.912 246.75 228.209C246.805 230.506 248.172 259.826 248.227 260.673C245.934 261.69 243.722 262.879 241.608 264.229C237.358 264.394 233.102 264.303 228.863 263.955C226.613 263.795 224.386 263.401 222.217 262.779C222.217 262.779 221.232 234.527 221.068 231.354C220.932 228.619 219.181 201.652 219.099 200.531L263.297 199.546L263.023 206.958L238.873 208.271L238.243 200.104L236.924 200.134Z" fill="black"/>
<path d="M251.427 268.031C251.044 267.511 250.47 267.867 249.239 268.031C249.417 267.175 249.361 266.286 249.075 265.46C249.786 264.639 250.442 263.819 250.935 263.135C251.392 262.566 251.694 261.887 251.81 261.166C251.814 260.954 251.75 260.746 251.627 260.574C251.503 260.401 251.328 260.273 251.126 260.208C250.309 260.072 249.47 260.187 248.719 260.537C248.719 259.662 248.555 244.646 248.5 242.814C248.5 240.243 247.051 209.994 246.996 209.119L255.201 208.654C255.201 209.802 255.666 243.908 255.748 246.944C255.748 249.022 256.623 266.745 256.678 267.511L251.427 268.031Z" fill="#FB8D1A"/>
<path d="M184.064 233.652C182.204 233.652 139.347 233.241 137.377 233.241C137.201 230.756 137.201 228.261 137.377 225.775C138.28 225.775 146.293 226.048 148.481 226.103C150.669 226.158 170.361 226.103 171.92 226.103L183.243 225.72C183.489 228.482 183.79 231.135 184.064 233.652Z" fill="#E8083E"/>
<path d="M479.227 511.97C479.192 511.985 479.154 511.993 479.116 511.993L486.618 514.784C486.576 514.747 486.544 514.699 486.527 514.646C486.527 514.646 477.475 29.0737 477.338 21.4977L255.064 50.6255V198.315L262.75 198.124V55.4391C262.75 55.1656 263.133 54.8921 263.406 54.8921L469.297 28.7455C469.494 28.7276 469.69 28.7864 469.844 28.9096C469.92 28.9731 469.982 29.0525 470.024 29.1423C470.067 29.232 470.089 29.3299 470.09 29.4292L479.389 511.692C479.393 511.73 479.389 511.768 479.377 511.805C479.365 511.841 479.345 511.875 479.319 511.903C479.294 511.931 479.262 511.954 479.227 511.97Z" fill="#573CFA"/>
<path d="M255.79 453.905C255.745 453.96 255.681 453.998 255.611 454.011H261.71C261.631 454.011 261.554 453.979 261.498 453.923C261.441 453.866 261.41 453.79 261.41 453.71C261.41 453.71 262.257 269.343 262.257 267.347L255.338 268.222C255.365 269.726 255.858 453.71 255.858 453.71C255.859 453.781 255.835 453.85 255.79 453.905Z" fill="#573CFA"/>
<path d="M472.526 509.016C472.491 509.031 472.453 509.039 472.415 509.039L478.891 511.894C478.848 511.846 478.821 511.784 478.815 511.719C478.815 511.719 468.859 38.5641 468.695 30.1677L263.57 55.8767V198.097L269.259 197.96V59.186C269.259 58.9125 269.915 58.6664 270.189 58.6664L464.182 37.1419C464.28 37.1242 464.381 37.1298 464.476 37.1583C464.571 37.1868 464.658 37.2374 464.729 37.306C464.799 37.3731 464.855 37.4539 464.893 37.5432C464.93 37.6326 464.949 37.7287 464.948 37.8257L472.688 508.738C472.692 508.776 472.688 508.815 472.676 508.851C472.664 508.887 472.644 508.921 472.619 508.949C472.593 508.978 472.561 509 472.526 509.016Z" fill="#44424D"/>
<path d="M261.906 453.913C261.855 453.969 261.785 454.004 261.71 454.011L268.739 456.363C268.663 456.312 268.6 456.243 268.557 456.162C268.514 456.081 268.492 455.99 268.493 455.898C268.493 455.898 268.821 269.562 268.821 266.499L262.832 267.265C262.832 269.125 261.984 453.71 261.984 453.71C261.984 453.785 261.956 453.858 261.906 453.913Z" fill="#44424D"/>
<path d="M263.297 199.546L238.243 200.104L238.873 208.271L263.023 206.958L263.297 199.546Z" fill="#FB8D1A"/>
<path d="M179.319 200.744C179.209 200.748 179.153 200.75 179.153 200.75C179.08 200.75 179.011 200.778 178.959 200.83C178.908 200.881 178.879 200.951 178.879 201.023C178.879 201.061 178.887 201.099 178.902 201.134C178.918 201.17 178.94 201.201 178.969 201.227C178.997 201.253 179.031 201.272 179.067 201.284C179.103 201.296 179.142 201.3 179.18 201.297L179.471 201.291C179.42 201.108 179.37 200.926 179.319 200.744Z" fill="black"/>
<path d="M220.494 246.998C220.357 245.057 218.47 201.597 218.47 200.503L179.471 201.291C180.017 203.278 180.517 205.302 180.973 207.341C183.984 221.743 185.659 236.391 185.978 251.101C188.412 251.566 190.901 252.14 193.636 252.824C202.825 255.292 211.828 258.409 220.576 262.15C220.923 262.317 221.279 262.464 221.643 262.588C221.588 262.096 220.713 250.609 220.494 246.998Z" fill="#FB8D1A"/>
<path fill-rule="evenodd" clip-rule="evenodd" d="M414.544 259.471L413.313 255.259C415.063 255.068 414.844 252.962 413.149 252.962C412.812 252.931 412.477 253.034 412.215 253.25C411.954 253.465 411.789 253.774 411.754 254.11C411.774 254.418 411.909 254.706 412.132 254.919C412.355 255.131 412.649 255.253 412.957 255.259L411.754 259.252L414.544 259.471ZM490.194 201.981C490.081 202.489 490.084 203.015 490.203 203.521C490.321 204.028 490.551 204.501 490.877 204.906C491.202 205.312 491.614 205.639 492.083 205.864C492.552 206.088 493.065 206.205 493.585 206.205C494.105 206.205 494.618 206.088 495.087 205.864C495.556 205.639 495.968 205.312 496.294 204.906C496.619 204.501 496.849 204.028 496.968 203.521C497.086 203.015 497.089 202.489 496.977 201.981C497.038 201.5 496.996 201.011 496.853 200.547C496.711 200.083 496.471 199.654 496.151 199.29C495.83 198.926 495.435 198.634 494.993 198.434C494.55 198.234 494.07 198.131 493.585 198.131C493.1 198.131 492.62 198.234 492.178 198.434C491.735 198.634 491.34 198.926 491.02 199.29C490.699 199.654 490.459 200.083 490.317 200.547C490.174 201.011 490.132 201.5 490.194 201.981ZM491.479 201.981C491.315 197.715 495.882 197.742 495.718 201.981C495.582 205.673 491.616 205.728 491.479 201.981Z" fill="black"/>
<path fill-rule="evenodd" clip-rule="evenodd" d="M505.398 213.796C505.398 212.265 504.659 196.402 504.495 193.448C504.222 189.455 503.975 186.665 503.975 186.665C503.98 186.576 503.957 186.488 503.907 186.414C503.858 186.34 503.786 186.284 503.702 186.255L500.502 185.325C500.476 185.256 500.436 185.194 500.384 185.142C500.332 185.09 500.27 185.05 500.201 185.024H499.928L486.964 185.79C486.897 185.795 486.834 185.822 486.785 185.866C486.735 185.911 486.702 185.97 486.69 186.036C486.69 188.771 486.499 194.241 486.526 199.93C486.526 203.431 486.882 220.716 486.882 220.716C486.895 220.89 486.972 221.053 487.098 221.175C487.224 221.296 487.391 221.366 487.565 221.372H500.885C501.067 221.371 501.242 221.303 501.377 221.181L501.514 220.989H505.151C505.257 221.029 505.374 221.029 505.48 220.989C505.565 220.901 505.613 220.784 505.616 220.661C505.616 220.661 505.507 217.817 505.398 213.796ZM488.14 219.923C488.14 218.282 487.1 188.443 487.155 186.282L499.435 185.954C499.435 186.528 499.982 217.188 500.064 219.923H488.14ZM501.459 220.333C501.459 218.418 500.475 186.556 500.447 185.981L503.182 186.966V193.503C503.182 196.757 503.975 212.319 504.085 213.851C504.276 216.914 504.468 219.321 504.55 220.196L501.459 220.333ZM175.912 136.15C175.775 136.138 175.637 136.155 175.507 136.201C175.377 136.248 175.259 136.321 175.161 136.417C175.062 136.513 174.985 136.63 174.935 136.758C174.886 136.886 174.864 137.024 174.873 137.162V139.459C174.887 139.742 175.007 140.01 175.21 140.207C175.413 140.405 175.683 140.519 175.967 140.526C176.101 140.526 176.234 140.499 176.357 140.446C176.48 140.393 176.591 140.315 176.683 140.218C176.775 140.121 176.847 140.006 176.893 139.88C176.939 139.754 176.959 139.62 176.951 139.486C176.869 138.009 177.252 136.232 175.912 136.15ZM330.139 132.731C330.139 134.071 329.729 135.794 330.987 135.849C332.245 135.903 331.889 134.262 331.999 132.977C332.015 132.855 332.007 132.731 331.975 132.612C331.943 132.493 331.888 132.381 331.813 132.283C331.738 132.186 331.645 132.104 331.538 132.042C331.432 131.98 331.314 131.94 331.192 131.924C331.07 131.908 330.946 131.916 330.827 131.948C330.708 131.98 330.596 132.034 330.498 132.109C330.4 132.184 330.318 132.278 330.257 132.384C330.195 132.491 330.155 132.609 330.139 132.731ZM345.619 131.883C345.496 131.872 345.372 131.886 345.255 131.924C345.137 131.963 345.029 132.025 344.937 132.107C344.845 132.189 344.77 132.289 344.718 132.401C344.666 132.513 344.638 132.635 344.634 132.758V134.837C344.634 135.083 344.732 135.32 344.907 135.494C345.081 135.669 345.318 135.767 345.564 135.767C345.811 135.767 346.047 135.669 346.222 135.494C346.396 135.32 346.494 135.083 346.494 134.837V132.922C346.497 132.673 346.411 132.431 346.25 132.24C346.089 132.049 345.865 131.922 345.619 131.883Z" fill="black"/>
</svg>
