<svg width="18" height="18" viewBox="0 0 18 18" fill="none" xmlns="http://www.w3.org/2000/svg">
<g id="RedEnvelope" clip-path="url(#clip0_1777_1673)">
<path id="Vector" d="M7.56674 8.00759C7.55266 7.97973 7.53112 7.95634 7.50451 7.94002C7.4779 7.9237 7.44728 7.9151 7.41607 7.91518H6.43571C6.4096 7.91518 6.38348 7.92321 6.35737 7.93527C6.33782 7.9458 6.32055 7.96008 6.30653 7.9773C6.29251 7.99451 6.28203 8.01433 6.27569 8.0356C6.26934 8.05688 6.26726 8.07919 6.26955 8.10128C6.27185 8.12336 6.27848 8.14477 6.28906 8.16429L8.04487 11.4007H7.13281C7.0404 11.4007 6.96406 11.477 6.96406 11.5694V12.0737C6.96406 12.1661 7.0404 12.2424 7.13281 12.2424H8.39844V12.817H7.13281C7.0404 12.817 6.96406 12.8933 6.96406 12.9857V13.49C6.96406 13.5824 7.0404 13.6587 7.13281 13.6587H8.39844V14.6612C8.39844 14.7536 8.47478 14.8299 8.56719 14.8299H9.44509C9.5375 14.8299 9.61384 14.7536 9.61384 14.6612V13.6587H10.8855C10.9799 13.6587 11.0542 13.5824 11.0502 13.4879V12.9857C11.0502 12.8933 10.9739 12.817 10.8815 12.817H9.60982V12.2424H10.8815C10.9739 12.2424 11.0502 12.1661 11.0502 12.0737V11.5694C11.0502 11.477 10.9739 11.4007 10.8815 11.4007H9.95938L11.7112 8.16629C11.7248 8.14053 11.7315 8.11169 11.7308 8.08256C11.73 8.05342 11.7218 8.02497 11.7069 7.99994C11.6919 7.97492 11.6708 7.95416 11.6455 7.93966C11.6202 7.92517 11.5916 7.91743 11.5625 7.91719H10.6022C10.54 7.91719 10.4817 7.95335 10.4516 8.0096L9.00714 10.8603L7.56674 8.00759V8.00759ZM15.4297 0H2.57254C2.21696 0 1.92969 0.287277 1.92969 0.642857V17.3571C1.92969 17.7127 2.21696 18 2.57254 18H15.4297C15.7853 18 16.0725 17.7127 16.0725 17.3571V0.642857C16.0725 0.287277 15.7853 0 15.4297 0ZM14.6261 16.5536H3.37612V2.59353L8.60536 6.69375C8.83839 6.87656 9.16585 6.87656 9.39888 6.69375L14.6261 2.59353V16.5536ZM14.6261 1.46049H13.9893L9.00112 5.36987L4.01295 1.46049H3.37612V1.44643H14.6261V1.46049V1.46049Z" fill="#1C1A27"/>
</g>
<defs>
<clipPath id="clip0_1777_1673">
<rect width="18" height="18" fill="white"/>
</clipPath>
</defs>
</svg>
