<svg width="16" height="17" viewBox="0 0 16 17" fill="none" xmlns="http://www.w3.org/2000/svg">
<g id="redeem">
<mask id="mask0_891_3549" style="mask-type:alpha" maskUnits="userSpaceOnUse" x="0" y="0" width="16" height="17">
<rect id="Bounding box" y="0.25" width="16" height="16" fill="#D9D9D9"/>
</mask>
<g mask="url(#mask0_891_3549)">
<path id="redeem_2" d="M2.66667 11.3014V12.5064C2.66667 12.609 2.70939 12.7031 2.79483 12.7886C2.88028 12.874 2.97433 12.9167 3.077 12.9167H12.923C13.0257 12.9167 13.1197 12.874 13.2052 12.7886C13.2906 12.7031 13.3333 12.609 13.3333 12.5064V11.3014H2.66667ZM3.077 4.94238H5.3C5.24444 4.84238 5.19767 4.73683 5.15967 4.62572C5.12156 4.51461 5.1025 4.39794 5.1025 4.27572C5.1025 3.89961 5.23072 3.58333 5.48717 3.32688C5.74361 3.07055 6.05983 2.94238 6.43583 2.94238C6.6615 2.94238 6.87022 3.00149 7.062 3.11972C7.25378 3.23794 7.42117 3.38477 7.56417 3.56022L7.97433 4.12188L8.38467 3.56022C8.52478 3.37911 8.69217 3.23083 8.88683 3.11538C9.08139 3.00005 9.29094 2.94238 9.5155 2.94238C9.88983 2.94238 10.2052 3.07055 10.4615 3.32688C10.7179 3.58333 10.8462 3.89961 10.8462 4.27572C10.8462 4.39794 10.8293 4.51461 10.7955 4.62572C10.7617 4.73683 10.7128 4.84238 10.6487 4.94238H12.923C13.2299 4.94238 13.4861 5.04516 13.6917 5.25072C13.8972 5.45627 14 5.71244 14 6.01922V12.5064C14 12.8133 13.8972 13.0695 13.6917 13.2751C13.4861 13.4806 13.2299 13.5834 12.923 13.5834H3.077C2.77011 13.5834 2.51389 13.4806 2.30833 13.2751C2.10278 13.0695 2 12.8133 2 12.5064V6.01922C2 5.71244 2.10278 5.45627 2.30833 5.25072C2.51389 5.04516 2.77011 4.94238 3.077 4.94238ZM2.66667 9.86538H13.3333V6.01922C13.3333 5.91666 13.2906 5.82266 13.2052 5.73722C13.1197 5.65177 13.0257 5.60905 12.923 5.60905H9.03583L10.359 7.43205L9.83083 7.81422L7.97433 5.28588L6.118 7.81422L5.58967 7.43205L6.90517 5.60905H3.077C2.97433 5.60905 2.88028 5.65177 2.79483 5.73722C2.70939 5.82266 2.66667 5.91666 2.66667 6.01922V9.86538ZM6.43583 4.94238C6.62472 4.94238 6.78306 4.87849 6.91083 4.75072C7.03861 4.62294 7.1025 4.46461 7.1025 4.27572C7.1025 4.08683 7.03861 3.92849 6.91083 3.80072C6.78306 3.67294 6.62472 3.60905 6.43583 3.60905C6.24694 3.60905 6.08861 3.67294 5.96083 3.80072C5.83306 3.92849 5.76917 4.08683 5.76917 4.27572C5.76917 4.46461 5.83306 4.62294 5.96083 4.75072C6.08861 4.87849 6.24694 4.94238 6.43583 4.94238ZM9.51283 4.94238C9.70172 4.94238 9.86006 4.87849 9.98783 4.75072C10.1156 4.62294 10.1795 4.46461 10.1795 4.27572C10.1795 4.08683 10.1156 3.92849 9.98783 3.80072C9.86006 3.67294 9.70172 3.60905 9.51283 3.60905C9.32395 3.60905 9.16561 3.67294 9.03783 3.80072C8.91006 3.92849 8.84617 4.08683 8.84617 4.27572C8.84617 4.46461 8.91006 4.62294 9.03783 4.75072C9.16561 4.87849 9.32395 4.94238 9.51283 4.94238Z" fill="#1E1E1E"/>
</g>
</g>
</svg>
