<svg width="16" height="16" viewBox="0 0 16 16" fill="none" xmlns="http://www.w3.org/2000/svg">
<g id="Rupees Circle" clip-path="url(#clip0_2003_3956)">
<path id="Vector" d="M8 0C3.58214 0 0 3.58214 0 8C0 12.4179 3.58214 16 8 16C12.4179 16 16 12.4179 16 8C16 3.58214 12.4179 0 8 0ZM8 14.6429C4.33214 14.6429 1.35714 11.6679 1.35714 8C1.35714 4.33214 4.33214 1.35714 8 1.35714C11.6679 1.35714 14.6429 4.33214 14.6429 8C14.6429 11.6679 11.6679 14.6429 8 14.6429Z" fill="#107036"/>
<path id="&#226;&#130;&#185;" d="M11.1098 7.47271H10.0784C10.0083 7.86719 9.83287 8.19921 9.55223 8.46877C9.2786 8.73175 8.9313 8.92242 8.51034 9.04076L10.3521 11.5556H8.72082L7.11062 9.18869H5.33203V8.22222H7.16324C7.54211 8.22222 7.84731 8.15647 8.07884 8.02498C8.31739 7.89349 8.47525 7.7094 8.55243 7.47271H5.33203V6.595H8.54191C8.46473 6.35831 8.30687 6.17751 8.06832 6.05259C7.83679 5.9211 7.53509 5.85536 7.16324 5.85536H5.33203V4.88889H11.1098V5.77646H9.37332C9.55574 5.87508 9.69606 5.99342 9.79429 6.13149C9.89953 6.26956 9.9732 6.42406 10.0153 6.595H11.1098V7.47271Z" fill="#107036"/>
</g>
<defs>
<clipPath id="clip0_2003_3956">
<rect width="16" height="16" fill="white"/>
</clipPath>
</defs>
</svg>
