<svg width="20" height="20" viewBox="0 0 20 20" fill="none" xmlns="http://www.w3.org/2000/svg">
<g clip-path="url(#clip0_253_4124)">
<path d="M19.2143 12.5412L17.7522 11.2912C17.8214 10.8671 17.8571 10.4341 17.8571 10.001C17.8571 9.56799 17.8214 9.13495 17.7522 8.71085L19.2143 7.46085C19.3246 7.36644 19.4035 7.2407 19.4406 7.10035C19.4777 6.96 19.4711 6.81169 19.4219 6.67513L19.4018 6.6171C18.9993 5.49215 18.3966 4.44932 17.6228 3.53897L17.5826 3.4921C17.4887 3.38172 17.3636 3.30238 17.2237 3.26452C17.0839 3.22667 16.9358 3.23208 16.7991 3.28004L14.9844 3.92513C14.3147 3.37602 13.567 2.94299 12.7589 2.63942L12.4085 0.742096C12.382 0.599333 12.3128 0.467994 12.2099 0.365529C12.1071 0.263063 11.9755 0.194321 11.8326 0.168435L11.7723 0.157275C10.6094 -0.0525469 9.38616 -0.0525469 8.22322 0.157275L8.16295 0.168435C8.02009 0.194321 7.88848 0.263063 7.78561 0.365529C7.68275 0.467994 7.6135 0.599333 7.58706 0.742096L7.23438 2.64835C6.43279 2.95198 5.68631 3.38479 5.02456 3.9296L3.19643 3.28004C3.05975 3.2317 2.91159 3.22609 2.77165 3.26397C2.6317 3.30185 2.50659 3.38141 2.41295 3.4921L2.37277 3.53897C1.59988 4.44996 0.997272 5.49263 0.593755 6.6171L0.573665 6.67513C0.473219 6.95415 0.555808 7.26665 0.781255 7.46085L2.26117 8.72424C2.19197 9.14388 2.15849 9.57245 2.15849 9.99879C2.15849 10.4274 2.19197 10.8559 2.26117 11.2733L0.781255 12.5367C0.670977 12.6311 0.59205 12.7569 0.554969 12.8972C0.517887 13.0376 0.524408 13.1859 0.573665 13.3225L0.593755 13.3805C0.997772 14.5055 1.59599 15.5434 2.37277 16.4586L2.41295 16.5055C2.50682 16.6159 2.63193 16.6952 2.7718 16.7331C2.91166 16.7709 3.05971 16.7655 3.19643 16.7175L5.02456 16.068C5.68974 16.6149 6.43304 17.0479 7.23438 17.3492L7.58706 19.2555C7.6135 19.3983 7.68275 19.5296 7.78561 19.6321C7.88848 19.7345 8.02009 19.8033 8.16295 19.8292L8.22322 19.8403C9.39685 20.0513 10.5987 20.0513 11.7723 19.8403L11.8326 19.8292C11.9755 19.8033 12.1071 19.7345 12.2099 19.6321C12.3128 19.5296 12.382 19.3983 12.4085 19.2555L12.7589 17.3582C13.5666 17.0554 14.3186 16.6209 14.9844 16.0725L16.7991 16.7175C16.9358 16.7659 17.084 16.7715 17.2239 16.7336C17.3638 16.6957 17.489 16.6162 17.5826 16.5055L17.6228 16.4586C18.3996 15.5412 18.9978 14.5055 19.4018 13.3805L19.4219 13.3225C19.5223 13.0479 19.4397 12.7354 19.2143 12.5412ZM16.1674 8.97424C16.2232 9.31129 16.2522 9.65727 16.2522 10.0033C16.2522 10.3492 16.2232 10.6952 16.1674 11.0323L16.0201 11.9274L17.6875 13.3537C17.4347 13.936 17.1157 14.4873 16.7366 14.9966L14.6652 14.2622L13.9643 14.8381C13.4308 15.2756 12.8371 15.6193 12.1942 15.8604L11.3438 16.1796L10.9442 18.3448C10.3138 18.4162 9.6773 18.4162 9.04688 18.3448L8.64733 16.1751L7.80358 15.8515C7.16742 15.6104 6.5759 15.2667 6.04688 14.8314L5.34599 14.2533L3.26117 14.9943C2.8817 14.4832 2.56474 13.9318 2.31027 13.3515L3.99554 11.9117L3.85045 11.0189C3.79688 10.6863 3.76786 10.3425 3.76786 10.0033C3.76786 9.66174 3.79465 9.32022 3.85045 8.98763L3.99554 8.09477L2.31027 6.65504C2.5625 6.07245 2.8817 5.52335 3.26117 5.01219L5.34599 5.75326L6.04688 5.17513C6.5759 4.73986 7.16742 4.39611 7.80358 4.15504L8.64956 3.83585L9.04911 1.6662C9.67634 1.59477 10.317 1.59477 10.9464 1.6662L11.346 3.83138L12.1964 4.15058C12.8371 4.39165 13.433 4.7354 13.9665 5.1729L14.6674 5.74879L16.7388 5.01442C17.1183 5.52558 17.4353 6.07692 17.6897 6.65727L16.0223 8.08361L16.1674 8.97424ZM10 5.85147C7.83036 5.85147 6.07143 7.6104 6.07143 9.78004C6.07143 11.9497 7.83036 13.7086 10 13.7086C12.1696 13.7086 13.9286 11.9497 13.9286 9.78004C13.9286 7.6104 12.1696 5.85147 10 5.85147ZM11.7679 11.5479C11.536 11.7804 11.2604 11.9648 10.957 12.0905C10.6536 12.2161 10.3284 12.2806 10 12.28C9.33259 12.28 8.70536 12.0189 8.23215 11.5479C7.99961 11.316 7.81521 11.0405 7.68956 10.7371C7.56392 10.4337 7.49949 10.1084 7.5 9.78004C7.5 9.11263 7.76117 8.4854 8.23215 8.01219C8.70536 7.53897 9.33259 7.28004 10 7.28004C10.6674 7.28004 11.2946 7.53897 11.7679 8.01219C12.0004 8.24406 12.1848 8.51962 12.3104 8.82301C12.4361 9.12641 12.5005 9.45166 12.5 9.78004C12.5 10.4475 12.2388 11.0747 11.7679 11.5479Z" fill="#1C1A27"/>
</g>
<defs>
<clipPath id="clip0_253_4124">
<rect width="20" height="20" fill="white"/>
</clipPath>
</defs>
</svg>
