<svg width="37" height="37" viewBox="0 0 37 37" fill="none" xmlns="http://www.w3.org/2000/svg">
<g id="local_shipping">
<mask id="mask0_865_15136" style="mask-type:alpha" maskUnits="userSpaceOnUse" x="0" y="0" width="37" height="37">
<path id="Bounding box" d="M0 0H37V37H0V0Z" fill="#D9D9D9"/>
</mask>
<g mask="url(#mask0_865_15136)">
<path id="local_shipping_2" d="M9.25008 30.8334C7.96536 30.8334 6.87335 30.3837 5.97404 29.4844C5.07473 28.5851 4.62508 27.4931 4.62508 26.2084H1.54175V9.25002C1.54175 8.4021 1.84366 7.67624 2.44748 7.07242C3.0513 6.4686 3.77716 6.16669 4.62508 6.16669H26.2084V12.3334H30.8334L35.4584 18.5V26.2084H32.3751C32.3751 27.4931 31.9254 28.5851 31.0261 29.4844C30.1268 30.3837 29.0348 30.8334 27.7501 30.8334C26.4654 30.8334 25.3733 30.3837 24.474 29.4844C23.5747 28.5851 23.1251 27.4931 23.1251 26.2084H13.8751C13.8751 27.4931 13.4254 28.5851 12.5261 29.4844C11.6268 30.3837 10.5348 30.8334 9.25008 30.8334ZM9.25008 27.75C9.68689 27.75 10.053 27.6023 10.3485 27.3068C10.644 27.0113 10.7917 26.6452 10.7917 26.2084C10.7917 25.7715 10.644 25.4054 10.3485 25.1099C10.053 24.8144 9.68689 24.6667 9.25008 24.6667C8.81328 24.6667 8.44713 24.8144 8.15164 25.1099C7.85616 25.4054 7.70842 25.7715 7.70842 26.2084C7.70842 26.6452 7.85616 27.0113 8.15164 27.3068C8.44713 27.6023 8.81328 27.75 9.25008 27.75ZM4.62508 23.125H5.85841C6.29522 22.6625 6.79626 22.29 7.36154 22.0073C7.92682 21.7247 8.55633 21.5834 9.25008 21.5834C9.94383 21.5834 10.5733 21.7247 11.1386 22.0073C11.7039 22.29 12.2049 22.6625 12.6417 23.125H23.1251V9.25002H4.62508V23.125ZM27.7501 27.75C28.1869 27.75 28.553 27.6023 28.8485 27.3068C29.144 27.0113 29.2917 26.6452 29.2917 26.2084C29.2917 25.7715 29.144 25.4054 28.8485 25.1099C28.553 24.8144 28.1869 24.6667 27.7501 24.6667C27.3133 24.6667 26.9471 24.8144 26.6516 25.1099C26.3562 25.4054 26.2084 25.7715 26.2084 26.2084C26.2084 26.6452 26.3562 27.0113 26.6516 27.3068C26.9471 27.6023 27.3133 27.75 27.7501 27.75ZM26.2084 20.0417H32.7605L29.2917 15.4167H26.2084V20.0417Z" fill="#6E6D75"/>
</g>
</g>
</svg>
