<svg width="555" height="555" viewBox="0 0 555 555" fill="none" xmlns="http://www.w3.org/2000/svg">
<path d="M63.9096 308.103C66.8178 307.198 69.1877 307.559 71.5159 305.258C74.1632 302.641 76.0835 297.222 70.1894 286.258C64.3786 275.446 55.7705 266.35 45.2977 259.951C39.9225 256.671 35.6268 257.264 33.3818 263.15C29.1638 274.211 34.897 286.205 37.2363 295.782C37.9578 298.732 38.51 301.909 39.7838 304.867C41.7679 309.471 45.4697 312.959 50.4814 312.959C54.6161 312.959 57.8435 310.597 61.6702 308.944C71.5464 338.93 69.9647 363.797 70.7833 375.252C70.8166 375.716 71.5797 375.899 71.6546 375.371C73.6055 362.046 71.9349 332.764 63.9068 308.103H63.9096ZM47.6731 309.629C42.8779 307.703 41.4765 301.856 40.4165 297.197C37.7303 285.356 32.0665 274.389 35.9765 264.141C37.5665 259.967 39.917 259.92 43.8519 262.32C53.9085 268.462 62.1697 277.194 67.7474 287.573C70.5502 292.79 73.142 299.75 69.5651 303.285C67.9084 304.923 65.7855 304.565 63.0077 305.414C57.1358 288.395 49.574 275.738 44.5096 270.473C43.8797 269.821 42.8751 270.651 43.283 271.42C45.8249 276.201 54.0251 287.038 60.7572 306.26C56.2118 308.264 52.299 311.488 47.6703 309.632L47.6731 309.629Z" fill="#1C1A27"/>
<path d="M47.6731 309.629C42.8779 307.703 41.4765 301.856 40.4165 297.197C37.7303 285.356 32.0665 274.389 35.9765 264.141C37.5665 259.967 39.917 259.92 43.8519 262.32C53.9085 268.462 62.1697 277.194 67.7474 287.573C70.5502 292.79 73.142 299.75 69.5651 303.285C67.9084 304.923 65.7855 304.565 63.0077 305.414C57.1358 288.395 49.574 275.738 44.5096 270.473C43.8797 269.821 42.8751 270.651 43.283 271.42C45.8249 276.201 54.0251 287.038 60.7572 306.26C56.2118 308.264 52.299 311.488 47.6703 309.632L47.6731 309.629Z" fill="#028640"/>
<path d="M59.3905 350.541C59.7679 350.421 60.223 350.258 60.8252 349.925C64.0747 348.129 65.1458 345.701 64.2967 342.047C62.6844 335.106 56.0605 330.319 50.3995 328.158C42.2632 325.044 37.3986 329.215 37.418 335.303C37.4236 337.648 38.1701 339.879 38.9693 341.944C41.1476 347.566 44.5248 356.307 50.6714 356.307C51.6788 356.307 52.7055 356.058 53.735 355.555C55.6886 354.606 56.313 352.927 57.448 351.665C63.7972 363.397 64.1579 369.946 66.167 375.044C66.4501 375.76 67.6073 375.732 67.5934 374.853C67.4935 368.689 62.6234 356.596 59.3849 350.546L59.3905 350.541ZM52.5279 353.058C47.2027 355.638 43.6979 346.45 41.5556 340.934C40.8535 339.122 40.1986 337.185 40.193 335.292C40.1764 330.924 43.3593 328.43 49.4088 330.747C54.4038 332.656 60.2285 336.791 61.5938 342.671C62.2043 345.299 61.6327 346.85 58.0113 348.057C55.2419 343.223 51.5955 337.773 48.5236 335.231C47.8465 334.671 46.7503 335.373 47.2471 336.216C49.0009 339.194 52.3919 342.984 56.0355 349.159C54.426 350.516 53.9043 352.386 52.5251 353.055L52.5279 353.058Z" fill="#1C1A27"/>
<path d="M52.5279 353.058C47.2027 355.638 43.6979 346.45 41.5556 340.934C40.8535 339.122 40.1986 337.185 40.193 335.292C40.1764 330.924 43.3593 328.43 49.4088 330.747C54.4038 332.656 60.2285 336.791 61.5938 342.671C62.2043 345.299 61.6327 346.85 58.0113 348.057C55.2419 343.223 51.5955 337.773 48.5236 335.231C47.8465 334.671 46.7503 335.373 47.2471 336.216C49.0009 339.194 52.3919 342.984 56.0355 349.159C54.426 350.516 53.9043 352.386 52.5251 353.055L52.5279 353.058Z" fill="#028640"/>
<path d="M59.0049 371.53L59.5025 372.397L59.5293 372.382C59.5294 372.382 59.5294 372.382 59.5295 372.382C59.6312 372.324 59.7304 372.267 59.8275 372.211C61.0497 371.507 61.9347 370.998 63.0439 370.971L63.0439 370.971L63.0569 370.971C63.6778 370.948 64.3381 371.138 65.0871 371.398C65.1748 371.429 65.2659 371.461 65.3588 371.494C65.6333 371.591 65.9238 371.694 66.1923 371.775C66.5535 371.885 66.97 371.987 67.3892 371.992L67.4015 371.993L67.4138 371.992C68.1148 371.984 68.7946 371.693 69.3341 371.437C69.5426 371.338 69.7357 371.241 69.9223 371.148C70.2847 370.967 70.6225 370.798 71.0001 370.647L71.0016 370.647C73.6509 369.583 76.8364 370.199 78.8975 372.175L78.8982 372.176C79.3693 372.627 79.6833 372.999 79.9496 373.336C80.0074 373.409 80.0664 373.485 80.1268 373.563C80.3297 373.824 80.5482 374.105 80.7895 374.362C81.4856 375.102 82.3899 375.681 84.2721 376.4L84.2728 376.4C84.8515 376.621 85.3799 376.826 85.8928 377.103L85.9483 378.055C85.6244 377.839 85.2894 377.663 84.941 377.506C84.6065 377.356 84.2324 377.212 83.8703 377.073C83.6916 377.005 83.5158 376.937 83.3491 376.871C82.8132 376.656 82.2485 376.406 81.6248 376.041L59.0049 371.53ZM59.0049 371.53L59.5025 372.397C57.5998 373.489 55.0057 374.995 53.5283 376.97L53.0257 377.641L52.2768 377.263C52.1231 377.186 51.9416 377.193 51.832 377.246C51.7862 377.269 51.762 377.294 51.7473 377.318C51.734 377.34 51.7048 377.398 51.7072 377.526L59.0049 371.53ZM86.3545 384.882C86.8239 392.439 87.3436 399.839 87.9115 407.051C87.0849 410.123 85.8785 412.424 84.1729 414.137C82.4407 415.877 80.1201 417.083 76.9591 417.821C69.2986 419.608 63.5165 418.805 59.5009 415.955C55.4875 413.106 53.0065 408.046 52.3133 400.804L86.3545 384.882ZM86.3545 384.882C83.9846 385.88 81.2443 386.193 79.1182 386.396C75.0821 386.782 69.8791 386.8 65.1214 385.898C60.4101 385.005 55.8897 383.162 53.5446 379.617L53.273 379.206L53.4328 378.741C53.8565 377.505 54.8718 376.462 55.9986 375.578C57.146 374.677 58.5472 373.838 59.9171 373.053L59.9174 373.052C60.5289 372.702 61.0274 372.421 61.4478 372.216C61.8697 372.011 62.2703 371.853 62.6874 371.783C63.5238 371.644 64.2374 371.906 65.0313 372.197C65.0607 372.207 65.0902 372.218 65.1199 372.229L65.1207 372.229C66.7849 372.839 67.605 372.833 68.274 372.658C68.6446 372.561 69.0143 372.401 69.5078 372.167C69.5849 372.131 69.6649 372.092 69.7477 372.053C70.179 371.847 70.6882 371.604 71.2895 371.363L71.2902 371.363C73.6469 370.421 76.5292 370.982 78.3606 372.734L78.3616 372.735C78.7537 373.111 79.1471 373.589 79.5086 374.028C79.6602 374.212 79.8063 374.389 79.9443 374.549C80.4541 375.141 80.9751 375.659 81.6246 376.041L86.3545 384.882ZM51.7633 384.405C51.7793 389.911 51.7953 395.388 52.3133 400.803L51.7633 384.405ZM51.7633 384.405C51.7566 382.116 51.7499 379.822 51.7072 377.526L51.7633 384.405Z" fill="#1C1A27" stroke="#1C1A27" stroke-width="2"/>
<path d="M85.6203 351.09L85.5037 348.185C85.2179 348.09 84.5769 348.002 84.452 347.799C85.6564 344.819 85.4482 347.194 85.1791 339.43C84.0718 341.897 83.0562 344.339 82.1266 346.725C79.2239 346.051 77.0733 343.065 76.6237 340.207C75.7191 334.482 79.8372 327.358 84.6518 321.892L84.5547 317.915C78.4247 324.114 72.7027 333.142 73.882 340.637C74.4787 344.427 77.2426 348.276 81.1331 349.348C76.4461 362.038 74.326 372.76 74.5952 376.462C74.6257 376.903 75.3028 377.209 75.5248 376.715C77.1482 373.082 78.3054 364.002 83.503 350.355C84.1828 350.693 84.8932 350.932 85.6258 351.087L85.6203 351.09Z" fill="#1C1A27"/>
<path d="M279.518 276.615L271.953 275.785C270.583 323.906 273.424 386.38 275.586 424.239C204.316 420.621 148.122 413.05 103.877 401.101C100.25 362.626 97.528 303.388 100.758 253.885L92.5663 252.675C89.4528 304.967 92.3721 366.591 96.1849 406.501C96.2404 407.076 96.6456 407.556 97.2006 407.709C144.711 420.654 205.19 429.215 282.149 432.639C283.023 432.678 283.65 431.962 283.603 431.174C278.952 350.41 278.76 303.646 279.518 276.615Z" fill="#1C1A27"/>
<path d="M425.659 120.221C291.333 119.813 183.943 116.034 97.7458 108.68C196.766 79.337 299.519 89.0245 530.171 86.4854C479.777 106.457 453.545 112.373 425.659 120.221Z" fill="#1C1A27"/>
<path d="M356.534 251.398C343.863 250.951 330.56 250.316 316.854 249.525C341.907 226.748 370.098 196.886 379.891 161.857C393.158 163.145 406.8 164.507 420.839 165.948C402.502 202.225 383.751 227.122 356.534 251.398Z" fill="#573CFA"/>
<path d="M312.972 249.297C300.607 248.559 287.939 247.696 275.127 246.739C302.399 224.789 320.559 197.965 335.461 157.706C348.919 158.913 362.786 160.206 377.088 161.588C367.09 196.683 338.116 226.659 312.972 249.297Z" fill="#573CFA"/>
<path d="M271.053 246.431C255.546 245.246 239.865 243.922 224.3 242.501C224.896 241.749 225.557 241.086 226.267 240.537C252.249 220.465 275.476 186.402 285.68 153.491C300.759 154.687 316.38 156.005 332.597 157.448C316.027 201.925 296.444 226.451 271.053 246.431Z" fill="#573CFA"/>
<path d="M224.569 238.342C223.251 239.36 222.08 240.681 221.117 242.213C207.38 240.947 193.75 239.61 180.427 238.228C206.845 216.958 237.326 185.295 241.285 150.227C254.675 151.132 268.514 152.145 282.847 153.271C272.704 185.484 249.974 218.72 224.572 238.344L224.569 238.342Z" fill="#573CFA"/>
<path d="M176.492 237.817C162.256 236.327 148.401 234.792 135.175 233.252C136.116 232.389 137.29 231.593 138.427 230.794C164.704 212.351 187.295 180.502 197.657 147.583C210.81 148.282 224.413 149.1 238.513 150.041C234.492 185.101 202.946 216.91 176.492 237.817Z" fill="#573CFA"/>
<path d="M136.407 228.821L136.37 228.847C134.793 229.955 133.048 231.181 131.792 232.858C117.557 231.185 104.084 229.506 91.7018 227.874C92.2774 227.447 92.9337 227.054 93.6018 226.654L93.7331 226.576C122.205 209.615 147.884 178.008 159.392 145.84C170.837 146.27 182.622 146.8 194.793 147.435C184.823 178.588 163.355 209.895 136.407 228.821Z" fill="#573CFA"/>
<path d="M92.2124 224.25L92.2035 224.256C90.8045 225.089 89.2603 226.01 88.1998 227.408C74.408 225.566 62.051 223.79 51.5948 222.144C78.6149 200.432 108.244 174.825 121.428 144.752C132.766 144.969 144.432 145.293 156.479 145.732C145.035 177.042 120.018 207.689 92.2097 224.253L92.2124 224.25Z" fill="#573CFA"/>
<path d="M88.5522 144.416C98.2647 144.419 108.205 144.511 118.414 144.691C102.907 178.912 66.3883 205.78 47.9123 221.553C31.5953 218.919 20.4953 216.661 16.6325 215.084C40.9388 191.372 65.8111 174.314 88.5522 144.416Z" fill="#573CFA"/>
<path d="M45.3233 243.764C30.6879 241.203 20.537 239.083 16.5909 237.654C15.5642 231.496 15.2478 224.883 15.6252 217.521C20.1651 219.222 30.7379 221.434 45.734 223.928C44.0246 226.587 44.488 228.002 45.3233 243.764Z" fill="#CCCCCF"/>
<path fill-rule="evenodd" clip-rule="evenodd" d="M131.012 256.801L131.012 256.804L131.012 256.801ZM131.012 256.804L131.015 256.801L131.012 256.804Z" fill="#1C1A27"/>
<path d="M48.1288 244.25C47.2547 227.791 46.6331 226.72 48.8725 224.442C59.695 226.201 72.5904 228.088 87.0287 230.031C86.4515 232.889 87.2507 247.632 87.4422 250.521C72.4711 248.268 59.1483 246.148 48.1288 244.25Z" fill="#CCCCCF"/>
<path d="M89.7871 230.402C89.2321 232.689 90.0313 247.755 90.2505 250.943C102.856 252.827 116.567 254.797 131.012 256.801C129.811 239.973 129.475 238.408 130.424 235.489C115.997 233.785 102.338 232.076 89.7871 230.402Z" fill="#CCCCCF"/>
<path d="M174.755 240.415C174.359 249.055 174.137 253.899 173.742 262.54C160.056 260.758 146.663 258.963 133.824 257.192C132.591 239.943 132.222 238.258 133.26 235.819C146.555 237.376 160.472 238.919 174.755 240.415Z" fill="#CCCCCF"/>
<path d="M218.813 268.215C204.605 266.486 190.414 264.701 176.503 262.898L177.519 240.703C191.352 242.143 205.507 243.537 219.754 244.852C218.125 248.784 218.514 250.369 218.813 268.215Z" fill="#CCCCCF"/>
<path d="M268.225 273.981C252.927 272.277 237.264 270.451 221.594 268.55C221.269 249.411 220.95 248.687 222.671 245.118C237.93 246.514 253.271 247.818 268.408 248.989C266.366 251.764 266.921 252.755 268.225 273.981Z" fill="#CCCCCF"/>
<path d="M310.111 251.895C309.747 252.369 309.989 250.271 308.107 278.219C296.156 277.017 283.726 275.699 271.028 274.292L269.857 255.23C269.674 252.239 269.796 251.132 271.974 249.261C284.914 250.246 297.687 251.134 310.111 251.895Z" fill="#CCCCCF"/>
<path d="M355.668 277.167C354.994 282.19 353.676 282.403 349.577 282.054C337.545 281.024 324.533 279.853 310.869 278.493L312.561 253.393L313.977 252.125C328.526 252.991 342.567 253.679 355.804 254.151C356.909 263.683 356.995 267.285 355.668 277.167Z" fill="#CCCCCF"/>
<path fill-rule="evenodd" clip-rule="evenodd" d="M538.985 84.9342C538.918 84.0684 538.23 83.6188 537.586 83.616C229.286 82.7502 170.573 82.6226 90.1339 108.105C89.7455 108.222 89.4402 108.477 89.246 108.891C88.5994 110.631 87.3895 123.057 86.1713 142.957C63.1665 173.132 38.3719 189.726 13.3886 214.374C13.1471 214.61 13.0001 214.932 12.9779 215.268C12.3896 224.003 12.717 231.732 13.988 238.894C14.0684 239.355 14.3792 239.743 14.8066 239.929C20.6174 242.415 46.5415 247.08 82.6359 252.558C82.228 306.296 83.6543 368.209 89.1405 425.627C89.196 426.201 89.6012 426.681 90.1562 426.834C176.353 450.319 286.113 465.623 425.776 472.072C425.948 472.08 426.112 472.055 426.245 472.014C438.53 468.12 461.318 451.978 483.157 433.691C481.57 433.955 479.938 434.082 478.22 434.102C459.978 449.195 440.969 462.662 427.119 468.653C421.647 372.3 418.927 217.191 427.144 122.682C458.426 113.902 483.537 108.241 536.307 87.0182C541.454 191.014 540.888 269.819 534.248 376.87C529.805 385.214 515.583 400.649 498.156 416.694C498.861 417.471 499.424 418.306 499.757 419.203C517.423 403.13 532.203 387.407 536.848 378.424C536.937 378.252 537.284 377.228 537.297 377.036C544.005 269.05 546.943 189.932 538.982 84.9314L538.985 84.9342ZM118.414 144.691C108.205 144.511 98.2647 144.419 88.5522 144.416C65.8111 174.314 40.9388 191.372 16.6325 215.084C20.4953 216.661 31.5953 218.919 47.9123 221.553C66.3883 205.78 102.907 178.912 118.414 144.691ZM316.854 249.525C330.56 250.316 343.863 250.951 356.534 251.398C383.751 227.122 402.502 202.225 420.839 165.948C406.8 164.507 393.158 163.145 379.891 161.857C370.098 196.886 341.907 226.748 316.854 249.525ZM349.577 282.054C353.676 282.403 354.994 282.19 355.668 277.167C356.995 267.285 356.909 263.683 355.804 254.151C342.567 253.679 328.526 252.991 313.977 252.125L312.561 253.393L310.869 278.493C324.533 279.853 337.545 281.024 349.577 282.054ZM275.127 246.739C287.939 247.696 300.607 248.559 312.972 249.297C338.116 226.659 367.09 196.683 377.088 161.588C362.786 160.206 348.919 158.913 335.461 157.706C320.559 197.965 302.399 224.789 275.127 246.739ZM308.107 278.219C309.989 250.271 309.747 252.369 310.111 251.895C297.687 251.134 284.914 250.246 271.974 249.261C269.796 251.132 269.674 252.239 269.857 255.23L271.028 274.292C283.726 275.699 296.156 277.017 308.107 278.219ZM224.3 242.501C239.865 243.922 255.546 245.246 271.053 246.431C296.444 226.451 316.027 201.925 332.597 157.448C316.38 156.005 300.759 154.687 285.68 153.491C275.476 186.402 252.249 220.465 226.267 240.537C225.557 241.086 224.896 241.749 224.3 242.501ZM221.594 268.55C237.264 270.451 252.927 272.277 268.225 273.981C266.921 252.755 266.366 251.764 268.408 248.989C253.271 247.818 237.93 246.514 222.671 245.118C220.95 248.687 221.269 249.411 221.594 268.55ZM221.117 242.213C222.08 240.681 223.251 239.36 224.569 238.342L224.572 238.344C249.974 218.72 272.704 185.484 282.847 153.271C268.514 152.145 254.675 151.132 241.285 150.227C237.326 185.295 206.845 216.958 180.427 238.228C193.75 239.61 207.38 240.947 221.117 242.213ZM176.503 262.898C190.414 264.701 204.605 266.486 218.813 268.215C218.514 250.369 218.125 248.784 219.754 244.852C205.507 243.537 191.352 242.143 177.519 240.703L176.503 262.898ZM135.175 233.252C148.401 234.792 162.256 236.327 176.492 237.817C202.946 216.91 234.492 185.101 238.513 150.041C224.413 149.1 210.81 148.282 197.657 147.583C187.295 180.502 164.704 212.351 138.427 230.794C137.29 231.593 136.116 232.389 135.175 233.252ZM173.742 262.54C174.137 253.899 174.359 249.055 174.755 240.415C160.472 238.919 146.555 237.376 133.26 235.819C132.222 238.258 132.591 239.943 133.824 257.192C146.663 258.963 160.056 260.758 173.742 262.54ZM91.7018 227.874C104.084 229.506 117.557 231.185 131.792 232.858C133.048 231.181 134.793 229.955 136.37 228.847L136.407 228.821C163.355 209.895 184.823 178.588 194.793 147.435C182.622 146.8 170.837 146.27 159.392 145.84C147.884 178.008 122.205 209.615 93.7331 226.576L93.6018 226.654C92.9337 227.054 92.2774 227.447 91.7018 227.874ZM90.2505 250.943C90.0313 247.755 89.2321 232.689 89.7871 230.402C102.338 232.076 115.997 233.785 130.424 235.489C129.475 238.408 129.811 239.973 131.012 256.801L131.015 256.801L131.012 256.804L131.012 256.801C116.567 254.797 102.856 252.827 90.2505 250.943ZM51.5948 222.144C62.051 223.79 74.408 225.566 88.1998 227.408C89.2603 226.01 90.8045 225.089 92.2035 224.256L92.2124 224.25L92.2097 224.253C120.018 207.689 145.035 177.042 156.479 145.732C144.432 145.293 132.766 144.969 121.428 144.752C108.244 174.825 78.6149 200.432 51.5948 222.144ZM16.5909 237.654C20.537 239.083 30.6879 241.203 45.3233 243.764C44.488 228.002 44.0246 226.587 45.734 223.928C30.7379 221.434 20.1651 219.222 15.6252 217.521C15.2478 224.883 15.5642 231.496 16.5909 237.654ZM48.8725 224.442C46.6331 226.72 47.2547 227.791 48.1288 244.25C59.1483 246.148 72.4711 248.268 87.4422 250.521C87.2507 247.632 86.4515 232.889 87.0287 230.031C72.5904 228.088 59.695 226.201 48.8725 224.442ZM91.8128 424.414C177.361 447.613 286.168 462.276 424.374 469.228L424.377 469.233C419.393 381.765 417.257 261.144 421.291 171.173C403.448 205.599 384.933 229.775 358.507 253.368C359.697 263.533 359.811 267.191 358.421 277.542C358.096 279.97 357.466 282.639 355.274 284.055C353.443 285.237 351.356 284.993 349.349 284.826C276.459 278.774 160.192 264.255 85.3832 252.98C84.9447 313.397 87.087 374.47 91.8128 424.414ZM89.3431 141.647C195.867 141.744 315.83 152.489 421.666 163.247L421.669 163.245C422.387 148.87 423.27 135.356 424.338 122.991C287.553 122.552 178.734 118.612 91.7795 110.947C90.8693 120.82 90.059 131.085 89.3431 141.647ZM97.7458 108.68C183.943 116.034 291.333 119.813 425.659 120.221C453.545 112.373 479.777 106.457 530.171 86.4854C299.519 89.0245 196.766 79.337 97.7458 108.68Z" fill="#1C1A27"/>
<path d="M400.444 274.35L400.443 274.372V274.377C398.067 324.337 398.573 410.238 400.299 469.276L400.299 469.277C400.302 469.386 400.26 469.49 400.192 469.562C400.135 469.622 400.039 469.68 399.868 469.674C364.108 468.327 329.89 464.881 298.028 461.653C297.834 461.632 297.686 461.474 297.677 461.284C295.374 413.128 295.268 331.938 297.308 279.515C315.873 281.44 333.475 283.116 349.379 284.435L349.38 284.435C349.498 284.445 349.619 284.455 349.743 284.466C350.485 284.53 351.324 284.602 352.135 284.566C353.1 284.523 354.128 284.325 355.06 283.724C356.177 283.004 356.847 281.933 357.271 280.83C357.691 279.735 357.893 278.54 358.034 277.486C358.258 275.814 358.443 274.314 358.591 272.93C371.382 273.522 385.177 273.857 400.058 273.941L400.06 273.941C400.276 273.942 400.454 274.123 400.444 274.35ZM401.443 274.395C401.479 273.601 400.849 272.944 400.064 272.941L401.443 274.395ZM313.18 446.928L313.231 447.732L314.027 447.853C328.728 450.084 344.027 451.359 361.729 452.834C368.729 453.418 376.104 454.033 383.967 454.75L385.121 454.855L385.056 453.698C384.225 439.001 384.258 428.403 384.644 414.744L384.671 413.77L383.699 413.717C358.993 412.359 335.655 410 314.271 406.706L313.209 406.543L313.122 407.614C312.41 416.382 312.181 431.333 313.18 446.928ZM313.195 390.71L313.237 391.525L314.044 391.648C328.795 393.887 344.43 395.189 362.175 396.667C369.107 397.244 376.362 397.848 384.011 398.545L385.137 398.648L385.101 397.518C383.808 355.88 383.136 328.135 385.067 293.64L385.126 292.592L384.076 292.584C355.57 292.379 332.722 290.859 314.331 287.951L313.231 287.777L313.176 288.89C311.384 325.358 311.39 355.07 313.195 390.71ZM393.721 405.232L393.721 405.231C393.655 396.337 393.735 387.313 393.959 378.421L393.959 378.421C393.998 376.874 392.763 376.036 391.661 375.977C391.101 375.947 390.492 376.1 390.003 376.508C389.495 376.932 389.203 377.561 389.185 378.302C388.963 387.245 388.882 396.316 388.946 405.265C388.956 406.586 390.037 407.635 391.339 407.635H391.343C392.661 407.63 393.731 406.552 393.721 405.232Z" fill="#FB8D1A" stroke="#1C1A27" stroke-width="2"/>
<path d="M331.042 341.286C346.276 367.241 346.201 367.368 348.313 369.733C348.938 370.429 350.308 369.697 349.945 368.784C348.716 365.695 348.388 365.465 332.201 340.606C331.733 339.885 330.6 340.534 331.042 341.286Z" fill="#1C1A27"/>
<path d="M344.875 310.523C347.914 317.288 357.243 337.243 358.725 340.515C360.307 344.008 362.039 347.313 363.923 350.652C364.492 351.659 366.209 350.988 365.824 349.85C364.664 346.406 363.432 343.123 361.85 339.852C357.596 331.052 351.141 318.803 345.586 310.106C345.294 309.651 344.662 310.045 344.875 310.523Z" fill="#1C1A27"/>
<path d="M331.341 420.482C333.516 425.618 335.692 429.592 338.936 434.129C340.712 436.616 340.643 436.433 342.599 437.87C343.345 438.419 344.156 437.384 343.787 436.682C343.39 435.936 343.051 435.137 342.546 434.457C341.941 433.641 336.849 427.891 332.465 419.821C332.054 419.067 331.024 419.733 331.341 420.482Z" fill="#1C1A27"/>
<path d="M351.732 420.207C353.86 423.648 358.525 430.533 363.598 439.618C364.186 440.673 364.849 441.361 365.751 442.155C366.531 442.843 367.583 442.163 367.419 441.183C367.036 438.902 366.753 438.63 364.677 435.248C361.572 430.192 356.882 423.454 353.095 419.155C352.442 418.415 351.219 419.375 351.732 420.207Z" fill="#1C1A27"/>
<path d="M130.919 329.146C146.348 361.824 168.676 391.467 178.03 400.238C178.841 400.999 180.298 400.002 179.632 399.003C171.201 386.374 157.409 373.551 131.555 328.774C131.313 328.357 130.72 328.724 130.919 329.146Z" fill="#1C1A27"/>
<path d="M152.806 278.493C157.954 287.235 173.269 312.501 180.032 319.73C180.931 320.693 182.388 319.469 181.802 318.365C178.977 313.026 168.435 299.04 153.969 277.816C153.486 277.108 152.365 277.739 152.809 278.493H152.806Z" fill="#1C1A27"/>
<path d="M209.08 277.714C216.37 291.747 225.922 306.407 235.099 318.381C238.379 322.66 241.681 327.217 245.929 330.591C246.928 331.385 248.535 330.403 247.802 329.146C243.085 321.051 231.957 311.83 210.279 277.012C209.804 276.251 208.669 276.92 209.08 277.711V277.714Z" fill="#1C1A27"/>
<path d="M239.094 384.949L239.094 384.947C238.729 378.615 238.375 373.023 238.054 367.951C236.596 344.906 235.814 332.567 237.798 310.057C237.817 309.837 237.644 309.643 237.424 309.638L237.422 309.638C231.366 309.482 225.061 309.179 218.665 308.759L218.251 308.732L217.978 308.42C208.255 297.326 197.58 286.999 186.182 277.666C185.225 276.883 184.573 276.63 184.052 276.61C183.533 276.59 182.938 276.791 182.071 277.388L182.069 277.389C171.619 284.553 161.366 292.229 151.519 300.256L151.161 300.548L150.706 300.464C142.62 298.972 135.752 297.441 130.753 295.988M239.094 384.949L131.029 295.027M239.094 384.949C239.107 385.168 238.934 385.355 238.708 385.355H238.663C195.4 383.201 160.171 380.937 131.834 373.216M239.094 384.949L131.57 374.181M130.753 295.988C130.752 295.988 130.751 295.987 130.75 295.987L131.029 295.027M130.753 295.988C130.754 295.988 130.754 295.988 130.755 295.988L131.029 295.027M130.753 295.988C130.513 295.92 130.278 296.084 130.254 296.326M131.029 295.027C130.194 294.788 129.342 295.36 129.259 296.231M130.254 296.326C130.254 296.325 130.254 296.325 130.255 296.324L129.259 296.231M130.254 296.326C127.427 326.675 128.899 345.152 131.55 372.879L130.555 372.974M130.254 296.326C130.254 296.326 130.254 296.326 130.254 296.326L129.259 296.231M129.259 296.231L130.555 372.974M130.555 372.974L131.55 372.878C131.566 373.038 131.679 373.173 131.834 373.216M130.555 372.974C130.61 373.548 131.015 374.028 131.57 374.181M131.834 373.216C131.834 373.216 131.834 373.216 131.833 373.216L131.57 374.181M131.834 373.216C131.835 373.217 131.835 373.217 131.836 373.217L131.57 374.181M191.465 360.058L191.465 360.058C191.242 360.017 190.999 359.977 190.742 359.935C189.883 359.793 188.867 359.626 187.941 359.335C186.712 358.949 185.43 358.291 184.632 356.996L184.632 356.995C183.985 355.946 183.681 354.697 183.508 353.528C183.385 352.701 183.319 351.836 183.261 351.068C183.238 350.761 183.215 350.469 183.191 350.201C183.191 350.201 183.191 350.201 183.191 350.201L184.187 350.111L191.465 360.058ZM191.465 360.058C191.792 360.117 192.142 360.185 192.507 360.256C193.354 360.421 194.282 360.602 195.189 360.723C196.5 360.899 197.902 360.974 199.211 360.699M191.465 360.058L189.154 344.916M189.154 344.916C189.528 344.954 189.892 344.989 190.264 345.024C191.487 345.141 192.788 345.265 194.725 345.545C195.516 345.661 196.333 345.775 197.357 345.315L197.357 345.314C198.231 344.921 198.635 344.077 198.717 343.335C198.798 342.601 198.593 341.724 197.941 341.138C197.17 340.441 195.994 340.194 194.926 340.081C193.806 339.963 192.523 339.973 191.341 339.984C191.341 339.984 191.34 339.984 191.34 339.984M189.154 344.916L191.34 339.984M189.154 344.916C189.103 347.265 189.237 349.524 189.486 351.462C189.51 351.648 189.525 351.877 189.539 352.085L189.541 352.11C189.556 352.339 189.571 352.569 189.595 352.792C189.619 353.017 189.649 353.207 189.687 353.355C189.696 353.391 189.704 353.421 189.712 353.445C189.769 353.463 189.845 353.484 189.944 353.506C190.084 353.536 190.236 353.562 190.4 353.589C190.415 353.592 190.431 353.594 190.447 353.597C190.587 353.62 190.75 353.646 190.888 353.676C193.262 354.192 194.794 354.336 195.998 354.443C196.045 354.447 196.092 354.452 196.138 354.456C197.277 354.557 198.244 354.642 199.351 355.05L199.352 355.05C200.603 355.511 201.311 356.728 201.379 357.862C201.414 358.448 201.285 359.075 200.913 359.612C200.533 360.163 199.946 360.545 199.211 360.699M191.34 339.984L191.3 339.984C190.745 339.989 190.143 339.994 189.528 340.031C189.82 337.811 190.276 335.607 190.878 333.452C190.899 333.378 190.92 333.299 190.939 333.231C190.944 333.214 190.948 333.198 190.952 333.182C191.041 333.167 191.149 333.148 191.272 333.124L191.273 333.124C192.922 332.806 194.266 332.79 195.525 332.776C195.571 332.775 195.616 332.775 195.662 332.774C196.938 332.759 198.219 332.738 199.517 332.278L199.519 332.277C200.337 331.985 200.86 331.313 200.947 330.531C201.031 329.77 200.691 329.014 200.042 328.53C200.043 328.53 200.043 328.53 200.043 328.531L191.34 339.984ZM199.211 360.699L199.006 359.72L199.211 360.699C199.211 360.699 199.211 360.699 199.211 360.699ZM184.011 277.387L183.968 277.384L183.924 277.386C183.693 277.394 183.497 277.479 183.431 277.507L183.428 277.508C183.325 277.552 183.215 277.608 183.108 277.667C182.891 277.785 182.62 277.949 182.308 278.148C181.68 278.547 180.834 279.117 179.825 279.819C177.806 281.223 175.099 283.175 172.108 285.379C166.126 289.787 158.979 295.224 153.862 299.349L152.146 300.732L154.316 301.112C171.513 304.129 193.461 306.928 214.706 308.481L217.176 308.662L215.524 306.817C209.054 299.592 201.619 292.309 195.656 286.826C192.674 284.084 190.053 281.785 188.098 280.164C187.122 279.355 186.303 278.707 185.682 278.255C185.374 278.03 185.1 277.843 184.872 277.706C184.759 277.638 184.641 277.573 184.525 277.521C184.436 277.481 184.243 277.399 184.011 277.387ZM150.728 353.511L150.728 353.511C154.171 353.561 157.265 351.548 159.169 348.983C161.633 345.668 162.013 341.351 162.091 337.681C162.127 336.001 162.072 333.884 161.733 331.785C161.396 329.7 160.766 327.547 159.599 325.86C156.55 321.451 152.505 319.92 148.769 321.027C145.114 322.11 142.107 325.623 140.815 330.546L140.815 330.546C139.699 334.798 139.849 340.392 141.365 344.968C142.868 349.503 145.879 353.437 150.728 353.511ZM166.798 355.211L166.799 355.211C167.749 355.254 168.523 354.915 169.036 354.248C169.499 353.645 169.662 352.887 169.718 352.231C169.806 351.177 169.636 349.96 169.53 349.203C169.506 349.029 169.485 348.879 169.471 348.761C169.29 347.189 169.158 345.612 169.07 344.031C174.213 344.856 178.411 343.037 180.797 340.093C183.372 336.916 183.789 332.434 180.905 328.964C179.259 326.983 176.943 325.526 174.65 324.7C172.705 324 170.65 323.71 168.956 324.049C168.491 323.538 167.821 323.295 167.192 323.3C166.265 323.308 165.284 323.843 164.89 324.928L164.89 324.928C163.7 328.217 163.152 332.446 162.975 336.638C162.798 340.845 162.992 345.089 163.323 348.447C163.34 348.615 163.354 348.832 163.371 349.083C163.427 349.904 163.507 351.09 163.759 352.111C163.927 352.794 164.196 353.525 164.663 354.11C165.158 354.73 165.866 355.169 166.798 355.211ZM191.032 332.915C191.032 332.915 191.031 332.918 191.029 332.924C191.031 332.918 191.032 332.915 191.032 332.915ZM189.615 353.406C189.615 353.405 189.617 353.407 189.622 353.41C189.617 353.407 189.615 353.406 189.615 353.406ZM206.959 351.765C207.011 349.052 207.12 345.849 207.525 342.043C210.155 348.408 212.919 354.72 215.843 360.958C216.17 361.655 216.707 362.129 217.346 362.357C217.966 362.579 218.62 362.55 219.193 362.372C220.3 362.028 221.393 361.01 221.415 359.558L221.875 329.874L221.875 329.874C221.889 328.957 221.533 328.196 220.939 327.679C220.366 327.181 219.633 326.959 218.937 326.959C218.241 326.959 217.509 327.181 216.931 327.671C216.333 328.177 215.955 328.927 215.941 329.843L215.686 346.309C213.386 341.074 211.175 335.802 209.071 330.485C208.604 329.302 207.432 328.602 206.328 328.522C205.756 328.48 205.137 328.598 204.605 328.966C204.059 329.344 203.69 329.926 203.54 330.65L203.54 330.651C202.801 334.239 201.905 339.887 201.512 345.509C201.122 351.079 201.209 356.815 202.558 360.461L202.558 360.462C202.88 361.331 203.714 361.804 204.474 361.852C204.873 361.878 205.32 361.792 205.71 361.522C206.114 361.243 206.38 360.817 206.482 360.313L206.482 360.312C206.855 358.463 206.89 356.15 206.933 353.365C206.94 352.848 206.948 352.314 206.959 351.765Z" fill="#573CFA" stroke="#1C1A27" stroke-width="2"/>
<path d="M148.189 345.274L147.314 345.753L148.189 345.274C146.695 342.543 145.966 338.146 146.41 334.245C146.632 332.305 147.135 330.565 147.917 329.251C148.674 327.978 149.662 327.147 150.897 326.841C152.567 326.791 153.773 327.763 154.631 329.51C155.516 331.314 155.923 333.779 155.941 336.151L155.941 336.152C155.96 338.755 155.897 341.274 155.107 343.579L156.053 343.903L155.107 343.579C154.464 345.452 153.117 346.794 151.803 347.199C151.165 347.395 150.542 347.374 149.962 347.112C149.377 346.847 148.747 346.295 148.189 345.274Z" fill="#573CFA" stroke="#1C1A27" stroke-width="2"/>
<path d="M176.365 336.262L176.365 336.263C175.22 337.703 173.52 338.092 171.822 338.067C170.981 338.054 170.184 337.939 169.522 337.824C169.357 337.795 169.202 337.767 169.055 337.74C169.039 337.737 169.024 337.734 169.008 337.731C168.986 337.727 168.964 337.723 168.942 337.719C168.971 334.386 169.138 332.404 169.291 330.574C169.344 329.951 169.395 329.345 169.438 328.709C171.181 328.931 172.775 329.563 174.076 330.364C175.59 331.296 176.617 332.398 177.044 333.231C177.177 333.764 177.214 334.232 177.137 334.68C177.056 335.148 176.84 335.665 176.365 336.262Z" fill="#573CFA" stroke="#1C1A27" stroke-width="2"/>
<path d="M491.496 411.454C494.017 412.897 497.264 414.775 499.104 417.214V418.7C498.357 417.23 496.993 415.979 495.576 414.933C494.071 413.821 492.344 412.83 490.876 411.987C490.634 411.848 490.399 411.713 490.173 411.583L490.173 411.583C489.036 410.924 488.147 410.511 487.203 410.451C486.268 410.391 485.402 410.692 484.386 411.065C482.935 411.597 481.893 411.742 481.087 411.703C480.29 411.665 479.653 411.445 479 411.134C478.763 411.021 478.517 410.891 478.257 410.754C477.098 410.14 475.66 409.378 473.497 409.378C471.304 409.378 469.081 410.196 467.473 411.733C466.948 412.234 466.491 412.793 466.077 413.298L466.063 413.316C466.062 413.317 466.062 413.317 466.061 413.318C463.982 415.839 462.295 416.577 460.765 417.148C460.631 417.198 460.496 417.247 460.36 417.297C459.131 417.746 457.848 418.214 456.629 419.472L456.572 419.414L455.882 420.354C454.71 421.952 454.061 423.525 454.209 425.062L454.258 425.577L454.707 425.834C460.214 428.987 469.647 430.28 478.445 429.544C482.866 429.174 487.194 428.287 490.857 426.823C494.506 425.365 497.587 423.297 499.378 420.503L499.623 420.12L499.496 419.685C499.427 419.447 499.341 419.214 499.24 418.986L500.764 417.644C500.848 417.571 501.019 417.528 501.194 417.599C501.27 417.63 501.322 417.674 501.353 417.719C501.38 417.758 501.412 417.826 501.41 417.951L501.41 417.952C501.346 421.45 501.293 424.558 501.247 427.332C500.938 445.607 500.874 449.372 499.425 454.644L499.425 454.644C497.842 460.407 494.705 464.906 490.678 467.401C485.993 470.303 480.032 470.596 474.282 469.99C466.832 469.195 462.422 467.143 459.573 463.834C456.687 460.483 455.258 455.685 454.16 449.029C452.838 441.023 451.497 432.88 452.103 424.713L452.103 424.711C452.112 424.588 452.162 424.507 452.229 424.451C452.304 424.387 452.407 424.351 452.509 424.354L453.356 424.377L453.519 423.546C453.738 422.427 454.301 421.212 455.261 419.903C456.773 417.846 458.337 417.241 460.048 416.588L460.049 416.587C462.488 415.653 463.634 414.906 464.5 413.989C464.813 413.659 465.089 413.304 465.354 412.963C465.429 412.867 465.503 412.771 465.577 412.678C465.924 412.239 466.33 411.756 466.934 411.179L466.935 411.177C469.532 408.686 473.545 407.909 476.885 409.247L476.886 409.248C477.368 409.44 477.801 409.657 478.259 409.887C478.512 410.013 478.773 410.144 479.055 410.277C479.773 410.616 480.617 410.961 481.498 410.97L481.507 410.97L481.517 410.97C482.432 410.962 483.365 410.62 484.149 410.333C484.242 410.299 484.333 410.265 484.422 410.233C485.334 409.905 486.168 409.645 487.06 409.668L487.062 409.668C488.464 409.702 489.601 410.36 491.064 411.205C491.205 411.287 491.348 411.369 491.495 411.454L491.496 411.454ZM477.257 408.319C473.552 406.834 469.124 407.692 466.243 410.456L491.992 410.586C491.84 410.499 491.69 410.412 491.539 410.324C490.12 409.5 488.757 408.709 487.086 408.669C485.882 408.637 484.806 409.028 483.813 409.39C482.998 409.687 482.239 409.964 481.508 409.97C480.645 409.961 479.733 409.505 478.76 409.018C478.275 408.776 477.774 408.526 477.257 408.319Z" fill="#1C1A27" stroke="#1C1A27" stroke-width="2"/>
<path d="M471.879 370.845C473.702 359.254 462.305 344.669 453.061 337.443C442.5 329.193 434.272 333.694 433.265 342.385C432.821 346.226 433.817 350.075 435.784 360.134C436.925 365.956 438.343 373.201 442.844 378.455C447.056 383.366 454.621 385.805 460.177 382.764C461.953 387.462 463.723 392.696 465.405 398.512C468.132 407.939 468.74 412.776 470.228 416.7C470.419 417.207 471.199 417.16 471.207 416.566C471.296 410.894 468.399 397.358 462.541 381.718C467.497 380.514 471.135 375.549 471.876 370.843L471.879 370.845ZM461.536 379.087C458.42 371.104 454.554 362.665 449.942 354.515C448.449 351.876 446.987 348.59 444.736 346.514C443.987 345.823 442.636 346.492 442.96 347.549C444.115 351.307 451.466 360.794 458.997 379.725C458.836 379.92 458.728 380.158 458.689 380.416C454.33 382.659 448.227 380.475 444.95 376.654C440.924 371.961 439.639 365.398 438.507 359.607C436.35 348.587 435.643 345.965 436.02 342.71C436.839 335.67 442.983 333.092 451.349 339.635C459.849 346.278 470.772 360.04 469.134 370.418C468.527 374.286 465.541 378.316 461.536 379.087Z" fill="#1C1A27"/>
<path d="M461.536 379.087C458.42 371.104 454.554 362.665 449.942 354.515C448.449 351.876 446.987 348.59 444.736 346.514C443.987 345.823 442.636 346.492 442.96 347.549C444.115 351.307 451.466 360.794 458.997 379.725C458.836 379.92 458.728 380.158 458.689 380.416C454.33 382.659 448.227 380.475 444.95 376.654C440.924 371.961 439.639 365.398 438.507 359.607C436.35 348.587 435.643 345.965 436.02 342.71C436.839 335.67 442.983 333.092 451.349 339.635C459.849 346.278 470.772 360.04 469.134 370.418C468.527 374.286 465.541 378.316 461.536 379.087Z" fill="#028640"/>
<path d="M524.522 272.272C521.744 264.996 516.535 264.327 509.889 268.384C496.597 276.503 485.672 288.048 478.299 301.77C472.443 312.665 471.836 320.884 476.542 325.535C479.525 328.488 482.889 327.986 486.368 329.071C476.784 358.369 473.773 395.304 476.192 415.018C476.262 415.573 477.053 415.603 477.08 415.018C477.769 400.635 476.068 368.12 488.644 329.939C493.228 331.951 497.701 335.256 503.038 335.256C509.282 335.256 513.894 330.894 516.363 325.158C517.612 322.264 518.311 319.192 518.989 316.22C522.399 301.223 529.944 286.494 524.519 272.269L524.522 272.272ZM516.899 312.976C515.32 319.455 513.946 328.862 506.803 331.732C500.687 334.188 496.042 330.059 489.518 327.367C497.604 303.96 507.383 290.77 512.073 282.564C512.503 281.812 511.457 280.947 510.847 281.618C501.192 292.266 492.285 311.932 487.234 326.52C482.902 325.113 480.707 325.749 478.496 323.565C473.77 318.889 477.108 309.848 480.746 303.086C487.889 289.796 498.467 278.616 511.341 270.754C516.516 267.59 519.796 267.665 521.933 273.262C526.856 286.172 519.907 300.691 516.904 312.978L516.899 312.976Z" fill="#1C1A27"/>
<path d="M516.899 312.976C515.32 319.455 513.946 328.862 506.803 331.732C500.687 334.188 496.042 330.059 489.518 327.367C497.604 303.96 507.383 290.77 512.073 282.564C512.503 281.812 511.457 280.947 510.847 281.618C501.192 292.266 492.285 311.932 487.234 326.52C482.902 325.113 480.707 325.749 478.496 323.565C473.77 318.889 477.108 309.848 480.746 303.086C487.889 289.796 498.467 278.616 511.341 270.754C516.516 267.59 519.796 267.665 521.933 273.262C526.856 286.172 519.907 300.691 516.904 312.978L516.899 312.976Z" fill="#028640"/>
<path d="M504.331 355.347C497.205 358.069 488.871 364.077 486.849 372.78C485.8 377.303 487.068 380.181 491.089 382.403C492.004 382.911 492.657 383.1 493.212 383.269C489.102 390.9 482.822 406.277 482.47 414.505C482.433 415.368 483.63 415.429 483.896 414.696C486.69 406.99 486.449 400.679 495.196 384.39C496.897 386.069 497.527 388.317 500.105 389.566C501.365 390.179 502.616 390.484 503.845 390.484C511.404 390.484 515.678 379.442 518.406 372.419C519.413 369.827 520.348 367.027 520.359 364.097C520.384 356.596 514.451 351.479 504.331 355.347ZM515.822 371.417C515.814 371.437 515.806 371.458 515.798 371.478C512.944 378.825 508.404 390.511 501.317 387.074C499.408 386.15 498.859 383.791 496.575 381.909C501.179 373.87 504.781 370.202 508.019 365.159C508.538 364.349 507.406 363.583 506.742 364.174C502.433 368.015 497.377 375.938 494.588 380.805C493.886 380.561 493.206 380.405 492.435 379.978C489.518 378.366 488.791 376.709 489.554 373.412C493.248 357.514 525.363 346.867 515.822 371.42V371.417Z" fill="#1C1A27"/>
<path d="M515.822 371.417L515.798 371.478C512.944 378.825 508.404 390.511 501.317 387.074C499.408 386.15 498.859 383.791 496.575 381.909C501.179 373.87 504.781 370.202 508.019 365.159C508.538 364.349 507.406 363.583 506.742 364.174C502.433 368.015 497.377 375.938 494.588 380.805C493.886 380.561 493.206 380.405 492.435 379.978C489.518 378.366 488.791 376.709 489.554 373.412C493.248 357.514 525.363 346.867 515.822 371.42V371.417Z" fill="#028640"/>
</svg>
