<svg width="20" height="20" viewBox="0 0 20 20" fill="none" xmlns="http://www.w3.org/2000/svg">
<g clip-path="url(#clip0_544_3120)">
<path d="M18.841 6.45578L13.1736 5.63212L10.6401 0.495963C10.5709 0.355338 10.4571 0.241498 10.3165 0.172302C9.9638 -0.00180536 9.53523 0.143284 9.35889 0.495963L6.82541 5.63212L1.158 6.45578C1.00175 6.47811 0.858894 6.55177 0.749519 6.66337C0.61729 6.79928 0.544427 6.98212 0.546938 7.17173C0.549449 7.36133 0.62713 7.54218 0.762912 7.67453L4.86336 11.6723L3.89461 17.3174C3.87189 17.4487 3.88642 17.5838 3.93655 17.7072C3.98669 17.8307 4.07041 17.9377 4.17824 18.016C4.28607 18.0943 4.41369 18.1408 4.54662 18.1503C4.67955 18.1598 4.81247 18.1318 4.93032 18.0696L9.99952 15.4044L15.0687 18.0696C15.2071 18.1433 15.3678 18.1678 15.5218 18.1411C15.9102 18.0741 16.1714 17.7058 16.1044 17.3174L15.1357 11.6723L19.2361 7.67453C19.3477 7.56516 19.4214 7.4223 19.4437 7.26605C19.504 6.87543 19.2317 6.51382 18.841 6.45578ZM13.4102 11.1098L14.216 15.804L9.99952 13.5897L5.783 15.8062L6.5888 11.112L3.17809 7.78614L7.89238 7.10087L9.99952 2.83078L12.1067 7.10087L16.8209 7.78614L13.4102 11.1098Z" fill="#1C1A27"/>
</g>
<defs>
<clipPath id="clip0_544_3120">
<rect width="20" height="20" fill="white" transform="translate(0 0.000976562)"/>
</clipPath>
</defs>
</svg>
