<svg width="102" height="110" viewBox="0 0 102 110" fill="none" xmlns="http://www.w3.org/2000/svg">
<g id="local_convenience_store">
<mask id="mask0_1262_24290" style="mask-type:alpha" maskUnits="userSpaceOnUse" x="0" y="0" width="162" height="162">
<rect id="Bounding box" x="0.496094" y="59.2534" width="117.507" height="117.507" transform="rotate(-30 0.496094 59.2534)" fill="#D9D9D9"/>
</mask>
<g mask="url(#mask0_1262_24290)">
<path id="local_convenience_store_2" d="M78.3259 115.233L89.7744 108.624L88.0607 105.656L79.5804 110.552L76.3979 105.039L84.8782 100.143L78.2685 88.6949L66.8201 95.3046L68.5337 98.2727L77.014 93.3766L80.1965 98.8888L71.7162 103.785L78.3259 115.233ZM108.855 97.6074L111.823 95.8937L100.317 75.965L97.3492 77.6786L102.245 86.1589L96.7331 89.3414L91.837 80.8611L88.8689 82.5747L95.4786 94.0232L103.959 89.127L108.855 97.6074ZM113.344 55.4411L132.928 89.3624C133.989 91.1998 134.265 93.066 133.758 94.961C133.25 96.856 132.077 98.3339 130.24 99.3948L72.1496 132.933C70.3122 133.994 68.446 134.27 66.551 133.763C64.656 133.255 63.1781 132.082 62.1173 130.245L42.4104 96.1117C39.8386 95.9005 37.5445 94.9871 35.5282 93.3716C33.5119 91.756 32.2192 89.5578 31.6501 86.7769L27.9669 71.0948C27.553 69.0723 27.6816 67.2549 28.3525 65.6426C29.0235 64.0303 30.2777 62.6937 32.1151 61.6329L88.2972 29.1961C90.1346 28.1353 91.8988 27.6821 93.5898 27.8365C95.2808 27.9909 96.8986 28.7529 98.4431 30.1226L110.517 41.243C112.641 43.1263 113.919 45.3803 114.35 48.0049C114.782 50.6295 114.446 53.1083 113.344 55.4411ZM86.7769 69.6487C89.745 67.935 91.4944 65.865 92.0251 63.4385C92.5558 61.012 92.246 59.0473 91.0955 57.5443L76.8664 39.7532L63.5098 47.4646L74.1589 65.9093C75.4645 68.1707 77.3639 69.6653 79.8571 70.3931C82.3502 71.1208 84.6568 70.8727 86.7769 69.6487ZM67.6962 80.6649C70.1696 79.2369 71.6968 77.2716 72.2778 74.769C72.8587 72.2663 72.4964 69.8843 71.1908 67.6229L60.5417 49.1782L47.1852 56.8896L55.723 78.532C56.2753 79.815 57.7375 80.8788 60.1097 81.7235C62.4819 82.5682 65.0107 82.2154 67.6962 80.6649ZM48.8275 91.5588C50.8769 90.3756 52.2105 88.6869 52.8282 86.4928C53.446 84.2988 53.3399 82.075 52.5101 79.8216L44.0051 58.7256L33.8287 64.601C32.6273 65.2946 31.8263 66.1104 31.4256 67.0484C31.0249 67.9865 30.9539 69.0875 31.2126 70.3516L34.9854 85.6993C35.6361 88.6215 37.3107 90.7877 40.0094 92.1978C42.708 93.6078 45.6474 93.3948 48.8275 91.5588ZM106.07 58.51C108.755 56.9596 110.344 54.6524 110.836 51.5884C111.329 48.5244 110.355 45.8592 107.916 43.5927L96.1767 32.5619C95.2113 31.7058 94.2427 31.2521 93.2708 31.2008C92.2989 31.1495 91.2122 31.4706 90.0108 32.1642L80.0465 37.9171L94.0636 55.8306C95.6002 57.676 97.473 58.8798 99.682 59.4418C101.891 60.0038 104.02 59.6932 106.07 58.51ZM70.436 129.965L128.526 96.4266C129.516 95.8554 130.145 95.0682 130.413 94.065C130.682 93.0617 130.531 92.0654 129.96 91.0761L111.232 58.6388C110.719 59.2181 110.174 59.7443 109.6 60.2175C109.025 60.6907 108.419 61.1109 107.783 61.4781C105.875 62.5797 103.972 63.1601 102.075 63.2191C100.177 63.2782 98.1029 62.8269 95.8517 61.8653C95.6076 63.8907 94.9381 65.8319 93.8432 67.689C92.7482 69.5462 90.964 71.1887 88.4905 72.6168C86.8651 73.5552 85.0758 74.0465 83.1226 74.0906C81.1693 74.1347 78.9107 73.8133 76.3469 73.1263C75.8013 75.6085 74.8797 77.766 73.5822 79.5987C72.2847 81.4314 70.8939 82.7762 69.4098 83.633C67.7138 84.6123 65.8239 85.2558 63.7402 85.5637C61.6565 85.8715 59.4279 85.4386 57.0542 84.265C56.0984 87.832 54.9683 90.3219 53.6638 91.7346C52.3594 93.1473 51.3185 94.0781 50.5411 94.5269C49.9051 94.8941 49.2385 95.2083 48.5412 95.4695C47.844 95.7307 47.1162 95.9389 46.3578 96.0941L65.0854 128.531C65.6566 129.521 66.4438 130.15 67.4471 130.419C68.4503 130.687 69.4466 130.536 70.436 129.965Z" fill="#CCCCCF"/>
</g>
</g>
</svg>
