<svg width="20" height="20" viewBox="0 0 20 20" fill="none" xmlns="http://www.w3.org/2000/svg">
<g clip-path="url(#clip0_544_1447)">
<path d="M19.5086 8.81081L18.8479 1.83313C18.8144 1.47152 18.5265 1.18581 18.1649 1.15009L11.1872 0.48938H11.1783C11.1069 0.48938 11.0511 0.511701 11.0086 0.554112L0.555512 11.0072C0.534819 11.0279 0.518402 11.0524 0.507201 11.0794C0.496 11.1064 0.490234 11.1354 0.490234 11.1646C0.490234 11.1938 0.496 11.2228 0.507201 11.2498C0.518402 11.2768 0.534819 11.3013 0.555512 11.322L8.67605 19.4425C8.71846 19.4849 8.77426 19.5072 8.83453 19.5072C8.8948 19.5072 8.9506 19.4849 8.99301 19.4425L19.4461 8.98938C19.4908 8.94251 19.5131 8.87777 19.5086 8.81081ZM8.8323 17.2014L2.79658 11.1657L11.7185 2.24384L17.2319 2.76617L17.7542 8.27956L8.8323 17.2014ZM13.7497 4.28402C12.6671 4.28402 11.7854 5.16572 11.7854 6.24831C11.7854 7.3309 12.6671 8.21259 13.7497 8.21259C14.8323 8.21259 15.714 7.3309 15.714 6.24831C15.714 5.16572 14.8323 4.28402 13.7497 4.28402ZM13.7497 6.96259C13.3546 6.96259 13.0354 6.6434 13.0354 6.24831C13.0354 5.85322 13.3546 5.53402 13.7497 5.53402C14.1448 5.53402 14.464 5.85322 14.464 6.24831C14.464 6.6434 14.1448 6.96259 13.7497 6.96259Z" fill="#1C1A27"/>
</g>
<defs>
<clipPath id="clip0_544_1447">
<rect width="20" height="20" fill="white" transform="translate(0 0.000976562)"/>
</clipPath>
</defs>
</svg>
