<svg width="14" height="14" viewBox="0 0 14 14" fill="none" xmlns="http://www.w3.org/2000/svg">
<path d="M12.4141 10.9294C12.1194 10.2312 11.6916 9.59702 11.1547 9.06217C10.6195 8.52578 9.9854 8.09812 9.28754 7.8028C9.28129 7.79967 9.27504 7.79811 9.26879 7.79498C10.2422 7.09186 10.875 5.94655 10.875 4.65436C10.875 2.51373 9.14066 0.779358 7.00004 0.779358C4.85941 0.779358 3.12504 2.51373 3.12504 4.65436C3.12504 5.94655 3.75785 7.09186 4.73129 7.79655C4.72504 7.79967 4.71879 7.80123 4.71254 7.80436C4.01254 8.09967 3.38441 8.52311 2.84535 9.06373C2.30896 9.599 1.8813 10.2331 1.58598 10.9309C1.29585 11.6141 1.13939 12.3466 1.12504 13.0887C1.12462 13.1054 1.12755 13.122 1.13364 13.1375C1.13974 13.1531 1.14888 13.1672 1.16053 13.1792C1.17218 13.1911 1.1861 13.2006 1.20147 13.2071C1.21684 13.2135 1.23336 13.2169 1.25004 13.2169H2.18754C2.25629 13.2169 2.31098 13.1622 2.31254 13.095C2.34379 11.8887 2.82816 10.759 3.68441 9.9028C4.57035 9.01686 5.74691 8.52936 7.00004 8.52936C8.25316 8.52936 9.42973 9.01686 10.3157 9.9028C11.1719 10.759 11.6563 11.8887 11.6875 13.095C11.6891 13.1637 11.7438 13.2169 11.8125 13.2169H12.75C12.7667 13.2169 12.7832 13.2135 12.7986 13.2071C12.814 13.2006 12.8279 13.1911 12.8396 13.1792C12.8512 13.1672 12.8603 13.1531 12.8664 13.1375C12.8725 13.122 12.8755 13.1054 12.875 13.0887C12.8594 12.3419 12.7047 11.6153 12.4141 10.9294ZM7.00004 7.34186C6.28285 7.34186 5.60785 7.06217 5.10004 6.55436C4.59223 6.04655 4.31254 5.37155 4.31254 4.65436C4.31254 3.93717 4.59223 3.26217 5.10004 2.75436C5.60785 2.24655 6.28285 1.96686 7.00004 1.96686C7.71723 1.96686 8.39223 2.24655 8.90004 2.75436C9.40785 3.26217 9.68754 3.93717 9.68754 4.65436C9.68754 5.37155 9.40785 6.04655 8.90004 6.55436C8.39223 7.06217 7.71723 7.34186 7.00004 7.34186Z" fill="#07060A"/>
</svg>
