<svg width="18" height="18" viewBox="0 0 18 18" fill="none" xmlns="http://www.w3.org/2000/svg">
<rect x="0.25" y="0.25" width="17.5" height="17.5" rx="8.75" fill="#E5D7FF"/>
<rect x="0.25" y="0.25" width="17.5" height="17.5" rx="8.75" stroke="#573CFA" stroke-width="0.5"/>
<g clip-path="url(#clip0_3012_29939)">
<rect width="10" height="10" transform="translate(4 4)" fill="white" fill-opacity="0.01"/>
<path d="M13.8019 8.71275C12.7439 6.48396 11.1445 5.3623 9.00055 5.3623C6.85546 5.3623 5.25725 6.48396 4.19921 8.71387C4.15678 8.80373 4.13477 8.90188 4.13477 9.00126C4.13477 9.10064 4.15678 9.19878 4.19921 9.28864C5.25725 11.5174 6.85658 12.6391 9.00055 12.6391C11.1456 12.6391 12.7439 11.5174 13.8019 9.28753C13.8878 9.10672 13.8878 8.8969 13.8019 8.71275ZM9.00055 11.8355C7.20033 11.8355 5.88225 10.9226 4.95256 9.0007C5.88225 7.07882 7.20033 6.16588 9.00055 6.16588C10.8008 6.16588 12.1189 7.07882 13.0485 9.0007C12.12 10.9226 10.8019 11.8355 9.00055 11.8355ZM8.95591 7.03641C7.87109 7.03641 6.99162 7.91588 6.99162 9.0007C6.99162 10.0855 7.87109 10.965 8.95591 10.965C10.0407 10.965 10.9202 10.0855 10.9202 9.0007C10.9202 7.91588 10.0407 7.03641 8.95591 7.03641ZM8.95591 10.2507C8.26506 10.2507 7.70591 9.69155 7.70591 9.0007C7.70591 8.30985 8.26506 7.7507 8.95591 7.7507C9.64676 7.7507 10.2059 8.30985 10.2059 9.0007C10.2059 9.69155 9.64676 10.2507 8.95591 10.2507Z" fill="#573CFA"/>
</g>
<defs>
<clipPath id="clip0_3012_29939">
<rect width="10" height="10" fill="white" transform="translate(4 4)"/>
</clipPath>
</defs>
</svg>
