<svg width="230" height="150" viewBox="0 0 230 150" fill="none" xmlns="http://www.w3.org/2000/svg">
<g id="language">
<mask id="mask0_1_69933" style="mask-type:alpha" maskUnits="userSpaceOnUse" x="0" y="0" width="231" height="231">
<rect id="Bounding box" x="48.6562" width="188" height="188" transform="rotate(15 48.6562 0)" fill="#D9D9D9"/>
</mask>
<g mask="url(#mask0_1_69933)">
<path id="language_2" d="M97.4883 180.954C88.4086 178.521 80.3295 174.498 73.2509 168.885C66.1724 163.271 60.4636 156.707 56.1247 149.191C51.7859 141.676 48.9553 133.45 47.633 124.513C46.3108 115.576 46.8661 106.568 49.299 97.488C51.7319 88.4083 55.7551 80.3292 61.3688 73.2506C66.9824 66.172 73.5468 60.4633 81.062 56.1244C88.5771 51.7855 96.8032 48.955 105.74 47.6327C114.677 46.3105 123.686 46.8658 132.765 49.2987C141.845 51.7316 149.924 55.7548 157.003 61.3685C164.081 66.9821 169.79 73.5465 174.129 81.0617C178.468 88.5768 181.298 96.8029 182.621 105.74C183.943 114.677 183.388 123.685 180.955 132.765C178.522 141.845 174.499 149.924 168.885 157.002C163.271 164.081 156.707 169.79 149.192 174.129C141.677 178.467 133.45 181.298 124.513 182.62C115.576 183.943 106.568 183.387 97.4883 180.954ZM98.8568 175.847C105.271 171.078 110.751 166.261 115.299 161.398C119.846 156.534 124.028 150.761 127.846 144.08L89.6353 133.842C89.7179 142.108 90.4491 149.468 91.829 155.92C93.2089 162.372 95.5515 169.014 98.8568 175.847ZM92.3883 173.506C89.594 168.297 87.4445 161.942 85.9397 154.443C84.4349 146.944 83.8382 139.587 84.1496 132.372L53.1273 124.059C54.8963 135.616 59.2699 145.777 66.248 154.54C73.2261 163.303 81.9395 169.625 92.3883 173.506ZM105.629 177.054C116.619 178.917 127.326 177.799 137.751 173.699C148.175 169.599 157.043 162.987 164.354 153.862L133.331 145.55C129.329 151.911 124.802 157.963 119.749 163.705C114.696 169.447 109.99 173.897 105.629 177.054ZM52.4657 118.205L84.4338 126.771C84.6818 123.323 85.0937 120.021 85.6693 116.864C86.245 113.706 86.9214 110.678 87.6986 107.777C88.4757 104.877 89.4044 101.915 90.4844 98.8934C91.5645 95.8713 92.8591 92.8054 94.3682 89.6956L62.4001 81.1297C60.8077 83.5415 59.32 86.3191 57.9371 89.4628C56.5541 92.6064 55.4402 95.7545 54.5955 98.9072C53.7507 102.06 53.1413 105.343 52.7672 108.757C52.393 112.171 52.2926 115.32 52.4657 118.205ZM89.7303 128.19L130.589 139.138C132.098 136.028 133.376 133.026 134.422 130.13C135.468 127.234 136.414 124.209 137.259 121.057C138.103 117.904 138.797 114.812 139.339 111.781C139.88 108.75 140.275 105.511 140.523 102.063L99.6647 91.1148C98.1556 94.2246 96.8779 97.2275 95.8316 100.123C94.7853 103.019 93.8398 106.044 92.9951 109.196C92.1503 112.349 91.457 115.441 90.9151 118.472C90.3733 121.503 89.9783 124.742 89.7303 128.19ZM135.885 140.557L167.854 149.123C169.446 146.712 170.934 143.934 172.317 140.79C173.7 137.647 174.813 134.499 175.658 131.346C176.503 128.193 177.112 124.91 177.486 121.496C177.861 118.082 177.961 114.933 177.788 112.048L145.82 103.482C145.572 106.93 145.16 110.232 144.584 113.389C144.009 116.547 143.332 119.575 142.555 122.476C141.778 125.376 140.849 128.338 139.769 131.36C138.689 134.382 137.395 137.448 135.885 140.557ZM146.104 97.8814L177.126 106.194C175.299 94.3506 171.02 84.2158 164.289 75.7895C157.559 67.3632 148.768 60.9528 137.916 56.5583C140.541 62.3979 142.569 68.9558 143.998 76.232C145.427 83.5082 146.129 90.7247 146.104 97.8814ZM102.408 86.1731L140.618 96.4115C140.502 88.2707 139.701 80.7913 138.217 73.9733C136.732 67.1554 134.459 60.6329 131.397 54.406C125.631 58.2676 120.401 62.7795 115.707 67.9418C111.012 73.104 106.579 79.1811 102.408 86.1731ZM65.9 76.3908L96.9223 84.7032C100.479 78.4926 104.695 72.5939 109.571 67.0072C114.447 61.4205 119.482 56.7549 124.675 53.0103C112.954 51.3564 102.095 52.5355 92.0994 56.5476C82.1037 60.5598 73.3706 67.1742 65.9 76.3908Z" fill="#CCCCCF"/>
</g>
</g>
</svg>
