<svg width="26" height="26" viewBox="0 0 26 26" fill="none" xmlns="http://www.w3.org/2000/svg">
<g clip-path="url(#clip0_194_3553)">
<path d="M18.8474 15.5436C18.5311 15.3811 16.9554 14.6092 16.6623 14.5048C16.3692 14.3945 16.1545 14.3423 15.9427 14.6673C15.7279 14.9894 15.1186 15.7061 14.9271 15.9238C14.7413 16.1385 14.5527 16.1646 14.2364 16.005C12.3561 15.0648 11.1228 14.3278 9.88375 12.2008C9.55585 11.6349 10.2117 11.6755 10.8239 10.4539C10.9284 10.2392 10.8762 10.0563 10.7949 9.89384C10.7137 9.73134 10.0753 8.15857 9.8083 7.51728C9.55005 6.89339 9.28308 6.98045 9.08866 6.96884C8.90295 6.95723 8.69112 6.95723 8.47639 6.95723C8.26165 6.95723 7.91634 7.03848 7.62326 7.35478C7.33018 7.67688 6.50317 8.45165 6.50317 10.0244C6.50317 11.5972 7.64938 13.1206 7.80607 13.3354C7.96857 13.5501 10.0608 16.7769 13.273 18.1668C15.3043 19.0432 16.0994 19.1186 17.115 18.9677C17.7331 18.8749 19.007 18.1959 19.271 17.4443C19.5351 16.6956 19.5351 16.0543 19.4567 15.9208C19.3784 15.7787 19.1637 15.6974 18.8474 15.5436Z" fill="#9C9BA1"/>
<path d="M24.9903 7.9625C24.3345 6.40424 23.3944 5.00558 22.1959 3.80424C21.0059 2.60986 19.5931 1.66046 18.0377 1.00982C16.4417 0.339509 14.747 0 13.0002 0H12.9421C11.1836 0.00870536 9.4803 0.35692 7.87851 1.04174C6.33638 1.69906 4.93687 2.65013 3.75798 3.84196C2.57115 5.0404 1.63967 6.43326 0.995477 7.98571C0.328066 9.5933 -0.00854073 11.3025 0.000164626 13.0609C0.0100111 15.0761 0.48677 17.0616 1.39302 18.8616V23.2723C1.39302 23.6263 1.53365 23.9659 1.78398 24.2162C2.03431 24.4665 2.37383 24.6071 2.72784 24.6071H7.14146C8.94142 25.5134 10.9269 25.9902 12.9421 26H13.0031C14.7412 26 16.4272 25.6634 18.0145 25.0047C19.562 24.3618 20.9695 23.4235 22.1582 22.2422C23.3566 21.0554 24.2997 19.6683 24.9584 18.1217C25.6432 16.5199 25.9915 14.8165 26.0002 13.058C26.0089 11.2908 25.6665 9.57589 24.9903 7.9625ZM20.6057 20.6723C18.5716 22.6862 15.8729 23.7946 13.0002 23.7946H12.9508C11.2011 23.7859 9.46289 23.3507 7.92784 22.5324L7.68409 22.4018H3.59838V18.3161L3.4678 18.0723C2.6495 16.5373 2.21423 14.7991 2.20552 13.0493C2.19391 10.1562 3.2995 7.44018 5.32784 5.39442C7.35329 3.34866 10.0607 2.21696 12.9537 2.20536H13.0031C14.454 2.20536 15.8613 2.48683 17.1874 3.04397C18.4816 3.58661 19.6424 4.36719 20.6406 5.3654C21.6359 6.36071 22.4194 7.52433 22.962 8.81853C23.5249 10.1592 23.8064 11.581 23.8006 13.0493C23.7832 15.9395 22.6486 18.6469 20.6057 20.6723Z" fill="#9C9BA1"/>
</g>
<defs>
<clipPath id="clip0_194_3553">
<rect width="26" height="26" fill="white"/>
</clipPath>
</defs>
</svg>
